<svg xmlns="http://www.w3.org/2000/svg" viewBox="0 0 436.02 293.71"><defs><style>.cls-1{fill:url(#Безымянный_градиент_3)}.cls-2{fill:none}.cls-3{fill:#ed1c24}.cls-4{fill:#231f20}.cls-5{fill:#fff;opacity:.37}.cls-6{clip-path:url(#clip-path)}.cls-7{mask:url(#mask)}.cls-8{fill:url(#Безымянный_градиент_2)}</style><linearGradient id="Безымянный_градиент_3" x1="46.48" y1="161.9" x2="38.42" y2="190.73" gradientTransform="translate(14.04 -96.06)" gradientUnits="userSpaceOnUse"><stop offset="0"/><stop offset=".17" stop-color="#030303"/><stop offset=".31" stop-color="#0e0e0e"/><stop offset=".45" stop-color="#202020"/><stop offset=".58" stop-color="#393939"/><stop offset=".71" stop-color="#5a5a5a"/><stop offset=".83" stop-color="#818181"/><stop offset=".95" stop-color="#b0b0b0"/><stop offset="1" stop-color="#c4c4c4"/></linearGradient><clipPath id="clip-path"><path class="cls-2" d="M29.12 72.58c-2.23 8 8.22 17.85 23.34 22.08s29.18 1.21 31.41-6.75-8.22-17.84-23.34-22.08-29.18-1.21-31.41 6.75"/></clipPath><mask id="mask" x="26.89" y="61.6" width="59.21" height="37.3" maskUnits="userSpaceOnUse"><path class="cls-1" d="M28.82 63.92h55.35v32.66H28.82z"/></mask><linearGradient id="Безымянный_градиент_2" x1="60.53" y1="65.84" x2="52.45" y2="94.67" gradientUnits="userSpaceOnUse"><stop offset="0" stop-color="#fff"/><stop offset="1" stop-color="#fff"/></linearGradient></defs><title>It consult1500</title><g id="Слой_2" data-name="Слой 2"><g id="Слой_1-2" data-name="Слой 1"><path class="cls-3" d="M114.79 50a50 50 0 1 1-50-50 50 50 0 0 1 50 50"/><path class="cls-4" d="M396.81 293.1h3.62v-24.24h14.11v-3.06h-17.73zM30.93 265.8h-4.7l-13.84 13.62V265.8H8.76v27.3h3.63v-9.56l4.55-4.25 9.87 13.8h4.58l-12-16.29zm41.21 3.71a12.05 12.05 0 0 0-4.14-3.17 14.32 14.32 0 0 0-11.39 0 12 12 0 0 0-4.09 3.18 13.46 13.46 0 0 0-2.46 4.57 17.92 17.92 0 0 0 0 10.76 13.45 13.45 0 0 0 2.46 4.55 11.9 11.9 0 0 0 4.09 3.16 14.52 14.52 0 0 0 11.39 0 11.94 11.94 0 0 0 4.09-3.16 13.34 13.34 0 0 0 2.47-4.55 18 18 0 0 0 0-10.76 13.35 13.35 0 0 0-2.42-4.58zm-.88 14a11.05 11.05 0 0 1-1.68 3.62 8.61 8.61 0 0 1-2.94 2.58 10 10 0 0 1-8.57 0 8.7 8.7 0 0 1-2.95-2.58 11.17 11.17 0 0 1-1.68-3.62 15.67 15.67 0 0 1 0-8.14 11.09 11.09 0 0 1 1.68-3.61 8.59 8.59 0 0 1 2.95-2.58 9.86 9.86 0 0 1 8.57 0 8.5 8.5 0 0 1 2.94 2.58 11 11 0 0 1 1.68 3.61 15.67 15.67 0 0 1 0 8.14zm43.16-6H100V265.8h-3.58v27.3H100v-12.5h14.37v12.5H118v-27.3h-3.63zm44.91 8.49a7.61 7.61 0 0 1-1.58 2.5 7.14 7.14 0 0 1-2.43 1.64 8.13 8.13 0 0 1-3.17.59 8.9 8.9 0 0 1-4.2-.92 8.18 8.18 0 0 1-2.89-2.46 10.51 10.51 0 0 1-1.66-3.63 17.21 17.21 0 0 1-.54-4.42 15.32 15.32 0 0 1 .54-4.12 10.47 10.47 0 0 1 1.66-3.54 8.24 8.24 0 0 1 2.87-2.47 8.81 8.81 0 0 1 4.18-.92 8.44 8.44 0 0 1 4.95 1.46 6.78 6.78 0 0 1 2.7 4.36h3.62a10.08 10.08 0 0 0-1.29-3.84 9.52 9.52 0 0 0-2.49-2.76 10.84 10.84 0 0 0-3.4-1.69 14.06 14.06 0 0 0-4-.57 13 13 0 0 0-5.58 1.13 11.66 11.66 0 0 0-4 3.08 13.64 13.64 0 0 0-2.46 4.57 18.13 18.13 0 0 0-.84 5.6 19 19 0 0 0 .78 5.58 12.89 12.89 0 0 0 2.35 4.52 10.88 10.88 0 0 0 3.93 3 13.13 13.13 0 0 0 5.54 1.09q5.28 0 8.28-2.85a12.42 12.42 0 0 0 3.54-8H160a10.05 10.05 0 0 1-.67 3.07zm32.81-20.15l-10.63 27.25h3.7l3.06-8.22h11.55l3 8.22h4l-10.67-27.3zm-2.72 16l4.58-12.76h.07l4.55 12.73zm40.23-6.54c-.12 2.58-.26 4.72-.44 6.43s-.38 3.08-.61 4.18a10.49 10.49 0 0 1-.84 2.64 3 3 0 0 1-1.17 1.35 3.1 3.1 0 0 1-1.59.38 9.49 9.49 0 0 1-2.33-.23v3.06a9.73 9.73 0 0 0 1.47.27 13.72 13.72 0 0 0 1.52.11 5.27 5.27 0 0 0 2.85-.75 6 6 0 0 0 2-2.19 12.93 12.93 0 0 0 1.36-3.56 36.07 36.07 0 0 0 .83-4.86c.15-1.52.28-3.37.38-5.52s.15-4.73.15-7.74h10.06v24.22h3.62v-27.3h-17.08q0 5.63-.17 9.48zm36.91-6.42h9.1v24.21h3.62v-24.24h9.1v-3.06h-21.82zm45 20.07V265.8H308v27.3h4.55l13.76-23.2v23.2h3.63v-27.3h-4.59zm58.83-11.39h-14.33V265.8h-3.64v27.3h3.64v-12.5h14.37v12.5h3.63v-27.3h-3.63zM300.8 46v181.25h-70v23.67h183.73v-23.67h-70V46a125.91 125.91 0 0 1 63.6 31.69H436a146 146 0 0 0-226.68 0h27.88A125.82 125.82 0 0 1 300.8 46"/><path class="cls-4" d="M138.64 139.79a146.8 146.8 0 0 0 94.86-56.65h-26.81a125.62 125.62 0 0 1-89.94 37.94 125.65 125.65 0 0 1-90-37.94H0a146.78 146.78 0 0 0 94.86 56.64v87.47H8.76v23.67h216v-23.67h-86.1z"/><path class="cls-5" d="M37.75 20.39C34 33.74 44.92 48.48 62.13 53.3s34.19-2.1 37.93-15.46S92.89 9.75 75.68 4.93 41.49 7 37.75 20.39"/><g class="cls-6"><g class="cls-7"><path class="cls-8" d="M26.89 61.6H86.1v37.3H26.89z"/></g></g></g></g></svg>