<svg xmlns="http://www.w3.org/2000/svg" viewBox="0 0 1062.9875 708.66248" height="708.662" width="1062.987"><defs><clipPath id="e"><path d="M0 566.93h850.39V0H0v566.93z"/></clipPath><clipPath id="f"><path d="M244.196 440.421h63.786V388.99h-63.786v51.431z"/></clipPath><clipPath id="g"><path d="M236.301 371.236c-2.23-7.963 8.219-17.849 23.338-22.084 15.119-4.233 29.183-1.212 31.413 6.749 2.23 7.963-8.219 17.849-23.338 22.083-4.638 1.299-9.179 1.915-13.307 1.915-9.33.001-16.56-3.144-18.106-8.663"/></clipPath><clipPath id="a"><path d="M234.071 382.219h59.211v-37.301h-59.211v37.301z"/></clipPath><clipPath id="b"><path d="M234.071 382.218h59.211v-37.3h-59.211v37.3z"/></clipPath><clipPath id="c"><path d="M236.001 347.237h55.351V379.9h-55.351v-32.663z"/></clipPath><linearGradient id="d" gradientTransform="scale(-29.93914 29.93914) rotate(-74.373 3.85 12.205)" gradientUnits="userSpaceOnUse" x2="1"><stop offset="0" stop-color="#231f20"/><stop offset=".556" stop-color="#231f20"/><stop offset="1" stop-color="#cccbcb"/></linearGradient><mask id="i" height="1" width="1" y="0" x="0" maskUnits="userSpaceOnUse"><g clip-path="url(#a)"><path d="M234.071 382.218h59.21v-37.3h-59.21v37.3z"/><g clip-path="url(#b)"><g clip-path="url(#c)"><path d="M236.001 347.237h55.351V379.9h-55.351v-32.663z" fill="url(#d)"/></g></g></g></mask><clipPath id="h"><path d="M234.071 382.219h59.211v-37.301h-59.211v37.301z"/></clipPath><linearGradient id="j" gradientTransform="scale(-29.94468 29.94468) rotate(-74.335 3.854 12.208)" gradientUnits="userSpaceOnUse" x2="1"><stop offset="0" stop-color="#fff"/><stop offset="1" stop-color="#fff"/></linearGradient></defs><g clip-path="url(#e)" transform="matrix(1.25 0 0 -1.25 0 708.663)"><path d="M321.979 393.83c0-27.606-22.382-49.99-49.99-49.99-27.606 0-49.985 22.384-49.985 49.99 0 27.608 22.379 49.988 49.985 49.988 27.608 0 49.99-22.38 49.99-49.988" fill="#ed1c24"/><path d="M577.617 166.28h-14.37v11.736h-3.637v-27.293h3.636v12.493h14.371v-12.493h3.628v27.293h-3.628V166.28zm-58.834-11.391v23.127h-3.628v-27.293h4.547l13.76 23.2v-23.2h3.633v27.293h-4.587l-13.725-23.127zm-45.037 20.068h9.103v-24.234h3.623v24.234h9.104v3.059h-21.83v-3.06zm-36.906-6.417c-.118-2.582-.257-4.725-.44-6.426-.179-1.682-.38-3.078-.613-4.185-.226-1.113-.506-1.993-.839-2.641-.328-.651-.713-1.103-1.168-1.354-.453-.262-.978-.384-1.59-.384-.943 0-1.714.074-2.324.232v-3.06a9.815 9.815 0 0 1 1.47-.27c.622-.071 1.13-.11 1.515-.11 1.09 0 2.042.247 2.845.747.801.49 1.486 1.224 2.037 2.192.57.966 1.024 2.152 1.36 3.559.354 1.396.622 3.022.825 4.859.152 1.517.28 3.365.38 5.519.103 2.153.152 4.735.152 7.739h10.058v-24.234h3.623v27.293h-17.12c0-3.751-.055-6.906-.17-9.476m-40.234-6.535l4.626 12.726h.073l4.552-12.726h-9.25zm2.718 16.01l-10.628-27.292h3.701l3.058 8.216h11.553l2.98-8.216h4.013l-10.664 27.293h-4.013zm-32.808-20.147a7.608 7.608 0 0 0-1.579-2.502c-.673-.703-1.487-1.247-2.435-1.645-.936-.392-1.994-.587-3.168-.587-1.634 0-3.035.304-4.198.918a8.183 8.183 0 0 0-2.894 2.459c-.752 1.039-1.303 2.238-1.658 3.634-.368 1.389-.538 2.863-.538 4.416 0 1.427.17 2.803.538 4.124.355 1.334.906 2.51 1.658 3.538a8.221 8.221 0 0 0 2.871 2.47c1.148.613 2.55.918 4.184.918 1.91 0 3.56-.487 4.95-1.456 1.388-.966 2.282-2.422 2.697-4.356h3.623c-.195 1.45-.63 2.729-1.29 3.843a9.503 9.503 0 0 1-2.49 2.765c-.994.74-2.13 1.31-3.404 1.689-1.27.38-2.618.569-4.049.569-2.117 0-3.978-.373-5.58-1.126-1.604-.753-2.95-1.78-4.039-3.078-1.076-1.297-1.897-2.826-2.46-4.57-.562-1.744-.843-3.61-.843-5.598 0-1.99.256-3.848.784-5.58.524-1.74 1.308-3.243 2.354-4.516 1.046-1.271 2.355-2.275 3.934-2.998 1.58-.728 3.426-1.088 5.543-1.088 3.518 0 6.277.955 8.28 2.85 2 1.897 3.175 4.577 3.536 8.04h-3.636a10.072 10.072 0 0 0-.69-3.133m-44.916 8.413H307.23v11.735h-3.629v-27.293h3.63v12.493h14.371v-12.493h3.63v27.293h-3.63V166.28zm-43.159-5.983c-.36-1.341-.91-2.54-1.682-3.617a8.631 8.631 0 0 0-2.937-2.582c-1.199-.648-2.632-.965-4.282-.965-1.666 0-3.085.317-4.284.965a8.722 8.722 0 0 0-2.95 2.582 11.201 11.201 0 0 0-1.676 3.617 15.577 15.577 0 0 0-.538 4.069c0 1.383.177 2.739.538 4.073a11.111 11.111 0 0 0 1.676 3.61 8.595 8.595 0 0 0 2.95 2.583c1.2.649 2.618.978 4.284.978 1.65 0 3.083-.33 4.282-.978 1.193-.648 2.177-1.506 2.937-2.582.771-1.066 1.322-2.275 1.682-3.611.361-1.334.538-2.69.538-4.073 0-1.372-.177-2.73-.538-4.07m.881 14.01c-1.096 1.329-2.46 2.38-4.094 3.176-1.627.784-3.524 1.182-5.688 1.182-2.167 0-4.069-.398-5.702-1.182-1.629-.795-3-1.847-4.089-3.175-1.1-1.327-1.915-2.844-2.465-4.57a17.516 17.516 0 0 1-.826-5.371c0-1.885.275-3.684.826-5.386.55-1.712 1.364-3.23 2.465-4.552 1.09-1.321 2.46-2.372 4.09-3.155 1.632-.778 3.534-1.163 5.701-1.163 2.164 0 4.061.385 5.688 1.163 1.634.783 2.998 1.834 4.094 3.155a13.331 13.331 0 0 1 2.465 4.552c.551 1.702.821 3.5.821 5.386 0 1.858-.27 3.652-.82 5.372a13.336 13.336 0 0 1-2.466 4.569m-41.208 3.708h-4.704l-13.84-13.612v13.612h-3.629v-27.293h3.63v9.557l4.55 4.246 9.87-13.803h4.576l-11.966 16.287 11.513 11.006zm365.878-27.293h3.623v24.234h14.108v3.059h-17.73v-27.293zm-96.011 247.136V216.566H438.02v-23.672h183.693v23.672h-69.96v181.293c24.257-4.286 46.161-15.556 63.597-31.686h27.856c-26.959 32.925-67.758 53.94-113.34 53.94-45.585 0-86.384-21.015-113.337-53.94h27.854c17.42 16.13 39.335 27.4 63.601 31.686" fill="#231f20"/><path d="M345.821 304.033c38.53 5.824 72.197 26.778 94.862 56.642h-26.806c-22.946-23.41-54.79-37.94-89.942-37.94-35.15 0-67.009 14.53-89.954 37.94h-26.797c22.655-29.864 56.334-50.818 94.865-56.642v-87.467h-86.104v-23.672h215.978v23.672h-86.102v87.467z" fill="#231f20"/><g clip-path="url(#f)" opacity=".37"><path d="M244.93 423.432c-3.74-13.355 7.178-28.09 24.386-32.91 17.21-4.818 34.191 2.102 37.932 15.457 3.74 13.355-7.178 28.089-24.387 32.909-17.208 4.819-34.19-2.101-37.93-15.456" fill="#fff"/></g></g><g clip-path="url(#g)" transform="matrix(1.25 0 0 -1.25 0 708.663)"><g clip-path="url(#h)" mask="url(#i)"><path d="M234.071 344.918h59.21v37.3h-59.21v-37.3z" fill="url(#j)"/></g></g></svg>