<?xml version="1.0" encoding="utf-8"?>
<!-- Generator: Adobe Illustrator 17.0.0, SVG Export Plug-In . SVG Version: 6.00 Build 0)  -->
<!DOCTYPE svg PUBLIC "-//W3C//DTD SVG 1.1//EN" "http://www.w3.org/Graphics/SVG/1.1/DTD/svg11.dtd">
<svg version="1.1" id="Layer_1" xmlns="http://www.w3.org/2000/svg" xmlns:xlink="http://www.w3.org/1999/xlink" x="0px" y="0px"
	 width="50px" height="50px" viewBox="0 0 50 50" enable-background="new 0 0 50 50" xml:space="preserve">
<path d="M48,25c0,12.683-10.317,23-23,23C12.318,48,2,37.683,2,25c0-3.663,0.883-7.308,2.552-10.54l1.777,0.918
	C4.784,18.37,4,21.607,4,25c0,11.579,9.42,21,21,21c11.579,0,21-9.421,21-21c0-11.58-9.421-21-21-21c-5.522,0-10.775,2.17-14.687,6
	H16c0.552,0,1,0.448,1,1s-0.448,1-1,1H7V3c0-0.552,0.448-1,1-1s1,0.448,1,1v5.486C13.275,4.344,18.993,2,25,2
	C37.683,2,48,12.318,48,25z M25,5c-0.552,0-1,0.448-1,1s0.448,1,1,1s1-0.448,1-1S25.552,5,25,5z M25,45c0.552,0,1-0.448,1-1
	s-0.448-1-1-1s-1,0.448-1,1S24.448,45,25,45z M45,25c0-0.552-0.448-1-1-1s-1,0.448-1,1s0.448,1,1,1S45,25.552,45,25z M5,25
	c0,0.552,0.448,1,1,1s1-0.448,1-1s-0.448-1-1-1S5,24.448,5,25z M41.454,16.5c0.552,0,1-0.448,1-1s-0.448-1-1-1c-0.552,0-1,0.448-1,1
	S40.902,16.5,41.454,16.5z M9.546,34.5c0-0.552-0.448-1-1-1c-0.552,0-1,0.448-1,1s0.448,1,1,1C9.098,35.5,9.546,35.052,9.546,34.5z
	 M35.5,8.546c0-0.552-0.448-1-1-1s-1,0.448-1,1c0,0.552,0.448,1,1,1S35.5,9.098,35.5,8.546z M14.5,41.454c0,0.552,0.448,1,1,1
	s1-0.448,1-1c0-0.552-0.448-1-1-1S14.5,40.902,14.5,41.454z M33.5,41.454c0,0.552,0.448,1,1,1s1-0.448,1-1c0-0.552-0.448-1-1-1
	S33.5,40.902,33.5,41.454z M41.454,35.5c0.552,0,1-0.448,1-1s-0.448-1-1-1c-0.552,0-1,0.448-1,1S40.902,35.5,41.454,35.5z
	 M19.926,26.037c2.363-2.392,3.086-3.613,3.086-5.107c0-2.324-1.972-4.023-4.648-4.023c-2.773,0-4.736,1.816-4.737,4.414v0.029h2.07
	v-0.029c0-1.504,1.045-2.52,2.598-2.52c1.455,0,2.559,0.967,2.559,2.256c0,1.035-0.459,1.777-2.344,3.74l-4.766,4.961v1.582h9.492
	v-1.963h-6.445v-0.166L19.926,26.037z M31.587,17.249h3.115v9.414h1.943v1.953h-1.943v2.725h-2.109v-2.725h-6.875v-2.031
	C26.978,24.28,29.077,21.009,31.587,17.249z M32.495,19.172c-1.396,2.021-3.018,4.521-4.678,7.402v0.137h4.805v-7.539H32.495z"/>
</svg>
