<?xml version="1.0" encoding="UTF-8"?>
<svg xmlns="http://www.w3.org/2000/svg" xmlns:xlink="http://www.w3.org/1999/xlink" viewBox="0 0 50 50" version="1.1" width="100px" height="100px">
<g id="surface1">
<path style=" " d="M 14 0 C 6.28125 0 0 6.28125 0 14 C 0 21.71875 6.28125 28 14 28 C 21.71875 28 28 21.71875 28 14 C 28 6.28125 21.71875 0 14 0 Z M 14 2 C 20.640625 2 26 7.359375 26 14 C 26 20.640625 20.640625 26 14 26 C 7.359375 26 2 20.640625 2 14 C 2 7.359375 7.359375 2 14 2 Z M 13.90625 4.96875 C 13.863281 4.976563 13.820313 4.988281 13.78125 5 C 13.316406 5.105469 12.988281 5.523438 13 6 L 13 13.75 C 12.949219 13.945313 12.960938 14.152344 13.03125 14.34375 C 13.042969 14.355469 13.050781 14.363281 13.0625 14.375 C 13.070313 14.394531 13.082031 14.417969 13.09375 14.4375 C 13.105469 14.449219 13.113281 14.457031 13.125 14.46875 C 13.125 14.488281 13.125 14.511719 13.125 14.53125 C 13.136719 14.542969 13.144531 14.550781 13.15625 14.5625 C 13.167969 14.574219 13.175781 14.582031 13.1875 14.59375 C 13.195313 14.613281 13.207031 14.636719 13.21875 14.65625 C 13.230469 14.667969 13.238281 14.675781 13.25 14.6875 C 13.261719 14.699219 13.269531 14.707031 13.28125 14.71875 C 13.292969 14.730469 13.300781 14.738281 13.3125 14.75 C 13.332031 14.761719 13.355469 14.773438 13.375 14.78125 C 13.386719 14.792969 13.394531 14.800781 13.40625 14.8125 C 13.445313 14.847656 13.488281 14.878906 13.53125 14.90625 L 17.40625 17.8125 C 17.855469 18.140625 18.484375 18.042969 18.8125 17.59375 C 19.140625 17.144531 19.042969 16.515625 18.59375 16.1875 L 15 13.5 L 15 6 C 15.011719 5.710938 14.894531 5.433594 14.6875 5.238281 C 14.476563 5.039063 14.191406 4.941406 13.90625 4.96875 Z M 29.71875 16 C 29.167969 16.078125 28.78125 16.589844 28.859375 17.140625 C 28.9375 17.691406 29.449219 18.078125 30 18 L 46 18 L 46 43 L 27.90625 43 L 29 41 L 27.90625 39 L 17 39 L 17 43 L 11 43 L 11 30 C 11.011719 29.710938 10.894531 29.433594 10.6875 29.238281 C 10.476563 29.039063 10.191406 28.941406 9.90625 28.96875 C 9.863281 28.976563 9.820313 28.988281 9.78125 29 C 9.316406 29.105469 8.988281 29.523438 9 30 L 9 43 L 8 43 C 7.96875 43 7.9375 43 7.90625 43 C 7.390625 43.046875 6.996094 43.480469 7 44 L 7 49 C 7 49.550781 7.449219 50 8 50 L 49 50 C 49.550781 50 50 49.550781 50 49 L 50 44 C 50 43.449219 49.550781 43 49 43 L 48 43 L 48 17 C 48 16.449219 47.550781 16 47 16 L 30 16 C 29.96875 16 29.9375 16 29.90625 16 C 29.875 16 29.84375 16 29.8125 16 C 29.78125 16 29.75 16 29.71875 16 Z M 9 45 L 48 45 L 48 48 L 9 48 Z "/>
</g>
</svg>
