<?xml version="1.0" encoding="utf-8"?>
<!-- Generator: Adobe Illustrator 17.0.0, SVG Export Plug-In . SVG Version: 6.00 Build 0)  -->
<!DOCTYPE svg PUBLIC "-//W3C//DTD SVG 1.1//EN" "http://www.w3.org/Graphics/SVG/1.1/DTD/svg11.dtd">
<svg version="1.1" id="Layer_1" xmlns="http://www.w3.org/2000/svg" xmlns:xlink="http://www.w3.org/1999/xlink" x="0px" y="0px"
	 width="100px" height="100px" viewBox="0 0 100 100" enable-background="new 0 0 100 100" xml:space="preserve">
<path d="M34.813,35.625l-7.75-5.813c-0.086-0.055-0.172-0.117-0.25-0.188c-0.023-0.023-0.039-0.039-0.063-0.063
	c-0.039-0.016-0.086-0.039-0.125-0.063c-0.023-0.023-0.039-0.039-0.063-0.063s-0.039-0.039-0.063-0.063s-0.039-0.039-0.063-0.063
	c-0.023-0.039-0.047-0.086-0.063-0.125c-0.023-0.023-0.039-0.039-0.063-0.063s-0.039-0.039-0.063-0.063c0-0.039,0-0.086,0-0.125
	c-0.023-0.023-0.039-0.039-0.063-0.063c-0.023-0.039-0.047-0.086-0.063-0.125c-0.023-0.023-0.039-0.039-0.063-0.063
	C25.922,28.305,25.898,27.891,26,27.5V12c-0.023-0.953,0.633-1.789,1.563-2c0.078-0.023,0.164-0.047,0.25-0.063
	c0.57-0.055,1.141,0.141,1.563,0.539C29.789,10.867,30.023,11.422,30,12v15l7.188,5.375c0.898,0.656,1.094,1.914,0.438,2.813
	S35.711,36.281,34.813,35.625z M28,56C12.563,56,0,43.438,0,28S12.563,0,28,0s28,12.563,28,28S43.438,56,28,56z M28,52
	c13.281,0,24-10.719,24-24S41.281,4,28,4S4,14.719,4,28S14.719,52,28,52z M100,88v10c0,1.102-0.898,2-2,2H16c-1.102,0-2-0.898-2-2
	V88c-0.008-1.039,0.781-1.906,1.813-2c0.063,0,0.125,0,0.188,0h2V60c-0.023-0.953,0.633-1.789,1.563-2
	c0.078-0.023,0.164-0.047,0.25-0.063c0.57-0.055,1.141,0.141,1.563,0.539C21.789,58.867,22.023,59.422,22,60v26h12v-8h21.813L58,82
	l-2.188,4H92V36H60c-1.102,0.156-2.125-0.617-2.281-1.719s0.617-2.125,1.719-2.281c0.063,0,0.125,0,0.188,0s0.125,0,0.188,0
	s0.125,0,0.188,0h34c1.102,0,2,0.898,2,2v52h2C99.102,86,100,86.898,100,88z M96,90H18v6h78V90z"/>
</svg>
