<?xml version="1.0" encoding="utf-8"?>
<!-- Generator: Adobe Illustrator 17.0.0, SVG Export Plug-In . SVG Version: 6.00 Build 0)  -->
<!DOCTYPE svg PUBLIC "-//W3C//DTD SVG 1.1//EN" "http://www.w3.org/Graphics/SVG/1.1/DTD/svg11.dtd">
<svg version="1.1" id="Layer_1" xmlns="http://www.w3.org/2000/svg" xmlns:xlink="http://www.w3.org/1999/xlink" x="0px" y="0px"
	 width="100px" height="100px" viewBox="0 0 100 100" enable-background="new 0 0 100 100" xml:space="preserve">
<path d="M39.375,20.477C39.789,20.867,40.023,21.422,40,22c0,1.664-0.664,4.031-2.813,6.188S31.398,32,26,32
	c-0.719,0.008-1.391-0.367-1.758-0.992c-0.359-0.625-0.359-1.391,0-2.016c0.367-0.625,1.039-1,1.758-0.992
	c4.602,0,6.969-1.344,8.313-2.688S36,22.336,36,22c-0.023-0.953,0.633-1.789,1.563-2c0.078-0.023,0.164-0.047,0.25-0.063
	C38.383,19.883,38.953,20.078,39.375,20.477z M22.313,60c-0.211-0.031-0.414-0.031-0.625,0c-0.063,0-0.125,0-0.188,0
	c-1.102,0.031-1.969,0.961-1.938,2.063s0.961,1.969,2.063,1.938c5.375,0.891,7.688,3.758,9,6.813S32,77,32,78
	c-0.008,0.719,0.367,1.391,0.992,1.758c0.625,0.359,1.391,0.359,2.016,0c0.625-0.367,1-1.039,0.992-1.758
	c0-0.992,0-4.867-1.688-8.813S28.961,61.109,22.313,60z M83.758,39.008c0.359-0.625,0.359-1.391,0-2.016
	c-0.367-0.625-1.039-1-1.758-0.992c-5.555,0-8.938-1.813-11.063-3.938S68,27.336,68,26c0.023-0.578-0.211-1.133-0.625-1.523
	c-0.422-0.398-0.992-0.594-1.563-0.539c-0.086,0.016-0.172,0.039-0.25,0.063c-0.93,0.211-1.586,1.047-1.563,2
	c0,2.664,1.188,6.063,4.063,8.938S75.555,40,82,40C82.719,40.008,83.391,39.633,83.758,39.008z M92.188,49.875
	c2.758,3.398,4.352,7.828,3.563,12.25C94.969,66.531,91.813,70.594,86.5,73c0.977,2.422,1.555,4.688,1.438,6.688
	c-0.148,2.531-1.195,4.688-2.813,6.25c-2.953,2.844-7.391,3.781-11.875,3.938c-1.383,3.695-3.852,6.375-6.625,7.875
	c-3.148,1.703-6.391,2.266-8.625,2.25c-3.281-0.023-6.18-1.578-8-4c-1.82,2.43-4.711,4-8,4c-2.008,0-5.25,0.039-8.438-1.125
	c-2.82-1.031-5.414-3.461-6.813-7.125c-4.734-0.328-9.273-2.25-12.063-5.75c-2.688-3.367-3.375-8.156-1.25-13.063
	c-5.25-2.422-8.281-6.5-9-10.875c-0.734-4.43,0.773-8.797,3.375-12.188C3.219,39.773,3.094,30.797,6,24.125
	c2.828-6.5,8.422-10.656,14.625-11.813C22.891,6.555,29.977,0,42,0c2.969,0,5.766,0.766,7.563,3.063
	C49.727,3.273,49.859,3.523,50,3.75c0.141-0.227,0.273-0.477,0.438-0.688C52.234,0.766,55.031,0,58,0
	c12.023,0,19.109,6.555,21.375,12.313C85.578,13.469,91.172,17.625,94,24.125C96.906,30.797,96.781,39.773,92.188,49.875z
	 M48,13.313c0-4.32-0.695-6.711-1.563-7.813S44.406,4,42,4c-11.219,0-17.047,6.797-18.125,10.563l-0.313,1.25L22.188,16
	c-5.227,0.633-10.031,4.07-12.5,9.75c-2.25,5.164-2.555,12.258,0.938,20.813C12.961,44.602,17.008,42,22,42
	c8.492,0,13.375,4.563,13.375,4.563c0.602,0.469,0.891,1.242,0.734,1.992c-0.156,0.742-0.727,1.344-1.469,1.531
	c-0.734,0.188-1.523-0.063-2.016-0.648c0,0-3.5-3.438-10.625-3.438c-5.641,0-10.5,5.313-10.5,5.313l-0.063,0.063
	c-0.039,0.047-0.078,0.086-0.125,0.125c-2.266,2.539-3.516,6.422-2.938,9.938c0.594,3.578,2.828,6.883,8.25,8.688L19,70.875
	L17.688,73c-2.656,4.43-2.016,7.82,0.125,10.5S23.945,88,28,88h1.563l0.375,1.5c0.836,3.359,2.688,4.781,5,5.625S40.008,96,42,96
	c3.578,0,6-2.352,6-6V13.313z M70.242,56.992c0.367-0.625,1.039-1,1.758-0.992c7.586,0,11.594-2.297,13.813-4.438s2.625-4,2.625-4
	c0.125-0.633,0.539-1.164,1.125-1.438c3.305-8.367,2.961-15.297,0.75-20.375c-2.469-5.68-7.273-9.117-12.5-9.75l-1.375-0.188
	l-0.313-1.25C75.047,10.797,69.219,4,58,4c-2.406,0-3.57,0.398-4.438,1.5S52,8.992,52,13.313V90c0,3.648,2.406,5.977,6,6
	c1.469,0.008,4.258-0.438,6.688-1.75c2.008-1.086,3.781-2.695,4.813-5.125c-2.477-1.063-4.664-2.508-6.313-4.625
	C61.133,81.859,60,78.336,60,74c-0.023-0.953,0.633-1.789,1.563-2c0.602-0.133,1.234,0.016,1.703,0.406
	C63.742,72.797,64.016,73.383,64,74c0,3.664,0.867,6.141,2.313,8c1.383,1.773,3.375,3.086,5.938,4
	c4.242-0.039,8.148-1.094,10.063-2.938c0.977-0.938,1.531-2.031,1.625-3.625s-0.359-3.773-1.75-6.563l-1-2.063l2.188-0.688
	c5.43-1.813,7.805-5.188,8.438-8.75c0.516-2.898-0.281-5.969-1.938-8.375c-0.383,0.484-0.805,0.953-1.313,1.438
	C85.602,57.297,80.414,60,72,60c-0.719,0.008-1.391-0.367-1.758-0.992C69.883,58.383,69.883,57.617,70.242,56.992z"/>
</svg>
