<?xml version="1.0" encoding="utf-8"?>
<!-- Generator: Adobe Illustrator 17.0.0, SVG Export Plug-In . SVG Version: 6.00 Build 0)  -->
<!DOCTYPE svg PUBLIC "-//W3C//DTD SVG 1.1//EN" "http://www.w3.org/Graphics/SVG/1.1/DTD/svg11.dtd">
<svg version="1.1" id="Layer_1" xmlns="http://www.w3.org/2000/svg" xmlns:xlink="http://www.w3.org/1999/xlink" x="0px" y="0px"
	 width="50px" height="50px" viewBox="0 0 50 50" enable-background="new 0 0 50 50" xml:space="preserve">
<path d="M15,25H8c-0.552,0-1,0.448-1,1v5c0,0.552,0.448,1,1,1h7c0.552,0,1-0.448,1-1v-5C16,25.448,15.552,25,15,25z M14,30H9v-3h5
	V30z M15,34H8c-0.552,0-1,0.448-1,1v5c0,0.552,0.448,1,1,1h7c0.552,0,1-0.448,1-1v-5C16,34.448,15.552,34,15,34z M14,39H9v-3h5V39z
	 M35,41h7c0.552,0,1-0.448,1-1v-5c0-0.552-0.448-1-1-1h-7c-0.552,0-1,0.448-1,1v5C34,40.552,34.448,41,35,41z M36,36h5v3h-5V36z
	 M20,17v5c0,0.552,0.448,1,1,1h8c0.552,0,1-0.448,1-1v-5c0-0.552-0.448-1-1-1h-8C20.448,16,20,16.448,20,17z M22,18h6v3h-6V18z
	 M15,16H8c-0.552,0-1,0.448-1,1v5c0,0.552,0.448,1,1,1h7c0.552,0,1-0.448,1-1v-5C16,16.448,15.552,16,15,16z M14,21H9v-3h5V21z
	 M35,32h7c0.552,0,1-0.448,1-1v-5c0-0.552-0.448-1-1-1h-7c-0.552,0-1,0.448-1,1v5C34,31.552,34.448,32,35,32z M36,27h5v3h-5V27z
	 M46.465,13.113l-21-11C25.316,2.036,25.15,1.997,24.982,2c-0.156,0.002-0.309,0.041-0.447,0.113l-21,11C3.206,13.286,3,13.628,3,14
	v31c0,0.552,0.448,1,1,1h17h8h17c0.552,0,1-0.448,1-1V14C47,13.628,46.794,13.286,46.465,13.113z M28,44h-6v-8h6V44z M45,44H30v-9
	c0-0.552-0.448-1-1-1h-8c-0.552,0-1,0.448-1,1v9H5V14.605L25,4.129l20,10.477V44z M35,23h7c0.552,0,1-0.448,1-1v-5
	c0-0.552-0.448-1-1-1h-7c-0.552,0-1,0.448-1,1v5C34,22.552,34.448,23,35,23z M36,18h5v3h-5V18z M29,25h-8c-0.552,0-1,0.448-1,1v5
	c0,0.552,0.448,1,1,1h8c0.552,0,1-0.448,1-1v-5C30,25.448,29.552,25,29,25z M28,30h-6v-3h6V30z"/>
</svg>
