<?xml version="1.0" encoding="utf-8"?>
<!-- Generator: Adobe Illustrator 17.0.0, SVG Export Plug-In . SVG Version: 6.00 Build 0)  -->
<!DOCTYPE svg PUBLIC "-//W3C//DTD SVG 1.1//EN" "http://www.w3.org/Graphics/SVG/1.1/DTD/svg11.dtd">
<svg version="1.1" id="Layer_1" xmlns="http://www.w3.org/2000/svg" xmlns:xlink="http://www.w3.org/1999/xlink" x="0px" y="0px"
	 width="100px" height="100px" viewBox="0 0 100 100" enable-background="new 0 0 100 100" xml:space="preserve">
<path d="M94,16H67.813c-0.57-3.195-2.477-6.008-5.188-8.063C59.367,5.461,54.945,4,50,4s-9.367,1.461-12.625,3.938
	c-2.711,2.055-4.617,4.867-5.188,8.063H6c-3.289,0-6,2.711-6,6v33.625C-0.016,55.75-0.016,55.875,0,56v34c0,3.289,2.711,6,6,6h88
	c3.289,0,6-2.711,6-6V55.813c0-0.063,0-0.125,0-0.188V22C100,18.711,97.289,16,94,16z M39.813,11.125C42.273,9.258,45.836,8,50,8
	s7.727,1.258,10.188,3.125c1.828,1.391,3.055,3.031,3.563,4.875h-27.5C36.758,14.156,37.984,12.516,39.813,11.125z M96,90
	c0,1.133-0.867,2-2,2H6c-1.133,0-2-0.867-2-2V61.625C4.633,61.852,5.297,62,6,62h34c0,3.289,2.711,6,6,6h8c3.289,0,6-2.711,6-6h34
	c0.703,0,1.367-0.148,2-0.375V90z M44,59.563V58c0-1.133,0.867-2,2-2h8c1.133,0,2,0.867,2,2v1.625c0,0.063,0,0.125,0,0.188V60
	c-0.016,0.148-0.016,0.289,0,0.438V62c0,1.133-0.867,2-2,2h-8c-1.133,0-2-0.867-2-2v-1.625C44.055,60.109,44.055,59.828,44,59.563z
	 M96,55.625c-0.008,0.086-0.008,0.164,0,0.25V56c0,1.133-0.867,2-2,2H60c0-3.289-2.711-6-6-6h-8c-3.289,0-6,2.711-6,6H6
	c-1.133,0-2-0.867-2-2c0.016-0.125,0.016-0.25,0-0.375V22c0-1.133,0.867-2,2-2h88c1.133,0,2,0.867,2,2V55.625z"/>
</svg>
