<?xml version="1.0" encoding="utf-8"?>
<!-- Generator: Adobe Illustrator 17.0.0, SVG Export Plug-In . SVG Version: 6.00 Build 0)  -->
<!DOCTYPE svg PUBLIC "-//W3C//DTD SVG 1.1//EN" "http://www.w3.org/Graphics/SVG/1.1/DTD/svg11.dtd">
<svg version="1.1" id="Capa_1" xmlns="http://www.w3.org/2000/svg" xmlns:xlink="http://www.w3.org/1999/xlink" x="0px" y="0px"
	 width="612px" height="792px" viewBox="0 0 612 792" enable-background="new 0 0 612 792" xml:space="preserve">
<path d="M564.188,161.719h-9.563v-19.125c0-15.819-12.869-28.688-28.688-28.688s-28.688,12.869-28.688,28.688v19.125h-382.5v-19.125
	c0-15.819-12.869-28.688-28.688-28.688s-28.688,12.869-28.688,28.688v19.125h-9.563C21.449,161.719,0,183.167,0,209.531v420.75
	c0,26.364,21.449,47.813,47.813,47.813h516.375c26.364,0,47.813-21.449,47.813-47.813v-420.75
	C612,183.167,590.551,161.719,564.188,161.719z M516.375,142.594c0-5.273,4.29-9.563,9.563-9.563s9.563,4.29,9.563,9.563v28.665
	c0,0.008-0.001,0.016-0.001,0.023s0.001,0.016,0.001,0.023v28.665c0,5.273-4.29,9.563-9.563,9.563s-9.563-4.29-9.563-9.563V142.594z
	 M76.5,171.293c0-0.004,0-0.008,0-0.012s0-0.007,0-0.012v-28.676c0-5.273,4.29-9.563,9.563-9.563s9.563,4.29,9.563,9.563v57.375
	c0,5.273-4.29,9.563-9.563,9.563s-9.563-4.29-9.563-9.563V171.293z M592.875,247.781H573.75c-5.281,0-9.563,4.282-9.563,9.563
	s4.282,9.563,9.563,9.563h19.125v363.375c0,15.819-12.869,28.688-28.688,28.688H47.813c-15.819,0-28.688-12.869-28.688-28.688
	V266.906h459c5.281,0,9.563-4.282,9.563-9.563s-4.282-9.563-9.563-9.563h-459v-38.25c0-15.819,12.869-28.688,28.688-28.688h9.563
	v19.125c0,15.819,12.869,28.688,28.688,28.688s28.688-12.869,28.688-28.688v-19.125h382.5v19.125
	c0,15.819,12.869,28.688,28.688,28.688s28.688-12.869,28.688-28.688v-19.125h9.563c15.819,0,28.688,12.869,28.688,28.688V247.781z
	 M545.063,257.344c0,5.281-4.282,9.563-9.563,9.563h-19.125c-5.281,0-9.563-4.282-9.563-9.563s4.282-9.563,9.563-9.563H535.5
	C540.781,247.781,545.063,252.063,545.063,257.344z M325.115,496.41c0,58-47.187,105.188-105.188,105.188
	c-27.699,0-53.845-10.675-73.623-30.06c-3.772-3.697-3.833-9.751-0.136-13.523c3.696-3.772,9.751-3.833,13.523-0.136
	c16.182,15.859,37.575,24.594,60.237,24.594c47.455,0,86.063-38.607,86.063-86.063s-38.607-86.063-86.063-86.063
	c-0.314,0-0.63-0.017-0.943-0.048c-0.143-0.013-0.282-0.041-0.423-0.061c-0.167-0.024-0.335-0.043-0.501-0.077
	c-0.164-0.032-0.323-0.078-0.483-0.118c-0.141-0.036-0.283-0.067-0.423-0.109c-0.159-0.048-0.312-0.108-0.467-0.164
	c-0.139-0.05-0.279-0.096-0.416-0.152c-0.146-0.061-0.286-0.131-0.428-0.198c-0.14-0.066-0.282-0.128-0.42-0.202
	c-0.14-0.074-0.273-0.159-0.408-0.24c-0.132-0.079-0.265-0.153-0.394-0.239c-0.153-0.103-0.296-0.215-0.443-0.326
	c-0.103-0.078-0.208-0.148-0.308-0.231c-0.489-0.4-0.937-0.849-1.338-1.338c-0.086-0.104-0.16-0.214-0.24-0.32
	c-0.108-0.143-0.218-0.283-0.317-0.431c-0.088-0.132-0.165-0.269-0.246-0.404c-0.079-0.132-0.161-0.261-0.234-0.397
	c-0.075-0.141-0.139-0.286-0.207-0.429c-0.066-0.14-0.135-0.276-0.194-0.418c-0.059-0.141-0.105-0.284-0.157-0.428
	c-0.054-0.151-0.112-0.3-0.159-0.454c-0.044-0.145-0.076-0.293-0.114-0.44c-0.038-0.155-0.082-0.31-0.114-0.467
	c-0.033-0.172-0.054-0.347-0.079-0.52c-0.019-0.135-0.045-0.268-0.059-0.404c-0.062-0.629-0.062-1.261,0-1.89
	c0.013-0.136,0.039-0.269,0.059-0.404c0.024-0.173,0.044-0.348,0.079-0.52c0.031-0.159,0.074-0.312,0.114-0.467
	c0.037-0.147,0.069-0.294,0.114-0.44c0.047-0.154,0.105-0.304,0.159-0.454c0.051-0.143,0.098-0.287,0.157-0.428
	c0.059-0.143,0.128-0.28,0.194-0.418c0.068-0.143,0.131-0.288,0.207-0.429c0.073-0.136,0.155-0.265,0.234-0.397
	c0.081-0.135,0.158-0.273,0.246-0.404c0.099-0.149,0.209-0.289,0.317-0.432c0.081-0.106,0.154-0.216,0.24-0.32
	c0.202-0.246,0.415-0.482,0.639-0.706l50.613-50.613h-82.098c-5.281,0-9.563-4.282-9.563-9.563s4.282-9.563,9.563-9.563H286.87
	c0.036,0,0.07,0.005,0.106,0.005c0.279,0.002,0.557,0.014,0.834,0.042c0.154,0.014,0.305,0.043,0.457,0.066
	c0.157,0.023,0.313,0.041,0.469,0.072c0.17,0.033,0.333,0.08,0.5,0.122c0.136,0.035,0.273,0.065,0.408,0.105
	c0.163,0.049,0.319,0.11,0.478,0.167c0.135,0.049,0.271,0.093,0.405,0.148c0.148,0.061,0.29,0.134,0.435,0.202
	c0.139,0.066,0.277,0.127,0.414,0.2c0.141,0.075,0.274,0.161,0.41,0.243c0.13,0.079,0.264,0.152,0.392,0.238
	c0.153,0.103,0.296,0.215,0.443,0.326c0.103,0.078,0.208,0.148,0.308,0.231c0.489,0.4,0.937,0.849,1.338,1.338
	c0.086,0.104,0.16,0.214,0.24,0.32c0.108,0.143,0.218,0.283,0.317,0.432c0.088,0.131,0.165,0.269,0.246,0.404
	c0.079,0.132,0.161,0.261,0.234,0.397c0.075,0.141,0.14,0.287,0.208,0.432c0.065,0.137,0.134,0.273,0.192,0.415
	c0.059,0.142,0.106,0.287,0.158,0.431c0.054,0.151,0.111,0.299,0.158,0.452c0.044,0.145,0.076,0.293,0.114,0.44
	c0.038,0.155,0.082,0.31,0.114,0.467c0.034,0.172,0.054,0.347,0.079,0.52c0.019,0.135,0.045,0.268,0.059,0.404
	c0.062,0.629,0.062,1.261,0,1.89c-0.013,0.136-0.039,0.269-0.059,0.404c-0.024,0.173-0.044,0.348-0.079,0.52
	c-0.031,0.159-0.074,0.312-0.114,0.467c-0.037,0.147-0.069,0.294-0.114,0.44c-0.047,0.153-0.104,0.302-0.158,0.452
	c-0.051,0.145-0.099,0.29-0.158,0.432c-0.059,0.141-0.127,0.277-0.192,0.415c-0.068,0.145-0.133,0.29-0.208,0.431
	c-0.073,0.136-0.155,0.265-0.234,0.397c-0.081,0.135-0.158,0.273-0.246,0.404c-0.099,0.149-0.209,0.289-0.317,0.431
	c-0.081,0.106-0.154,0.216-0.24,0.32c-0.202,0.246-0.415,0.482-0.64,0.706l-52.717,52.717
	C288.893,403.079,325.117,445.592,325.115,496.41z M420.702,332.903c0.031,0.316,0.048,0.631,0.048,0.948v258.185
	c0,5.281-4.282,9.563-9.563,9.563s-9.563-4.282-9.563-9.563V356.934l-31.488,31.488c-1.867,1.867-4.314,2.801-6.762,2.801
	c-2.448,0-4.895-0.934-6.762-2.801c-3.735-3.734-3.735-9.788,0-13.523l47.808-47.808c0.225-0.225,0.461-0.437,0.708-0.639
	c0.1-0.083,0.206-0.153,0.308-0.231c0.146-0.111,0.29-0.224,0.443-0.326c0.128-0.085,0.261-0.159,0.392-0.238
	c0.136-0.083,0.27-0.167,0.41-0.243c0.136-0.073,0.275-0.134,0.414-0.2c0.145-0.068,0.287-0.141,0.435-0.202
	c0.133-0.055,0.27-0.099,0.405-0.148c0.159-0.057,0.316-0.118,0.478-0.167c0.135-0.041,0.271-0.07,0.408-0.105
	c0.166-0.043,0.331-0.088,0.5-0.122c0.155-0.031,0.312-0.049,0.469-0.072c0.152-0.023,0.302-0.051,0.457-0.066
	c0.277-0.027,0.556-0.038,0.834-0.042c0.036,0,0.071-0.005,0.106-0.005s0.07,0.005,0.106,0.005c0.279,0.002,0.557,0.014,0.834,0.042
	c0.154,0.014,0.305,0.043,0.457,0.066c0.157,0.023,0.313,0.041,0.469,0.072c0.17,0.034,0.333,0.08,0.5,0.122
	c0.136,0.035,0.273,0.065,0.408,0.105c0.163,0.049,0.319,0.11,0.478,0.167c0.135,0.049,0.271,0.093,0.405,0.148
	c0.148,0.061,0.29,0.134,0.435,0.202c0.139,0.066,0.277,0.127,0.414,0.2c0.141,0.075,0.274,0.161,0.41,0.243
	c0.13,0.079,0.264,0.152,0.392,0.238c0.153,0.103,0.297,0.215,0.443,0.326c0.103,0.078,0.208,0.148,0.308,0.231
	c0.489,0.4,0.937,0.849,1.338,1.338c0.086,0.104,0.16,0.214,0.24,0.32c0.108,0.143,0.218,0.283,0.317,0.432
	c0.088,0.131,0.165,0.269,0.246,0.404c0.079,0.131,0.161,0.261,0.234,0.397c0.075,0.141,0.14,0.287,0.208,0.432
	c0.065,0.137,0.134,0.273,0.192,0.415s0.106,0.287,0.158,0.432c0.054,0.151,0.111,0.299,0.158,0.452
	c0.044,0.145,0.076,0.293,0.114,0.44c0.038,0.155,0.083,0.31,0.114,0.467c0.034,0.172,0.054,0.347,0.079,0.52
	C420.663,332.634,420.689,332.767,420.702,332.903z"/>
</svg>
