<?xml version="1.0" encoding="utf-8"?>
<!-- Generator: Adobe Illustrator 17.0.0, SVG Export Plug-In . SVG Version: 6.00 Build 0)  -->
<!DOCTYPE svg PUBLIC "-//W3C//DTD SVG 1.1//EN" "http://www.w3.org/Graphics/SVG/1.1/DTD/svg11.dtd">
<svg version="1.1" id="Layer_1" xmlns="http://www.w3.org/2000/svg" xmlns:xlink="http://www.w3.org/1999/xlink" x="0px" y="0px"
	 width="100px" height="100px" viewBox="0 0 100 100" enable-background="new 0 0 100 100" xml:space="preserve">
<path d="M58.898,54.273h-5.93v-3.242c0.828-0.008,1.633-0.078,2.406-0.219c0.789-0.141,1.492-0.383,2.125-0.719
	s1.172-0.766,1.617-1.297s0.742-1.18,0.883-1.945h3.195v25.203h-4.297V54.273z M96,11.586v80.5c0,1-0.344,2.023-1.063,2.766
	C94.227,95.602,93.18,96,92.164,96H7.836c-1.016,0-2.063-0.398-2.773-1.148C4.344,94.109,4,93.086,4,92.086v-80.5
	c0-1.094,0.594-2.273,1.445-2.867S7.188,8,8,8h12V4c0-2.188,1.813-4,4-4h4c2.188,0,4,1.813,4,4v4h36V4c0-2.188,1.813-4,4-4h4
	c2.188,0,4,1.813,4,4v4h12c0.813,0,1.703,0.125,2.555,0.719S96,10.492,96,11.586z M72,16h4V4h-4V16z M24,16h4V4h-4V16z M92,30H8v62
	h84V30z M92,12H80v4c0,2.188-1.813,4-4,4h-4c-2.188,0-4-1.813-4-4v-4H32v4c0,2.188-1.813,4-4,4h-4c-2.188,0-4-1.813-4-4v-4H8v14h84
	V12z M41.531,69.133c-1.539,0-2.688-0.508-3.461-1.531c-0.773-1.016-1.125-2.289-1.078-3.828h-3.93
	c0.023,1.32,0.219,2.516,0.586,3.602c0.367,1.078,0.898,2,1.602,2.773c0.695,0.766,1.57,1.359,2.617,1.781
	c1.047,0.414,2.266,0.625,3.664,0.625c1.148,0,2.242-0.18,3.273-0.539s1.938-0.867,2.727-1.531c0.773-0.656,1.398-1.461,1.852-2.414
	c0.461-0.945,0.688-2.016,0.688-3.219c0-1.633-0.383-3.016-1.148-4.156s-1.844-1.859-3.219-2.141v-0.078
	c1.172-0.43,2.031-1.117,2.578-2.07c0.555-0.945,0.836-2.055,0.836-3.328c0-1.102-0.227-2.078-0.656-2.93
	c-0.445-0.859-1.016-1.555-1.742-2.109s-1.539-0.969-2.445-1.258s-1.828-0.438-2.773-0.438c-1.219,0-2.313,0.219-3.273,0.656
	c-0.961,0.43-1.781,1.031-2.453,1.797c-0.68,0.766-1.219,1.672-1.609,2.719s-0.609,2.172-0.656,3.398h3.93
	c-0.023-0.648,0.047-1.273,0.211-1.883c0.156-0.617,0.406-1.172,0.734-1.656c0.336-0.492,0.75-0.891,1.258-1.18
	c0.508-0.281,1.102-0.422,1.797-0.422c1.102,0,2,0.32,2.695,0.969c0.703,0.641,1.055,1.508,1.055,2.594
	c0,0.766-0.156,1.414-0.469,1.945c-0.305,0.523-0.711,0.938-1.219,1.242c-0.5,0.297-1.078,0.508-1.719,0.625
	s-1.289,0.172-1.93,0.141h-0.008v3.063c0.781-0.023,1.547,0,2.289,0.078c0.742,0.07,1.414,0.25,2.016,0.547
	c0.594,0.305,1.086,0.742,1.445,1.32c0.367,0.578,0.555,1.359,0.555,2.336c0,1.445-0.445,2.555-1.328,3.336
	C43.938,68.742,42.836,69.133,41.531,69.133z"/>
</svg>
