<?xml version="1.0" encoding="utf-8"?>
<!-- Generator: Adobe Illustrator 17.0.0, SVG Export Plug-In . SVG Version: 6.00 Build 0)  -->
<!DOCTYPE svg PUBLIC "-//W3C//DTD SVG 1.1//EN" "http://www.w3.org/Graphics/SVG/1.1/DTD/svg11.dtd">
<svg version="1.1" id="Layer_1" xmlns="http://www.w3.org/2000/svg" xmlns:xlink="http://www.w3.org/1999/xlink" x="0px" y="0px"
	 width="50px" height="50px" viewBox="0 0 50 50" enable-background="new 0 0 50 50" xml:space="preserve">
<path d="M31.707,22.293L37.414,28l-5.707,5.707C31.512,33.902,31.256,34,31,34s-0.512-0.098-0.707-0.293
	c-0.391-0.391-0.391-1.023,0-1.414L33.586,29H15.414l3.293,3.293c0.391,0.391,0.391,1.023,0,1.414C18.512,33.902,18.256,34,18,34
	s-0.512-0.098-0.707-0.293l-4.999-4.999c-0.001-0.001-0.001-0.001-0.002-0.002L11.586,28l0.706-0.706
	c0.001-0.001,0.001-0.001,0.002-0.002l4.999-4.999c0.391-0.391,1.023-0.391,1.414,0s0.391,1.023,0,1.414L15.414,27h18.172
	l-3.293-3.293c-0.391-0.391-0.391-1.023,0-1.414S31.316,21.902,31.707,22.293z M50,31.099C50,36.007,46.007,40,41.098,40H9.67
	C4.338,40,0,35.662,0,30.331c0-4.072,2.581-7.702,6.363-9.08c0.247-3.642,3.289-6.528,6.993-6.528c1.392,0,2.722,0.403,3.857,1.155
	c2.196-4.436,6.771-7.332,11.78-7.332c7.251,0,13.149,5.899,13.149,13.15c0,0.186-0.005,0.374-0.015,0.568
	C46.577,22.794,50,26.554,50,31.099z M48,31.099c0-3.806-3.097-6.902-6.902-6.902h-1.13l0.08-1.118
	c0.064-0.53,0.095-0.969,0.095-1.383c0-6.148-5.002-11.15-11.149-11.15c-4.637,0-8.835,2.929-10.448,7.288l-0.542,1.465
	l-1.104-1.105c-0.947-0.948-2.205-1.47-3.543-1.47c-2.762,0-5.009,2.247-5.009,5.008l0.04,1.004l-0.76,0.21
	C4.313,23.861,2,26.898,2,30.331C2,34.56,5.441,38,9.67,38h31.428C44.903,38,48,34.904,48,31.099z"/>
</svg>
