<?xml version="1.0" encoding="utf-8"?>
<!-- Generator: Adobe Illustrator 17.0.0, SVG Export Plug-In . SVG Version: 6.00 Build 0)  -->
<!DOCTYPE svg PUBLIC "-//W3C//DTD SVG 1.1//EN" "http://www.w3.org/Graphics/SVG/1.1/DTD/svg11.dtd">
<svg version="1.1" id="Layer_1" xmlns="http://www.w3.org/2000/svg" xmlns:xlink="http://www.w3.org/1999/xlink" x="0px" y="0px"
	 width="50px" height="50px" viewBox="0 0 50 50" enable-background="new 0 0 50 50" xml:space="preserve">
<path d="M50,6c0-1.07-0.625-2.004-1.469-2.719s-1.938-1.27-3.281-1.75C42.566,0.57,38.961,0,35,0s-7.566,0.57-10.25,1.531
	c-1.344,0.48-2.438,1.035-3.281,1.75S20,4.93,20,6c0,0.199,0.023,0.406,0.063,0.594C20.016,6.723,19.992,6.863,20,7v6
	c0,0.199,0.023,0.406,0.063,0.594C20.016,13.723,19.992,13.863,20,14v3.313C18.434,17.105,16.758,17,15,17
	c-3.961,0-7.566,0.57-10.25,1.531c-1.344,0.48-2.438,1.035-3.281,1.75S0,21.93,0,23c0,0.199,0.023,0.406,0.063,0.594
	C0.016,23.723-0.008,23.863,0,24v6c0,0.199,0.023,0.406,0.063,0.594C0.016,30.723-0.008,30.863,0,31v6
	c0,0.199,0.023,0.406,0.063,0.594C0.016,37.723-0.008,37.863,0,38v6c0,1.07,0.625,2.004,1.469,2.719s1.938,1.27,3.281,1.75
	C7.434,49.426,11.035,50,15,50s7.566-0.574,10.25-1.531c1.344-0.48,2.438-1.035,3.281-1.75S30,45.07,30,44v-4.313
	C31.566,39.895,33.238,40,35,40c3.965,0,7.566-0.574,10.25-1.531c1.344-0.48,2.438-1.035,3.281-1.75S50,35.07,50,34v-6
	c0.008-0.137-0.016-0.277-0.063-0.406C49.977,27.406,50,27.199,50,27v-6c0.008-0.137-0.016-0.277-0.063-0.406
	C49.977,20.406,50,20.199,50,20v-6c0.008-0.137-0.016-0.277-0.063-0.406C49.977,13.406,50,13.199,50,13V7
	c-0.004-0.141-0.035-0.277-0.094-0.406C49.949,6.402,50,6.203,50,6z M28,44c0,0.313-0.18,0.707-0.75,1.188s-1.496,0.98-2.688,1.406
	C22.18,47.445,18.77,48,15,48s-7.18-0.555-9.563-1.406c-1.191-0.426-2.117-0.926-2.688-1.406S2,44.313,2,44v-3.906
	c0.762,0.531,1.664,0.988,2.75,1.375C7.434,42.426,11.035,43,15,43s7.566-0.574,10.25-1.531c1.086-0.387,1.988-0.844,2.75-1.375V44z
	 M28,37c0,0.313-0.18,0.707-0.75,1.188s-1.496,0.98-2.688,1.406C22.18,40.445,18.77,41,15,41s-7.18-0.555-9.563-1.406
	c-1.191-0.426-2.117-0.926-2.688-1.406S2,37.313,2,37v-3.906c0.762,0.531,1.664,0.988,2.75,1.375C7.434,35.426,11.035,36,15,36
	s7.566-0.574,10.25-1.531c1.086-0.387,1.988-0.844,2.75-1.375V37z M28,30c0,0.313-0.18,0.707-0.75,1.188s-1.496,0.98-2.688,1.406
	C22.18,33.445,18.77,34,15,34s-7.18-0.555-9.563-1.406c-1.191-0.426-2.117-0.926-2.688-1.406S2,30.313,2,30v-3.906
	c0.762,0.531,1.664,0.988,2.75,1.375C7.434,28.43,11.039,29,15,29s7.566-0.57,10.25-1.531c1.086-0.387,1.988-0.844,2.75-1.375V30z
	 M27.25,24.188c-0.57,0.48-1.496,0.98-2.688,1.406C22.18,26.445,18.77,27,15,27s-7.18-0.555-9.563-1.406
	c-1.191-0.426-2.117-0.926-2.688-1.406S2,23.313,2,23s0.18-0.707,0.75-1.188s1.496-0.98,2.688-1.406C7.82,19.555,11.23,19,15,19
	s7.18,0.555,9.563,1.406c1.191,0.426,2.117,0.926,2.688,1.406S28,22.688,28,23S27.82,23.707,27.25,24.188z M48,34
	c0,0.313-0.18,0.707-0.75,1.188s-1.496,0.98-2.688,1.406C42.18,37.445,38.77,38,35,38c-1.813,0-3.523-0.148-5.094-0.375
	c0-0.012,0-0.02,0-0.031C29.949,37.402,30,37.203,30,37v-4.313C31.563,32.895,33.25,33,35,33c3.965,0,7.566-0.574,10.25-1.531
	c1.086-0.387,1.988-0.844,2.75-1.375V34z M48,27c0,0.313-0.18,0.707-0.75,1.188s-1.496,0.98-2.688,1.406
	C42.18,30.445,38.77,31,35,31c-1.797,0-3.504-0.148-5.063-0.375c-0.012,0-0.02,0-0.031,0c0.004-0.012-0.004-0.02,0-0.031
	C29.949,30.402,30,30.203,30,30v-4.313C31.559,25.891,33.246,26,35,26c3.965,0,7.566-0.57,10.25-1.531
	c1.086-0.387,1.988-0.844,2.75-1.375V27z M48,20c0,0.313-0.18,0.707-0.75,1.188s-1.496,0.98-2.688,1.406
	C42.18,23.445,38.77,24,35,24c-1.801,0-3.527-0.121-5.094-0.344c0-0.02,0-0.043,0-0.063C29.949,23.402,30,23.203,30,23
	c0-1.07-0.625-2.004-1.469-2.719s-1.938-1.27-3.281-1.75c-0.973-0.348-2.066-0.637-3.25-0.875v-1.563
	c0.762,0.531,1.664,0.988,2.75,1.375C27.434,18.43,31.035,19,35,19s7.566-0.57,10.25-1.531c1.086-0.387,1.988-0.844,2.75-1.375V20z
	 M48,13c0,0.313-0.18,0.707-0.75,1.188s-1.496,0.98-2.688,1.406C42.18,16.445,38.77,17,35,17s-7.18-0.555-9.563-1.406
	c-1.191-0.426-2.117-0.926-2.688-1.406S22,13.313,22,13V9.094c0.762,0.531,1.664,0.988,2.75,1.375C27.434,11.43,31.039,12,35,12
	s7.566-0.57,10.25-1.531c1.086-0.387,1.988-0.844,2.75-1.375V13z M47.25,7.188c-0.57,0.48-1.496,0.98-2.688,1.406
	C42.18,9.445,38.77,10,35,10s-7.18-0.555-9.563-1.406c-1.191-0.426-2.117-0.926-2.688-1.406S22,6.313,22,6s0.18-0.707,0.75-1.188
	s1.496-0.98,2.688-1.406C27.82,2.555,31.23,2,35,2s7.18,0.555,9.563,1.406c1.191,0.426,2.117,0.926,2.688,1.406S48,5.688,48,6
	S47.82,6.707,47.25,7.188z"/>
</svg>
