<?xml version="1.0" encoding="utf-8"?>
<!-- Generator: Adobe Illustrator 17.0.0, SVG Export Plug-In . SVG Version: 6.00 Build 0)  -->
<!DOCTYPE svg PUBLIC "-//W3C//DTD SVG 1.1//EN" "http://www.w3.org/Graphics/SVG/1.1/DTD/svg11.dtd">
<svg version="1.1" id="Layer_1" xmlns="http://www.w3.org/2000/svg" xmlns:xlink="http://www.w3.org/1999/xlink" x="0px" y="0px"
	 width="100px" height="100px" viewBox="0 0 100 100" enable-background="new 0 0 100 100" xml:space="preserve">
<path d="M100,12c0-2.141-1.25-4.008-2.938-5.438s-3.875-2.539-6.563-3.5C85.133,1.141,77.922,0,70,0S54.867,1.141,49.5,3.063
	c-2.688,0.961-4.875,2.07-6.563,3.5S40,9.859,40,12c0,0.398,0.047,0.813,0.125,1.188C40.031,13.445,39.984,13.727,40,14v12
	c0,0.398,0.047,0.813,0.125,1.188C40.031,27.445,39.984,27.727,40,28v6.625C36.867,34.211,33.516,34,30,34
	c-7.922,0-15.133,1.141-20.5,3.063c-2.688,0.961-4.875,2.07-6.563,3.5S0,43.859,0,46c0,0.398,0.047,0.813,0.125,1.188
	C0.031,47.445-0.016,47.727,0,48v12c0,0.398,0.047,0.813,0.125,1.188C0.031,61.445-0.016,61.727,0,62v12
	c0,0.398,0.047,0.813,0.125,1.188C0.031,75.445-0.016,75.727,0,76v12c0,2.141,1.25,4.008,2.938,5.438s3.875,2.539,6.563,3.5
	C14.867,98.852,22.07,100,30,100s15.133-1.148,20.5-3.063c2.688-0.961,4.875-2.07,6.563-3.5S60,90.141,60,88v-8.625
	C63.133,79.789,66.477,80,70,80c7.93,0,15.133-1.148,20.5-3.063c2.688-0.961,4.875-2.07,6.563-3.5S100,70.141,100,68V56
	c0.016-0.273-0.031-0.555-0.125-0.813C99.953,54.813,100,54.398,100,54V42c0.016-0.273-0.031-0.555-0.125-0.813
	C99.953,40.813,100,40.398,100,40V28c0.016-0.273-0.031-0.555-0.125-0.813C99.953,26.813,100,26.398,100,26V14
	c-0.008-0.281-0.07-0.555-0.188-0.813C99.898,12.805,100,12.406,100,12z M56,88c0,0.625-0.359,1.414-1.5,2.375
	s-2.992,1.961-5.375,2.813C44.359,94.891,37.539,96,30,96s-14.359-1.109-19.125-2.813c-2.383-0.852-4.234-1.852-5.375-2.813
	S4,88.625,4,88v-7.813c1.523,1.063,3.328,1.977,5.5,2.75C14.867,84.852,22.07,86,30,86s15.133-1.148,20.5-3.063
	c2.172-0.773,3.977-1.688,5.5-2.75V88z M56,74c0,0.625-0.359,1.414-1.5,2.375s-2.992,1.961-5.375,2.813
	C44.359,80.891,37.539,82,30,82s-14.359-1.109-19.125-2.813c-2.383-0.852-4.234-1.852-5.375-2.813S4,74.625,4,74v-7.813
	c1.523,1.063,3.328,1.977,5.5,2.75C14.867,70.852,22.07,72,30,72s15.133-1.148,20.5-3.063c2.172-0.773,3.977-1.688,5.5-2.75V74z
	 M56,60c0,0.625-0.359,1.414-1.5,2.375s-2.992,1.961-5.375,2.813C44.359,66.891,37.539,68,30,68s-14.359-1.109-19.125-2.813
	c-2.383-0.852-4.234-1.852-5.375-2.813S4,60.625,4,60v-7.813c1.523,1.063,3.328,1.977,5.5,2.75C14.867,56.859,22.078,58,30,58
	s15.133-1.141,20.5-3.063c2.172-0.773,3.977-1.688,5.5-2.75V60z M54.5,48.375c-1.141,0.961-2.992,1.961-5.375,2.813
	C44.359,52.891,37.539,54,30,54s-14.359-1.109-19.125-2.813c-2.383-0.852-4.234-1.852-5.375-2.813S4,46.625,4,46
	s0.359-1.414,1.5-2.375s2.992-1.961,5.375-2.813C15.641,39.109,22.461,38,30,38s14.359,1.109,19.125,2.813
	c2.383,0.852,4.234,1.852,5.375,2.813S56,45.375,56,46S55.641,47.414,54.5,48.375z M96,68c0,0.625-0.359,1.414-1.5,2.375
	s-2.992,1.961-5.375,2.813C84.359,74.891,77.539,76,70,76c-3.625,0-7.047-0.297-10.188-0.75c0-0.023,0-0.039,0-0.063
	C59.898,74.805,60,74.406,60,74v-8.625C63.125,65.789,66.5,66,70,66c7.93,0,15.133-1.148,20.5-3.063
	c2.172-0.773,3.977-1.688,5.5-2.75V68z M96,54c0,0.625-0.359,1.414-1.5,2.375s-2.992,1.961-5.375,2.813
	C84.359,60.891,77.539,62,70,62c-3.594,0-7.008-0.297-10.125-0.75c-0.023,0-0.039,0-0.063,0c0.008-0.023-0.008-0.039,0-0.063
	C59.898,60.805,60,60.406,60,60v-8.625C63.117,51.781,66.492,52,70,52c7.93,0,15.133-1.141,20.5-3.063
	c2.172-0.773,3.977-1.688,5.5-2.75V54z M96,40c0,0.625-0.359,1.414-1.5,2.375s-2.992,1.961-5.375,2.813
	C84.359,46.891,77.539,48,70,48c-3.602,0-7.055-0.242-10.188-0.688c0-0.039,0-0.086,0-0.125C59.898,46.805,60,46.406,60,46
	c0-2.141-1.25-4.008-2.938-5.438s-3.875-2.539-6.563-3.5c-1.945-0.695-4.133-1.273-6.5-1.75v-3.125
	c1.523,1.063,3.328,1.977,5.5,2.75C54.867,36.859,62.07,38,70,38s15.133-1.141,20.5-3.063c2.172-0.773,3.977-1.688,5.5-2.75V40z
	 M96,26c0,0.625-0.359,1.414-1.5,2.375s-2.992,1.961-5.375,2.813C84.359,32.891,77.539,34,70,34s-14.359-1.109-19.125-2.813
	c-2.383-0.852-4.234-1.852-5.375-2.813S44,26.625,44,26v-7.813c1.523,1.063,3.328,1.977,5.5,2.75C54.867,22.859,62.078,24,70,24
	s15.133-1.141,20.5-3.063c2.172-0.773,3.977-1.688,5.5-2.75V26z M94.5,14.375c-1.141,0.961-2.992,1.961-5.375,2.813
	C84.359,18.891,77.539,20,70,20s-14.359-1.109-19.125-2.813c-2.383-0.852-4.234-1.852-5.375-2.813S44,12.625,44,12
	s0.359-1.414,1.5-2.375s2.992-1.961,5.375-2.813C55.641,5.109,62.461,4,70,4s14.359,1.109,19.125,2.813
	c2.383,0.852,4.234,1.852,5.375,2.813S96,11.375,96,12S95.641,13.414,94.5,14.375z"/>
</svg>
