<?xml version="1.0" encoding="iso-8859-1"?>
<!-- Generator: Adobe Illustrator 19.2.0, SVG Export Plug-In . SVG Version: 6.00 Build 0)  -->
<svg xmlns="http://www.w3.org/2000/svg" xmlns:xlink="http://www.w3.org/1999/xlink" version="1.1" x="0px" y="0px" viewBox="0 0 50 50" style="enable-background:new 0 0 50 50;" xml:space="preserve" width="50px" height="50px">
<rect x="41" y="32" width="2" height="2"/>
<path style="fill:none;stroke:#000000;stroke-width:2;stroke-linecap:round;stroke-linejoin:round;stroke-miterlimit:10;" d="M8,45  h34c-3.165-4.893-10.621-4.656-12.1-8.6c-0.1-1.6-0.1-2.8-0.1-4.2c0.7-0.4,2-2.9,2.3-4.9c0.6,0,1.5-0.6,1.7-2.8  c0.1-1.2-0.3-2-0.8-2.1c1.8-2.3,1.5-11.4-5-11.4l-1-2c-9.4,0-12.8,7.2-10.1,13.3c-0.3,0.2-0.9,0.9-0.8,2.1c0.3,2.2,1.2,2.8,1.7,2.8  c0.2,2.1,1.6,4.5,2.3,4.9c0,1.5,0.1,2.6-0.1,4.2C18.685,40.327,11.184,40.104,8,45z"/>
<g>
	<path d="M18.221,29H4v2h15.166C18.822,30.448,18.482,29.748,18.221,29z"/>
	<path d="M31.658,29c-0.255,0.73-0.576,1.435-0.901,2H46v-2H31.658z"/>
</g>
<path d="M46,4H4C2.897,4,2,4.897,2,6v29c0,1.103,0.897,2,2,2h15.687c0.126-0.219,0.232-0.451,0.313-0.7  c0.059-0.471,0.087-0.893,0.104-1.3H4V6h42l0.001,29H29.835c0.015,0.442,0.034,0.898,0.065,1.4c0.08,0.214,0.185,0.41,0.299,0.6H46  c1.103,0,2-0.897,2-2V6C48,4.897,47.103,4,46,4z"/>
</svg>
