<?xml version="1.0" encoding="utf-8"?>
<!-- Generator: Adobe Illustrator 17.0.0, SVG Export Plug-In . SVG Version: 6.00 Build 0)  -->
<!DOCTYPE svg PUBLIC "-//W3C//DTD SVG 1.1//EN" "http://www.w3.org/Graphics/SVG/1.1/DTD/svg11.dtd">
<svg version="1.1" id="Layer_1" xmlns="http://www.w3.org/2000/svg" xmlns:xlink="http://www.w3.org/1999/xlink" x="0px" y="0px"
	 width="50px" height="50px" viewBox="0 0 50 50" enable-background="new 0 0 50 50" xml:space="preserve">
<path d="M41,32h2v2h-2V32z M48,6v29c0,1.103-0.897,2-2,2H31.446c0.882,0.969,2.416,1.634,4.143,2.372
	c2.566,1.098,5.476,2.342,7.251,5.085c0.199,0.308,0.214,0.699,0.038,1.021C42.703,45.8,42.366,46,42,46H8
	c-0.367,0-0.704-0.201-0.879-0.523s-0.159-0.714,0.041-1.021c1.763-2.711,4.636-3.959,7.17-5.062
	c1.718-0.746,3.248-1.42,4.112-2.394H4c-1.103,0-2-0.897-2-2V6c0-1.103,0.897-2,2-2h42C47.103,4,48,4.897,48,6z M4,35h15.104
	c0.027-0.605,0.021-1.172,0.01-1.786c-0.004-0.212-0.008-0.428-0.01-0.651c-0.366-0.373-0.747-0.924-1.094-1.563H4V35z
	 M28.964,36.751c-0.034-0.092-0.056-0.189-0.062-0.288C28.8,34.831,28.8,33.612,28.8,32.2c0-0.358,0.192-0.69,0.504-0.868
	c0.382-0.287,1.53-2.338,1.807-4.181c0.073-0.489,0.494-0.852,0.989-0.852c0.101-0.018,0.569-0.411,0.704-1.891
	c0.051-0.606-0.073-0.95-0.14-1.067c-0.276-0.099-0.498-0.315-0.602-0.595c-0.121-0.326-0.063-0.69,0.15-0.963
	c0.82-1.049,1.152-4.582-0.089-7.128C31.266,12.894,29.878,12,28,12c-0.379,0-0.725-0.214-0.895-0.553l-0.718-1.436
	c-3.707,0.137-6.591,1.521-8.161,3.934c-1.465,2.25-1.619,5.223-0.412,7.95c0.197,0.445,0.045,0.966-0.359,1.236
	c0,0-0.428,0.347-0.358,1.186c0.187,1.363,0.635,1.837,0.777,1.893c0.516,0,0.873,0.382,0.922,0.896
	c0.178,1.867,1.422,3.861,1.813,4.133c0.269,0.188,0.492,0.534,0.492,0.861c0,0.38,0.007,0.734,0.013,1.077
	c0.019,1.022,0.037,1.989-0.121,3.247c-0.008,0.063-0.022,0.126-0.042,0.187c-0.794,2.433-3.236,3.494-5.821,4.618
	c-1.75,0.761-3.544,1.54-4.942,2.771h29.632c-1.414-1.249-3.237-2.028-5.017-2.788C32.251,40.121,29.841,39.091,28.964,36.751z
	 M46.001,35L46,6H4v23h13.167c-0.108-0.348-0.203-0.699-0.269-1.048c-0.67-0.363-1.494-1.253-1.789-3.417
	c-0.093-1.098,0.236-1.917,0.622-2.452c-1.195-3.177-0.903-6.583,0.819-9.229C18.588,9.724,22.299,8,27,8
	c0.379,0,0.725,0.214,0.895,0.553l0.736,1.474c2.337,0.199,4.2,1.514,5.291,3.753c1.343,2.756,1.272,6.343,0.364,8.384
	c0.4,0.574,0.594,1.426,0.51,2.419c-0.208,2.293-1.114,3.174-1.833,3.511c-0.068,0.292-0.158,0.597-0.256,0.905H46v2H31.886
	c-0.338,0.664-0.712,1.253-1.086,1.651c0.001,0.786,0.007,1.534,0.035,2.349H46.001z"/>
</svg>
