<?xml version="1.0" encoding="utf-8"?>
<!-- Generator: Adobe Illustrator 17.0.0, SVG Export Plug-In . SVG Version: 6.00 Build 0)  -->
<!DOCTYPE svg PUBLIC "-//W3C//DTD SVG 1.1//EN" "http://www.w3.org/Graphics/SVG/1.1/DTD/svg11.dtd">
<svg version="1.1" id="Layer_1" xmlns="http://www.w3.org/2000/svg" xmlns:xlink="http://www.w3.org/1999/xlink" x="0px" y="0px"
	 width="50px" height="50px" viewBox="0 0 50 50" enable-background="new 0 0 50 50" xml:space="preserve">
<path d="M26,40H10v-2h16V40z M38,41c1.105,0,2-0.895,2-2s-0.895-2-2-2s-2,0.895-2,2S36.895,41,38,41z M8,28V10c0-1.093,0.907-2,2-2
	h30c1.093,0,2,0.907,2,2v18c0,1.093-0.907,2-2,2H10C8.907,30,8,29.093,8,28z M10,28h30V10H10V28z M46,33
	c0,0.364-0.107,0.704-0.281,1C45.893,34.296,46,34.636,46,35v10c0,0.552-0.448,1-1,1H5c-0.552,0-1-0.448-1-1V35
	c0-0.364,0.107-0.704,0.281-1C4.107,33.704,4,33.364,4,33V5c0-0.552,0.448-1,1-1h40c0.552,0,1,0.448,1,1V33z M44,35H6v9h38V35z
	 M44,6H6v27h38V6z"/>
</svg>
