<?xml version="1.0" encoding="utf-8"?>
<!-- Generator: Adobe Illustrator 17.0.0, SVG Export Plug-In . SVG Version: 6.00 Build 0)  -->
<!DOCTYPE svg PUBLIC "-//W3C//DTD SVG 1.1//EN" "http://www.w3.org/Graphics/SVG/1.1/DTD/svg11.dtd">
<svg version="1.1" id="Layer_1" xmlns="http://www.w3.org/2000/svg" xmlns:xlink="http://www.w3.org/1999/xlink" x="0px" y="0px"
	 width="100px" height="100px" viewBox="0 0 100 100" enable-background="new 0 0 100 100" xml:space="preserve">
<path d="M89,48c3.626,0,7-2.44,7-6s-3.374-6-7-6c-3.626,0-7,2.44-7,6S85.374,48,89,48z M89,40c1.897,0,3,1.142,3,2s-1.103,2-3,2
	s-3-1.142-3-2S87.103,40,89,40z M4,55c0-1.657,1.343-3,3-3s3,1.343,3,3s-1.343,3-3,3S4,56.657,4,55z M92.73,86.832
	c-1.769-1.66-3.912-2.678-5.965-3.508s-4.046-1.476-5.504-2.16c-1.376-0.646-2.014-1.253-2.262-1.77v-3.094
	c0.083-0.103,0.24-0.184,0.324-0.293c0.367-0.472,0.709-1.013,1.031-1.617c0.467-0.877,0.74-1.96,1.004-3.023
	c0.459-0.177,0.898-0.109,1.305-0.516C83.573,69.943,84,68.583,84,67c0-1.275-0.355-2.259-0.801-2.973
	c0.096-0.344,0.125-0.397,0.246-0.898C83.711,62.035,84,60.756,84,59.5c0-2.112-0.543-4.385-1.957-6.266
	c-1.181-1.569-3.161-2.579-5.477-2.934l-0.785-1.32c-0.36-0.607-1.013-0.98-1.719-0.98c-4.331,0-7.842,1.084-10.313,3.152
	S60,56.257,60,59.5c0,1.256,0.289,2.535,0.555,3.629c0.122,0.501,0.15,0.554,0.246,0.898C60.355,64.741,60,65.725,60,67
	c0,1.583,0.427,2.943,1.336,3.852c0.407,0.407,0.846,0.339,1.305,0.516c0.263,1.064,0.532,2.147,1,3.023
	c0.323,0.605,0.668,1.149,1.035,1.621c0.084,0.109,0.241,0.19,0.324,0.293v3.102c-0.276,0.596-0.845,1.174-2.035,1.805
	c-1.268,0.672-3.009,1.314-4.82,2.152s-3.726,1.889-5.285,3.566s-2.675,4.018-2.855,6.949C50.001,93.919,50,93.96,50,94
	c0-0.04-0.001-0.081-0.004-0.121c-0.184-2.997-1.497-5.387-3.266-7.047s-3.912-2.678-5.965-3.508s-4.046-1.476-5.504-2.16
	c-1.376-0.646-2.014-1.253-2.262-1.77v-3.094c0.083-0.103,0.24-0.184,0.324-0.293c0.367-0.472,0.709-1.013,1.031-1.617
	c0.467-0.877,0.74-1.96,1.004-3.023c0.459-0.177,0.898-0.109,1.305-0.516C37.573,69.943,38,68.583,38,67
	c0-1.275-0.355-2.259-0.801-2.973c0.096-0.344,0.125-0.397,0.246-0.898C37.711,62.035,38,60.756,38,59.5
	c0-2.112-0.543-4.385-1.957-6.266c-1.181-1.569-3.161-2.579-5.477-2.934l-0.785-1.32c-0.36-0.607-1.013-0.98-1.719-0.98
	c-4.331,0-7.842,1.084-10.313,3.152S14,56.257,14,59.5c0,1.256,0.289,2.535,0.555,3.629c0.122,0.501,0.15,0.554,0.246,0.898
	C14.355,64.741,14,65.725,14,67c0,1.583,0.427,2.943,1.336,3.852c0.407,0.407,0.846,0.339,1.305,0.516
	c0.263,1.064,0.532,2.147,1,3.023c0.323,0.605,0.668,1.149,1.035,1.621c0.084,0.109,0.241,0.19,0.324,0.293v3.102
	c-0.276,0.596-0.845,1.174-2.035,1.805c-1.268,0.672-3.009,1.314-4.82,2.152s-3.726,1.889-5.285,3.566s-2.675,4.018-2.855,6.949
	c-0.067,1.103,0.773,2.051,1.876,2.117C5.92,95.999,5.96,96,6,96h40h2h3.938H54h40c1.105,0,2-0.896,2-2.001
	c0-0.04-0.001-0.08-0.004-0.12C95.812,90.882,94.499,88.492,92.73,86.832z M8.848,92c0.311-0.769,0.416-1.783,0.941-2.348
	c1-1.076,2.423-1.914,4.035-2.66s3.381-1.383,5.016-2.25s3.274-2.053,4.027-4.031C22.954,80.484,22.999,80.243,23,80v-4.5
	c0-0.751-0.421-1.439-1.09-1.781c0.337,0.173,0.109,0.077-0.078-0.164s-0.43-0.616-0.66-1.047c-0.459-0.861-0.851-1.972-0.934-2.727
	C20.127,68.767,19.27,68,18.25,68c-0.059,0-0.086-0.001-0.101-0.001C18.105,67.923,18,67.67,18,67c0-0.655,0.134-0.836,0.16-0.875
	c0.7-0.5,1.003-1.392,0.75-2.215c0,0-0.23-0.758-0.465-1.727S18,59.994,18,59.5c0-2.257,0.755-3.97,2.316-5.277
	c1.385-1.159,3.669-1.904,6.691-2.082l0.523,0.879c0.36,0.607,1.013,0.98,1.719,0.98c1.874,0,2.845,0.646,3.594,1.641
	S34,58.112,34,59.5c0,0.494-0.211,1.715-0.445,2.684S33.09,63.91,33.09,63.91c-0.253,0.823,0.05,1.715,0.75,2.215
	C33.866,66.164,34,66.345,34,67c0,0.67-0.105,0.923-0.149,0.999C33.836,67.999,33.81,68,33.75,68c-1.02,0-1.877,0.767-1.988,1.781
	c-0.083,0.756-0.474,1.865-0.934,2.727c-0.23,0.431-0.477,0.806-0.664,1.047s-0.416,0.337-0.078,0.164
	C29.418,74.062,28.999,74.75,29,75.5V80c0.001,0.243,0.046,0.484,0.133,0.711c0.794,2.082,2.606,3.22,4.426,4.074
	s3.837,1.49,5.707,2.246s3.561,1.625,4.727,2.719c0.679,0.638,1.153,1.384,1.5,2.25H8.848z M54.848,92
	c0.311-0.769,0.416-1.783,0.941-2.348c1-1.076,2.423-1.914,4.035-2.66s3.381-1.383,5.016-2.25s3.274-2.053,4.027-4.031
	C68.954,80.484,68.999,80.243,69,80v-4.5c0-0.751-0.421-1.439-1.09-1.781c0.337,0.173,0.109,0.077-0.078-0.164
	s-0.43-0.616-0.66-1.047c-0.459-0.861-0.851-1.972-0.934-2.727C66.127,68.767,65.27,68,64.25,68c-0.059,0-0.086-0.001-0.101-0.001
	C64.105,67.923,64,67.67,64,67c0-0.655,0.134-0.836,0.16-0.875c0.7-0.5,1.003-1.392,0.75-2.215c0,0-0.23-0.758-0.465-1.727
	S64,59.994,64,59.5c0-2.257,0.755-3.97,2.316-5.277c1.385-1.159,3.669-1.904,6.691-2.082l0.523,0.879
	c0.36,0.607,1.013,0.98,1.719,0.98c1.874,0,2.845,0.646,3.594,1.641C79.592,56.635,80,58.112,80,59.5
	c0,0.494-0.211,1.715-0.445,2.684S79.09,63.91,79.09,63.91c-0.253,0.823,0.05,1.715,0.75,2.215C79.866,66.164,80,66.345,80,67
	c0,0.67-0.105,0.923-0.149,0.999C79.836,67.999,79.81,68,79.75,68c-1.02,0-1.877,0.767-1.988,1.781
	c-0.083,0.756-0.474,1.865-0.934,2.727c-0.23,0.431-0.477,0.806-0.664,1.047s-0.416,0.337-0.078,0.164
	C75.418,74.062,74.999,74.75,75,75.5V80c0.001,0.243,0.046,0.484,0.133,0.711c0.794,2.082,2.606,3.22,4.426,4.074
	s3.837,1.49,5.707,2.246s3.561,1.625,4.727,2.719c0.679,0.638,1.153,1.384,1.5,2.25H54.848z M96,55c0,1.657-1.343,3-3,3
	s-3-1.343-3-3s1.343-3,3-3S96,53.343,96,55z M11,48c3.626,0,7-2.44,7-6s-3.374-6-7-6s-7,2.44-7,6S7.374,48,11,48z M11,40
	c1.897,0,3,1.142,3,2s-1.103,2-3,2s-3-1.142-3-2S9.103,40,11,40z M21.621,35.961C25.945,38.781,31.261,40,36,40
	c2.044,0,4.191-0.256,6.32-0.758C46.883,44.056,53.954,46,60,46c4.757,0,10.082-1.288,14.402-4.191S82,34.179,82,27.922
	c0-4.976-2.216-9.568-6.09-12.797S66.56,10,60,10c-2.357,0-4.506,0.245-6.473,0.676c-0.505-0.542-1.036-1.066-1.617-1.551
	C48.037,5.896,42.56,4,36,4C20.708,4,14,14.197,14,22.297C14,28.494,17.297,33.141,21.621,35.961z M60,14
	c5.79,0,10.312,1.666,13.352,4.199S78,24.106,78,27.922c0,4.917-2.341,8.223-5.828,10.566S64.011,42,60,42
	c-4.473,0-9.658-1.43-13.258-4.211c1.271-0.552,2.503-1.203,3.66-1.98C54.723,32.905,58,28.179,58,21.922
	c0-2.721-0.684-5.317-1.918-7.648C57.294,14.101,58.591,14,60,14z M36,8c5.79,0,10.312,1.666,13.352,4.199
	c0.548,0.457,1.034,0.948,1.488,1.457l0.004,0.004c0.151,0.38,0.414,0.704,0.754,0.93C53.167,16.716,54,19.203,54,21.922
	c0,4.917-2.341,8.223-5.828,10.566S40.011,36,36,36c-4.029,0-8.712-1.115-12.195-3.387S18,27.138,18,22.297C18,16.301,22.416,8,36,8
	z"/>
</svg>
