<?xml version="1.0" encoding="utf-8"?>
<!-- Generator: Adobe Illustrator 17.0.0, SVG Export Plug-In . SVG Version: 6.00 Build 0)  -->
<!DOCTYPE svg PUBLIC "-//W3C//DTD SVG 1.1//EN" "http://www.w3.org/Graphics/SVG/1.1/DTD/svg11.dtd">
<svg version="1.1" id="Layer_1" xmlns="http://www.w3.org/2000/svg" xmlns:xlink="http://www.w3.org/1999/xlink" x="0px" y="0px"
	 width="100px" height="100px" viewBox="0 0 100 100" enable-background="new 0 0 100 100" xml:space="preserve">
<path d="M98.438,52.5c-6.961-1.508-11.352-3.563-14.688-5.25S78.039,44,75,44s-5.414,1.563-8.75,3.25s-7.727,3.742-14.688,5.25
	L50,52.813v1.625c0,16.742,6,28.125,12,35.25s12.125,10.125,12.125,10.125l0.938,0.438l0.875-0.5c0,0,24.063-12.875,24.063-45.313
	v-1.625L98.438,52.5z M75,95.625c-1.141-0.602-5.227-2.836-10-8.5c-5.313-6.305-10.523-16.32-10.875-31.25
	c6.273-1.539,10.789-3.469,13.938-5.063C71.531,49.055,73.547,48,75,48s3.469,1.055,6.938,2.813
	c3.148,1.594,7.664,3.523,13.938,5.063C95.203,83.156,77.563,94.172,75,95.625z M57.875,92.5C53.047,93.469,47.664,94,42,94
	c-10.805,0-20.547-2.023-27.438-5.125c-3.445-1.547-6.164-3.359-7.938-5.25S4,79.883,4,78v-9.313
	c2.242,2.289,5.242,4.242,8.875,5.875C20.461,77.977,30.711,80,42,80c2.141,0,4.258-0.047,6.313-0.188
	c1.102-0.086,1.93-1.055,1.844-2.156s-1.055-1.93-2.156-1.844C46.047,75.945,44.047,76,42,76c-10.805,0-20.547-2.023-27.438-5.125
	c-3.445-1.547-6.164-3.359-7.938-5.25S4,61.883,4,60c0.016-0.125,0.016-0.25,0-0.375V48.688c2.242,2.289,5.242,4.242,8.875,5.875
	C20.461,57.977,30.711,60,42,60c0.719,0.008,1.391-0.367,1.758-0.992c0.359-0.625,0.359-1.391,0-2.016
	c-0.367-0.625-1.039-1-1.758-0.992c-10.805,0-20.547-2.023-27.438-5.125c-3.445-1.547-6.164-3.359-7.938-5.25S4,41.883,4,40
	c0.016-0.125,0.016-0.25,0-0.375V28.688c2.242,2.289,5.242,4.242,8.875,5.875C20.461,37.977,30.711,40,42,40
	s21.539-2.023,29.125-5.438c3.633-1.633,6.633-3.586,8.875-5.875V40c-0.008,0.719,0.367,1.391,0.992,1.758
	c0.625,0.359,1.391,0.359,2.016,0c0.625-0.367,1-1.039,0.992-1.758V20c0-0.063,0-0.125,0-0.188s0-0.125,0-0.188
	c0-0.023,0-0.039,0-0.063c-0.016-0.039-0.039-0.086-0.063-0.125c-0.164-2.867-1.492-5.547-3.625-7.813
	c-2.273-2.422-5.398-4.484-9.188-6.188C63.539,2.023,53.289,0,42,0S20.461,2.023,12.875,5.438c-3.789,1.703-6.914,3.766-9.188,6.188
	C1.523,13.93,0.133,16.648,0,19.563c-0.008,0.102-0.008,0.211,0,0.313C0,19.914,0,19.961,0,20v19.625
	C-0.016,39.75-0.016,39.875,0,40v19.625C-0.016,59.75-0.016,59.875,0,60v18c0,3.086,1.414,5.953,3.688,8.375
	s5.398,4.484,9.188,6.188C20.461,95.977,30.711,98,42,98c5.922,0,11.578-0.539,16.688-1.563c1.086-0.227,1.789-1.289,1.563-2.375
	S58.961,92.273,57.875,92.5z M4,19.813c0.055-1.82,0.906-3.609,2.625-5.438c1.773-1.891,4.492-3.703,7.938-5.25
	C21.453,6.023,31.195,4,42,4s20.547,2.023,27.438,5.125c3.445,1.547,6.164,3.359,7.938,5.25S80,18.117,80,20
	s-0.852,3.734-2.625,5.625s-4.492,3.703-7.938,5.25C62.547,33.977,52.805,36,42,36s-20.547-2.023-27.438-5.125
	c-3.445-1.547-6.164-3.359-7.938-5.25S4,21.883,4,20C4,19.938,4,19.875,4,19.813z"/>
</svg>
