<?xml version="1.0" encoding="UTF-8"?>
<svg xmlns="http://www.w3.org/2000/svg" xmlns:xlink="http://www.w3.org/1999/xlink" viewBox="0 0 50 50" version="1.1" width="100px" height="100px">
<g id="surface1">
<path style=" " d="M 21 0 C 15.355469 0 10.230469 1.011719 6.4375 2.71875 C 4.542969 3.570313 2.980469 4.601563 1.84375 5.8125 C 0.761719 6.964844 0.0664063 8.324219 0 9.78125 C -0.00390625 9.832031 -0.00390625 9.886719 0 9.9375 C 0 9.957031 0 9.980469 0 10 L 0 19.8125 C -0.0078125 19.875 -0.0078125 19.9375 0 20 L 0 29.8125 C -0.0078125 29.875 -0.0078125 29.9375 0 30 L 0 39 C 0 40.542969 0.707031 41.976563 1.84375 43.1875 C 2.980469 44.398438 4.542969 45.429688 6.4375 46.28125 C 10.230469 47.988281 15.355469 49 21 49 C 23.960938 49 26.789063 48.730469 29.34375 48.21875 C 29.886719 48.105469 30.238281 47.574219 30.125 47.03125 C 30.011719 46.488281 29.480469 46.136719 28.9375 46.25 C 26.523438 46.734375 23.832031 47 21 47 C 15.597656 47 10.726563 45.988281 7.28125 44.4375 C 5.558594 43.664063 4.199219 42.757813 3.3125 41.8125 C 2.425781 40.867188 2 39.941406 2 39 L 2 34.34375 C 3.121094 35.488281 4.621094 36.464844 6.4375 37.28125 C 10.230469 38.988281 15.355469 40 21 40 C 22.070313 40 23.128906 39.976563 24.15625 39.90625 C 24.707031 39.863281 25.121094 39.378906 25.078125 38.828125 C 25.035156 38.277344 24.550781 37.863281 24 37.90625 C 23.023438 37.972656 22.023438 38 21 38 C 15.597656 38 10.726563 36.988281 7.28125 35.4375 C 5.558594 34.664063 4.199219 33.757813 3.3125 32.8125 C 2.425781 31.867188 2 30.941406 2 30 C 2.007813 29.9375 2.007813 29.875 2 29.8125 L 2 24.34375 C 3.121094 25.488281 4.621094 26.464844 6.4375 27.28125 C 10.230469 28.988281 15.355469 30 21 30 C 21.359375 30.003906 21.695313 29.816406 21.878906 29.503906 C 22.058594 29.191406 22.058594 28.808594 21.878906 28.496094 C 21.695313 28.183594 21.359375 27.996094 21 28 C 15.597656 28 10.726563 26.988281 7.28125 25.4375 C 5.558594 24.664063 4.199219 23.757813 3.3125 22.8125 C 2.425781 21.867188 2 20.941406 2 20 C 2.007813 19.9375 2.007813 19.875 2 19.8125 L 2 14.34375 C 3.121094 15.488281 4.621094 16.464844 6.4375 17.28125 C 10.230469 18.988281 15.355469 20 21 20 C 26.644531 20 31.769531 18.988281 35.5625 17.28125 C 37.378906 16.464844 38.878906 15.488281 40 14.34375 L 40 20 C 39.996094 20.359375 40.183594 20.695313 40.496094 20.878906 C 40.808594 21.058594 41.191406 21.058594 41.503906 20.878906 C 41.816406 20.695313 42.003906 20.359375 42 20 L 42 10 C 42 9.96875 42 9.9375 42 9.90625 C 42 9.875 42 9.84375 42 9.8125 C 42 9.800781 42 9.792969 42 9.78125 C 41.992188 9.761719 41.980469 9.738281 41.96875 9.71875 C 41.886719 8.285156 41.222656 6.945313 40.15625 5.8125 C 39.019531 4.601563 37.457031 3.570313 35.5625 2.71875 C 31.769531 1.011719 26.644531 0 21 0 Z M 21 2 C 26.402344 2 31.273438 3.011719 34.71875 4.5625 C 36.441406 5.335938 37.800781 6.242188 38.6875 7.1875 C 39.574219 8.132813 40 9.058594 40 10 C 40 10.941406 39.574219 11.867188 38.6875 12.8125 C 37.800781 13.757813 36.441406 14.664063 34.71875 15.4375 C 31.273438 16.988281 26.402344 18 21 18 C 15.597656 18 10.726563 16.988281 7.28125 15.4375 C 5.558594 14.664063 4.199219 13.757813 3.3125 12.8125 C 2.425781 11.867188 2 10.941406 2 10 C 2 9.96875 2 9.9375 2 9.90625 C 2.027344 8.996094 2.453125 8.101563 3.3125 7.1875 C 4.199219 6.242188 5.558594 5.335938 7.28125 4.5625 C 10.726563 3.011719 15.597656 2 21 2 Z M 37.5 22 C 35.980469 22 34.792969 22.78125 33.125 23.625 C 31.457031 24.46875 29.261719 25.496094 25.78125 26.25 L 25 26.40625 L 25 27.21875 C 25 35.589844 28 41.28125 31 44.84375 C 34 48.40625 37.0625 49.90625 37.0625 49.90625 L 37.53125 50.125 L 37.96875 49.875 C 37.96875 49.875 50 43.4375 50 27.21875 L 50 26.40625 L 49.21875 26.25 C 45.738281 25.496094 43.542969 24.46875 41.875 23.625 C 40.207031 22.78125 39.019531 22 37.5 22 Z M 37.5 24 C 38.226563 24 39.234375 24.527344 40.96875 25.40625 C 42.542969 26.203125 44.800781 27.167969 47.9375 27.9375 C 47.601563 41.578125 38.78125 47.085938 37.5 47.8125 C 36.929688 47.511719 34.886719 46.394531 32.5 43.5625 C 29.84375 40.410156 27.238281 35.402344 27.0625 27.9375 C 30.199219 27.167969 32.457031 26.203125 34.03125 25.40625 C 35.765625 24.527344 36.773438 24 37.5 24 Z "/>
</g>
</svg>
