<?xml version="1.0" encoding="utf-8"?>
<!-- Generator: Adobe Illustrator 17.0.0, SVG Export Plug-In . SVG Version: 6.00 Build 0)  -->
<!DOCTYPE svg PUBLIC "-//W3C//DTD SVG 1.1//EN" "http://www.w3.org/Graphics/SVG/1.1/DTD/svg11.dtd">
<svg version="1.1" id="Layer_1" xmlns="http://www.w3.org/2000/svg" xmlns:xlink="http://www.w3.org/1999/xlink" x="0px" y="0px"
	 width="100px" height="100px" viewBox="0 0 100 100" enable-background="new 0 0 100 100" xml:space="preserve">
<path d="M70,81h14c0.553,0,1-0.447,1-1V70c0-0.553-0.447-1-1-1H70c-0.553,0-1,0.447-1,1v10C69,80.553,69.447,81,70,81z M71,71h12v8
	H71V71z M30,69H16c-0.552,0-1,0.447-1,1v10c0,0.553,0.448,1,1,1h14c0.552,0,1-0.447,1-1V70C31,69.447,30.552,69,30,69z M29,79H17v-8
	h12V79z M70,63h14c0.553,0,1-0.447,1-1V52c0-0.553-0.447-1-1-1H70c-0.553,0-1,0.447-1,1v10C69,62.553,69.447,63,70,63z M71,53h12v8
	H71V53z M58,51H42c-0.552,0-1,0.447-1,1v10c0,0.553,0.448,1,1,1h16c0.553,0,1-0.447,1-1V52C59,51.447,58.553,51,58,51z M57,61H43v-8
	h14V61z M30,51H16c-0.552,0-1,0.447-1,1v10c0,0.553,0.448,1,1,1h14c0.552,0,1-0.447,1-1V52C31,51.447,30.552,51,30,51z M29,61H17v-8
	h12V61z M70,45h14c0.553,0,1-0.448,1-1V34c0-0.552-0.447-1-1-1H70c-0.553,0-1,0.448-1,1v10C69,44.552,69.447,45,70,45z M71,35h12v8
	H71V35z M41,34v10c0,0.552,0.448,1,1,1h16c0.553,0,1-0.448,1-1V34c0-0.552-0.447-1-1-1H42C41.448,33,41,33.448,41,34z M43,35h14v8
	H43V35z M30,33H16c-0.552,0-1,0.448-1,1v10c0,0.552,0.448,1,1,1h14c0.552,0,1-0.448,1-1V34C31,33.448,30.552,33,30,33z M29,43H17v-8
	h12V43z M92.464,27.114l-42-22c-0.29-0.152-0.638-0.152-0.928,0l-42,22C7.207,27.287,7,27.628,7,28v62c0,0.553,0.448,1,1,1h34h16h34
	c0.553,0,1-0.447,1-1V28C93,27.628,92.794,27.287,92.464,27.114z M57,89H43V71h14V89z M91,89H59V70c0-0.553-0.447-1-1-1H42
	c-0.552,0-1,0.447-1,1v19H9V28.605L50,7.129l41,21.476V89z"/>
</svg>
