<?xml version="1.0" encoding="utf-8"?>
<!-- Generator: Adobe Illustrator 17.0.0, SVG Export Plug-In . SVG Version: 6.00 Build 0)  -->
<!DOCTYPE svg PUBLIC "-//W3C//DTD SVG 1.1//EN" "http://www.w3.org/Graphics/SVG/1.1/DTD/svg11.dtd">
<svg version="1.1" id="Layer_1" xmlns="http://www.w3.org/2000/svg" xmlns:xlink="http://www.w3.org/1999/xlink" x="0px" y="0px"
	 width="612px" height="792px" viewBox="0 0 612 792" enable-background="new 0 0 612 792" xml:space="preserve">
<g>
	<path d="M51.6,420.652L6.872,435.197c-5.216,1.704-8.068,7.296-6.383,12.512c1.356,4.218,5.253,6.872,9.443,6.872
		c1.007,0,2.052-0.151,3.069-0.49l44.728-14.545c5.216-1.704,8.068-7.296,6.383-12.512C62.427,421.819,56.835,418.976,51.6,420.652z
		"/>
	<path d="M6.863,266.312l44.728,14.526c1.007,0.33,2.052,0.49,3.069,0.49c4.189,0,8.087-2.664,9.443-6.863
		c1.685-5.216-1.167-10.817-6.383-12.512l-44.728-14.536c-5.197-1.666-10.827,1.177-12.512,6.383
		C-1.205,259.016,1.648,264.608,6.863,266.312z"/>
	<path d="M139.926,148.83c1.939,2.674,4.961,4.095,8.03,4.095c2.034,0,4.076-0.621,5.837-1.892
		c4.444-3.229,5.413-9.433,2.194-13.877l-27.641-38.053c-3.22-4.462-9.443-5.376-13.867-2.203
		c-4.444,3.229-5.413,9.433-2.194,13.877L139.926,148.83z"/>
	<path d="M605.128,435.206L560.4,420.661c-5.159-1.676-10.827,1.167-12.512,6.383s1.167,10.808,6.383,12.512l44.728,14.545
		c1.007,0.33,2.052,0.49,3.069,0.49c4.189,0,8.087-2.655,9.443-6.863C613.196,442.502,610.343,436.91,605.128,435.206z"/>
	<path d="M557.331,281.319c1.007,0,2.052-0.151,3.069-0.49l44.728-14.526c5.216-1.695,8.068-7.296,6.383-12.512
		c-1.685-5.197-7.296-8.04-12.512-6.373h0l-44.728,14.526c-5.216,1.695-8.068,7.296-6.383,12.512
		C549.244,278.655,553.141,281.319,557.331,281.319z"/>
	<path d="M458.207,151.033c1.76,1.28,3.803,1.892,5.837,1.892c3.069,0,6.091-1.412,8.03-4.095l27.641-38.053
		c3.22-4.444,2.25-10.648-2.194-13.877c-4.444-3.201-10.629-2.259-13.867,2.203l-27.641,38.053
		C452.794,141.6,453.763,147.804,458.207,151.033z"/>
	<path d="M534.934,324.823c-0.226-0.65-0.537-1.224-0.875-1.808c-0.207-0.348-0.273-0.744-0.527-1.073l-63.698-83.195
		c-0.113-0.141-0.282-0.198-0.395-0.33c-0.659-0.781-1.45-1.384-2.325-1.93c-0.32-0.198-0.584-0.461-0.923-0.621
		c-1.054-0.499-2.222-0.763-3.446-0.866c-0.207-0.019-0.386-0.141-0.593-0.151c-0.019,0-0.047,0.019-0.047,0.019
		c-0.066,0-0.104-0.028-0.151-0.028h-311.38c-0.094,0-0.169,0.047-0.264,0.057c-0.066,0-0.132-0.038-0.198-0.038
		c-0.377,0.019-0.706,0.235-1.073,0.292c-0.951,0.151-1.883,0.33-2.73,0.744c-0.424,0.207-0.763,0.518-1.158,0.781
		c-0.744,0.499-1.431,1.017-2.015,1.695c-0.132,0.151-0.33,0.217-0.452,0.377l-68.499,89.578c-0.254,0.329-0.32,0.725-0.518,1.073
		c-0.348,0.584-0.659,1.158-0.885,1.817c-0.217,0.659-0.32,1.299-0.395,1.968c-0.047,0.405-0.235,0.753-0.235,1.177v46.121
		c0,0.395,0.179,0.725,0.226,1.111c0.075,0.65,0.179,1.271,0.386,1.902c0.217,0.687,0.518,1.29,0.876,1.902l0,0
		c0.179,0.301,0.226,0.65,0.433,0.941l223.902,306.579c0.113,0.16,0.311,0.217,0.433,0.367c0.188,0.235,0.395,0.452,0.612,0.668
		c0.057,0.066,0.104,0.132,0.169,0.188c0.245,0.235,0.424,0.537,0.687,0.744c0.113,0.094,0.273,0.132,0.395,0.217
		c0.226,0.16,0.48,0.254,0.715,0.386c0.339,0.198,0.64,0.386,0.998,0.546c0.085,0.038,0.151,0.094,0.235,0.132
		c0.038,0.019,0.066,0.038,0.094,0.056c0.273,0.104,0.527,0.207,0.81,0.292c0.113,0.038,0.198,0.122,0.311,0.151
		c0.857,0.235,1.704,0.33,2.542,0.33c0,0,0.085-0.019,0.122-0.019c0,0,0.047,0.019,0.075,0.019c0.094,0,0.179-0.056,0.273-0.056
		c0.603-0.028,1.205-0.066,1.817-0.217c0.216-0.047,0.377-0.207,0.584-0.264c0.96-0.273,1.817-0.678,2.636-1.214
		c0.141-0.094,0.311-0.151,0.443-0.254c0.057-0.038,0.085-0.094,0.132-0.132c0.734-0.555,1.356-1.177,1.911-1.921
		c0,0,0.009-0.009,0.019-0.009l219.656-300.177c0.216-0.301,0.273-0.659,0.452-0.979c0.348-0.593,0.64-1.186,0.857-1.855
		c0.207-0.65,0.32-1.28,0.395-1.949c0.047-0.377,0.217-0.697,0.217-1.083v-58.906c0-0.414-0.188-0.763-0.235-1.167
		C535.254,326.131,535.15,325.482,534.934,324.823z M440.687,254.695l-54.029,64.517h0l-58.087-64.517H440.687z M376.989,338.172
		v6.807H243.427v-8.059l63.17-76.934L376.989,338.172z M285.246,254.695l-52.626,64.084l-59.329-64.084H285.246z M92.016,337.739
		l59.273-77.565l72.284,78.092v6.722H92.016V337.739z M92.016,377.251v-12.408h131.566v15.882c0,0.763,0.094,1.544,0.273,2.288
		l61.156,258.481L92.016,377.251z M306.522,646.182l-63.076-266.624v-14.715h133.552v14.592L306.522,646.182z M515.71,383.634
		L329.023,638.745l67.492-255.478h0c0.216-0.838,0.329-1.685,0.329-2.542v-15.882H515.71V383.634z M396.844,344.979v-7.004
		l64.743-77.32l54.114,70.683v13.641l0.009,0H396.844z"/>
</g>
</svg>
