<?xml version="1.0" encoding="utf-8"?>
<!-- Generator: Adobe Illustrator 17.0.0, SVG Export Plug-In . SVG Version: 6.00 Build 0)  -->
<!DOCTYPE svg PUBLIC "-//W3C//DTD SVG 1.1//EN" "http://www.w3.org/Graphics/SVG/1.1/DTD/svg11.dtd">
<svg version="1.1" id="Layer_1" xmlns="http://www.w3.org/2000/svg" xmlns:xlink="http://www.w3.org/1999/xlink" x="0px" y="0px"
	 width="50px" height="50px" viewBox="0 0 50 50" enable-background="new 0 0 50 50" xml:space="preserve">
<path d="M43,35h-2v-2h2V35z M48,7v29c0,1.102-0.898,2-2,2H31v3h3c1.652,0,3,1.348,3,3v2H13v-2c0-1.652,1.348-3,3-3h3v-3H4
	c-1.102,0-2-0.898-2-2V7c0-1.102,0.898-2,2-2h42C47.102,5,48,5.898,48,7z M16,43c-0.551,0-1,0.449-1,1h20c0-0.551-0.449-1-1-1H16z
	 M29,41v-3h-8v3H29z M46,32H4v4h42V32z M46,7H4v23h42V7z"/>
</svg>
