<?xml version="1.0" encoding="utf-8"?>
<!-- Generator: Adobe Illustrator 17.0.0, SVG Export Plug-In . SVG Version: 6.00 Build 0)  -->
<!DOCTYPE svg PUBLIC "-//W3C//DTD SVG 1.1//EN" "http://www.w3.org/Graphics/SVG/1.1/DTD/svg11.dtd">
<svg version="1.1" id="Layer_1" xmlns="http://www.w3.org/2000/svg" xmlns:xlink="http://www.w3.org/1999/xlink" x="0px" y="0px"
	 width="50px" height="50px" viewBox="0 0 50 50" enable-background="new 0 0 50 50" xml:space="preserve">
<path d="M25,7C15.075,7,7,15.075,7,25c0,9.925,8.075,18,18,18c9.925,0,18-8.075,18-18C43,15.075,34.925,7,25,7z M25,41
	c-8.822,0-16-7.178-16-16S16.178,9,25,9s16,7.178,16,16S33.822,41,25,41z M31,28.9c0,4-3.5,5.1-5,5.2V36h-2v-1.9
	c-1.7-0.3-4.7-1.3-5-5.6h2c0,1.3,0.9,3.7,4,3.7s3.8-1.5,3.8-3.1c0-4.8-9.3-1.5-9.3-7.9c0-3.4,2.9-4.8,4.5-5V14h2v2.3
	c2.9,0.5,3.9,2.5,4.5,4.7h-2c-0.3-1.6-1.3-2.9-3.4-2.9c-3,0-3.4,2-3.4,2.9c0,2.1,1.9,2.6,4,3.1C28.3,24.7,31,25.6,31,28.9z"/>
</svg>
