<?xml version="1.0" encoding="utf-8"?>
<!-- Generator: Adobe Illustrator 17.0.0, SVG Export Plug-In . SVG Version: 6.00 Build 0)  -->
<!DOCTYPE svg PUBLIC "-//W3C//DTD SVG 1.1//EN" "http://www.w3.org/Graphics/SVG/1.1/DTD/svg11.dtd">
<svg version="1.1" id="Layer_1" xmlns="http://www.w3.org/2000/svg" xmlns:xlink="http://www.w3.org/1999/xlink" x="0px" y="0px"
	 width="100px" height="100px" viewBox="0 0 100 100" enable-background="new 0 0 100 100" xml:space="preserve">
<path d="M66.301,61.398c0,2-0.901,12-14.301,13V80h-4v-5.602c-5.4-0.6-13.901-2.397-14.301-15.797h4.199
	c-0.4,12.6,11.803,12.598,12.203,12.598c11.8,0,12.199-8.001,12.199-9.801c0-14.2-27.402-4.2-27.402-23
	c0-3.8,1.902-12.197,13.102-12.797V20h4.102v5.602c9.6,0.4,13.599,8.599,13.199,14.199h-4.199c-0.2-3.4-1.4-11-11-11
	c-9.4,0-11.203,5.4-11.203,10C38.898,52.601,66.301,43.398,66.301,61.398z M96,50c0,25.381-20.619,46-46,46S4,75.381,4,50
	S24.619,4,50,4S96,24.619,96,50z M92,50C92,26.78,73.22,8,50,8S8,26.78,8,50s18.78,42,42,42S92,73.22,92,50z"/>
</svg>
