<?xml version="1.0" encoding="utf-8"?>
<!-- Generator: Adobe Illustrator 17.0.0, SVG Export Plug-In . SVG Version: 6.00 Build 0)  -->
<!DOCTYPE svg PUBLIC "-//W3C//DTD SVG 1.1//EN" "http://www.w3.org/Graphics/SVG/1.1/DTD/svg11.dtd">
<svg version="1.1" id="Layer_1" xmlns="http://www.w3.org/2000/svg" xmlns:xlink="http://www.w3.org/1999/xlink" x="0px" y="0px"
	 width="50px" height="50px" viewBox="0 0 50 50" enable-background="new 0 0 50 50" xml:space="preserve">
<path d="M25.285,11.609c0.207,0.363,0.168,0.82-0.098,1.141c0,0-2.367,3.055-4.75,7.063s-4.688,9.004-4.688,12.375
	c0,4.691,2.055,7.16,4.125,8.594S24,42.5,24,42.5c0.375,0.027,0.703,0.266,0.848,0.613s0.082,0.75-0.164,1.035
	s-0.629,0.41-0.996,0.32c0,0-2.492-0.348-4.969-2.063s-4.969-4.922-4.969-10.219c0-4.219,2.516-9.25,4.969-13.375
	s4.906-7.281,4.906-7.281c0.148-0.211,0.371-0.355,0.625-0.406C24.664,11.055,25.074,11.25,25.285,11.609z M42.625,32.375
	C42.625,42.094,34.719,50,25,50S7.375,42.094,7.375,32.375c0-6.039,4.281-13.809,8.469-20.281s8.375-11.563,8.375-11.563
	c0.145-0.176,0.34-0.297,0.563-0.344c0.039-0.012,0.082-0.023,0.125-0.031c0.336-0.031,0.664,0.109,0.875,0.375
	c0,0,4.188,5.09,8.375,11.563S42.625,26.336,42.625,32.375z M40.625,32.375c0-5.039-4.039-12.855-8.156-19.219
	C28.977,7.758,25.98,4.027,25,2.813c-0.98,1.215-3.977,4.945-7.469,10.344c-4.117,6.363-8.156,14.18-8.156,19.219
	C9.375,41.012,16.363,48,25,48S40.625,41.012,40.625,32.375z"/>
</svg>
