<?xml version="1.0" encoding="utf-8"?>
<!-- Generator: Adobe Illustrator 17.0.0, SVG Export Plug-In . SVG Version: 6.00 Build 0)  -->
<!DOCTYPE svg PUBLIC "-//W3C//DTD SVG 1.1//EN" "http://www.w3.org/Graphics/SVG/1.1/DTD/svg11.dtd">
<svg version="1.1" id="Layer_1" xmlns="http://www.w3.org/2000/svg" xmlns:xlink="http://www.w3.org/1999/xlink" x="0px" y="0px"
	 width="100px" height="100px" viewBox="0 0 100 100" enable-background="new 0 0 100 100" xml:space="preserve">
<path d="M48.039,18.531c-0.188-0.695,0.023-1.445,0.547-1.945l8-8c0.359-0.375,0.852-0.594,1.375-0.602
	c0.828-0.031,1.578,0.453,1.898,1.219c0.32,0.758,0.148,1.633-0.445,2.211l-8,8c-0.5,0.523-1.25,0.734-1.945,0.547
	C48.766,19.781,48.219,19.234,48.039,18.531z M38.992,17.758c0.625,0.359,1.391,0.359,2.016,0c0.625-0.367,1-1.039,0.992-1.758V4
	c0.008-0.539-0.203-1.063-0.586-1.445s-0.906-0.594-1.445-0.586C38.867,1.992,37.984,2.898,38,4v12
	C37.992,16.719,38.367,17.391,38.992,17.758z M85.758,69.07l-18,18c-0.375,0.375-0.883,0.586-1.414,0.586h0.828l-3.461,3.461
	c-6.453,6.453-16.969,6.453-23.422,0L24.586,75.414c-0.219-0.219-0.383-0.484-0.484-0.781l-8.539-25.602L4.586,38.055
	c-0.781-0.781-0.781-2.055,0-2.836l3.586-3.586c1.219-1.211,2.82-1.563,4.477-1.625s3.469,0.203,5.336,0.711
	c3.75,1.023,7.75,3.023,10.641,5.914c1.883,1.891,3.953,5.32,5.813,8.484c1.117,1.914,1.414,2.5,2.016,3.602L72.93,12.242
	c1.484-1.484,3.453-2.227,5.414-2.227s3.93,0.742,5.414,2.227c2.977,2.977,2.977,7.852,0,10.828L70.414,36.414
	c1.219,0.344,2.391,0.875,3.344,1.828c2.148,2.148,2.688,5.289,1.734,7.992c1.555,0.234,3.07,0.813,4.266,2.008
	c2.148,2.148,2.688,5.289,1.734,7.992c1.555,0.234,3.07,0.813,4.266,2.008C88.727,61.219,88.727,66.094,85.758,69.07z M82.93,61.07
	c-1.445-1.445-3.727-1.445-5.172,0c-0.789,0.758-2.031,0.742-2.797-0.031c-0.773-0.766-0.789-2.008-0.031-2.797l2-2
	c1.445-1.445,1.445-3.727,0-5.172s-3.727-1.445-5.172,0c-0.789,0.758-2.031,0.742-2.797-0.031c-0.773-0.766-0.789-2.008-0.031-2.797
	l2-2c1.445-1.445,1.445-3.727,0-5.172s-3.727-1.445-5.172,0c-0.789,0.758-2.031,0.742-2.797-0.031
	c-0.773-0.766-0.789-2.008-0.031-2.797l18-18c1.445-1.445,1.445-3.727,0-5.172c-0.727-0.727-1.656-1.086-2.586-1.086
	s-1.859,0.359-2.586,1.086L37.414,53.414c-0.445,0.445-1.086,0.656-1.711,0.563s-1.172-0.477-1.469-1.039
	c0,0-1.445-2.719-3.25-5.805c-1.805-3.078-4.133-6.609-5.18-7.664c-2.219-2.219-5.734-4.031-8.867-4.883
	c-1.57-0.43-3.039-0.617-4.133-0.578S11.094,34.367,11,34.461l-2.172,2.172l9.898,9.898c0.219,0.227,0.383,0.492,0.484,0.781
	l8.539,25.602l15.367,15.375c4.922,4.922,12.844,4.922,17.766,0l4.047-4.047l18-17.992C84.375,64.797,84.375,62.516,82.93,61.07z
	 M28.586,19.414c0.5,0.523,1.25,0.734,1.945,0.547c0.703-0.18,1.25-0.727,1.43-1.43c0.188-0.695-0.023-1.445-0.547-1.945l-8-8
	c-0.375-0.391-0.891-0.602-1.438-0.602c-0.813,0-1.539,0.492-1.852,1.242C19.82,9.984,20,10.844,20.586,11.414L28.586,19.414z"/>
</svg>
