<?xml version="1.0" encoding="utf-8"?>
<!-- Generator: Adobe Illustrator 17.0.0, SVG Export Plug-In . SVG Version: 6.00 Build 0)  -->
<!DOCTYPE svg PUBLIC "-//W3C//DTD SVG 1.1//EN" "http://www.w3.org/Graphics/SVG/1.1/DTD/svg11.dtd">
<svg version="1.1" id="Layer_1" xmlns="http://www.w3.org/2000/svg" xmlns:xlink="http://www.w3.org/1999/xlink" x="0px" y="0px"
	 width="50px" height="50px" viewBox="0 0 50 50" enable-background="new 0 0 50 50" xml:space="preserve">
<path d="M28,37c-1.105,0-2-0.895-2-2c0-0.219,0.044-0.425,0.109-0.622l-5.705-6.419C20.273,27.986,20.138,28,20,28
	c-0.178,0-0.347-0.031-0.512-0.074l-3.563,3.563C15.969,31.653,16,31.822,16,32c0,1.105-0.895,2-2,2s-2-0.895-2-2s0.895-2,2-2
	c0.178,0,0.347,0.031,0.512,0.074l3.563-3.563C18.031,26.347,18,26.178,18,26c0-1.105,0.895-2,2-2s2,0.895,2,2
	c0,0.219-0.044,0.425-0.109,0.622l5.706,6.418C27.727,33.014,27.862,33,28,33c0.101,0,0.198,0.015,0.295,0.03l5.845-7.306
	C34.053,25.499,34,25.256,34,25c0-1.105,0.895-2,2-2s2,0.895,2,2s-0.895,2-2,2c-0.101,0-0.198-0.015-0.295-0.03l-5.845,7.306
	C29.947,34.501,30,34.744,30,35C30,36.105,29.105,37,28,37z M48.862,35l-0.3,0.2L35.762,48c-0.2,0.2-0.3,0.3-0.5,0.3l-6,1.6
	c-0.1,0.1-0.3,0.1-0.5,0c-0.6-0.1-0.9-0.7-0.7-1.2l1.7-6c0.1-0.1,0.2-0.3,0.3-0.4l11.7-11.8l0.2-0.2l0.7-0.7l0.3-0.3l0.1-0.1
	l0.2-0.1c0.8-0.7,1.7-1.1,2.7-1.1s2.1,0.3,2.9,1.2C50.462,30.8,50.462,33.4,48.862,35z M33.362,46.9l-2.1-2.1l-0.8,2.9L33.362,46.9z
	 M46.162,34.9l-3-3l-10.9,11l3,2.9L46.162,34.9z M47.462,30.6c-0.4-0.4-1-0.6-1.5-0.6s-0.9,0.2-1.3,0.5l2.9,2.9
	C48.262,32.6,48.262,31.4,47.462,30.6z M9,46h17.726l-0.567,2H7V2h23.414L43,14.586v12.169c-0.498,0.274-0.962,0.618-1.375,1.031
	L41,28.411V16H29V4H9V46z M31,14h8.586L31,5.414V14z"/>
</svg>
