<?xml version="1.0" encoding="utf-8"?>
<!-- Generator: Adobe Illustrator 17.0.0, SVG Export Plug-In . SVG Version: 6.00 Build 0)  -->
<!DOCTYPE svg PUBLIC "-//W3C//DTD SVG 1.1//EN" "http://www.w3.org/Graphics/SVG/1.1/DTD/svg11.dtd">
<svg version="1.1" id="Layer_1" xmlns="http://www.w3.org/2000/svg" xmlns:xlink="http://www.w3.org/1999/xlink" x="0px" y="0px"
	 width="50px" height="50px" viewBox="0 0 50 50" enable-background="new 0 0 50 50" xml:space="preserve">
<path d="M34,23H16v-2h18V23z M16,35h6v-2h-6V35z M50,31v19H24v-3H8V3h22.414L42,14.586V31H50z M31,14h7.586L31,6.414V14z M24,45V31
	h16V16H29V5H10v40H24z M48,33H26v15h22V33z M46.871,36.264l-0.031-2.393L37,39.511l-9.869-5.597v2.351L37,41.924L46.871,36.264z
	 M29,27H16v2h13V27z"/>
</svg>
