<?xml version="1.0" encoding="utf-8"?>
<!-- Generator: Adobe Illustrator 17.0.0, SVG Export Plug-In . SVG Version: 6.00 Build 0)  -->
<!DOCTYPE svg PUBLIC "-//W3C//DTD SVG 1.1//EN" "http://www.w3.org/Graphics/SVG/1.1/DTD/svg11.dtd">
<svg version="1.1" id="Layer_1" xmlns="http://www.w3.org/2000/svg" xmlns:xlink="http://www.w3.org/1999/xlink" x="0px" y="0px"
	 width="100px" height="100px" viewBox="0 0 100 100" enable-background="new 0 0 100 100" xml:space="preserve">
<path d="M90,10v32.813c0.008,0.719-0.367,1.391-0.992,1.758c-0.625,0.359-1.391,0.359-2.016,0c-0.625-0.367-1-1.039-0.992-1.758v-26
	L16.813,86h26c0.719-0.008,1.391,0.367,1.758,0.992c0.359,0.625,0.359,1.391,0,2.016c-0.367,0.625-1.039,1-1.758,0.992H10V57.188
	c-0.023-0.953,0.633-1.789,1.563-2c0.602-0.133,1.234,0.016,1.703,0.406c0.477,0.391,0.75,0.977,0.734,1.594v26L83.188,14h-26
	c-1.102,0.102-2.086-0.711-2.188-1.813s0.711-2.086,1.813-2.188c0.063,0,0.125,0,0.188,0s0.125,0,0.188,0H90z"/>
</svg>
