<?xml version="1.0" encoding="utf-8"?>
<!-- Generator: Adobe Illustrator 17.0.0, SVG Export Plug-In . SVG Version: 6.00 Build 0)  -->
<!DOCTYPE svg PUBLIC "-//W3C//DTD SVG 1.1//EN" "http://www.w3.org/Graphics/SVG/1.1/DTD/svg11.dtd">
<svg version="1.1" id="Layer_1" xmlns="http://www.w3.org/2000/svg" xmlns:xlink="http://www.w3.org/1999/xlink" x="0px" y="0px"
	 width="50px" height="50px" viewBox="0 0 50 50" enable-background="new 0 0 50 50" xml:space="preserve">
<path d="M45,5v16.406c0.004,0.359-0.184,0.695-0.496,0.879c-0.313,0.18-0.695,0.18-1.008,0c-0.313-0.184-0.5-0.52-0.496-0.879v-13
	L8.406,43h13c0.359-0.004,0.695,0.184,0.879,0.496c0.18,0.313,0.18,0.695,0,1.008c-0.184,0.313-0.52,0.5-0.879,0.496H5V28.594
	c-0.012-0.477,0.316-0.895,0.781-1c0.301-0.066,0.617,0.008,0.852,0.203C6.871,27.992,7.008,28.285,7,28.594v13L41.594,7h-13
	c-0.551,0.051-1.043-0.355-1.094-0.906S27.855,5.051,28.406,5c0.031,0,0.063,0,0.094,0s0.063,0,0.094,0H45z"/>
</svg>
