<?xml version="1.0" encoding="utf-8"?>
<!-- Generator: Adobe Illustrator 17.0.0, SVG Export Plug-In . SVG Version: 6.00 Build 0)  -->
<!DOCTYPE svg PUBLIC "-//W3C//DTD SVG 1.1//EN" "http://www.w3.org/Graphics/SVG/1.1/DTD/svg11.dtd">
<svg version="1.1" id="Layer_1" xmlns="http://www.w3.org/2000/svg" xmlns:xlink="http://www.w3.org/1999/xlink" x="0px" y="0px"
	 width="100px" height="100px" viewBox="0 0 100 100" enable-background="new 0 0 100 100" xml:space="preserve">
<path d="M50,4C24.619,4,4,24.619,4,50s20.619,46,46,46s46-20.619,46-46S75.381,4,50,4z M50,92C26.78,92,8,73.22,8,50S26.78,8,50,8
	s42,18.78,42,42S73.22,92,50,92z M64.672,22.117c0,0-5.759-2.117-11.512-2.117c-5.304,0-9.326,1.734-11.805,4.801
	S38,31.962,38,36.453V40h-4c-1.104,0-2,0.895-2,2v10c0,1.104,0.896,2,2,2h4v24c0,1.104,0.896,2,2,2h12c1.105,0,2-0.896,2-2V54h8
	c0.954,0,1.775-0.674,1.961-1.609l2-10c0.216-1.083-0.488-2.137-1.571-2.352C64.261,40.013,64.131,40,64,40H54v-4.387
	c0-0.97,0.063-0.962,0.344-1.145S55.64,34,57.422,34H64c1.105,0,2-0.896,2-2v-8C66,23.155,65.468,22.401,64.672,22.117z M62,30
	h-4.578c-2.095,0-3.794,0.169-5.254,1.117S50,33.881,50,35.613V42c0,1.104,0.896,2,2,2h9.559l-1.199,6H52c-1.104,0-2,0.895-2,2v24
	h-8V52c0-1.105-0.895-2-2-2h-4v-6h4c1.105,0,2-0.896,2-2v-5.547c0-3.959,0.81-7.09,2.465-9.137C46.12,25.269,48.674,24,53.16,24
	c3.785,0,7.295,1.021,8.84,1.504V30z"/>
</svg>
