<?xml version="1.0" encoding="utf-8"?>
<!-- Generator: Adobe Illustrator 17.0.0, SVG Export Plug-In . SVG Version: 6.00 Build 0)  -->
<!DOCTYPE svg PUBLIC "-//W3C//DTD SVG 1.1//EN" "http://www.w3.org/Graphics/SVG/1.1/DTD/svg11.dtd">
<svg version="1.1" id="Layer_1" xmlns="http://www.w3.org/2000/svg" xmlns:xlink="http://www.w3.org/1999/xlink" x="0px" y="0px"
	 width="50px" height="50px" viewBox="0 0 50 50" enable-background="new 0 0 50 50" xml:space="preserve">
<path d="M31.813,41.594c-0.328,0.449-0.957,0.547-1.406,0.219s-0.547-0.957-0.219-1.406c3.207-4.391,3.758-8.547,2.656-12.469
	c-0.879-3.129-3.074-6.012-5.781-8.688c0.25,2.293,0.371,4.379,0.219,6.063c-0.219,2.41-0.785,4.246-1.813,5.438
	s-2.691,1.535-4.156,0.906c-1.133-0.488-2.195-1.543-3.25-2.906c-2.52,3.938-2.281,6.637-1.375,8.438
	c1,1.98,2.781,2.938,2.781,2.938c0.359,0.141,0.609,0.473,0.637,0.859s-0.168,0.754-0.504,0.945c-0.34,0.188-0.754,0.168-1.07-0.055
	c0,0-2.313-1.211-3.625-3.813s-1.48-6.625,2.25-11.656c0.199-0.254,0.508-0.398,0.828-0.387c0.324,0.012,0.621,0.18,0.797,0.449
	c1.23,1.898,2.449,2.973,3.313,3.344s1.301,0.289,1.875-0.375s1.117-2.109,1.313-4.281s0.047-5.07-0.563-8.594
	c-0.043-0.27,0.023-0.547,0.188-0.766c0.168-0.219,0.414-0.359,0.688-0.391c0.27-0.031,0.539,0.047,0.75,0.219
	c4.023,3.316,7.18,7.316,8.438,11.781S35.316,36.797,31.813,41.594z M22.5,0.188C22.309,0.051,22.078-0.016,21.844,0
	c-0.031,0-0.063,0-0.094,0c-0.445,0.082-0.777,0.457-0.813,0.906c-0.621,6.949-4.637,11.535-8.719,16.281S4,26.895,4,34.344
	c0,5.105,2.285,9.063,5.281,11.688S15.945,50,19,50c0.359,0.004,0.695-0.184,0.879-0.496c0.18-0.313,0.18-0.695,0-1.008
	c-0.184-0.313-0.52-0.5-0.879-0.496c-2.445,0-5.777-1.164-8.406-3.469S6,38.859,6,34.344c0-6.715,3.684-11.145,7.75-15.875
	c3.754-4.367,7.703-9.059,8.844-15.75C37.738,13.34,44,24.137,44,32.25c0,7.711-4.707,13.918-9.375,15.813
	c-0.52,0.207-0.77,0.793-0.563,1.313s0.793,0.77,1.313,0.563C40.988,47.66,46,40.762,46,32.25C46,22.883,38.906,11.309,22.5,0.188z"
	/>
</svg>
