<?xml version="1.0" encoding="utf-8"?>
<!-- Generator: Adobe Illustrator 17.0.0, SVG Export Plug-In . SVG Version: 6.00 Build 0)  -->
<!DOCTYPE svg PUBLIC "-//W3C//DTD SVG 1.1//EN" "http://www.w3.org/Graphics/SVG/1.1/DTD/svg11.dtd">
<svg version="1.1" id="Capa_1" xmlns="http://www.w3.org/2000/svg" xmlns:xlink="http://www.w3.org/1999/xlink" x="0px" y="0px"
	 width="612px" height="792px" viewBox="0 0 612 792" enable-background="new 0 0 612 792" xml:space="preserve">
<path d="M461.312,378.959c-0.908-3.021-3.299-5.374-6.338-6.227L337.348,339.17l68.422-237.346c1.223-4.188-0.686-8.692-4.54-10.749
	c-3.855-2.02-8.636-1.149-11.453,2.205L152.467,375.197c-2.039,2.409-2.687,5.689-1.779,8.692c0.927,3.002,3.317,5.337,6.338,6.19
	l116.996,33.377l-96.795,266.109c-1.538,4.225,0.167,8.914,4.04,11.175c1.445,0.853,3.058,1.26,4.67,1.26
	c2.632,0,5.226-1.13,7.042-3.225L459.477,387.67C461.534,385.279,462.239,381.98,461.312,378.959z M212.068,647.941l82.766-227.543
	c0.89-2.409,0.723-5.078-0.445-7.376c-1.186-2.28-3.243-3.984-5.727-4.689L175.855,376.18l200.04-237.624l-58.933,204.395
	c-0.686,2.372-0.408,4.911,0.797,7.061c1.205,2.15,3.206,3.744,5.578,4.411l112.659,32.117L212.068,647.941z"/>
</svg>
