<?xml version="1.0" encoding="iso-8859-1"?>
<!-- Generator: Adobe Illustrator 21.1.0, SVG Export Plug-In . SVG Version: 6.00 Build 0)  -->
<svg xmlns="http://www.w3.org/2000/svg" xmlns:xlink="http://www.w3.org/1999/xlink" version="1.1" id="Layer_1" x="0px" y="0px" viewBox="0 0 50 50" style="enable-background:new 0 0 50 50;" xml:space="preserve" width="50px" height="50px">
<line style="fill:none;stroke:#000000;stroke-width:2;stroke-linecap:round;stroke-linejoin:round;stroke-miterlimit:10;" x1="20" y1="2" x2="20" y2="8"/>
<line style="fill:none;stroke:#000000;stroke-width:2;stroke-linecap:round;stroke-linejoin:round;stroke-miterlimit:10;" x1="29" y1="5" x2="25" y2="9"/>
<line style="fill:none;stroke:#000000;stroke-width:2;stroke-linecap:round;stroke-linejoin:round;stroke-miterlimit:10;" x1="11" y1="5" x2="15" y2="9"/>
<g>
	<g>
		<path style="fill:none;stroke:#000000;stroke-width:2;stroke-linecap:round;stroke-linejoin:round;stroke-miterlimit:10;" d="    M42.172,29.828c-1.105-1.105-2.895-1.105-4,0l1-1c1.105-1.105,1.105-2.895,0-4c-1.105-1.105-2.895-1.105-4,0l1-1    c1.105-1.105,1.105-2.895,0-4c-1.105-1.105-2.895-1.105-4,0l9-9c1.105-1.105,1.105-2.895,0-4c-1.105-1.105-2.895-1.105-4,0L18,26    c0,0-2.925-5.506-4.393-6.975c-2.557-2.556-7.506-3.807-8.812-2.502C3.925,17.393,3,18.318,3,18.318l5.657,5.657L13,37    l7.852,7.852c2.843,2.843,7.453,2.843,10.297,0l2.023-2.023l0,0l9-9C43.276,32.724,43.276,30.933,42.172,29.828z"/>
	</g>
</g>
</svg>