<?xml version="1.0" encoding="utf-8"?>
<!-- Generator: Adobe Illustrator 17.0.0, SVG Export Plug-In . SVG Version: 6.00 Build 0)  -->
<!DOCTYPE svg PUBLIC "-//W3C//DTD SVG 1.1//EN" "http://www.w3.org/Graphics/SVG/1.1/DTD/svg11.dtd">
<svg version="1.1" id="Layer_1" xmlns="http://www.w3.org/2000/svg" xmlns:xlink="http://www.w3.org/1999/xlink" x="0px" y="0px"
	 width="50px" height="50px" viewBox="0 0 50 50" enable-background="new 0 0 50 50" xml:space="preserve">
<path d="M19,12c2.75,0,5-2.254,5-5c0-2.75-2.25-5-5-5s-5,2.25-5,5C14,9.746,16.25,12,19,12z M19,4c1.668,0,3,1.328,3,3
	c0,1.668-1.332,2.996-3,3c-1.668-0.004-3-1.332-3-3C16,5.328,17.332,4,19,4z M40.609,21.426l-1.832-5.023
	c0.926-0.691,1.438-1.91,1.129-3.16c-0.27-1.074-1.105-1.898-2.184-2.156c-0.191-0.047-0.387-0.074-0.578-0.082
	c-0.574-0.027-1.129,0.109-1.598,0.371c-0.031,0.012-0.082,0.035-0.145,0.063c-0.125,0.059-0.301,0.141-0.516,0.238
	c-0.43,0.199-1.008,0.461-1.625,0.742c-1.234,0.563-2.625,1.195-3.285,1.492c-0.129,0.063-0.262,0.09-0.41,0.09H14.625
	c-1.262,0-2.508,0.637-3.172,1.813c-0.027,0.047-0.051,0.094-0.066,0.145l-1.996,5.48c-0.508,0.98-0.516,2.156-0.004,3.141
	l-0.039-0.082L11.598,30c0.012,0.031,0.027,0.059,0.043,0.086c0.496,0.953,1.375,1.582,2.359,1.816v12.805
	C14,46.629,15.699,48,17.5,48c0.996,0,1.867-0.441,2.5-1.121C20.633,47.559,21.508,48,22.5,48c0.941,0,1.852-0.383,2.508-1.016
	C25.664,47.621,26.566,48,27.5,48c0.965,0,1.891-0.402,2.551-1.063C30.68,47.586,31.531,48,32.5,48c1.801,0,3.5-1.371,3.5-3.293
	V31.891c0.984-0.23,1.863-0.859,2.359-1.813l0.023-0.039l2.27-5.547l-0.039,0.082C41.125,23.586,41.117,22.41,40.609,21.426z M25,18
	c-0.551,0-1,0.449-1,1v25.66c0,0.008,0,0.016,0,0.023s0,0.016,0,0.023C24,45.352,23.242,46,22.5,46
	c-0.723,0-1.352-0.578-1.496-1.383c0-0.008,0-0.02-0.004-0.027V32c0.004-0.273-0.102-0.531-0.293-0.723s-0.449-0.297-0.723-0.293
	C19.434,30.992,18.996,31.445,19,32v12.602C18.863,45.414,18.227,46,17.5,46c-0.742,0-1.5-0.648-1.5-1.293V21
	c0.004-0.273-0.102-0.531-0.293-0.723s-0.453-0.297-0.723-0.293C14.434,19.992,13.992,20.445,14,21v8.77
	c-0.242-0.141-0.445-0.348-0.582-0.602l-2.219-5.43c-0.012-0.027-0.023-0.055-0.039-0.082c-0.223-0.438-0.215-0.93,0.027-1.359
	c0.027-0.047,0.051-0.102,0.07-0.152l1.957-5.359c0.277-0.477,0.84-0.785,1.41-0.785h14.941c0.422,0,0.848-0.09,1.234-0.266
	c0.664-0.301,2.055-0.934,3.293-1.496c0.617-0.281,1.195-0.547,1.625-0.742c0.215-0.098,0.395-0.18,0.52-0.242
	c0.066-0.027,0.117-0.051,0.156-0.066c0.039-0.02-0.023,0.02,0.125-0.066v0.004c0.105-0.059,0.215-0.102,0.34-0.117
	c0.121-0.016,0.254-0.012,0.402,0.023c0.316,0.074,0.621,0.379,0.703,0.695c0.132,0.519-0.099,0.919-0.457,1.131
	c-0.03,0.015-0.114,0.059-0.203,0.1c-0.137,0.066-0.324,0.156-0.551,0.262c-0.449,0.215-1.047,0.496-1.695,0.797
	c-1.297,0.605-2.789,1.293-3.684,1.707C30.984,17.906,30.555,18,30.121,18H25z M38.84,23.652l-0.023,0.039l-2.234,5.465
	c-0.137,0.258-0.34,0.465-0.582,0.609V21c0.004-0.273-0.102-0.531-0.293-0.723s-0.453-0.297-0.723-0.293
	C34.434,19.992,33.992,20.445,34,21v23.707C34,45.352,33.242,46,32.5,46c-0.727,0-1.359-0.582-1.5-1.391V32
	c0.004-0.273-0.102-0.531-0.293-0.723s-0.453-0.297-0.723-0.293C29.434,30.992,28.992,31.445,29,32v12.559
	c-0.004,0.051-0.004,0.109,0,0.16C28.988,45.363,28.238,46,27.5,46c-0.742,0-1.5-0.625-1.5-1.34V20h4.121
	c0.723,0,1.438-0.156,2.098-0.465c0.891-0.41,2.383-1.102,3.684-1.707c0.41-0.191,0.734-0.344,1.082-0.504l1.785,4.895l0.043,0.074
	C39.055,22.723,39.063,23.215,38.84,23.652z M30,12c2.75,0,5-2.25,5-5s-2.25-5-5-5s-5,2.25-5,5S27.25,12,30,12z M30,4
	c1.668,0,3,1.332,3,3s-1.332,3-3,3s-3-1.332-3-3S28.332,4,30,4z"/>
</svg>
