<svg xmlns="http://www.w3.org/2000/svg" xmlns:xlink="http://www.w3.org/1999/xlink" viewBox="0 0 50 50" version="1.1" width="50" height="50">
<g id="surface1">
<path style=" " d="M 19 2 C 16.25 2 14 4.25 14 7 C 14 9.746094 16.25 12 19 12 C 21.75 12 24 9.746094 24 7 C 24 4.25 21.75 2 19 2 Z M 30 2 C 27.25 2 25 4.25 25 7 C 25 9.75 27.25 12 30 12 C 32.75 12 35 9.75 35 7 C 35 4.25 32.75 2 30 2 Z M 19 4 C 20.667969 4 22 5.328125 22 7 C 22 8.667969 20.667969 9.996094 19 10 C 17.332031 9.996094 16 8.667969 16 7 C 16 5.328125 17.332031 4 19 4 Z M 30 4 C 31.667969 4 33 5.332031 33 7 C 33 8.667969 31.667969 10 30 10 C 28.332031 10 27 8.667969 27 7 C 27 5.332031 28.332031 4 30 4 Z M 37.144531 11.003906 C 36.570313 10.976563 36.015625 11.113281 35.546875 11.375 C 35.515625 11.386719 35.464844 11.410156 35.402344 11.4375 C 35.277344 11.496094 35.101563 11.578125 34.886719 11.675781 C 34.457031 11.875 33.878906 12.136719 33.261719 12.417969 C 32.027344 12.980469 30.636719 13.613281 29.976563 13.910156 C 29.847656 13.972656 29.714844 14 29.566406 14 L 14.625 14 C 13.363281 14 12.117188 14.636719 11.453125 15.8125 C 11.425781 15.859375 11.402344 15.90625 11.386719 15.957031 L 9.390625 21.4375 C 8.882813 22.417969 8.875 23.59375 9.386719 24.578125 L 9.347656 24.496094 L 11.597656 30 C 11.609375 30.03125 11.625 30.058594 11.640625 30.085938 C 12.136719 31.039063 13.015625 31.667969 14 31.902344 L 14 44.707031 C 14 46.628906 15.699219 48 17.5 48 C 18.496094 48 19.367188 47.558594 20 46.878906 C 20.632813 47.558594 21.507813 48 22.5 48 C 23.441406 48 24.351563 47.617188 25.007813 46.984375 C 25.664063 47.621094 26.566406 48 27.5 48 C 28.464844 48 29.390625 47.597656 30.050781 46.9375 C 30.679688 47.585938 31.53125 48 32.5 48 C 34.300781 48 36 46.628906 36 44.707031 L 36 31.890625 C 36.984375 31.660156 37.863281 31.03125 38.359375 30.078125 L 38.382813 30.039063 L 40.652344 24.492188 L 40.613281 24.574219 C 41.125 23.585938 41.117188 22.410156 40.609375 21.425781 L 38.777344 16.402344 C 39.703125 15.710938 40.214844 14.492188 39.90625 13.242188 C 39.636719 12.167969 38.800781 11.34375 37.722656 11.085938 C 37.53125 11.039063 37.335938 11.011719 37.144531 11.003906 Z M 36.859375 13.007813 C 36.980469 12.992188 37.113281 12.996094 37.261719 13.03125 C 37.578125 13.105469 37.882813 13.410156 37.964844 13.726563 C 38.097656 14.25 37.863281 14.652344 37.5 14.863281 C 37.582031 14.816406 37.441406 14.894531 37.304688 14.957031 C 37.167969 15.023438 36.980469 15.113281 36.753906 15.21875 C 36.304688 15.433594 35.707031 15.714844 35.058594 16.015625 C 33.761719 16.621094 32.269531 17.308594 31.375 17.722656 C 30.984375 17.90625 30.554688 18 30.121094 18 L 25 18 C 24.449219 18 24 18.449219 24 19 L 24 44.660156 C 24 44.667969 24 44.675781 24 44.683594 C 24 44.691406 24 44.699219 24 44.707031 C 24 45.351563 23.242188 46 22.5 46 C 21.777344 46 21.148438 45.421875 21.003906 44.617188 C 21.003906 44.609375 21.003906 44.597656 21 44.589844 L 21 32 C 21.003906 31.726563 20.898438 31.46875 20.707031 31.277344 C 20.515625 31.085938 20.257813 30.980469 19.984375 30.984375 C 19.433594 30.992188 18.996094 31.445313 19 32 L 19 44.601563 C 18.863281 45.414063 18.226563 46 17.5 46 C 16.757813 46 16 45.351563 16 44.707031 L 16 21 C 16.003906 20.726563 15.898438 20.46875 15.707031 20.277344 C 15.515625 20.085938 15.253906 19.980469 14.984375 19.984375 C 14.433594 19.992188 13.992188 20.445313 14 21 L 14 29.769531 C 13.757813 29.628906 13.554688 29.421875 13.417969 29.167969 L 11.199219 23.738281 C 11.1875 23.710938 11.175781 23.683594 11.160156 23.65625 C 10.9375 23.21875 10.945313 22.726563 11.1875 22.296875 C 11.214844 22.25 11.238281 22.195313 11.257813 22.144531 L 13.214844 16.785156 C 13.492188 16.308594 14.054688 16 14.625 16 L 29.566406 16 C 29.988281 16 30.414063 15.910156 30.800781 15.734375 C 31.464844 15.433594 32.855469 14.800781 34.09375 14.238281 C 34.710938 13.957031 35.289063 13.691406 35.71875 13.496094 C 35.933594 13.398438 36.113281 13.316406 36.238281 13.253906 C 36.304688 13.226563 36.355469 13.203125 36.394531 13.1875 C 36.433594 13.167969 36.371094 13.207031 36.519531 13.121094 L 36.519531 13.125 C 36.625 13.066406 36.734375 13.023438 36.859375 13.007813 Z M 36.984375 17.324219 L 38.769531 22.21875 L 38.8125 22.292969 C 39.054688 22.722656 39.0625 23.214844 38.839844 23.652344 L 38.816406 23.691406 L 36.582031 29.15625 C 36.445313 29.414063 36.242188 29.621094 36 29.765625 L 36 21 C 36.003906 20.726563 35.898438 20.46875 35.707031 20.277344 C 35.515625 20.085938 35.253906 19.980469 34.984375 19.984375 C 34.433594 19.992188 33.992188 20.445313 34 21 L 34 44.707031 C 34 45.351563 33.242188 46 32.5 46 C 31.773438 46 31.140625 45.417969 31 44.609375 L 31 32 C 31.003906 31.726563 30.898438 31.46875 30.707031 31.277344 C 30.515625 31.085938 30.253906 30.980469 29.984375 30.984375 C 29.433594 30.992188 28.992188 31.445313 29 32 L 29 44.558594 C 28.996094 44.609375 28.996094 44.667969 29 44.71875 C 28.988281 45.363281 28.238281 46 27.5 46 C 26.757813 46 26 45.375 26 44.660156 L 26 20 L 30.121094 20 C 30.84375 20 31.558594 19.84375 32.21875 19.535156 C 33.109375 19.125 34.601563 18.433594 35.902344 17.828125 C 36.3125 17.636719 36.636719 17.484375 36.984375 17.324219 Z "/>
</g>
</svg>