<?xml version="1.0" encoding="utf-8"?>
<!-- Generator: Adobe Illustrator 17.0.0, SVG Export Plug-In . SVG Version: 6.00 Build 0)  -->
<!DOCTYPE svg PUBLIC "-//W3C//DTD SVG 1.1//EN" "http://www.w3.org/Graphics/SVG/1.1/DTD/svg11.dtd">
<svg version="1.1" id="Layer_1" xmlns="http://www.w3.org/2000/svg" xmlns:xlink="http://www.w3.org/1999/xlink" x="0px" y="0px"
	 width="100px" height="100px" viewBox="0 0 100 100" enable-background="new 0 0 100 100" xml:space="preserve">
<path d="M4,58h22v4c0,4.016-1.234,7.609-3.117,10.117C21.008,74.617,18.594,76,16,76h-2v14h2c15.438,0,28-12.563,28-28V18H4V58z
	 M8,22h32v40c0,12.57-9.711,22.531-22,23.594v-6.125c3.172-0.617,6.063-2.258,8.086-4.961C28.547,71.227,30,66.82,30,62v-8H8V22z
	 M56,18v40h22v4c0,4.016-1.234,7.609-3.117,10.117C73.008,74.617,70.594,76,68,76h-2v14h2c15.438,0,28-12.563,28-28V18H56z M92,62
	c0,12.57-9.711,22.531-22,23.594v-6.125c3.172-0.617,6.063-2.258,8.086-4.961C80.547,71.227,82,66.82,82,62v-8H60V22h32V62z"/>
</svg>
