<?xml version="1.0" encoding="utf-8"?>
<!-- Generator: Adobe Illustrator 17.0.0, SVG Export Plug-In . SVG Version: 6.00 Build 0)  -->
<!DOCTYPE svg PUBLIC "-//W3C//DTD SVG 1.1//EN" "http://www.w3.org/Graphics/SVG/1.1/DTD/svg11.dtd">
<svg version="1.1" id="Layer_1" xmlns="http://www.w3.org/2000/svg" xmlns:xlink="http://www.w3.org/1999/xlink" x="0px" y="0px"
	 width="50px" height="50px" viewBox="0 0 50 50" enable-background="new 0 0 50 50" xml:space="preserve">
<path d="M48.844,27.5l-4,0.625l-0.313,0.031l-0.594,0.594c-0.07-0.082-0.141-0.172-0.219-0.25L31.406,16.188
	c-0.047-0.047-0.102-0.09-0.156-0.125c-0.012-0.012-0.02-0.02-0.031-0.031c-0.262-0.387-0.754-0.539-1.188-0.375l-6.5,2.5
	c-3.418,1.352-7.266,0.473-9.688-2.219l-0.031-0.031c-0.129-0.129-0.137-0.219,0.031-0.281h0.063l0.031-0.031l12.344-6.031
	c0.211-0.031,0.41-0.129,0.563-0.281l5.281-2.594h0.031C34,5.766,36.152,5.953,37.844,7.094l0.375,0.438l0.094,0.125l0.125,0.063
	c1.816,1.25,4.004,1.582,6.063,1.031v0.031l0.063-0.031l4.656-0.969c0.543-0.121,0.887-0.66,0.766-1.203s-0.66-0.887-1.203-0.766
	l-4.688,1l-0.031,0.031h-0.031C42.539,7.258,41,6.984,39.656,6.094l-0.375-0.438l-0.094-0.094l-0.125-0.094
	c-1.148-0.805-2.461-1.242-3.813-1.344c-0.34-0.023-0.691-0.02-1.031,0c-1.02,0.059-2.023,0.309-2.969,0.781l-5.5,2.688H10.125
	L1.25,5.438C1.117,5.398,0.98,5.391,0.844,5.406C0.359,5.465-0.008,5.863-0.031,6.352C-0.055,6.836,0.273,7.27,0.75,7.375l9,2.188
	l0.125,0.031h11.781l-8.5,4.156c-0.035,0.016-0.059,0.047-0.094,0.063c-1.32,0.582-1.668,2.387-0.688,3.438l-0.031,0.031
	c0.016,0.016,0.047,0.016,0.063,0.031c2.977,3.262,7.691,4.344,11.844,2.719h0.031l5.875-2.281l12.125,12.156
	c0.918,0.918,0.918,2.363,0,3.281s-2.363,0.918-3.281,0c-0.398-0.32-0.973-0.289-1.336,0.07c-0.359,0.363-0.391,0.938-0.07,1.336
	c0.918,0.918,0.918,2.395,0,3.313s-2.363,0.918-3.281,0l-0.719-0.719c-0.398-0.32-0.973-0.289-1.336,0.07
	c-0.359,0.363-0.391,0.938-0.07,1.336c0.918,0.918,0.918,2.395,0,3.313s-2.363,0.918-3.281,0l-0.688-0.719
	c-0.387-0.398-1.023-0.402-1.422-0.016s-0.402,1.023-0.016,1.422c0.918,0.918,0.918,2.395,0,3.313s-2.363,0.918-3.281,0l-1.25-1.25
	l0.75-0.75c1.465-1.465,1.465-3.848,0-5.313c-0.73-0.73-1.695-1.094-2.656-1.094c-0.012,0-0.02,0-0.031,0
	c0.016-0.984-0.348-1.973-1.094-2.719c-0.73-0.73-1.695-1.094-2.656-1.094c-0.051,0-0.105-0.004-0.156,0
	c0.031-1.004-0.328-2.016-1.094-2.781c-0.73-0.73-1.695-1.125-2.656-1.125c-0.051,0-0.105-0.004-0.156,0
	c0.031-1.004-0.328-2.016-1.094-2.781c-0.73-0.73-1.695-1.094-2.656-1.094S6.824,26.27,6.094,27l-0.906,0.906l-4.031-0.688
	c-0.063-0.016-0.125-0.027-0.188-0.031c-0.551-0.035-1.027,0.387-1.063,0.938s0.387,1.027,0.938,1.063l3.281,0.594
	c-0.297,1.23,0.012,2.574,0.969,3.531c0.773,0.773,1.801,1.137,2.813,1.094C7.863,35.418,8.227,36.445,9,37.219
	s1.801,1.137,2.813,1.094c-0.031,1.004,0.328,2.016,1.094,2.781c0.746,0.746,1.734,1.109,2.719,1.094
	c-0.023,0.988,0.328,1.984,1.063,2.719l0.031,0.031c1.043,1.02,2.543,1.289,3.844,0.844l1.531,1.531c1.68,1.68,4.445,1.68,6.125,0
	c0.816-0.816,1.195-1.895,1.219-2.969c1.445,0.383,3.031,0.094,4.156-1.031c0.816-0.816,1.227-1.895,1.25-2.969
	c1.441,0.379,3.031,0.094,4.156-1.031c0.961-0.961,1.324-2.27,1.188-3.531c1.262,0.141,2.57-0.227,3.531-1.188
	c1.074-1.074,1.457-2.582,1.156-3.969l0.594-0.594l3.688-0.531c0.551-0.086,0.93-0.605,0.844-1.156S49.395,27.414,48.844,27.5z
	 M9.125,31.75L9,31.906c-0.734,0.734-1.766,0.734-2.5,0c-0.602-0.602-0.691-1.391-0.313-2.063c0.176-0.125,0.305-0.297,0.375-0.5
	l0.813-0.781L7.5,28.406c0.367-0.367,0.813-0.563,1.25-0.563s0.883,0.195,1.25,0.563c0.734,0.734,0.734,1.766,0,2.5l-0.781,0.75
	L9.125,31.75z M10.406,35.781c-0.734-0.734-0.734-1.734,0-2.469l1-1c0.367-0.367,0.813-0.563,1.25-0.563s0.883,0.195,1.25,0.563
	c0.734,0.734,0.734,1.734,0,2.469l-1,1C12.172,36.516,11.141,36.516,10.406,35.781z M16.688,39.594v0.031h-0.031
	c-0.109,0.121-0.191,0.246-0.281,0.375c-0.668,0.395-1.457,0.293-2.063-0.313c-0.734-0.734-0.734-1.734,0-2.469l0.75-0.781
	l0.188-0.156l0.063-0.063c0.367-0.367,0.813-0.563,1.25-0.563s0.852,0.195,1.219,0.563c0.605,0.605,0.707,1.395,0.313,2.063
	c-0.137,0.102-0.281,0.188-0.406,0.313L16.688,39.594z M21.594,42.5l-1,1c-0.086,0.086-0.156,0.184-0.25,0.25
	c-0.008,0.004-0.023-0.004-0.031,0c-0.699,0.484-1.574,0.395-2.219-0.25c-0.473-0.473-0.582-1.418-0.25-2.125
	c0.125-0.098,0.262-0.168,0.375-0.281l1-1c0.133-0.133,0.234-0.289,0.344-0.438c0.25-0.125,0.52-0.188,0.781-0.188
	c0.438,0,0.883,0.164,1.25,0.531C22.328,40.734,22.328,41.766,21.594,42.5z"/>
</svg>
