<?xml version="1.0" encoding="utf-8"?>
<!-- Generator: Adobe Illustrator 17.0.0, SVG Export Plug-In . SVG Version: 6.00 Build 0)  -->
<!DOCTYPE svg PUBLIC "-//W3C//DTD SVG 1.1//EN" "http://www.w3.org/Graphics/SVG/1.1/DTD/svg11.dtd">
<svg version="1.1" id="Capa_1" xmlns="http://www.w3.org/2000/svg" xmlns:xlink="http://www.w3.org/1999/xlink" x="0px" y="0px"
	 width="612px" height="792px" viewBox="0 0 612 792" enable-background="new 0 0 612 792" xml:space="preserve">
<path d="M610.988,281.167c-8.933-98.326-78.529-169.663-165.626-169.663c-58.026,0-111.155,31.226-141.051,81.271
	c-29.625-50.693-80.577-81.283-137.673-81.283c-87.086,0-156.693,71.337-165.614,169.663c-0.706,4.343-3.602,27.2,5.202,64.476
	C18.914,399.396,48.221,448.3,90.958,487.023L304.17,680.508l216.872-193.474c42.737-38.735,72.044-87.627,84.732-141.404
	C614.578,308.367,611.682,285.51,610.988,281.167z M582.858,340.24c-11.582,49.104-38.429,93.841-77.564,129.292L304.311,648.847
	L106.777,469.58c-39.206-35.522-66.041-80.247-77.634-129.351c-8.333-35.274-4.908-55.201-4.896-55.33l0.177-1.189
	c7.65-86.144,67.453-148.677,142.216-148.677c55.166,0,103.728,33.897,126.774,88.451l10.84,25.694l10.84-25.694
	c22.681-53.718,73.809-88.439,130.281-88.439c74.751,0,134.565,62.534,142.369,149.796
	C587.766,285.027,591.191,304.966,582.858,340.24z M200.077,194.799c0,6.509-5.261,11.77-11.77,11.77
	c-51.917,0-94.159,42.242-94.159,94.159c0,6.509-5.261,11.77-11.77,11.77c-6.509,0-11.77-5.261-11.77-11.77
	c0-64.899,52.8-117.699,117.699-117.699C194.804,183.029,200.077,188.291,200.077,194.799z"/>
</svg>
