<?xml version="1.0" encoding="utf-8"?>
<!-- Generator: Adobe Illustrator 17.0.0, SVG Export Plug-In . SVG Version: 6.00 Build 0)  -->
<!DOCTYPE svg PUBLIC "-//W3C//DTD SVG 1.1//EN" "http://www.w3.org/Graphics/SVG/1.1/DTD/svg11.dtd">
<svg version="1.1" id="Layer_1" xmlns="http://www.w3.org/2000/svg" xmlns:xlink="http://www.w3.org/1999/xlink" x="0px" y="0px"
	 width="50px" height="50px" viewBox="0 0 50 50" enable-background="new 0 0 50 50" xml:space="preserve">
<path d="M35,7c-4.055,0-7.617,1.926-10,4.844C22.617,8.926,19.055,7,15,7C7.832,7,2,12.832,2,20
	c0,14.762,16.695,22.047,22.375,26.781L25,47.313l0.625-0.531C31.305,42.047,48,34.762,48,20C48,12.832,42.168,7,35,7z M25,44.781
	C18.406,39.574,4,32.898,4,20C4,13.914,8.914,9,15,9c3.836,0,7.188,1.969,9.156,4.938L25,15.188l0.844-1.25
	C27.813,10.969,31.164,9,35,9c6.086,0,11,4.914,11,11C46,32.898,31.594,39.574,25,44.781z"/>
</svg>
