<?xml version="1.0" encoding="utf-8"?>
<!-- Generator: Adobe Illustrator 17.0.0, SVG Export Plug-In . SVG Version: 6.00 Build 0)  -->
<!DOCTYPE svg PUBLIC "-//W3C//DTD SVG 1.1//EN" "http://www.w3.org/Graphics/SVG/1.1/DTD/svg11.dtd">
<svg version="1.1" id="Layer_1" xmlns="http://www.w3.org/2000/svg" xmlns:xlink="http://www.w3.org/1999/xlink" x="0px" y="0px"
	 width="50px" height="50px" viewBox="0 0 50 50" enable-background="new 0 0 50 50" xml:space="preserve">
<path d="M25,2C12.318,2,2,12.318,2,25c0,12.683,10.318,23,23,23c12.683,0,23-10.317,23-23C48,12.318,37.683,2,25,2z M25,46
	C13.42,46,4,36.579,4,25C4,13.42,13.42,4,25,4c11.579,0,21,9.42,21,21C46,36.579,36.579,46,25,46z M26.797,33.851v3.084
	c0,0.216-0.144,0.358-0.358,0.358h-2.726c-0.217,0-0.359-0.143-0.359-0.358v-3.084c0-0.215,0.143-0.358,0.359-0.358h2.726
	C26.654,33.493,26.797,33.637,26.797,33.851z M31.78,18.605c0,1.722-0.608,2.977-1.828,4.663l-2.403,3.3
	c-0.717,0.968-0.933,1.47-0.933,2.689v1.147c0,0.215-0.143,0.358-0.358,0.358h-2.367c-0.215,0.004-0.358-0.14-0.358-0.355v-1.47
	c0-1.436,0.322-2.188,1.075-3.229l2.404-3.3c1.254-1.721,1.684-2.546,1.684-3.766c0-2.044-1.434-3.335-3.479-3.335
	c-2.008,0-3.299,1.219-3.729,3.407c-0.036,0.215-0.179,0.323-0.395,0.287l-2.259-0.395c-0.216-0.036-0.323-0.179-0.288-0.395
	c0.539-3.443,3.014-5.703,6.744-5.703C29.162,12.508,31.78,15.054,31.78,18.605z"/>
</svg>
