<?xml version="1.0" encoding="utf-8"?>
<!-- Generator: Adobe Illustrator 17.0.0, SVG Export Plug-In . SVG Version: 6.00 Build 0)  -->
<!DOCTYPE svg PUBLIC "-//W3C//DTD SVG 1.1//EN" "http://www.w3.org/Graphics/SVG/1.1/DTD/svg11.dtd">
<svg version="1.1" id="Layer_1" xmlns="http://www.w3.org/2000/svg" xmlns:xlink="http://www.w3.org/1999/xlink" x="0px" y="0px"
	 width="100px" height="100px" viewBox="0 0 100 100" enable-background="new 0 0 100 100" xml:space="preserve">
<path d="M59.438,36.563c0.797,0.797,0.797,2.078,0,2.875L52,46.875V72h-4V46.875l-7.438-7.438c-0.555-0.516-0.773-1.297-0.563-2.031
	c0.211-0.727,0.813-1.273,1.563-1.406c0.078-0.023,0.164-0.047,0.25-0.063c0.609-0.047,1.211,0.18,1.625,0.625L50,43.125
	l6.563-6.563C57.359,35.766,58.641,35.766,59.438,36.563z M80,36c0,9.93-3.883,15.445-7.5,19.375
	c-1.813,1.961-3.539,3.57-4.688,5.188S66,63.742,66,66v20c0,3.289-2.711,6-6,6h-2.313c-0.891,3.438-3.984,6-7.688,6
	s-6.797-2.563-7.688-6H40c-3.289,0-6-2.711-6-6V66c0-1.609-0.578-2.844-1.75-4.375s-2.93-3.219-4.75-5.313
	C23.859,52.133,20,46.117,20,36C20,19.453,33.453,6,50,6S80,19.453,80,36z M53.438,92h-6.875c0.688,1.195,1.945,2,3.438,2
	S52.75,93.195,53.438,92z M62,80H38v6c0,1.109,0.891,2,2,2h3.563c0.266-0.055,0.547-0.055,0.813,0H60c1.109,0,2-0.891,2-2V80z
	 M76,36c0-14.383-11.617-26-26-26S24,21.617,24,36c0,9.148,3.141,13.836,6.5,17.688c1.68,1.922,3.422,3.609,4.875,5.5
	S38,63.305,38,66v10h24V66c0-3.125,1.086-5.68,2.563-7.75s3.25-3.727,4.938-5.563C72.883,49.023,76,44.938,76,36z"/>
</svg>
