<?xml version="1.0" encoding="utf-8"?>
<!-- Generator: Adobe Illustrator 17.0.0, SVG Export Plug-In . SVG Version: 6.00 Build 0)  -->
<!DOCTYPE svg PUBLIC "-//W3C//DTD SVG 1.1//EN" "http://www.w3.org/Graphics/SVG/1.1/DTD/svg11.dtd">
<svg version="1.1" id="Layer_1" xmlns="http://www.w3.org/2000/svg" xmlns:xlink="http://www.w3.org/1999/xlink" x="0px" y="0px"
	 width="100px" height="100px" viewBox="0 0 100 100" enable-background="new 0 0 100 100" xml:space="preserve">
<path d="M14.473,72.336c1.692,2.684,3.631,5.172,5.84,7.379l-2.828,2.828c-2.443-2.441-4.562-5.166-6.395-8.074L14.473,72.336z
	 M20.289,20.305l-2.828-2.828c-2.442,2.442-4.557,5.171-6.387,8.078l3.383,2.129C16.147,24.999,18.083,22.511,20.289,20.305z
	 M4.301,55.16c0.39,3.494,1.196,6.843,2.313,10.035l3.777-1.32c-1.027-2.936-1.759-5.986-2.113-9.156L4.301,55.16z M10.379,36.152
	l-3.773-1.324c-1.117,3.191-1.924,6.545-2.313,10.039l3.977,0.441C8.622,42.139,9.352,39.085,10.379,36.152z M49.992,4
	c-1.758,0-3.47,0.116-5.148,0.305l0.449,3.977C46.855,8.106,48.414,8,49.992,8c23.219,0,42,18.781,42,42s-18.781,42-42,42
	c-1.571,0-3.12-0.104-4.668-0.277l-0.445,3.977C46.547,95.886,48.247,96,49.992,96c25.381,0,46-20.619,46-46S75.373,4,49.992,4z
	 M36.133,10.391l-1.324-3.773c-3.278,1.148-6.381,2.647-9.273,4.469l2.129,3.387C30.304,12.81,33.139,11.439,36.133,10.391z
	 M25.563,88.93c2.892,1.817,5.999,3.319,9.277,4.465l1.316-3.777c-2.994-1.046-5.825-2.415-8.465-4.074L25.563,88.93z
	 M46.391,69.023l25.273-37.914l-3.328-2.219L45.609,62.977L29.328,48.504l-2.656,2.992L46.391,69.023z"/>
</svg>
