<?xml version="1.0"?>
<svg xmlns="http://www.w3.org/2000/svg" viewBox="0 0 50 50" width="100px" height="100px">
    <path style="line-height:normal;text-indent:0;text-align:start;text-decoration-line:none;text-decoration-style:solid;text-decoration-color:#000;text-transform:none;block-progression:tb;isolation:auto;mix-blend-mode:normal" d="M 24.996094 2 C 24.11733 2 23.260961 2.0580759 22.421875 2.1523438 L 22.646484 4.140625 C 23.427398 4.0528927 24.206858 4 24.996094 4 C 36.605627 4 45.996094 13.390466 45.996094 25 C 45.996094 36.609534 36.605627 46 24.996094 46 C 24.21052 46 23.4359 45.94795 22.662109 45.861328 L 22.439453 47.849609 C 23.273662 47.942991 24.123668 48 24.996094 48 C 37.68656 48 47.996094 37.690466 47.996094 25 C 47.996094 12.309534 37.68656 2 24.996094 2 z M 17.404297 3.3085938 C 15.765372 3.8824263 14.213839 4.6321273 12.767578 5.5429688 L 13.832031 7.2363281 C 15.15177 6.4051695 16.569331 5.7194799 18.066406 5.1953125 L 17.404297 3.3085938 z M 8.7304688 8.7382812 C 7.5094417 9.9593082 6.4520738 11.323798 5.5371094 12.777344 L 7.2285156 13.841797 C 8.0735512 12.499343 9.0415584 11.255317 10.144531 10.152344 L 8.7304688 8.7382812 z M 34.167969 14.445312 L 22.804688 31.488281 L 14.664062 24.251953 L 13.335938 25.748047 L 23.195312 34.511719 L 35.832031 15.554688 L 34.167969 14.445312 z M 3.3027344 17.414062 C 2.7440657 19.009812 2.340476 20.68662 2.1464844 22.433594 L 4.1347656 22.654297 C 4.310774 21.06927 4.6761218 19.542422 5.1894531 18.076172 L 3.3027344 17.414062 z M 4.1386719 27.359375 L 2.1503906 27.580078 C 2.3454406 29.327138 2.7482612 31.001691 3.3066406 32.597656 L 5.1953125 31.9375 C 4.6816919 30.469465 4.3156219 28.944315 4.1386719 27.359375 z M 7.2363281 36.167969 L 5.5449219 37.234375 C 6.4611338 38.68825 7.520567 40.050914 8.7421875 41.271484 L 10.15625 39.857422 C 9.0518705 38.753992 8.0821162 37.510093 7.2363281 36.167969 z M 13.845703 42.771484 L 12.78125 44.464844 C 14.227191 45.373392 15.780742 46.124389 17.419922 46.697266 L 18.078125 44.808594 C 16.581305 44.285471 15.165762 43.600936 13.845703 42.771484 z" font-weight="400" font-family="sans-serif" white-space="normal" overflow="visible"/>
</svg>
