<?xml version="1.0" encoding="utf-8"?>
<!-- Generator: Adobe Illustrator 17.0.0, SVG Export Plug-In . SVG Version: 6.00 Build 0)  -->
<!DOCTYPE svg PUBLIC "-//W3C//DTD SVG 1.1//EN" "http://www.w3.org/Graphics/SVG/1.1/DTD/svg11.dtd">
<svg version="1.1" id="Layer_1" xmlns="http://www.w3.org/2000/svg" xmlns:xlink="http://www.w3.org/1999/xlink" x="0px" y="0px"
	 width="100px" height="100px" viewBox="0 0 100 100" enable-background="new 0 0 100 100" xml:space="preserve">
<path d="M68,6H32C17.665,6,6,17.665,6,32v36c0,14.335,11.665,26,26,26h36c14.335,0,26-11.665,26-26V32C94,17.665,82.335,6,68,6z
	 M90,68c0,12.173-9.827,22-22,22H32c-12.173,0-22-9.827-22-22V32c0-12.173,9.827-22,22-22h36c12.173,0,22,9.827,22,22V68z M50,28
	c-12.127,0-22,9.873-22,22s9.873,22,22,22s22-9.873,22-22S62.127,28,50,28z M50,68c-9.965,0-18-8.035-18-18c0-9.965,8.035-18,18-18
	c9.965,0,18,8.035,18,18C68,59.965,59.965,68,50,68z M78,26c0,2.209-1.791,4-4,4c-2.209,0-4-1.791-4-4s1.791-4,4-4
	C76.209,22,78,23.791,78,26z"/>
</svg>
