<?xml version="1.0" encoding="utf-8"?>
<!-- Generator: Adobe Illustrator 17.0.0, SVG Export Plug-In . SVG Version: 6.00 Build 0)  -->
<!DOCTYPE svg PUBLIC "-//W3C//DTD SVG 1.1//EN" "http://www.w3.org/Graphics/SVG/1.1/DTD/svg11.dtd">
<svg version="1.1" id="Layer_1" xmlns="http://www.w3.org/2000/svg" xmlns:xlink="http://www.w3.org/1999/xlink" x="0px" y="0px"
	 width="100px" height="100px" viewBox="0 0 100 100" enable-background="new 0 0 100 100" xml:space="preserve">
<path d="M33.563,58.438v0.313H46.5v3.938h-19V59.5l9.5-9.875c3.773-3.93,4.688-5.43,4.688-7.5c0-2.578-2.219-4.5-5.125-4.5
	c-3.109,0-5.188,1.992-5.188,5v0.063H27.25v-0.063c0-5.195,3.953-8.813,9.5-8.813c5.352,0,9.25,3.414,9.25,8.063
	c0,2.984-1.398,5.406-6.125,10.188L33.563,58.438z M10,50c0,1.102,0.898,2,2,2s2-0.898,2-2s-0.898-2-2-2S10,48.898,10,50z
	 M63.188,34.5h6.188v18.813h3.938v3.938h-3.938v5.438h-4.188V57.25h-13.75v-4.063C53.961,48.578,58.164,42.023,63.188,34.5z
	 M65,38.375c-2.789,4.039-6.055,8.984-9.375,14.75v0.313h9.625V38.375H65z M29,82.938c0,1.102,0.898,2,2,2s2-0.898,2-2s-0.898-2-2-2
	S29,81.836,29,82.938z M50,4C37.547,4,26.281,9.008,18,17.063V6c0.023-0.578-0.211-1.133-0.625-1.523
	c-0.422-0.398-0.992-0.594-1.563-0.539C15.727,3.953,15.641,3.977,15.563,4C14.633,4.211,13.977,5.047,14,6v18h18
	c0.719,0.008,1.391-0.367,1.758-0.992c0.359-0.625,0.359-1.391,0-2.016c-0.367-0.625-1.039-1-1.758-0.992H20.625
	C28.203,12.586,38.555,8,50,8c23.219,0,42,18.781,42,42S73.219,92,50,92S8,73.219,8,50c0-6.945,1.711-13.484,4.688-19.25
	l-3.563-1.813C5.859,35.25,4,42.414,4,50c0,25.383,20.617,46,46,46s46-20.617,46-46S75.383,4,50,4z M19.063,69c0-1.102-0.898-2-2-2
	s-2,0.898-2,2s0.898,2,2,2S19.063,70.102,19.063,69z M90,50c0-1.102-0.898-2-2-2s-2,0.898-2,2s0.898,2,2,2S90,51.102,90,50z M50,90
	c1.102,0,2-0.898,2-2s-0.898-2-2-2s-2,0.898-2,2S48.898,90,50,90z M82.938,71c1.102,0,2-0.898,2-2s-0.898-2-2-2s-2,0.898-2,2
	S81.836,71,82.938,71z M71,17.063c0-1.102-0.898-2-2-2s-2,0.898-2,2s0.898,2,2,2S71,18.164,71,17.063z M82.938,33
	c1.102,0,2-0.898,2-2s-0.898-2-2-2s-2,0.898-2,2S81.836,33,82.938,33z M50,10c-1.102,0-2,0.898-2,2s0.898,2,2,2s2-0.898,2-2
	S51.102,10,50,10z M67,82.938c0,1.102,0.898,2,2,2s2-0.898,2-2s-0.898-2-2-2S67,81.836,67,82.938z"/>
</svg>
