<?xml version="1.0" encoding="utf-8"?>
<!-- Generator: Adobe Illustrator 17.0.0, SVG Export Plug-In . SVG Version: 6.00 Build 0)  -->
<!DOCTYPE svg PUBLIC "-//W3C//DTD SVG 1.1//EN" "http://www.w3.org/Graphics/SVG/1.1/DTD/svg11.dtd">
<svg version="1.1" id="Layer_1" xmlns="http://www.w3.org/2000/svg" xmlns:xlink="http://www.w3.org/1999/xlink" x="0px" y="0px"
	 width="50px" height="50px" viewBox="0 0 50 50" enable-background="new 0 0 50 50" xml:space="preserve">
<path d="M12,12c2.757,0,5-2.243,5-5s-2.243-5-5-5S7,4.243,7,7S9.243,12,12,12z M12,4c1.654,0,3,1.346,3,3s-1.346,3-3,3S9,8.654,9,7
	S10.346,4,12,4z M32,16c0-1.654-1.346-3-3-3H15c-0.379,0-0.725,0.214-0.895,0.553L12,17.764l-2.105-4.211
	C9.725,13.214,9.379,13,9,13H7.5C4.467,13,2,15.467,2,18.5V31c0,1.654,1.346,3,3,3c0.352,0,0.686-0.072,1-0.184V44.5
	C6,46.43,7.57,48,9.5,48c0.98,0,1.864-0.407,2.5-1.058C12.636,47.593,13.52,48,14.5,48c1.93,0,3.5-1.57,3.5-3.5V19h11
	C30.654,19,32,17.654,32,16z M17,17c-0.552,0-1,0.448-1,1v26.5c0,0.827-0.673,1.5-1.5,1.5S13,45.327,13,44.5V34c0-0.553-0.448-1-1-1
	s-1,0.447-1,1v10.5c0,0.827-0.673,1.5-1.5,1.5S8,45.327,8,44.5V21c0-0.552-0.448-1-1-1s-1,0.448-1,1v10c0,0.552-0.449,1-1,1
	s-1-0.448-1-1V18.5C4,16.57,5.57,15,7.5,15h0.882l2.724,5.447c0.339,0.678,1.45,0.678,1.789,0L15.618,15H29c0.552,0,1,0.449,1,1
	s-0.448,1-1,1H17z M48,5v28c0,0.553-0.447,1-1,1H31.5L37,45h-2l-5-10l-5,10h-2l5.5-11H20v-2h26V6H19V4h10V2h2v2h16
	C47.553,4,48,4.448,48,5z"/>
</svg>
