<?xml version="1.0" encoding="utf-8"?>
<!-- Generator: Adobe Illustrator 17.0.0, SVG Export Plug-In . SVG Version: 6.00 Build 0)  -->
<!DOCTYPE svg PUBLIC "-//W3C//DTD SVG 1.1//EN" "http://www.w3.org/Graphics/SVG/1.1/DTD/svg11.dtd">
<svg version="1.1" id="Capa_1" xmlns="http://www.w3.org/2000/svg" xmlns:xlink="http://www.w3.org/1999/xlink" x="0px" y="0px"
	 width="612px" height="792px" viewBox="0 0 612 792" enable-background="new 0 0 612 792" xml:space="preserve">
<path d="M564.255,96.916c-0.954-1.971-2.721-3.262-4.7-3.725l0.007-0.031c-47.631-11.146-100.053,9.299-135.646,28.415
	c-43.684,23.46-86.778,58.728-115.277,94.342c-21.248,26.556-33.315,59.287-33.983,92.163c-0.62,30.588,8.591,58.831,26.029,80.23
	c-0.115,0.154-0.228,0.302-0.342,0.455c-19.469,26.381-34.857,54.998-45.878,85.245c-6.041-7.729-12.566-15.032-19.193-21.82
	c21.273-33.01,17.285-80.322-10.451-114.985c-19.937-24.917-50.076-49.587-80.619-65.989c-25.015-13.434-61.903-27.792-95.59-19.911
	l0.007,0.029c-1.979,0.464-3.749,1.754-4.702,3.727c-15.08,31.139-9.163,70.28-1.542,97.63
	c9.303,33.397,26.761,68.214,46.701,93.134c21.13,26.41,50.756,40.773,79.998,40.771c11.06,0,22.055-2.099,32.524-6.338
	c29.866,86.565,42.36,213.711,42.522,215.42c0.342,3.583,3.352,6.319,6.952,6.319h56.87c0.006,0,0.011,0.001,0.017,0.001
	c1.482,0,4.054-1.129,5.006-2.108c1.549-1.59,2.316-3.89,1.854-6.233c-0.126-0.637-12.552-64.656-8.681-143.2
	c1.991-40.403,8.708-89.869,26.398-136.73c17.707,8.022,36.227,12.087,54.867,12.087c10.736,0,21.513-1.345,32.192-4.051
	c30.715-7.785,58.354-26.151,79.928-53.11c28.497-35.618,53.458-85.401,66.764-133.166
	C577.126,196.573,585.576,140.94,564.255,96.916z M545.128,104.829L486.502,178.1l-12.169-63.462
	C499.19,106.181,523.492,102.316,545.128,104.829z M461.056,119.562l13.974,72.875l-58.468,73.072l-21.137-110.241
	C416.451,140.804,438.825,128.489,461.056,119.562z M382.923,164.243l22.165,115.605l-25.16,31.443
	c-3.971,2.535-18.188,12.044-36.355,28.967l-22.031-118.072C338.376,201.637,359.574,181.705,382.923,164.243z M310.239,237.761
	l21.32,114.256c-7.1,7.292-14.54,15.562-22.03,24.858C281.49,339.819,282.028,282.703,310.239,237.761z M225.042,442.171
	c-5.099-4.784-10.147-9.228-14.976-13.288l13.016-69.253C238.017,386.564,238.952,418.43,225.042,442.171z M119.041,274.628
	c14.068,5.867,28.175,13.686,41.538,22.787l-13.639,70.42l-36.924-46.148L119.041,274.628z M105.767,269.679l-7.223,37.668
	l-35.286-44.099C76.44,262.396,90.934,264.825,105.767,269.679z M52.375,272.002l35.265,44.075l-38.32-1.215
	C47.842,299.334,48.654,284.67,52.375,272.002z M51.231,328.897l47.88,1.518l36.922,46.147l-71.688-2.141
	C58.4,359.388,53.868,343.908,51.231,328.897z M70.407,388.576l77.083,2.301c0,0,17.25,21.517,17.472,21.729
	c0.01,0.01,0.017,0.021,0.027,0.029c6.467,6.108,12.481,14.506,18.071,24.562l-85.032-2.615
	C87.651,421.168,78.197,405.376,70.407,388.576z M111.118,448.964l79.073,2.431c2.285,5.004,4.494,10.267,6.618,15.761
	C168.758,478.707,135.871,471.48,111.118,448.964z M174.519,402.301l-16.121-20.148l14.664-75.717
	c14.687,11.294,28.027,23.987,38.841,37.059l-14.177,75.427C186.283,410.052,177.476,404.213,174.519,402.301z M236.022,553.999
	c-9.029-41.63-21.139-84.451-36.887-115.968c16.252,13.478,35.401,31.616,49.924,52.1
	C242.718,510.755,238.375,532.089,236.022,553.999z M313.408,425.613c-11.836,36.757-18.976,78.53-21.225,124.161
	c-3.175,64.45,4.168,118.205,7.456,138.258h-42.262c-1.111-10.446-3.632-32.403-7.822-59.894
	c-9.988-107.614,27.978-184.772,61.674-230.6c10.166-13.825,20.567-25.718,30.302-35.695
	C340.944,362.846,320.383,403.953,313.408,425.613z M337.767,400.719c3.63-8.487,7.659-16.846,12.105-25.013l128.25-3.932
	C439.148,411.679,386.01,422.851,337.767,400.719z M490.592,357.414l-132.397,4.061c8.938-14.247,19.326-27.726,31.424-39.998
	c0.022-0.022,26.381-32.909,26.381-32.909l117.645-3.725C521.734,311.443,506.944,336.489,490.592,357.414z M539.66,270.676
	l-112.186,3.554l58.464-73.068l74.163-2.354C556.268,222.457,549.16,246.987,539.66,270.676z M561.995,184.775l-64.582,2.049
	l58.625-73.266C563.233,134.114,564.793,158.671,561.995,184.775z"/>
</svg>
