<?xml version="1.0" encoding="utf-8"?>
<!-- Generator: Adobe Illustrator 17.0.0, SVG Export Plug-In . SVG Version: 6.00 Build 0)  -->
<!DOCTYPE svg PUBLIC "-//W3C//DTD SVG 1.1//EN" "http://www.w3.org/Graphics/SVG/1.1/DTD/svg11.dtd">
<svg version="1.1" id="Layer_1" xmlns="http://www.w3.org/2000/svg" xmlns:xlink="http://www.w3.org/1999/xlink" x="0px" y="0px"
	 width="612px" height="792px" viewBox="0 0 612 792" enable-background="new 0 0 612 792" xml:space="preserve">
<path d="M599.808,198.122H12.191C5.459,198.122,0,203.58,0,210.313v321.213c0,34.382,27.97,62.353,62.353,62.353h487.293
	c34.382,0,62.353-27.971,62.353-62.353V210.313C611.999,203.58,606.54,198.122,599.808,198.122z M587.617,531.525
	c0,20.937-17.033,37.97-37.97,37.97H62.353c-20.937,0-37.97-17.034-37.97-37.97V236.911l273.893,224.221
	c2.247,1.838,4.984,2.758,7.723,2.758c2.734,0,5.467-0.917,7.712-2.749l211.936-173.116c5.214-4.26,5.989-11.939,1.73-17.154
	c-4.261-5.215-11.939-5.99-17.154-1.728L306.008,435.95L45.277,222.504h542.34V531.525z M539.163,261.243
	c-4.259-5.215-3.484-12.894,1.731-17.154l3.658-2.987c5.212-4.26,12.894-3.486,17.153,1.73c4.259,5.215,3.484,12.895-1.731,17.154
	l-3.658,2.987c-2.263,1.848-4.992,2.749-7.704,2.749C545.077,265.721,541.571,264.193,539.163,261.243z"/>
</svg>
