<?xml version="1.0" encoding="utf-8"?>
<!-- Generator: Adobe Illustrator 17.0.0, SVG Export Plug-In . SVG Version: 6.00 Build 0)  -->
<!DOCTYPE svg PUBLIC "-//W3C//DTD SVG 1.1//EN" "http://www.w3.org/Graphics/SVG/1.1/DTD/svg11.dtd">
<svg version="1.1" id="Layer_1" xmlns="http://www.w3.org/2000/svg" xmlns:xlink="http://www.w3.org/1999/xlink" x="0px" y="0px"
	 width="50px" height="50px" viewBox="0 0 50 50" enable-background="new 0 0 50 50" xml:space="preserve">
<path d="M33,12H15v-2h18V12z M21,28h-6v2h6V28z M42,4v40c0,0.551-0.449,1-1,1h-5v4c0,0.383-0.219,0.734-0.566,0.902
	s-0.758,0.121-1.059-0.121L30,46.281l-4.375,3.5c-0.301,0.242-0.711,0.289-1.059,0.121S24,49.383,24,49v-4H9c-0.551,0-1-0.449-1-1V4
	c0-0.551,0.449-1,1-1h32C41.551,3,42,3.449,42,4z M34,40.09l-0.031,0.098c-0.469,1.598-2.418,2.316-3.805,1.391c0,0,0,0-0.004,0
	L30,41.469l-0.16,0.109c-1.391,0.926-3.34,0.207-3.813-1.395L26,40.09v6.828l3.375-2.699c0.367-0.293,0.883-0.293,1.25,0L34,46.918
	V40.09z M34.707,33.855c0,0,0,0-0.004,0l-0.469-0.242H34.23c-0.531-0.27-0.855-0.836-0.82-1.426l0.031-0.543
	c0.023-0.391-0.273-0.641-0.637-0.555l-0.52,0.125c0,0,0,0-0.004,0c-0.578,0.137-1.195-0.09-1.547-0.57l-0.32-0.43
	C30.301,30.059,30.148,29.98,30,29.98c-0.152,0-0.301,0.078-0.418,0.234l-0.316,0.43c-0.352,0.48-0.969,0.707-1.551,0.57
	l-0.516-0.121c-0.004,0-0.004,0-0.004,0c-0.363-0.09-0.664,0.16-0.641,0.555l0.035,0.539v0.004c0.031,0.59-0.289,1.152-0.82,1.422
	c0,0.004,0,0.004-0.004,0l-0.473,0.246c-0.336,0.168-0.41,0.574-0.148,0.855l0.367,0.391c0.41,0.434,0.516,1.074,0.285,1.617
	l-0.215,0.496c-0.152,0.363,0.055,0.711,0.422,0.754l0.527,0.063c0.594,0.07,1.094,0.496,1.262,1.063l0.152,0.52c0,0,0,0,0,0.004
	c0.109,0.375,0.469,0.5,0.785,0.289l0.441-0.293c0.5-0.332,1.156-0.332,1.656-0.004c0,0.004,0,0.004,0,0.004l0.445,0.297
	c0.313,0.207,0.668,0.082,0.777-0.293l0.152-0.52c0.004,0,0.004-0.004,0.004-0.004c0.168-0.566,0.664-0.992,1.262-1.063l0.523-0.063
	c0,0,0,0,0.004,0c0.367-0.043,0.57-0.391,0.418-0.754l-0.211-0.496c-0.234-0.543-0.125-1.18,0.285-1.617l0.367-0.391
	C35.117,34.434,35.043,34.027,34.707,33.855z M40,5H10v38h14v-4.152c-0.461-0.688-0.605-1.586-0.254-2.41l0.082-0.203l-0.145-0.156
	c-1.137-1.219-0.785-3.25,0.703-4.004l0.184-0.094l-0.012-0.215c-0.098-1.668,1.48-3.012,3.105-2.621l0.188,0.047l0.117-0.16
	c0.004-0.004,0.004-0.004,0.004-0.004c0.496-0.672,1.262-1.008,2.027-1.008s1.535,0.336,2.027,1.012l0.117,0.16l0.191-0.047
	c1.621-0.391,3.199,0.953,3.102,2.617l-0.012,0.219l0.184,0.094c1.492,0.754,1.844,2.785,0.703,4.004l-0.145,0.156l0.086,0.203
	c0.355,0.828,0.207,1.723-0.254,2.41V43h4V5z M30,22H15v2h15V22z M35,16H15v2h20V16z"/>
</svg>
