<svg xmlns="http://www.w3.org/2000/svg" xmlns:xlink="http://www.w3.org/1999/xlink" viewBox="0 0 50 50" version="1.1" width="50" height="50">
<g id="surface1">
<path style=" " d="M 9 3 C 8.449219 3 8 3.449219 8 4 L 8 44 C 8 44.550781 8.449219 45 9 45 L 24 45 L 24 49 C 24 49.382813 24.21875 49.734375 24.566406 49.902344 C 24.914063 50.070313 25.324219 50.023438 25.625 49.78125 L 30 46.28125 L 34.375 49.78125 C 34.675781 50.023438 35.085938 50.070313 35.433594 49.902344 C 35.78125 49.734375 36 49.382813 36 49 L 36 45 L 41 45 C 41.550781 45 42 44.550781 42 44 L 42 4 C 42 3.449219 41.550781 3 41 3 Z M 10 5 L 40 5 L 40 43 L 36 43 L 36 38.847656 C 36.460938 38.160156 36.609375 37.265625 36.253906 36.4375 L 36.167969 36.234375 L 36.3125 36.078125 C 37.453125 34.859375 37.101563 32.828125 35.609375 32.074219 L 35.425781 31.980469 L 35.4375 31.761719 C 35.441406 31.761719 35.441406 31.761719 35.4375 31.761719 C 35.535156 30.097656 33.957031 28.753906 32.335938 29.144531 L 32.144531 29.191406 L 32.027344 29.03125 C 31.535156 28.355469 30.765625 28.019531 30 28.019531 C 29.234375 28.019531 28.46875 28.355469 27.972656 29.027344 C 27.972656 29.027344 27.972656 29.027344 27.96875 29.03125 L 27.851563 29.191406 L 27.664063 29.144531 C 26.039063 28.753906 24.460938 30.097656 24.558594 31.765625 L 24.570313 31.980469 L 24.386719 32.074219 C 22.898438 32.828125 22.546875 34.859375 23.683594 36.078125 L 23.828125 36.234375 L 23.746094 36.4375 C 23.394531 37.261719 23.539063 38.160156 24 38.847656 L 24 43 L 10 43 Z M 15 10 L 15 12 L 33 12 L 33 10 Z M 15 16 L 15 18 L 35 18 L 35 16 Z M 15 22 L 15 24 L 30 24 L 30 22 Z M 15 28 L 15 30 L 21 30 L 21 28 Z M 30 29.980469 C 30.148438 29.980469 30.300781 30.058594 30.414063 30.214844 L 30.734375 30.644531 C 31.085938 31.125 31.703125 31.351563 32.28125 31.214844 C 32.285156 31.214844 32.285156 31.214844 32.285156 31.214844 L 32.804688 31.089844 C 33.167969 31.003906 33.464844 31.253906 33.441406 31.644531 L 33.410156 32.1875 C 33.375 32.777344 33.699219 33.34375 34.230469 33.613281 L 34.234375 33.613281 L 34.703125 33.855469 C 34.707031 33.855469 34.707031 33.855469 34.707031 33.855469 C 35.042969 34.027344 35.117188 34.433594 34.855469 34.714844 L 34.488281 35.105469 C 34.078125 35.542969 33.96875 36.179688 34.203125 36.722656 C 34.203125 36.726563 34.203125 36.726563 34.203125 36.722656 L 34.414063 37.21875 C 34.566406 37.582031 34.363281 37.929688 33.996094 37.972656 C 33.992188 37.972656 33.992188 37.972656 33.992188 37.972656 L 33.46875 38.035156 C 32.871094 38.105469 32.375 38.53125 32.207031 39.097656 C 32.207031 39.097656 32.207031 39.101563 32.203125 39.101563 L 32.050781 39.621094 C 31.941406 39.996094 31.585938 40.121094 31.273438 39.914063 L 30.828125 39.617188 C 30.828125 39.617188 30.828125 39.617188 30.828125 39.613281 C 30.328125 39.285156 29.671875 39.285156 29.171875 39.617188 L 28.730469 39.910156 C 28.414063 40.121094 28.054688 39.996094 27.945313 39.621094 C 27.945313 39.617188 27.945313 39.617188 27.945313 39.617188 L 27.792969 39.097656 C 27.625 38.53125 27.125 38.105469 26.53125 38.035156 L 26.003906 37.972656 C 25.636719 37.929688 25.429688 37.582031 25.582031 37.21875 L 25.796875 36.722656 C 26.027344 36.179688 25.921875 35.539063 25.511719 35.105469 L 25.144531 34.714844 C 24.882813 34.433594 24.957031 34.027344 25.292969 33.859375 L 25.765625 33.613281 C 25.769531 33.617188 25.769531 33.617188 25.769531 33.613281 C 26.300781 33.34375 26.621094 32.78125 26.589844 32.191406 C 26.589844 32.191406 26.589844 32.1875 26.589844 32.1875 L 26.554688 31.648438 C 26.53125 31.253906 26.832031 31.003906 27.195313 31.09375 C 27.195313 31.09375 27.195313 31.09375 27.199219 31.09375 L 27.714844 31.214844 C 28.296875 31.351563 28.914063 31.125 29.265625 30.644531 L 29.582031 30.214844 C 29.699219 30.058594 29.847656 29.980469 30 29.980469 Z M 34 40.089844 L 34 46.917969 L 30.625 44.21875 C 30.257813 43.925781 29.742188 43.925781 29.375 44.21875 L 26 46.917969 L 26 40.089844 L 26.027344 40.183594 C 26.5 41.785156 28.449219 42.503906 29.839844 41.578125 L 30 41.46875 L 30.160156 41.578125 C 30.164063 41.578125 30.164063 41.578125 30.164063 41.578125 C 31.550781 42.503906 33.5 41.785156 33.96875 40.1875 Z "/>
</g>
</svg>