<?xml version="1.0" encoding="utf-8"?>
<!-- Generator: Adobe Illustrator 17.0.0, SVG Export Plug-In . SVG Version: 6.00 Build 0)  -->
<!DOCTYPE svg PUBLIC "-//W3C//DTD SVG 1.1//EN" "http://www.w3.org/Graphics/SVG/1.1/DTD/svg11.dtd">
<svg version="1.1" id="Layer_1" xmlns="http://www.w3.org/2000/svg" xmlns:xlink="http://www.w3.org/1999/xlink" x="0px" y="0px"
	 width="612px" height="792px" viewBox="0 0 612 792" enable-background="new 0 0 612 792" xml:space="preserve">
<path d="M306,200.327L306,200.327L306,200.327L306,200.327z M471.67,359.902c0,39.923-15.3,78.532-44.585,108.415
	c-26.775,27.373-40.76,66.101-40.76,108.415l-0.12,64.786c0,26.177-21.635,47.334-48.41,47.334H275.4
	c-26.775,0-48.41-21.157-48.41-47.334l0.12-64.786c0-41.119-15.3-81.042-43.27-110.925c-31.795-34.903-47.095-81.042-40.76-128.377
	c10.16-71.002,74.229-137.102,162.921-137.102C396.366,200.327,471.551,271.329,471.67,359.902z M361.941,641.517h-0.12V612.83
	H253.645v28.688c0,12.551,10.16,22.472,22.95,22.472h62.395C351.78,663.989,361.941,653.948,361.941,641.517z M446.21,359.902
	c0-73.512-62.395-134.592-140.091-134.592c-74.229,0-129.811,56.18-138.776,115.945c-5.02,39.923,6.455,78.532,34.425,108.415
	c31.795,34.903,50.92,80.923,50.92,127.062v11.236h108.176v-11.236c0-48.649,16.615-93.473,48.41-125.866
	C433.42,425.883,446.21,393.49,446.21,359.902z M318.67,103.148h-25.46v59.766h25.46V103.148z M460.315,218.377l17.81,17.81
	l43.629-41.955l-17.93-17.81L460.315,218.377z M536.456,372.333v24.982h62.395v-24.982H536.456z M13.148,397.315h62.395v-24.982
	H13.148V397.315z M107.698,176.302l-17.93,17.81l43.629,41.956l17.81-17.81L107.698,176.302z"/>
</svg>
