<?xml version="1.0" encoding="utf-8"?>
<!-- Generator: Adobe Illustrator 17.0.0, SVG Export Plug-In . SVG Version: 6.00 Build 0)  -->
<!DOCTYPE svg PUBLIC "-//W3C//DTD SVG 1.1//EN" "http://www.w3.org/Graphics/SVG/1.1/DTD/svg11.dtd">
<svg version="1.1" id="Layer_1" xmlns="http://www.w3.org/2000/svg" xmlns:xlink="http://www.w3.org/1999/xlink" x="0px" y="0px"
	 width="50px" height="50px" viewBox="0 0 50 50" enable-background="new 0 0 50 50" xml:space="preserve">
<path d="M10,39.5c0-0.828,0.672-1.5,1.5-1.5s1.5,0.672,1.5,1.5S12.328,41,11.5,41S10,40.328,10,39.5z M45.063,32.438
	C45.648,33.133,46,34.02,46,35c0,1.742-1.129,3.234-2.688,3.781C43.738,39.418,44,40.176,44,41c0,2.207-1.793,4-4,4H21
	c-1.305,0-2.43-0.836-2.844-2H17v1c0,0.555-0.449,1-1,1H6c-0.504,0-0.938-0.375-1-0.875l-3-24c-0.035-0.285,0.059-0.566,0.25-0.781
	S2.715,19,3,19h13c0.551,0,1,0.449,1,1v1.75l5-10V4c0-0.551,0.449-1,1-1h2.531C28.242,3,31,8.234,31,12c0,1.617-1.016,5.07-1.625,7
	H44c2.207,0,4,1.793,4,4c0,1.453-0.777,2.738-1.938,3.438C46.648,27.133,47,28.02,47,29C47,30.453,46.223,31.738,45.063,32.438z
	 M15,21H4.125l2.75,22H15V21z M46,23c0-1.102-0.898-2-2-2H28c-0.32,0-0.625-0.145-0.813-0.406s-0.23-0.602-0.125-0.906
	C27.602,18.082,29,13.566,29,12c0-3.52-2.551-7-3.469-7H24v7c0,0.156-0.023,0.301-0.094,0.438l-5.5,11
	C18.234,23.777,17.879,24,17.5,24H17v17h2c0.551,0,1,0.445,1,1c0,0.551,0.449,1,1,1h19c1.102,0,2-0.898,2-2s-0.898-2-2-2
	c-0.555,0-1-0.445-1-1s0.445-1,1-1h2c1.102,0,2-0.898,2-2s-0.898-2-2-2c-0.555,0-1-0.445-1-1s0.445-1,1-1h1c1.102,0,2-0.898,2-2
	s-0.898-2-2-2c-0.555,0-1-0.445-1-1s0.445-1,1-1h1C45.102,25,46,24.102,46,23z"/>
</svg>
