<?xml version="1.0" encoding="utf-8"?>
<!-- Generator: Adobe Illustrator 17.0.0, SVG Export Plug-In . SVG Version: 6.00 Build 0)  -->
<!DOCTYPE svg PUBLIC "-//W3C//DTD SVG 1.1//EN" "http://www.w3.org/Graphics/SVG/1.1/DTD/svg11.dtd">
<svg version="1.1" id="Layer_1" xmlns="http://www.w3.org/2000/svg" xmlns:xlink="http://www.w3.org/1999/xlink" x="0px" y="0px"
	 width="100px" height="100px" viewBox="0 0 100 100" enable-background="new 0 0 100 100" xml:space="preserve">
<path d="M50,4.016c-25.381,0-46,20.619-46,46s20.619,46,46,46s46-20.619,46-46S75.381,4.016,50,4.016z M50,92.016
	c-10.267,0-19.658-3.681-26.949-9.785c2.878-1.853,6.639-3.117,10.234-4.406c2.184-0.783,4.298-1.586,6.141-2.695
	s3.48-2.604,4.266-4.715l0.094-0.25l0.023-0.266c0.277-3.081,0.172-5.248,0.172-7.898v-1.211l-1.07-0.563
	c0.167,0.088-0.275-0.216-0.691-0.707s-0.91-1.174-1.375-1.945c-0.929-1.543-1.724-3.472-1.875-4.883l-0.176-1.645l-1.648-0.137
	c0.031,0.003-0.098,0.052-0.402-0.336S35.984,49.28,35.77,47.5c-0.175-1.463,0.614-1.93,0.465-1.84l1.27-0.77l-0.371-1.441
	c-1.721-6.623-1.981-12.65-0.211-16.695c1.768-4.041,5.311-6.605,12.922-6.75c3.688,0.004,6.009,1.096,6.645,2.211l0.488,0.855
	l0.973,0.133c2.512,0.349,3.916,1.324,4.922,2.715s1.564,3.332,1.734,5.512c0.341,4.36-0.907,9.508-1.699,11.891l-0.504,1.512
	l1.363,0.828c-0.139-0.084,0.641,0.377,0.465,1.84c-0.213,1.78-0.668,2.686-0.973,3.074s-0.435,0.339-0.402,0.336l-1.648,0.137
	l-0.176,1.645c-0.151,1.413-0.946,3.34-1.875,4.883c-0.465,0.771-0.959,1.458-1.375,1.949s-0.859,0.795-0.691,0.707l-1.07,0.559V62
	c0,2.649-0.108,4.815,0.172,7.898l0.023,0.266l0.094,0.25c0.787,2.118,2.43,3.612,4.277,4.719s3.967,1.906,6.152,2.684
	c3.602,1.282,7.357,2.543,10.219,4.406C69.664,88.331,60.271,92.016,50,92.016z M79.977,79.426c-3.66-2.687-8.12-4.035-11.898-5.379
	c-2.128-0.757-4.041-1.507-5.438-2.344c-1.338-0.801-2.08-1.624-2.473-2.57c-0.184-2.294-0.146-4.14-0.133-6.32
	c0.242-0.241,0.553-0.411,0.801-0.703c0.584-0.689,1.179-1.527,1.746-2.469c0.973-1.615,1.681-3.591,2.078-5.594
	c0.606-0.309,1.253-0.376,1.746-1.004c0.91-1.16,1.524-2.792,1.797-5.066c0.242-2.008-0.405-3.389-1.238-4.449
	c0.896-2.93,2.006-7.589,1.629-12.41c-0.207-2.653-0.875-5.323-2.48-7.543c-1.533-2.12-4.022-3.643-7.207-4.195
	C56.883,17.082,53.669,16,49.828,16h-0.02h-0.016c-8.605,0.158-14.158,3.72-16.535,9.152c-2.261,5.166-1.775,11.597-0.152,18.293
	c-0.872,1.06-1.555,2.468-1.309,4.531c0.274,2.274,0.888,3.906,1.797,5.066c0.492,0.628,1.14,0.695,1.746,1.004
	c0.397,2.001,1.105,3.974,2.078,5.59c0.568,0.942,1.161,1.779,1.746,2.469c0.248,0.292,0.558,0.466,0.801,0.707
	c0.013,2.179,0.05,4.025-0.133,6.32c-0.391,0.943-1.133,1.766-2.469,2.57c-1.394,0.84-3.305,1.594-5.43,2.355
	c-3.774,1.353-8.232,2.71-11.902,5.375C12.595,71.859,8,61.485,8,50.016c0-23.22,18.78-42,42-42s42,18.78,42,42
	C92,61.481,87.408,71.852,79.977,79.426z"/>
</svg>
