<?xml version="1.0" encoding="utf-8"?>
<!-- Generator: Adobe Illustrator 17.0.0, SVG Export Plug-In . SVG Version: 6.00 Build 0)  -->
<!DOCTYPE svg PUBLIC "-//W3C//DTD SVG 1.1//EN" "http://www.w3.org/Graphics/SVG/1.1/DTD/svg11.dtd">
<svg version="1.1" id="Layer_1" xmlns="http://www.w3.org/2000/svg" xmlns:xlink="http://www.w3.org/1999/xlink" x="0px" y="0px"
	 width="25px" height="25px" viewBox="0 0 25 25" enable-background="new 0 0 25 25" xml:space="preserve">
<metadata><?xpacket begin="﻿" id="W5M0MpCehiHzreSzNTczkc9d"?>
<x:xmpmeta xmlns:x="adobe:ns:meta/" x:xmptk="Adobe XMP Core 5.5-c014 79.151739, 2013/04/03-12:12:15        ">
   <rdf:RDF xmlns:rdf="http://www.w3.org/1999/02/22-rdf-syntax-ns#">
      <rdf:Description rdf:about=""
            xmlns:xmp="http://ns.adobe.com/xap/1.0/"
            xmlns:xmpGImg="http://ns.adobe.com/xap/1.0/g/img/"
            xmlns:xmpTPg="http://ns.adobe.com/xap/1.0/t/pg/"
            xmlns:stDim="http://ns.adobe.com/xap/1.0/sType/Dimensions#"
            xmlns:xmpG="http://ns.adobe.com/xap/1.0/g/"
            xmlns:dc="http://purl.org/dc/elements/1.1/">
         <xmp:CreatorTool>Adobe Illustrator CC (Windows)</xmp:CreatorTool>
         <xmp:CreateDate>2017-12-08T22:15:46+03:00</xmp:CreateDate>
         <xmp:Thumbnails>
            <rdf:Alt>
               <rdf:li rdf:parseType="Resource">
                  <xmpGImg:width>256</xmpGImg:width>
                  <xmpGImg:height>256</xmpGImg:height>
                  <xmpGImg:format>JPEG</xmpGImg:format>
                  <xmpGImg:image>/9j/4AAQSkZJRgABAgEASABIAAD/7QAsUGhvdG9zaG9wIDMuMAA4QklNA+0AAAAAABAASAAAAAEA&#xA;AQBIAAAAAQAB/+4ADkFkb2JlAGTAAAAAAf/bAIQABgQEBAUEBgUFBgkGBQYJCwgGBggLDAoKCwoK&#xA;DBAMDAwMDAwQDA4PEA8ODBMTFBQTExwbGxscHx8fHx8fHx8fHwEHBwcNDA0YEBAYGhURFRofHx8f&#xA;Hx8fHx8fHx8fHx8fHx8fHx8fHx8fHx8fHx8fHx8fHx8fHx8fHx8fHx8fHx8f/8AAEQgBAAEAAwER&#xA;AAIRAQMRAf/EAaIAAAAHAQEBAQEAAAAAAAAAAAQFAwIGAQAHCAkKCwEAAgIDAQEBAQEAAAAAAAAA&#xA;AQACAwQFBgcICQoLEAACAQMDAgQCBgcDBAIGAnMBAgMRBAAFIRIxQVEGE2EicYEUMpGhBxWxQiPB&#xA;UtHhMxZi8CRygvElQzRTkqKyY3PCNUQnk6OzNhdUZHTD0uIIJoMJChgZhJRFRqS0VtNVKBry4/PE&#xA;1OT0ZXWFlaW1xdXl9WZ2hpamtsbW5vY3R1dnd4eXp7fH1+f3OEhYaHiImKi4yNjo+Ck5SVlpeYmZ&#xA;qbnJ2en5KjpKWmp6ipqqusra6voRAAICAQIDBQUEBQYECAMDbQEAAhEDBCESMUEFURNhIgZxgZEy&#xA;obHwFMHR4SNCFVJicvEzJDRDghaSUyWiY7LCB3PSNeJEgxdUkwgJChgZJjZFGidkdFU38qOzwygp&#xA;0+PzhJSktMTU5PRldYWVpbXF1eX1RlZmdoaWprbG1ub2R1dnd4eXp7fH1+f3OEhYaHiImKi4yNjo&#xA;+DlJWWl5iZmpucnZ6fkqOkpaanqKmqq6ytrq+v/aAAwDAQACEQMRAD8A9U4q7FXYq7FXYq7FXhP5&#xA;1f8AOUWi+S7mfQfLcUeseZIqpcyOT9UtHH7MhUgySDuikU7tXbFXyt5q/Of80PNEzPq3mK8MTGot&#xA;LeQ21uPD91DwQ08WBOKsYh1zWoZFlh1C5ilX7LpNIrDtsQcVej+R/wDnJf8ANfytPGsmqvrenrtJ&#xA;Y6oTcVX/ACZyfWUgdPjp7HFX2F+U35zeVPzK0t59LY2uq2yg6hpExBmiqaclIoJIyejj6QDtirPc&#xA;VdirsVdirsVdirsVdirF/Pn5l+TPIunfXfMmopa8wTb2q/HcTEdool+Jt+/2R3IxV8yeef8AnNDz&#xA;ReySW/k7TItJtdwl9eAXF0R2YR/3MZ9jz+eKvHNc/Nv8ztcdm1PzPqMysamFLh4Yq/8AGKIpGP8A&#xA;gcVYtcXV1cv6lxM8z/zyMXPj1JOKrrS9vLOX1rSeS3lHSSJ2RvvUg4q9A8q/85C/m75blQ23mG4v&#xA;rdPtWmpH65Gyj9mstZFH+o64q+i/yy/5y98p6/JDpvm6AeX9SkIRb0MXsHY7bsfjhr/l1XxfFX0B&#xA;FLFLEksTrJFIoaORSGVlYVBBGxBGKrsVdirsVdirsVdirsVdirsVdirx/wD5yZ/NifyH5KW10uX0&#xA;/MOul7eykB+KGJQPXnH+UoZVX3avbFXxF5Y8s695r1+10TRrdrzVL5+MaA/Szux+yqirMx6DFX2J&#xA;+XX/ADiN5C0KziuPNS/4i1ggNKrM8dlG1PsxxqUaQDxk6/yrir0W8/JT8o7u1+qy+UNKWKlOUNrF&#xA;DJT/AIyxBJPp5Yq8E/OL/nESGz0+41z8vWml9AGSfQJmMrlB1+qyH42IH+63qW7NWilV86+TvN2u&#xA;eTvM1lr+jymG/sZOXE14unSSKQd0daqw/jir9H/JXmzTfNvlXTPMenH/AEXUoFmVK1Mb9JImI/aj&#xA;cFT7jFU6xV2KuxV2KuxVLfMPmTQfLmlTatrt9Dp2nQf3lxOwVa9lUdWY9lUEntir5989/wDOZ/lu&#xA;3s7u08mafcXuoUKW2o3iCK1BrT1BHy9VxToGCe+KvlTWtc8xeatdk1DVLmfVNXvnALtWSR2Y0VEU&#xA;dBvRUUUHQDFXtf5df84f+c9diiv/ADTcjy7YvRhaFfVvmX/KjqEir/lEsO64q958u/8AOLH5M6NG&#xA;nq6TJq1woobjUJ5JCfnHGYof+ExVmVn+Vf5ZWS8bXynpEderCxtyx77sUJOKrdQ/Kb8sNRj4XflP&#xA;SX2pzFnAjgeAdFVh9BxV5d52/wCcOvy81aGSXy1NP5evqExoGa6tSx3+KOUmQf7GTbwOKvlz8yfy&#xA;g87/AJeXqw6/Zg2crFbXU7cmS1mIFaK9AVb/ACXAb2pirN/yD/5yJ1XyLeQaFr0r3vlCZwhDEvJY&#xA;8jvJD1Jj3q8f0rvsyr7is7y0vbSC8s5kuLS5jWW3njIZHjcclZWGxBBqMVVsVdirsVdirsVdirsV&#xA;dirsVfC//OXmuzah+cNzYMx9LRrO2tY07Ayxi6Y/M+v19sVVfyE/NX8ufyx0PUtZ1G3uNU83ai/1&#xA;eC1t4wohtI6MA88hVR6sm7cA32VxVkesf85u+bJXb9DeXLC0T9n65JNdGle/pm17YqlKf85p/mqJ&#xA;GZtN0RlalENvdALQfs0ua7+9cVZR5f8A+c37gSKnmHywjRE/HcafOVZR7QzBg3/IwYq8V/OnWPI+&#xA;u+eLjzB5OaRNP1hFu7uzmiML294xImQj4kPMqJKoxFWOKvo7/nCnXp7vyNrWjSksmmX6ywE/spdR&#xA;14D25xM304q+isVdirsVdiqH1HULLTrC51C+mW3srOJ57md/spFGpZ2PsFFcVfnt+dP5waz+ZHma&#xA;S6kd4NBtHZNH04mgjj6eo4GxlkpVj2+yNhiqP8h/843fml5zsItTs7KLTtLuAGt7zUZDCsiHo6Rq&#xA;skpUjcNwoexxV9U/kx/zjz5Z/LqIX9wyav5ncEPqbpxWFWFClshLcPAv9pvYbYq9ZxV2KuxV2Kux&#xA;VA63oeka7pdxpWsWkd9p10vCe2mXkjDr9BB3BG4PTFXwV+fv5NTflr5njjtXe48vamHl0u4f7S8T&#xA;8cEhHV4+Q37gg+OKvcv+cOPzMk1PRLvyNqMpe60dTdaUzGpazd6SR1/4qkcU9mp0GKvpHFXYq7FX&#xA;Yq7FXYq7FXYqxn8wfzD8s+Q/L8ut6/cenCPgtrdPimuJaVEUSdyfHoOpIGKvz4/MzzxP55886r5q&#xA;mtVsm1F4ytqjFwiQwpAgLGnI8IhyNBv2GKovyN+UH5iedyH8v6NNPZkkNqEtIbUU6/vpOKsR3C1P&#xA;tir2XRP+cIfMs0YbW/M1nYudzHaQSXdPblI1riqeSf8AODenlCIvOEqyfss1irAfMCdf14qxDzL/&#xA;AM4XfmBYRvLoep2OtKvSBuVpO3+qH5xffKMVeKeZ/J3mnytffUfMWl3GmXJrwW4QqrgdTG/2JF91&#xA;JGKvTv8AnGr86NI/LrW7+z1q2J0jXWt1udQj5M9s0HMI5jFecf75uXEcvn0xV9zWN9ZX9lBfWM6X&#xA;NncostvcRMHR0cVVlYbEEYqr4q7FXYq8R/5y98zz6P8AlQbC3cpLrl5FZSU2PoKGnk+8xKp9jir5&#xA;r/5xx/Le089fmRb2upR+ro2lxnUNRiP2ZVjZVjhPs8jryHdQ2Kv0BVVVQqgKqiiqNgAOwxVvFXYq&#xA;7FXYq7FXYq7FXnX5/fl+nnb8stUsIo+eqWKHUNKIFW9e3UtwX/jKnKP6cVfD/wCUnnN/Jv5iaHr/&#xA;AD4W1vcrHfeBtZv3U+3ekbkj3AxV+koIIqNwehxV2KuxV2KuxV2KuxVKfNfmjR/K3l6+1/WJvQ0+&#xA;wjMszdWJ6KiDuzsQqjxOKvz1/Mz8x/Mv5l+b21O8DsHf0NI0qLk6wxsQEijUV5O5pyNKs3tQBV9F&#xA;fkl/zihpun29vr/5gQLe6k4WS20InlbwAio+s0/vZP8AI+wO/Lsq+k4YYYIkhhjWKGNQscaAKqqB&#xA;QBQNgBiq/FXYq7FUt8xeWtA8yaXLpWu2EOo6fN9u3nUMK9AynqrDsykEdsVfGv57/wDOM+o+Slm8&#xA;w+WPU1DystXuYm+K4shX9un95Fv9vqv7X8xVVv8AnGL89ZfKmrQ+UNfuK+WdRl42k8p2srmQ0B5H&#xA;pDI32x0U/Ft8VVX2tirsVdir5r/5ze/5Rby1/wAx03/JnFWPf84Oqv6X82tQchb2YDdwC8tR+GKv&#xA;qDzV5m0ryv5d1DzBqzsmn6bC085QcnIGyogJALOxCrU9TirzD8qf+cnPKXn/AMwvoDWU2jajIGbT&#xA;hcSJIlwE3KBl48ZOPxcaHYHfFXsmKuxV2KuxV2KuxV2KvzZ/Nvy0nlr8y/Mmixrwt7W+lNsnTjBM&#xA;fWhH0RyLir73/KDXn178r/LGqSMWmm0+BJ3O5aWFfRkb6XjJxVl+KuxV2KuxV2KuxV8bf85g/mfJ&#xA;q3mWLyRp8p/RuiES6lxPwy3rrVVPiIY2p/rM3hirKv8AnEj8mIILOP8AMTXIOd1PyXy/byDaOMVV&#xA;7og/tPusfgtW35Cir6fxV2KuxV2KuxV2KrJ4ILiCSCeNZYJVKSxOAyOjCjKynYgjYg4q+DP+cj/y&#xA;e/5V/wCbBdaZGR5Z1kvLp9KkQSA1ktif8mtUr1XxocVfSP8Azi5+Z8nnPyENO1GX1Nc8vcLW5djV&#xA;pbcg/V5j4nipRj3K1PXFXsuKuxV88/8AObELn8udFnFOCawiN41e1nI/4gcVYH/zhFchfOHmO1qa&#xA;y6fHKB+zSOcLv7/vNsVfTv5keTIPOvkfV/LE0voDUoQsc9KhJY3WWFiO4EkakjwxV+dOu6H5j8m+&#xA;Z5tN1BJNO1vSpgeSMVZHQho5YnXsdmRl+eKvqr8mf+cs9G1O2t9F8/Srp2qoFjj1oilrP0AM9P7l&#xA;z3b7Hf4emKvoy0u7W8to7q0mjuLaZQ8M8TB43U9GVlJBHyxVVxV2KuxV2KuxV8J/85c2AtvznvZg&#xA;vE3tnaTk7fEVj9Gu3/GGm+Kvov8A5xNvDP8AknpMRJ/0S4vIRUAdbh5dqdf73vir2HFXYq7FXYq7&#xA;FUr8069beXvLWq67cisGl2k13IvQsIYy/Ee7UoMVfnX5R0XU/wAxPzLsdPuJGkvfMGoGW/uP2uMj&#xA;Ga5l7/ZQO2Kv0isbK0sLK3sbOJYLS1jSC3hTZUjjUKir7KopiqC0nzR5Z1ie4t9I1ey1G4tDS6ht&#xA;LiKd4jWlJFjZim474qmeKuxV2KuxV2KuxVgH57eRovOf5Y6zpgi9S/tojfaYQKsLm2Uuqr7yLyj/&#xA;ANlir5D/AOcYfOT+Wvzb0uOSThY65XS7pexacj0DTx9dUFfAnFX33irsVeL/APOXWmtd/kzeXAFR&#xA;p97aXJ9g0n1f/mfirwH/AJw+1QWX5xR2xNDqenXVqBtuV4XPf/mHxV9zYq88/N78k/K35laYq3o+&#xA;pa3bKVsNYiUGRBufTkXb1IqmvEnbsRvir4o/Mb8lvP3kC5f9Nae0mmhuMOr2wMto4PSrgVjJ/lkA&#xA;OKpF5Z89+cvK8hk8va1eaZyNXjt5WWNj/lx14N/shir0nTP+ctvznskCz39pqNNuV1aRA/8AJD0M&#xA;VTNv+czfzZaJUFpo6svWQW0/JvnW4K/cMVSfUv8AnLH86rxWWHVLewDV/wB5rSCoB7AzLKR+vFWC&#xA;eYPzM/MHzCf9zPmLUL1K1EL3EgiB8REpWMfQuKvqv/nD78xr/wAweV9S8t6tdyXeoaJIklpLO5eR&#xA;rOcEBOTEs3pSIfkGUYq8b/5y/uxP+cc0QpW0sLWE0r1IaXf/AJGYq+gv+cSLd4vyXsHY7T3d3Ivy&#xA;EpT9aYq9lxV2KuxV2KuxV5B/zldrL6b+S+qRRtxfUp7azDDrRpRK4+lIiPlirwP/AJw00iK8/NS6&#xA;vpAD+jNMnlhr1EkskcNR/sJHxV9Y/mrYa7qH5b+ZLLQeZ1a4sJ0tUjNJHYoaohH7TrVV9zir89fJ&#xA;PnPX/I/mi117R5PRv7JyJIXB4SRk0khlXYlWGx7jqKEDFX6Cflj+aPlj8w/L6apo0wFxGFXUNOcj&#xA;1raUj7Ljup/ZcbN86gKswxV2KuxV2KuxV2KvzS842knlb8ydZtrL90+i6vcLZnwFvct6R2p2UHFX&#xA;6TWF5Fe2Ntew/wB1cxJNHXrxkUMPwOKq+KvM/wDnI3VfLll+UXmC21u8S2OoWzQadGal5rtaSQoi&#xA;gEn40FT0A3NBir4e/LLzenk7z7onmWRHlg064D3EcVPUaF1McoTkQORjdqVIxV9S/mr/AM5X+W7X&#xA;yXby+Qr1brzBqm0fqxGtiin43mjccfU/ZRdx+1uOqq7/AJxc/O3zn55v9X0PzTKt/cWcK3ltqKxR&#xA;wtxLiNonWFY4zuwKkLXrWu2KvoSSOOWNo5FDxuCrowBVlIoQQeoOKvN/NH/OOf5PeYpHmudAisrp&#xA;9zcaczWhqep9OIiIk+JQ4q8+1D/nCXyJI7Gw17U7ZTUhZhBPT/gUhxVLF/5wd0jkOXm24K1+ICzQ&#xA;Ej2PrHFU20//AJwn/L+Jw1/reqXQG/GI28IPTrWKU/ccVQP5w/8AOMnkLQ/ys1fUfKunyjWtLVb0&#xA;3Us8srvBCazqVLemAIiz7J+zir55/Jz8zbj8ufOsXmFLdry2MEtte2Sv6ZlikWqjmQ1OMqI3Ttiq&#xA;A/M7zs/njz1qvmhrc2o1F4ylsW5mNIokhRSwC1+GMdsVfdv5CaM2j/k75Us2Xiz2K3ZU9Qbxmut/&#xA;+R2Ks+xV2KuxV2KuxV4D/wA5qMw/KvTACQG1y3DAdx9Uujv9IxV5z/zhHPx86eYbfj/eaaknKvTh&#xA;OopT354q+xMVfNH/ADkh/wA43S6zLc+c/Jdty1Zqy6vpEdB9YoKtPAP9+/zp+31HxfaVfLnljzV5&#xA;n8na6mq6HeS6bqlsSjFdqgH4o5Y2HF1qN1YUxV9Xflp/zmJ5Z1VIbDzvb/oXUKBTqUAaSykbxZRy&#xA;lhr/ALIeLDFXv+ka3o2s2S32kX1vqNm/2bm1lSaMnw5IWGKo3FXYq7FXYq/N/wDOl0f82/N5VgwG&#xA;rXYqDXdZmBH0EYq+/vy3dn/Lvys7IY2bSLAlD1Um2jND8sVZFir4F/5ye87X3mT81tUtHlY6doLn&#xA;TrGCvwo0dBcPTpyeUGp8Ao7Yqla/kD+ZTfl6vnpLFG0loxcrbK5N2bUiouREB/d0+L7XLj8VKb4q&#xA;wfRdE1bXNUttK0i0kvtRu39O3tYVLOzdfoAG5J2A3O2Kvvj8hfyctvy28rNHclJ/MWpcZdXuUNVB&#xA;UHhBGdvgj5HfuST4AKvTsVdirsVdirsVUrq1t7u1mtblBLb3CNFNE3RkcFWU/MHFXxv5r/5wz892&#xA;+uSr5au7O+0aRybaS5laGaJCdllXiwJXpyUmvWg6Yq8q/Mr8p/N/5dahaWfmKKIC+jaS0ubd/Uhk&#xA;4EB1DEKeSchUEdxir6m/5w788Xmu+Qb3Qb2UzT+XJ0it3Y1ItLhS0KGu/wADRyAf5NB2xV75irsV&#xA;dirsVdirxH/nMLTXu/yee4VajT9Rtblj4BudvX756Yq8I/5xD8yadov5pTx6hdR2tvqWmzWqSTOs&#xA;aeqJYpUHJiBUiNgB74q+xvPHnjy95K8tXPmHXZjFYW/EBYwGllkc0SOJSRydvnTuaAE4qxn8p/z0&#xA;8n/mW15b6QlxZ6jYqJJrG8VA5iY8RKhjZ1ZQxoe4PbcYqlH5u/8AON/k7z+ZdSt6aN5lYV/SMCAp&#xA;OwG31mIU5/64Ib3I2xV8j/mB+Rf5k+RpJH1XS3uNNTcatZBp7Ur4swHKP/noq4qw3SNd1vRboXej&#xA;6hc6bdDb17SZ4JKdacoypxV6Ton/ADlD+dOlIsf6cF/CvSO+ghmP0ycVlP0virK7T/nNT8zYxxud&#xA;K0e4AH2hFcxsTXqaTlfuGKq7f85s/mDVeOh6SAD8dVuTVe4H74UPvir3T8pv+cifJnnnSJpb+eDQ&#xA;NYsgDe2N3OioVO3qwyvwDoTse6nr2JVfDfnPVk1jzhruroapqOoXd2pHSk87yDw/mxV+lHlfTn0z&#xA;y1pOmuKPZWVvbsOu8USofD+XFUzxV+bH5uxSRfmr5xWReLHW9QcA/wAr3UjKfpUg4q++vyl1nTdX&#xA;/LTyzeafOs8I021hcqQSksMKxyRtToyOpBGKpzp3lXyxpl7Nf6bpFlY31zX6xdW1tFFLJXrzkRVZ&#xA;unc4qmmKuxV2KuxV2KuxV2KuxV8qf85wavpznytpMc6vqEBu7me3UgtHFIIljZh25lW4/I4qv/5w&#xA;YRwnnVyp4E6YA1NiR9bqK+1Rir6oxV2KuxV2KuxV8of85hfmzd/Wx+XOmPwtlSK516TYmRmpLBB7&#xA;Ko4yN4kr4Gqr5c4PwL8TwBoWptU9q4qmV95n8xX+j2Wi3uo3FzpWms7WFnLIzRwlwA3BT02XYdu3&#xA;U4q+oP8AnDb8s9W08X3nzUUa3g1G2NhpUDggywtIksk+/wCzyhVU8dz0pVV9QYq7FWE+ZvyU/Krz&#xA;Kzyat5as3nk3e5gQ2szHxaS3MTsfmcVeb6x/zhh+WV2zPp1/qemsekYliniH0SR8/wDh8VYzc/8A&#xA;ODVmz1tvOMkSb7S6eshp23W4j/ViqWa3/wA4QavbaXcT6R5pj1HUY15W9lNZfVUlI/Z9b6xNwNOl&#xA;VpXrTrir5s1PTNQ0vULjTtRt5LS+tJGiubaVSro6mhVgcVUh69tOrUaKaMq61FCDsymh+/FX37/z&#xA;jx+bM/5i+STPqXAa/pUgtdT4AKJKryinCjZfUWtR/MrUoKDFXqWKvkX/AJyx/JbVo9cm8/6Favda&#xA;feKp1uKEFmgmjUJ65Ub+m6KOR7MCT1xV846brOr6XMs+m31xYzo3NJbaV4XVh+0GQqQcVfcf/OMP&#xA;5r6t598oXdvrjifWtCljgnu6AGeGVSYZHA/brG6ttvSvWuKvZcVdirsVdirsVdirsVfE3/OTH51e&#xA;adU876l5V0u+m0/QNHkNpJDbu0TXM6U9ZpitCwV6qq9Nq9TirxLTtO1nXdVhsbCCfUdTu2CQwRhp&#xA;ZXanYCp2A+gYq+/fyD/Ktvy68jR6feFX1u/k+t6s6GqrIyhVhVu6xKKe7ciOuKvScVdirsVdirsV&#xA;fnZ/zkA7v+c3mwsxYi9IqTXZUUAfQBir7C/KPyT5Wv8A8h9C0O706KXTdX02OXUISorJLcLzeQsP&#xA;i58jVWrVaCnQYqxDQf8AnDTyBp3mBdRvtRvNU06KT1INKmCIhoahZpEoZF9gFr3xV77BBBbwRwQR&#xA;rFBEoSKJAFREUUVVUbAAbADFV+KuxV2KuxV2KuxVKrnyn5VutXTWbnRrGfWIqCPUpLaF7lQooOMz&#xA;KZBQe+Kvnv8A5zb0XS/8P+XtbEKLqi3j2ZnAAd4HiaTix6sFZBxr0qfHFUk/5wckpqvm6PlTlBZN&#xA;wr14vMK09uX44q+tMVdir5r/AOcvPy58v23kS38x6No9nY3lrqCfpK5tbaKGSSK4Rk5SvGqs9JeH&#xA;2vHFWIf84S69Hbeb/MGhuwU6lZRXMYP7TWchXiPfjcsfoxV9h4q7FXYq7FXYq7FVk00UEMk0ziOK&#xA;JS8jtsFVRUkn2GKvzK168uPNPnfUby1QyXOu6nNNBHShZ7y4ZlFPcvir9GPKPkXyt5VsILfR9Ks7&#xA;GdII4bi6treKKWYxqF5SOiqzliKkscVZBirsVdirsVdirsVfCf8Azld5Iv8AQPzSu9YKE6X5hC3d&#xA;pNQ8RKqKk8RJ/aDrz/1WGKqX5c/85R/mB5J0K08vx21lqmk2ZIgF2sonSImvpJLHIo4gk05I1OnS&#xA;gxV9dflJ+a2ifmT5Z/TGnxtaXUD+jqOnyMHeCWlRRgByRhurUFfAEEYqzfFXYq7FXYq7FXYq7FXi&#xA;f55f85Kad+XmoDQNKsl1XzF6ayzrI5S3tlcVT1OPxu7D4uApsQa4q+UvzS/Obzl+ZVzZya+beC3s&#xA;FYWtlZI8cCs9OchEjyuzMFA3bbtTeqr6L/5ww8kahpfljV/NF7G0Sa7JFFp6MKcoLXnylHs8khUV&#xA;/l8Dir6OxV2KpB5+8p23m7yZrHlu4IVNTtnhjkbcJL9qGSn+RIqt9GKvz08oeYdZ/Lr8w7PVGhZN&#xA;Q0K8aO9tG+EsFJhuIT4ckLLir9G9B1zS9e0az1nSp1udOv4lntpl7ow7jsR0IPQ7Yqj8VdirsVdi&#xA;rsVeKf8AOVH5nweVPIU2g2ko/TnmNHtYkB+KO0Pw3Ep8OSn019zUfZOKvn3/AJxS8hSeZfzOt9Vm&#xA;jLaZ5bAv5nI+E3FSLVK9jzHqf7DFX3birsVdirsVdirsVdiqSecfJflvzjoU2ieYbNbywmowU1V4&#xA;5B9mSNx8SOteo+XQnFXyB+fn/ON+mfl15ch8xaPqlxfWkt4lpJa3KJziWRJHV/UTiG3jC/ZHXFU6&#xA;/wCcItVWLzZ5k0ktQ3ljDchPH6rNw8e31nwxV9gYq7FXYq7FXYq7FXYq/OD86tVGq/mz5svFfmh1&#xA;KeFHqTVbdvRWla7Uj2xV9F/ln/ziH5PFho+u+Zry51Ga4toLubSKLBAsssau0UhWsjqjEjYrXv4Y&#xA;q+kLe3t7a3itraJILeBFjhhjUIiIg4qqqtAFAFABiqpirsVdir5N/wCcv/yhaC4/5WNpEX+jzenD&#xA;5gjWg4SEiKG4p4P8Mb/5XE9zirBv+cff+cgbr8vrv9Ca36l15RupC7Ko5S2crdZYh3Rv20/2S71D&#xA;Kvt3Q9d0bXtMg1TRryK/0+4HKG5gYOh8RUdCO4O474qjsVdirsVeffm1+dXlP8uNLaS+lW71uVCb&#xA;DRomHrSNT4Wk6+lHXq5+gE7Yq+EfMvmTzZ+YnnM39+Wvtb1aaO3tbaIUUF2CQ28Kk/CoLBVFfcmp&#xA;JxV95/kr+WFr+XXke20aqy6pOfrOr3S9JLlwAVUn9iNQEX5VpUnFWeYq7FXYq7FXYq7FXYq7FWFf&#xA;nN5Ofzh+WevaFCnqXktuZrFQPiNzbkTRKP8AXZOHyOKvhr8lfPA8kfmZo+t3DFLFZTa6l12t5x6c&#xA;jEf8V1D08VxV+jKOjorowZGAKsDUEHcEEYq3irsVdirsVdirFvzQ872vkjyLq3mOcr6lpCVso2/3&#xA;ZdSfBAlO9XI5f5NTir4B/LLynded/wAxdH0Rg0ov7sSX8h3IgQ+rcOTt/utW+nFX6TgBQABQDYAd&#xA;AMVdirsVdirsVeVf85R/+SJ8zf8ARj/3ULfFXwTp2m6hqV0LTT7aW7umWSRYIEaRysSNLIQqgk8U&#xA;RmPsMVTvyX+Y3nXyVem78tarNYM5rNApDwS9v3kLho327lajtir3Hy//AM5ueZ7eNY9e8u2mosNj&#xA;NaTSWjEeJV1uVJ+VB8sVTyf/AJzkshE3oeT5Wl/ZD3yqv0kQMcVYD5w/5y+/M7W4pLbSFtvL1s4I&#xA;52qmW5oeo9aWoHzRFPvirx2ODX/MOpTyqtzquouslzdSnnPKUjXlJLI55NRVFWZjiqdflP8A+TT8&#xA;m/8Abc03/qMjxV+lOKuxV2KuxV2KuxV2KuxV2KuxV8L/APOUv5VzeUvPEuvWMBHl/wAwyNPEyj4I&#xA;btvinhNNhyNZE6bEgfZOKvTP+cXPz8tbqxs/IHme4EV/ABDoN9IaLNGNktXY9JF6R/zD4ftAclX0&#xA;5irsVdirsVUL6+srCynvr6dLaztkaW4uJWCIiIKszMdgAMVfCf8AzkT+eDfmLrken6SXj8qaU7Gz&#xA;VgVa5m3Vrl1PT4fhjU7gV6FiAq9n/wCcQvypl0XRJvPGrQmPUNZjEWlxuKNHZVDGTfceuwBH+SAe&#xA;jYq+jMVdirsVdiqE1bVtN0jTLrVNTuEtNPs42mubiQ0VEQVJP9Bir4K/PD89de/MTWp7e1mmsvKU&#xA;LcbLSwxUShTUTXKqaO7EVAOydBvUlVR/5xovrKx/O/yxPeTpbwF7qL1ZWCrzmspoo1qe7yOqj3OK&#xA;vrX8w/8AnHD8svO0sl5PZNpOrSEs+oadxhZ2O9ZYyrRPU9Tx5H+bFXiOuf8AOEXmmKZv0F5jsbuE&#xA;n4fr0c1qwHgfSF0DTx/ViqS2/wDzhf8AmtJKVlvtHhQH7bXFw1RX9kLbn8aYqzjyt/zhHp8ciTea&#xA;fMUlwoNXs9OiEQ27evLzJB/4xj54q9W8weUfy+/Ln8qPM0Wk2dto1m+m3UUtwxrLNLJC0cayTOWk&#xA;kZnYBQT1NBir8+oJ5reaOeCRop4mDxSoSrq6mqsrDcEHcEYq+wP+cZf+chZfMHp+S/N92ZNcUH9E&#xA;6nM3xXSjf0ZWJ3mX9lv2x1+IfEq+kMVdirsVdirsVdirsVdirsVSTzp5N0Lzj5bvPL+uQ+tYXi0J&#xA;XaSN13SWNqHi6HcH6DUVGKvz7/NP8qfM/wCXPmBtO1WMyWcrMdM1SMEQ3Ma03Xrxdajmh3B8RQlV&#xA;6T+Vv/OW/mvy1BFpfmuF/MOlRgJFdF+N9Eo/4sbaYf69G/yu2KvoXy7/AM5M/k1rcSsNeXTZ2FWt&#xA;tRje3Zfm5DQn/YyHFWRT/nB+VEMRlfzjoxUdkv7aRv8AgUdm/DFWB+b/APnLf8qdEjdNKmn8w3q7&#xA;LFaRtHDy8GnmCCnuivir5f8AzW/Przv+Yspt76UafoStyi0a1LCIkGoaZj8UzD/K2HZRirLv+cdv&#xA;+cebzzlew+ZfMsDQeU7Zw8MDgq1+6mvFeh9Eftv3+yvcqq+24444o1jjUJGgCoigBVUCgAA6AYqu&#xA;xV2KuxVKfMnmzy15Y086h5g1O30y0FeMlw4TkR+yi/adv8lQTir4v/5yK/P+Tz9ejQvL8kkXlG0c&#xA;PyIKPezL0ldSAyxr+wh/1jvQKqgfyI/5x+1D8yXutRv5pNN8t2yvEt6ihpJrrj8KRBtisZIZz/sR&#xA;uaqqwf8AMT8u/MnkDzJNomtw8ZF+O0u0r6NxDWiyxMe3iOoOxxV9Jf8AON3/ADkiNSFr5L86XVNR&#xA;HGHR9Ymb/ejssE7H/dvZHP2+h+L7Sr6axV2Kpb5j8x6L5b0W61rWrpLPTbNOc87/AHBVA3ZmOyqN&#xA;ydhir4K/O787ta/MrWqDnZ+WrNz+jNMr17evPTZpWH0KNh3JVTr8k/8AnG7WvzCsLnWdRnfR9C9O&#xA;RNOueHJ7i5oQrIrdYY3+237X2V3qVVea+afK/mPyT5ouNH1SN7LVtOlDJJGxFaHlHNC4p8LbMrD9&#xA;eKvrf8kf+cofLeu6NbaR521CLS/MkFIvrtx+6trtR9mQyU9OKSmzhiATuvXiFXv0ckcsayRsHjcB&#xA;kdSCrKRUEEdQcVXYq7FXYq7FXYq7FXYq7FXiH/OYM1qv5QvFLIizyX9sYI2IDsVLcigO5op3pir4&#xA;88jeQvMnnfVptI8uwpcajFbvdCB5Fi5pGyqwVnIXl8Y6kYqv178tfzA0CRo9Y8u6hZ8djI9vIYjT&#xA;+WVQY2+hsVSOLTdRllaGK1mkmUgNGsbFgW6AgCu+Ksy8sfkb+a/mWRBp3lu8SF6UurtPqkPE/tB5&#xA;/TDD/VrirDL+ymsb65spqGa1leGTiaryjYqaHbaoxV+nnl2W0l0HTns3je1NtF6LQlTGVCADiV2p&#xA;8sVTDFXYqw/z3+bf5f8AkaInzFq0UF0V5x6fHWa6cdqQpVgG7M1F98VfNf5gf85m+ZdQ9S08lWC6&#xA;NamoGo3YSe7I7FY/ihj+R5/PFXgGs69r3mDUWvtYvrjU7+U0M1zI80hqdlBYmg8AMVb1ry5r+hyW&#xA;8es6dcadJdwi5to7qJ4meFiVV1VwDxJU4q+0P+cTPzHsvMXkFPLUixwar5aUQtEgCCW1ckxTADq1&#xA;arJ7/EftYq9F/Mz8s/Lf5heW5NG1mPi61ewv0A9a2mpQOhPUH9pejD6CFXwB+Yn5d+ZPIHmSbRNb&#xA;h4yL8dpdpX0biGtFliY9vEdQdjir6S/5xu/5yRGpC18l+dLqmojjDo+sTN/vR2WCdj/u3sjn7fQ/&#xA;F9pV9EeY/Mei+W9Futa1q6Sz02zTnPO/3BVA3ZmOyqNydhir4K/O787ta/MrWqDnZ+WrNz+jNMr1&#xA;7evPTZpWH0KNh3JVZR/zjx/zjxc+d7mLzH5jieDylA9YojVHv3Q7oh2IhBFHcdfsrvUqq+2rW1tr&#xA;S2itbWJILaBFjggjUIiIgoqqooAABQAYq+FP+cpPzHs/OH5iNaacI303y8r2EV0qjlNLzrO3PqyK&#xA;44p22LD7WKvLrny15httHtdbuNNuYtHveQtNRaJxbyFGKMFkpxJDKRSuKsg8h/nB+YXkaVf0Bq0s&#xA;dmDV9Nm/fWjb1P7l6ha92Sje+KvpP8v/APnMvyxqXp2nnOxbRbs0Bv7UNPaMfFkFZo/l8fzxV9Ba&#xA;PrWk61p8OpaTeQ39hOOUNzbusiMPmpO/iMVRmKuxV2KuxV2KsY/Mb8wtA8heV7nX9Zk/dx/Ba2qm&#xA;klxOQSkMfu1Nz2FScVfnt+YHn3X/AD15mutf1uXnPMeMECk+lBCCSkMQ7KtfmTudzir0T/nErW9L&#xA;0v8AN2EahcLbfX7KaytC+we4keNkjr0BbgaV6nbqcVfdmKuxVQ1C/stOsbi/vp0trK1jaa4uJCFR&#xA;I0HJmYnoABir8wvMF3Bea9qV3btzguLqeWF6EVR5GZTQ7jY4q9R/5x7/AD0u/wAvNa/RuqO83lHU&#xA;ZB9ci3Y20hoPrMYAJ2H21H2h7gYq+7rO7tb20hvLSVZ7W4RZYJ4yGR0cclZSOoINcVYp+b/mHWfL&#xA;v5ZeYta0Uf7k7O0Z7Z6cvTLEK0tCCD6asX3223xV+dkUWv8AmTWuEaXWsa1qEhNFElxczSNuT+07&#xA;tir3P8v/APnDrznrHp3fm26Ty/ZNQ/VE4z3jD3Cn0o/pYnxXFX0r5B/JL8t/IypJoulI+oKN9Uu6&#xA;T3RPiJGFI/f01UYqx3/nJb8qv8c+Rnu9Ph9TzDoQe608KKvLHSs9uKdS6rVR/MAO5xV8aflb+YF/&#xA;5C87af5jtOTxwN6d9bKaetayUEsfhWnxLXowBxV+juk6rYavpdpqmnTLcWF9ClxazL0eORQyn7ji&#xA;rHfzM/LPy3+YXluTRtZj4utXsL9APWtpqUDoT1B/aXow+ghV8AfmJ+XfmTyB5km0TW4eMi/HaXaV&#xA;9G4hrRZYmPbxHUHY4qqebfzS88+bdI0vSdf1SS8sdIThbRtsXbcCWYj+8kCniGbenuWJVek/848f&#xA;848XPne5i8x+Y4ng8pQPWKI1R790O6IdiIQRR3HX7K71Kqvtq1tba0torW1iSC2gRY4II1CIiIKK&#xA;qqKAAAUAGKvJ/wDnJb81f8DeRZLXT5vT8w64HtdPKmjxR0/f3ApuOCtxU/zEHtir40/K78v9Q8++&#xA;ddP8uWnJI529S+uFFfRtYyDLJvtUDZa9WIGKv0ZstA0ay0ODQoLSIaRbQJaxWbKHj9GNQqoVaobY&#xA;d8VeO/mD/wA4k/l35i9S60Hl5a1JqkfVhzs2b/Kt2I4/882Ue2Kvmf8AML/nHr8zPJAmubzT/wBI&#xA;6RFUnVNPrNEqD9qVaCSL3LLx9ziqUflh+bPmz8u9ZW+0acyWUjD6/pUpP1e4XoeSj7L0+y43HuKg&#xA;qvv7yB570Lzz5XtPMOiycra4HGaFv7yCZQPUhkHZkJ+kUI2IxVkWKuxV2KvOvzH/AD8/LnyGJLfU&#xA;b/67rCVA0ix4zThvCU1CRf7NgadAcVfFP5u/mzrv5k+ZTql+Pq1hbgx6XpatzS3jNOXxUXk7kVdq&#xA;b/IABV6z+Sf/ADiwnmfynda75vaax/SduV0CCM8ZIw1GW7kU9QafAh6rU91xV4d558keYfI3me50&#xA;HWojDeWrcopk5enNGT8E0LECqNTY9jsdwcVfW/8AzjT+fq+cLKPyp5knA802cf8Aoty5A+vQoCSe&#xA;g/fRqPiH7Q+L+air3tmVVLMQqqKsx2AA7nFXxT/zkx+fjeb76Tyn5buD/heykpeXKHa+nQ7EHvDG&#xA;w+D+Y/F/LirHf+cf/wAjr38xtc+uagrweU9PcfX7kVUzuNxbQt/MduZH2V9yMVUvz7/JC/8Ay313&#xA;6xZh7jyrqDn9G3bbtG1ORt5j/Oo+yf2l361AVT78hf8AnJO48g2p8v8AmGCbUfLZflatCVM1mWJL&#xA;8FanNGJrx5Ch3HWmKvrzyj5+8k+d9Na48v6nb6nA6UuLatJUVtis0D0detPiWhxVW8t+QfJXlmae&#xA;by/odlpc9zX1praFI3YE148gK8K9F6DwxVPsVdirsVfCn/OUf5Vf4O87trGnQ8NA8ws9xAFHww3X&#xA;WeHwAJPNPY0H2cVei/8AOHX5q845vy71SYck53WgM53Kmrz24+W8q/7P2xV9Q3d3a2drNd3cqQWt&#xA;ujSzzyEKiIg5MzMdgABU4q+Df+ciPzqP5jeYY7XTRw8saSzrp3JQJJ3bZ7hqgMocABU7DrucVeTS&#xA;29xEkTyxPGk684WZSA6BinJSftDkpFR3GKvtD/nF/wDPO18zaRb+S9aaODzBpkIj09gAi3drCtAF&#xA;CgKJIkFGHcfF/Nir3q+vbSwsp768lWC0tY2muJ3NFSOMFmZj4ACuKvzo/OL8yLv8wfPV9rshZLAH&#xA;6vpVu3+6rSMngKdmepdv8onFX1h/zix+VX+EPJQ13UYeGv8AmFUncOKPDaUrBDvuC1fUf5gH7OKv&#xA;bcVdiriARQ7g9Rir4C/5yUX8u0/Mq6j8mRiP0xx1kQcRafXAfj9AL0p0kpty6d8VT3/nEr8xZfLv&#xA;5gr5cupaaT5kpAFJ+FLxATA4/wBfePbqWXwxV9wYqwL80fzr8k/lzaj9L3BuNVlTna6PbUa4cdAz&#xA;AmkaV/ab3pUimKvkr8xf+co/zJ82mW1sLj/DujyVX6pYsRMyntLc7SHwPDiD3GKvMdA8t+YfMmpp&#xA;p2h2FxqeoS7iG3RpGpXdmI2VfFm2GKo7z15A80eRtZTR/MdqLW9eCO5QKwkRo5B+y61VuLBkancH&#xA;FX2f/wA4v/mf/jLyBHp19Nz13y8Es7rkavJBxpbzmvWqqUY/zLXvirIPzq/J7SPzK8staScLbXbM&#xA;NJo+okfYkI/upCASYpNuXh9odMVfA2oWHmTyd5nktblZtL17R7gdCVkiljPJXRh1HRlYbEbjbFXr&#xA;v5hf85UeZPNf5eWflqCA2Go3MZi8yahGQouEHwhIQv2FlG8o/wBiPhrirBvye/KbWvzJ80Jptpyt&#xA;9LtuMmr6lSqwQkmgFdjJJxIRfp6A4q/QXyz5a0XyzoVnoei2y2unWMYjgiXrt1Zj+07HdmO5O+Kv&#xA;lL/nMb8zf0jrdt5E06Y/VNKIudXKn4XunWsUZp19KNqn/KbxXFXj3lb8n/zC81eWb3zH5f0p7/T7&#xA;Gb0JFiI9Z2C8m9GI/FJwBWoWp3FAd6KsatLzWtB1UT2k1xpeq2bkCSNngniddiKji6nxxV9Bflt/&#xA;zmP5h00xWHni0/TFkKL+k7YLFeIPF0+GKWn+wPiTir6r8pecPLfm7RYtZ8vX0d/YTbc02ZHABMci&#xA;GjI4rurCuKpzirsVYj+a35fWHn7yRqHl254pPKvq6fcsP7m7jBMUnyqeLU/ZJGKvzxt5/MPk7zWs&#xA;qc9P17Q7voftRXFu9CrDoRVaEdCPbFXpX5rf85MebvzA8vw6CbSLR9Obi2opbSO5uXWhAYtTjGG+&#xA;LhvvSpNMVeaeUNMt9V82aJpdyrNb39/a2syoaMUmmVGCkd6Nir7F/wCcp/InlqP8mDdWmmwwP5Za&#xA;2TS2iAT0IJp44HjFOqNzFR40OKvizTtRvtNv7fULCd7a9tJFmtriM8XSRDyVlI7gjFXr35gf85Q+&#xA;cvOfkZfK1zZwWTThF1bULdmD3KxkHiE2EQdgC4BNemw2xVB/842flWfPXnuOe+h5+XtDKXepchVJ&#xA;Xr+5tz/xkZasP5VbFX3yAAKDYDoMVdirsVfO3/OTn5/jy5azeS/K9z/zsFynHVL6Jt7OFx/dowO0&#xA;7g9f2F36kEKvlr8vfy+8xeffM0Gg6JGGnkrJc3MlRFBCD8csrCuwr8ydhviqUaVf3ei65Z6hHVLv&#xA;TLqOdKGhEkEgcbjwZcVfff58fm/bflt5S+swBZvMGoloNHtX3XmB8c8g/kiqNu5IHeoVfAmpanq+&#xA;v6zNf6jcve6pqEvOe4mYcnkc03JoAOw7Ae2Kvpb8tv8AnDKeQRah5/vvRQ0b9C2DAv48ZrjdR7rG&#xA;D7OMVfS/lfyf5Y8q6aum+XdNg0yzFOUcC0ZyNuUjmryN/lOScVeXf85T/lj/AIu8gvrFjEG1vy4H&#xA;uoqD4pLWlbiLbrsodfdaDrir5R/JP8yZ/wAv/P8AY6yzN+jJv9F1eFd+drKRyNP5o2AkX3FO+Kv0&#xA;UhminhjmhdZIZVDxyKQVZWFQwI6gjFXxp/zl/wCcfIWt+ZLPTdHgW58xaUWh1TWImHphBWloaD94&#xA;yOalq/Buu5J4qvnnFX3F/wA4p+cvy+vfI1v5d0OJdO16yUyatZSMGmuJNg92r0HqI2w/yNl6UJVe&#xA;jfml59svInkfUvMdzxaW3j4WFuxp611J8MMfjTlu1Oigntir877Cy17zj5sitYi15rmu3lObnd57&#xA;iSrO5A2FWLMewxV+jvkLydpvk3yjpnlvTh+40+EI8tKGWU/FLK3vJIS3t0xVKvzB/J/yB59gI8wa&#xA;YjXvHjFqlvSG7SmwpKB8QHZXDL7Yq+S/zj/5xi8w+QtPuPMGn30ereWoCvrSvxguYBI4RPUjJ4yD&#xA;kwWqGp/lGKsH/Kr80/MP5deZY9W0tzJZylU1PTmNIrmEHdT4OtTwf9k+xIKr9DPK/mTSfM3l+w17&#xA;SJfX07UYhNA/cA7MrDsyMCrDsRTFU0xV2KvHPzk/5xq8s/mFeNrVpcto3mNlCzXSJ6kNwFFF9aKq&#xA;nkAKB1PTqG2oq8Z1D/nDrVdE0HWNc1zzJbi00myur30rOGR3kFvC0gBZ+HCvHeitir53hmlhlSaF&#xA;2jljYPHIhKsrKahlI3BBxVG3XmHX7uBre71O7uLd6c4ZZ5HRqEEVVmINCK4qn/5UeRrfz156sPKs&#xA;149gdRS49K7SMS8JILeSdeSFkqp9KhocVe2WP/OEGvHUAt/5ntU08EFpIIJHmI7gI5RV+fI/LFX0&#xA;r5A/L7yz5D8vRaF5fgMVsrepPNIeU08pADSyvQVY0HQAAbAAYqyTFXYq8n/5yI/OMfl15USPTmVv&#xA;M2r84tMVqMIUUD1LllPXhyAUHqx7gHFXw7oOheZPOfmeHTNOjk1LW9VmY8nYszu1XkllkbsN2dm+&#xA;eKv0A/KD8p9E/LfywmmWXG41K44yatqXGjTygGlKk8Y0qQi/T1JxV+dt5KLm+nljBpNK7opHxUZi&#xA;QKCu++KvSP8AnI/zxP5s/NbV2EhbT9HkbS7BK/CEtmKysKbHnNzavhTwxVg2u+VNf0K30u51W0e2&#xA;g1m0S/06RvsywSfZYEffTrQjxxV9c/8AOKn51f4j0dfJWuz117Sov9xs8h+K6tE/ZqeskA2PcpQ9&#xA;mOKvoTFXEAih3B6jFX59f85Dflk3kL8wrqC1iKaFqvK90hgPhVHP7yAf8YXPED+Xie+KplZf85Le&#xA;cNP/ACltvI1hygv4S9sNbDfvU0+g9OGIfsyCpTn+ygFN9wq810Dytr3mA6gdLtWuE0yzn1HUJuiR&#xA;W9tG0kjux2FQtFHc7Yqh9B0TUdd1mz0bTUEuoX8qwWsbMFDSOaKvI7Cp23xVXsL/AMx+UfMaXVq8&#xA;+k69pM5AJBSWKVCVZHVh81ZWFCNjtirOvzk/PXW/zMs9Dtbu2Wxg02EtdwRMTHNesSrTKDuF9MDi&#xA;pqVq25xV6x/zhr+WPJrv8wdRh2XnZaGHGxPS4uFr4f3Skf5YxV9WYq4kAVOwHU4q+H/+cnvzrPnL&#xA;Xz5a0Sfl5Y0iQ8pEPw3d0vwtL7pHusfju3cUVeQTeV9eh8tW3maWzdNEu7mSyt707I08Sh2Ud+hN&#xA;D02I7HFX0x/zhR52lddb8l3MhZIlGqacp/ZBYRXKivarRsB/rHFX1PirsVdirEPzhnEH5UecXIqD&#xA;o1+lB4yW7oD/AMNir4M/J3R7LWfzR8s6bfQx3Flc38S3NvMoeOSMHkyMp6hgKYq+tPzw/KT8t9N/&#xA;KfzJf6X5c0+wv7W1EtvdwW8aSIUkQniwAIqNsVfNH/OM05g/PHyu4FSZLlKHwks5kJ/4bFX6C4q7&#xA;FXYq7FX54/8AOQPnWXzb+aut3nqc7KwlOm6eB9kQWrFKr7PJzk/2WKvqH/nFn8qrXyp5Hg8xXsA/&#xA;xB5hiW4eRh8UNm/xQQr4clpI/uQD9kYq9oupxb2s05HIQo0hXpXiCaYq/L3RInl1mwijHKSS5iVF&#xA;8SXAAxVYpl1HUwZn/e3k37ySlfilfdqfM4q/Qj82vyf0bzz5BHl2NEtrzTYwdAuSKCCWJOCISN/T&#xA;dQEcfTSoGKvgaKXzJ5L81h19TTPMGh3XQ7PFPC1CD2I/Aj2xV+g/5RfmXp35ieS7XXrYCK8X9xql&#xA;mDX0bpAOaj/JYEMh/lPjXFWaYq8+/Ov8pLH8y/Kf6MaVbTVbNzPpV8wLKkhFGRwN/TkGzU9jvSmK&#xA;vlnT/wDnEL837jWVsruC0s7AOBJqhuY5IuFd2SND6zGnQMi/MdlX0hffln5a/L38ifN+jaJFVm0P&#xA;UXvr6QD1rmX6nKOchHYdFUbKPpJVfG/5Kf8Ak3PKH/bVtf8Ak6MVfXX58f8AOPGl/mFA2saQY9P8&#xA;3RKFW4b4YbpF2EdxxBPIDZZAK9jUUoq8D8s/84gfmnf6wlvrcdvo2lq/7++M8VwxQUqYoomYlj25&#xA;8cVfaHl3QNM8vaFY6HpcXo6fp0KQW8ffigpVjtVmO7HucVTHFXz1/wA5W/nRJ5b0j/BehzcNb1aL&#xA;lqNwh+K2s3qvEEdJJtx7LXxU4q+Zvyh/LDVPzF84W+iWvKGxjpNqt8BUQW6n4iK7c2+yg8fYHFX1&#xA;l/zkh5N0ax/5x8vNN022W3s/L5spdPgXonGdIGNT39OZyT1J+eKvnf8A5xPvpLb87dHhQkLewXkE&#xA;lOnFbZ5t/blEMVfWf5wfnR5d/LHTbSfUYJb6/wBQZ1sbCAqpcRAc3d22RF5qK0Jqdh1xV5D/ANDx&#xA;6V/1KM//AEmp/wBUcVVrP/nODy+91El55WuoLZmAlmiuY5XVfFUMcYb5chir1L839ds9S/IjzDrO&#xA;mSLPZahpBmtpaGjQ3KrRqbEHi/fvir44/wCcdoFm/OryqjEgC6d9vGOGRx+K4q+1vzxhSX8ofNyu&#xA;KgaZcOO26JyX8Rir4l/5x9leP85vKjIeJN7xJ9njdWH0g4q/RLFXYq7FVG9na3s551ALRRu6g9CV&#xA;UnfFX5faVanUtas7WVzW9uY4nkPWssgUn/hsVfqJDDFBDHDCgjiiUJGi7BVUUAA9hiqB8xztb+Xt&#xA;UnUAtFaTuoPQlYmO+KvzV8lwvP5x0KBKc5dRtEWvSrToBXFUDbf6HqsXr7fVp19Ujenpv8XT5Yq/&#xA;UnFXzP8A85gflPb3ekr+YOlQ8b+y4Qa2qD+9t2PCOcgftRMQpP8AKfBcVeX/APOJvnyXy7+ZkWiz&#xA;S8dM8yr9UlQn4RcoC1s/+sWrGP8AXxV90Yq7FXYqxX82P/JWecv+2HqX/UHJir4K/JT/AMm55Q/7&#xA;atr/AMnRir9H8VdirsVQmr6pZ6TpN7qt63Cz0+CW6uX/AJYoUMjn6FU4q/NLzV5h1bzj5vv9bug0&#xA;uo6xdF1iWrEczxihT2ReKL7DFX3x+SX5WWP5deSrfTAqtrF2FuNauhQl7gr9hW/33F9lPpPVjiqU&#xA;f85TSIv5F+Y1Y0MhsVQeJ+vwNT7lOKvmT/nE2N2/OzSmUVEdveM58B9Xda/ewxV9H/8AORf5Haj+&#xA;Zljplzo95Da6vpHrLHFcllhmin4FlLorlWUxjj8NDXfxxV4H/wBCbfm5/v7Sv+kmX/qjiqtZ/wDO&#xA;GX5py3UUdzeaVb27MBLOJ5ZCq9yEEQ5HwFR8xir3r83/AC/b+Vf+ca9V0CxkZ4NL022s1magZws0&#xA;SO7AbAvuT88VfLv/ADjBEkn56eWFccgGvGA90sJ2U/QRir7W/NlA/wCVnnFePKuiajRaV3FpIR+O&#xA;Kvgn8mJEj/NryezniDq9moJ8WmVQPpJxV+kOKuxV2KoXVv8AjlXv/GCX/iBxV+ZXlP8A5SnRv+Y6&#xA;2/5PLir9P8VSPz5M8HkfzFNH9uLTLx1ruKrbuRir87Pyyg+sfmT5Tt+XH1tZ0+PlStOV1GK02xVK&#xA;vMMH1fX9Tt+XL0buePlSleMjCtN8VfqBazi4topwOIlRXCnqAwrTFUH5h0a11zQdR0a7FbbUraa0&#xA;mrv8MyFCfo5Yq/M3S7260HzFaXq1S70q8jmFOoktpQ3t+0mKv1BVlZQykMrCqsNwQe4xVI5vPnka&#xA;CV4ZvMWmRTRsVkje8t1ZWBoQwL1BGKqln518m311HaWWvaddXUx4xW8N3BJI560VFcsfoxVLvzY/&#xA;8lZ5y/7Yepf9QcmKvgr8lP8AybnlD/tq2v8AydGKv0fxV2KuxV5d/wA5NatNpv5KeYnhJWW6WC0B&#xA;H8s9xGkg+mMsMVfJn/ONPl+HW/zm8vxToHt7F5L+QH+a1jaSI/RMExV+gmKvHP8AnLWdI/yV1JGB&#xA;JmurNFp4idX3+hMVfPn/ADh/C8n5xRuvSLT7p3+R4J+thir7mxV2KuxV5T/zlLIqfkX5kBbizmyV&#xA;B4n6/AaD6AcVfMX/ADidGz/nZpLBaiO3vGY+A+rOtfvamKvtbz7FJN5G8xRRjlJJpd6iLsKlrdwB&#xA;vir87vywnW3/ADL8pTsCVi1nT3YDqQt1GdsVfpdirsVdiqF1b/jlXv8Axgl/4gcVfmV5T/5SnRv+&#xA;Y62/5PLir9P8VYv+akjx/lh5wkQ8XTRNRZWHUEWkhBxV8Cfk3Ak35s+T0YkAaxZPt4xzq4/FcVSr&#xA;z3CkHnfzDAleEWp3iLXrRbhwK4q/Sfy3O8/l3S53ADy2cDsB0q0Sk0riqY4q/MDzZ/ylOs/8x1z/&#xA;AMnmxV+hvnq08wXn5Tara+Xi41qbSWSyEZ4yFzEKrGezstQvvir84rm1ubW4ktrqJ4LiFiksMqlH&#xA;Rh1VlahBHviqI0bTtW1LVLay0iCa51KaRVtYbcM0pkr8PHjvWvfFX6H+e49Si/JDzDHqjB9TTyze&#xA;LfOCCGnFg4lII8Xrir4Y/JT/AMm55Q/7atr/AMnRir9H8VdirsVeK/8AOXv/AJJu5/5jrT/iRxV8&#xA;/wD/ADiH/wCTltv+YG7/AOIjFX3Virw//nMOcx/k+UpX19StYyfCgkev/CYq8V/5wwgMn5sXr1p6&#xA;GjXEhHjW4t0p/wAPir7axV2KuxV45/zlpMkf5K6kjVrNdWaJTxE6vv8AQpxV8+f84fQvJ+cUbrSk&#xA;OnXTvXwPBNvpYYq+1vMcBuPL2qQA8TLaToGPQFomFcVfmr5Kna385aDOoBaLUbR1B6ErOh3xV+nW&#xA;KuxV2KoXVv8AjlXv/GCX/iBxV+ZXlP8A5SnRv+Y62/5PLir9P8VYX+dTlPyk83kNxJ0m7FQabNEQ&#xA;R9NcVfDv5CxJJ+cflJXHIDUI2A90BZT9BGKpV+akaR/mf5wjjHFE1vUVVR0AF3IAMVfod5BleXyL&#xA;5clkPKSTS7JnbxJt0JOKp7ir8wPNn/KU6z/zHXP/ACebFX6a6T/xyrL/AIwRf8QGKorFXYqxX82P&#xA;/JWecv8Ath6l/wBQcmKvgr8lP/JueUP+2ra/8nRir9H8VdirsVeK/wDOXv8A5Ju5/wCY60/4kcVf&#xA;P/8AziH/AOTltv8AmBu/+IjFX3VirwP/AJzSldPyp05VNBLrVuj+4Frct+tRiry3/nCeBT+Y+tT1&#xA;PKPR5EA7Ue6gJ/4hir7OxV2KuxV4f/zmHOY/yfKUr6+pWsZPhQSPX/hMVeLf84XwCT8175609DRr&#xA;iQDxrcW6U/4fFX2rcQJPbywOSElRkYjrRhQ0rir8vNGleLWLGVG4vHcRMreBDgg4q/UfFXYq7FUL&#xA;q3/HKvf+MEv/ABA4q/Mryn/ylOjf8x1t/wAnlxV+n+KvPv8AnIB0T8mfNhZgoNkRUmm7OoA+knFX&#xA;xt/zjggf87fKwK8gLiU0IruttKQfopiqWfncjp+bvm8OCpOqXLAHwaQkH6QcVfeX5Sur/lX5OZWD&#xA;f7hNOBINdxaRgj6CMVZXir8wPNn/AClOs/8AMdc/8nmxV+muk/8AHKsv+MEX/EBiqKxV2KsV/Nj/&#xA;AMlZ5y/7Yepf9QcmKvgr8lP/ACbnlD/tq2v/ACdGKv0fxV2KuxV4r/zl7/5Ju5/5jrT/AIkcVfP/&#xA;APziH/5OW2/5gbv/AIiMVfdWKvnb/nNqQj8v9Cj5UDasGKV2JW2lFae3L8cVYN/zhFCh84eY5iP3&#xA;iafGin2ecE/8QGKvsLFXYq7FXgf/ADmlM8f5U6ei9Jdat0f5C2uX/WoxV5d/zhNEh/MXW5iP3iaQ&#xA;6KfZ7mAn/iAxV9m4q/LTUo0j1G6jQcUSaRVUdAAxAGKv1JilSWJJYzyjkUMjeIIqDiq7FXYqhdW/&#xA;45V7/wAYJf8AiBxV+ZXlP/lKdG/5jrb/AJPLir9P8VeZf85Kyxxfkh5oZzRTFboDud3u4VUbe5xV&#xA;8n/84sxu356eW2UVEYvmc+A+oTrX72GKpZ/zkJC8P5z+a0elTeBxTweJHH4Nir7Y/I6ZJvyg8oun&#xA;QaZboa+KLwP4rirOMVfmB5s/5SnWf+Y65/5PNir9NdJ/45Vl/wAYIv8AiAxVFYq7FWK/mx/5Kzzl&#xA;/wBsPUv+oOTFXwV+Sn/k3PKH/bVtf+ToxV+j+KuxV2KvFf8AnL3/AMk3c/8AMdaf8SOKvn//AJxD&#xA;/wDJy23/ADA3f/ERir7qxV80f85vyoPLXliIn9417cMq+IWJQT/wwxVIP+cHUQ6x5skIHNbezVW7&#xA;gM8pI+niMVfW2KuxV2Kvnb/nNqQj8v8AQo+VA2rBildiVtpRWnty/HFWE/8AOEMdfNXmWTjXjYwr&#xA;zp05TVpX34/hir6/xV+YXnCN4/NutxuOLpf3Ssp6giZgRir9LvL84uNB02cDiJbWBwp6gNGppiqP&#xA;xV2KoXVv+OVe/wDGCX/iBxV+ZXlP/lKdG/5jrb/k8uKv0/xV5P8A85UTJH+RnmFGrWZrJEp4i+gf&#xA;f6FOKvmb/nEuF5Pzr0x16RW147/IwMn62GKpZ/zk1B6H54+aE5cqyWslaU/vLKB6fRypir7A/wCc&#xA;eJxP+S3lRwONLRo6df7uZ0r9PHFXomKvzA82f8pTrP8AzHXP/J5sVfprpP8AxyrL/jBF/wAQGKor&#xA;FXYqxX82P/JWecv+2HqX/UHJir4K/JT/AMm55Q/7atr/AMnRir9H8VdirsVeK/8AOXv/AJJu5/5j&#xA;rT/iRxV8/wD/ADiH/wCTltv+YG7/AOIjFX3Vir5c/wCc5J1Fn5OgoeUkmoOD2oi24P8AxPFVH/nB&#xA;lG4+dZCp4k6YqvTao+tkgH6Rir6pxV2KuxV80f8AOb8sY8t+V4if3j3lw6rvuFiUE/8ADDFUl/5w&#xA;bhc3/nCYD92kVgjH3drgj/iBxV9Y4q/M/wDMuB4PzG81QOQXi1i/RiOlVupAaVxV+inkWd5/JHl6&#xA;dwA8umWbsB0q1uhNK4qnmKuxVC6t/wAcq9/4wS/8QOKvzK8p/wDKU6N/zHW3/J5cVfp/irxv/nLa&#xA;cR/ktqKUr691Zxg+FJg9f+ExV8/f84ewGT84VetPQ066kI8alEp/w+Krf+ctfLGrWf5vXmqvaS/U&#xA;tahtXtLkKWjkeKBLdkVgKcwYvs9eh74q+p/yC0bV9G/J/wAtadq8DW1/FbyPJbuCros08ksaup3D&#xA;em68ge+KvQMVfmx5w8oeZk/MrVfLv6NnbWZtQmSCyVCXk9WUmNkA+0rqQwbpTfFX6QWELwWNvA9O&#xA;cUSI1OlVUA0xVXxV2Ksf/MTTL3Vfy/8AM2mWMfq3t/pN9bWsQ2LSzWzoi/SzAYq+EvyJ8ua7d/nJ&#xA;5dtobGYz6bqEdxqCMjKYI7d+UjS8gOFKU+Lvt1xV+huKuxV2KvJf+cpNB1XWfye1GLTLd7qe1nt7&#xA;qSGJS0hijejlVAJPENyPsDir5/8A+cOdB1a6/M2TWIrdzpmn2U6XN2QRGJJeKpGG6FzWtPAYq+2s&#xA;VfMn/Obmg6zd6V5Y1e2tnm03TXvYr2dFLek1yIDGXp0VvRYV6V27jFUd/wA4V+XdXsPKeu6teW7w&#xA;Weq3MAsHkBUyrAj85FB6pWWgboSD4Yq+jcVdirsVfN//ADmvoWrXvlby/qlpbPPZabc3C30sYLek&#xA;J0T02enRSYyOXStB3GKqP/OEvlzV7HQ/MutXdvJDY6rJZxWEkilRKLUTmR0r9pazgVG1QfA4q+ls&#xA;Vfnj+dvk7zDp/wCcXmGyewuHn1bU7i701FjZjcJdymZPR4g8/wC84/D0O3XFX3l5D02/0vyP5d0z&#xA;UBS/sdMs7a8FeX76G3RJN+/xKcVTzFXYqoX8Lz2NzDH9uWJ0WuwqykDFX5weT/J3meT8ydL8vDTb&#xA;gazb6hCtxZMhDxelKpkZ/wCVVAqWO1N8VfpNiryP/nKfQtY1j8oL+HSrZ7ua2uLe6nhiUvJ6MbHm&#xA;yqNzxrU+1cVeJf8AOFvlvVZfPWpeYTbSLpNrp0lsLsqRG1xNLEVjDH7R4IxNOm1euKv/2Q==</xmpGImg:image>
               </rdf:li>
            </rdf:Alt>
         </xmp:Thumbnails>
         <xmpTPg:MaxPageSize rdf:parseType="Resource">
            <stDim:w>25.000000</stDim:w>
            <stDim:h>25.000000</stDim:h>
            <stDim:unit>Points</stDim:unit>
         </xmpTPg:MaxPageSize>
         <xmpTPg:NPages>1</xmpTPg:NPages>
         <xmpTPg:HasVisibleTransparency>False</xmpTPg:HasVisibleTransparency>
         <xmpTPg:HasVisibleOverprint>False</xmpTPg:HasVisibleOverprint>
         <xmpTPg:PlateNames>
            <rdf:Seq>
               <rdf:li>Cyan</rdf:li>
               <rdf:li>Magenta</rdf:li>
               <rdf:li>Yellow</rdf:li>
               <rdf:li>Black</rdf:li>
            </rdf:Seq>
         </xmpTPg:PlateNames>
         <xmpTPg:SwatchGroups>
            <rdf:Seq>
               <rdf:li rdf:parseType="Resource">
                  <xmpG:groupName>Default Swatch Group</xmpG:groupName>
                  <xmpG:groupType>0</xmpG:groupType>
               </rdf:li>
            </rdf:Seq>
         </xmpTPg:SwatchGroups>
         <dc:format>image/svg+xml</dc:format>
      </rdf:Description>
   </rdf:RDF>
</x:xmpmeta>
                                                                                                    
                                                                                                    
                                                                                                    
                                                                                                    
                                                                                                    
                                                                                                    
                                                                                                    
                                                                                                    
                                                                                                    
                                                                                                    
                                                                                                    
                                                                                                    
                                                                                                    
                                                                                                    
                                                                                                    
                                                                                                    
                                                                                                    
                                                                                                    
                                                                                                    
                                                                                                    
                           
<?xpacket end="w"?>
	</metadata>
<path d="M5.515,20.595c0.036,0.232-0.123,0.449-0.355,0.485H4.13c-0.194-0.023-0.346-0.176-0.37-0.37
	c-0.028-0.232,0.138-0.443,0.37-0.47h1.03v0C5.343,20.268,5.487,20.412,5.515,20.595z M25.01,16.61l-0.29,7.99
	c0.001,0.206-0.155,0.379-0.36,0.4h-0.02c-0.216-0.029-0.371-0.223-0.35-0.44l0.28-7.98c0.009-0.198-0.008-0.396-0.05-0.59
	l-1.12,1.27c-0.324,0.382-0.498,0.869-0.49,1.37v5.95c0.004,0.031,0.004,0.063,0,0.094c-0.026,0.204-0.213,0.349-0.417,0.323
	s-0.349-0.213-0.323-0.417v-5.95c-0.005-0.717,0.247-1.412,0.71-1.96l1.27-1.45c-0.17-0.229-0.398-0.409-0.66-0.52l-1.85-0.82
	l-1.42,2.43c-0.157,0.29-0.443,0.487-0.77,0.53h-0.1c-0.184,0-0.364-0.052-0.52-0.15l0.31,7.87c0.017,0.216-0.136,0.408-0.35,0.44
	h-0.02c-0.209-0.016-0.371-0.19-0.37-0.4l-0.28-7.31h-0.76l-0.28,7.31c0.001,0.21-0.161,0.384-0.37,0.4H16.4
	c-0.217-0.026-0.373-0.222-0.35-0.44l0.3-7.87c-0.155,0.099-0.336,0.151-0.52,0.15h-0.1c-0.327-0.043-0.613-0.24-0.77-0.53
	l-1.42-2.43l-1.85,0.82c-0.122,0.051-0.236,0.118-0.34,0.2c-0.061,0.045-0.134,0.07-0.21,0.07c-0.125,0-0.241-0.069-0.3-0.18
	c-0.117-0.191-0.074-0.439,0.1-0.58c0.147-0.121,0.313-0.219,0.49-0.29l1.99-0.88l1.02-1.17c0.06-0.066,0.141-0.109,0.23-0.12v-0.92
	c-0.502-0.623-0.83-1.369-0.95-2.16c-0.087,0.009-0.175,0.002-0.26-0.02c-0.527-0.171-0.872-0.677-0.84-1.23v-0.3
	c-0.017-0.454,0.207-0.884,0.59-1.13c-0.164-0.8-0.248-1.614-0.25-2.43c-0.078-0.797,0.258-1.579,0.89-2.07
	c0.228-0.154,0.488-0.253,0.76-0.29c0.77-0.711,1.764-1.132,2.81-1.19c1.42-0.191,2.838,0.365,3.75,1.47
	c0.892,1.409,1.17,3.121,0.77,4.74c0.212,0.248,0.329,0.563,0.33,0.89v0.31c0.028,0.555-0.321,1.06-0.85,1.23
	c-0.081,0.021-0.166,0.028-0.25,0.02c-0.128,0.791-0.459,1.535-0.96,2.16v0.92c0.089,0.011,0.17,0.054,0.23,0.12l1.02,1.17l2,0.88
	C24.473,14.421,25.085,15.482,25.01,16.61z M17.284,11.354c1.662,0.086,3.08-1.191,3.166-2.854c0.037-0.381,0.358-0.671,0.74-0.67
	c0.03,0.005,0.06,0.005,0.09,0c0.162-0.069,0.263-0.234,0.25-0.41V7.11c0.013-0.174-0.094-0.335-0.26-0.39
	c-0.09-0.011-0.182-0.005-0.27,0.02c-0.302,0.071-0.608-0.104-0.7-0.4L20.04,5.6c-0.96,0.22-3.84,0.67-5.29-1.39
	c-0.123-0.186-0.098-0.432,0.06-0.59c0.013-0.011,0.027-0.022,0.041-0.031c0.16-0.104,0.375-0.059,0.479,0.101
	c1.41,2.02,4.8,1.03,4.83,1.02c0.187-0.043,0.375,0.066,0.43,0.25l0.35,0.94c0.102-0.021,0.206-0.028,0.31-0.02
	c0.304-1.321,0.074-2.708-0.64-3.86c-0.779-0.905-1.969-1.347-3.15-1.17c-0.917,0.051-1.785,0.427-2.45,1.06
	c-0.066,0.068-0.155,0.108-0.25,0.11c-0.198,0.016-0.388,0.085-0.55,0.2c-0.38,0.336-0.574,0.835-0.52,1.34
	c0.003,0.794,0.09,1.585,0.26,2.36c0.15,0.048,0.287,0.13,0.4,0.24c0.11-0.105,0.207-0.223,0.29-0.35
	c0.01-0.017,0.022-0.034,0.036-0.049c0.122-0.139,0.335-0.153,0.474-0.031c0.164,0.148,0.198,0.393,0.08,0.58
	c-0.166,0.255-0.372,0.481-0.61,0.67c-0.119,0.109-0.29,0.14-0.44,0.08c-0.107-0.036-0.198-0.106-0.26-0.2
	c-0.064-0.106-0.188-0.162-0.31-0.14c-0.169,0.057-0.276,0.223-0.26,0.4v0.3c-0.013,0.179,0.093,0.345,0.26,0.41
	c0.026,0.005,0.054,0.005,0.08,0c0.382-0.001,0.703,0.289,0.74,0.67h0C14.51,10.042,15.742,11.274,17.284,11.354z M16.9,14.93
	l-2.19-2.19l-0.57,0.66l1.43,2.44c0.042,0.091,0.13,0.152,0.23,0.16c0.098,0.013,0.196-0.025,0.26-0.1L16.9,14.93z M17.79,16.45
	l-0.02-0.57l-0.33-0.38l-0.32,0.38l-0.03,0.57H17.79z M19.47,12.32v-0.8c-1.202,0.907-2.859,0.907-4.06,0v0.8l2.03,2.04L19.47,12.32
	z M20.74,13.4l-0.57-0.66l-2.19,2.19l0.84,0.97c0.065,0.074,0.162,0.111,0.26,0.1c0.101-0.006,0.19-0.068,0.23-0.16L20.74,13.4z
	 M13.06,18.77l-0.21,5.83c0.001,0.21-0.161,0.384-0.37,0.4h-0.01c-0.218-0.028-0.376-0.221-0.36-0.44l0.22-5.83
	c0.013-0.364-0.066-0.725-0.23-1.05l-0.96,1.31c-0.311,0.434-0.475,0.956-0.47,1.49v4.1c0.004,0.031,0.004,0.063,0,0.094
	c-0.026,0.204-0.213,0.349-0.417,0.323S9.904,24.784,9.93,24.58v-4.1c-0.004-0.724,0.22-1.431,0.64-2.02l1.03-1.4
	c-0.087-0.069-0.181-0.13-0.28-0.18L9.76,16.1l-1.1,2.04c-0.101,0.195-0.285,0.334-0.5,0.38c-0.036,0.009-0.073,0.012-0.11,0.01
	c-0.174-0.002-0.34-0.074-0.46-0.2l-0.7-0.68v6.93c0.005,0.036,0.005,0.073,0,0.109c-0.03,0.202-0.218,0.341-0.419,0.311
	c-0.202-0.03-0.341-0.218-0.311-0.419v-6.93l-0.7,0.68c-0.12,0.126-0.286,0.198-0.46,0.2c-0.037,0.001-0.074-0.002-0.11-0.01
	c-0.211-0.049-0.39-0.188-0.49-0.38L3.3,16.1l-1.56,0.78c-0.1,0.048-0.195,0.109-0.28,0.18l1.02,1.4
	c0.42,0.589,0.644,1.296,0.64,2.02v4.1c0.005,0.036,0.005,0.073,0,0.109c-0.03,0.202-0.218,0.341-0.419,0.311
	c-0.202-0.03-0.341-0.218-0.311-0.419v-4.1c0.001-0.533-0.163-1.054-0.47-1.49l-0.96-1.32c-0.171,0.327-0.253,0.692-0.24,1.06
	l0.22,5.83c0.021,0.217-0.134,0.411-0.35,0.44H0.57c-0.205-0.021-0.361-0.194-0.36-0.4l-0.22-5.84
	c-0.066-1.089,0.497-2.119,1.45-2.65l1.79-0.89l0.98-1.12c0.064-0.066,0.149-0.109,0.24-0.12v-0.66
	C3.56,12.626,2.969,11.617,2.8,10.5c-0.098,0.009-0.196-0.001-0.29-0.03C2,10.288,1.67,9.791,1.7,9.25v-0.3
	C1.695,8.551,1.867,8.17,2.17,7.91C2.09,7.532,2.049,7.146,2.05,6.76C2.028,5.131,2.791,3.59,4.1,2.62
	c-0.009-0.123-0.009-0.246,0-0.369C4.202,0.912,5.37-0.091,6.71,0.01c1.339,0.102,2.342,1.27,2.24,2.609
	c1.629,1.234,2.384,3.308,1.93,5.3c0.308,0.252,0.482,0.632,0.47,1.03v0.3c0.03,0.541-0.3,1.037-0.81,1.22
	c-0.094,0.03-0.192,0.041-0.29,0.03c-0.165,1.115-0.752,2.125-1.64,2.82v0.66c0.089,0.011,0.17,0.054,0.23,0.12l0.98,1.12l1.79,0.89
	v0C12.568,16.641,13.133,17.677,13.06,18.77z M4.89,2.17c1.043-0.453,2.227-0.453,3.27,0C7.985,1.406,7.314,0.858,6.53,0.84v0
	C5.744,0.857,5.069,1.404,4.89,2.17z M6.37,13.18c1.66,0.086,3.074-1.19,3.16-2.85c0.045-0.379,0.368-0.663,0.75-0.66
	c0.03,0.002,0.061-0.002,0.09-0.01c0.162-0.069,0.263-0.234,0.25-0.41v-0.3c0.011-0.176-0.095-0.339-0.26-0.4
	C10.237,8.538,10.113,8.558,10,8.61C9.868,8.698,9.693,8.682,9.58,8.57l-0.43-0.4c-0.759,0.039-1.52-0.028-2.26-0.2
	C5.674,7.72,4.59,7.038,3.84,6.05C3.709,5.868,3.73,5.617,3.89,5.46c0.013-0.013,0.027-0.025,0.042-0.035
	C4.088,5.316,4.302,5.354,4.41,5.51c1.41,1.94,4.17,1.86,4.71,1.82c0.181-0.011,0.359,0.055,0.49,0.18l0.27,0.26
	c0.096-0.022,0.193-0.039,0.29-0.05c0.071-0.315,0.108-0.637,0.11-0.96c0.019-0.216,0.019-0.433,0-0.649
	C10.101,4.04,8.277,2.506,6.206,2.686S2.601,4.689,2.78,6.76c-0.001,0.323,0.032,0.645,0.1,0.96C3.091,7.753,3.287,7.851,3.44,8
	c0.104-0.108,0.197-0.225,0.28-0.35c0.01-0.017,0.022-0.034,0.036-0.049C3.878,7.461,4.091,7.448,4.23,7.57
	C4.396,7.722,4.426,7.973,4.3,8.16C4.139,8.409,3.94,8.632,3.71,8.82C3.586,8.919,3.421,8.949,3.27,8.9
	C3.165,8.857,3.074,8.784,3.01,8.69C2.941,8.584,2.815,8.529,2.69,8.55c-0.161,0.065-0.263,0.227-0.25,0.4v0.3
	C2.424,9.424,2.52,9.589,2.68,9.66c0.033,0.008,0.066,0.012,0.1,0.01c0.379-0.002,0.699,0.283,0.74,0.66v0
	C3.599,11.87,4.83,13.1,6.37,13.18z M5.99,16.72l-1.52-1.73L3.9,15.63l1.11,2.05L5.99,16.72z M7.87,14.61v-0.86
	c-0.858,0.373-1.832,0.373-2.69,0v0.86l1.35,1.54L7.87,14.61z M9.15,15.63l-0.57-0.64l-1.51,1.73l0.98,0.96L9.15,15.63z M15.38,18.4
	h-1.37c-0.232,0.036-0.391,0.253-0.355,0.485c0.028,0.183,0.172,0.327,0.355,0.355h1.37c0.232-0.028,0.397-0.239,0.37-0.47
	C15.726,18.576,15.574,18.423,15.38,18.4z"/>
</svg>
