<?xml version="1.0" encoding="utf-8"?>
<!-- Generator: Adobe Illustrator 17.0.0, SVG Export Plug-In . SVG Version: 6.00 Build 0)  -->
<!DOCTYPE svg PUBLIC "-//W3C//DTD SVG 1.1//EN" "http://www.w3.org/Graphics/SVG/1.1/DTD/svg11.dtd">
<svg version="1.1" id="Layer_1" xmlns="http://www.w3.org/2000/svg" xmlns:xlink="http://www.w3.org/1999/xlink" x="0px" y="0px"
	 width="25px" height="25px" viewBox="0 0 25 25" enable-background="new 0 0 25 25" xml:space="preserve">
<path d="M18.05,6.53L18.05,6.53c-0.072-0.149-0.216-0.251-0.38-0.27l-3.23-0.45L12.93,3.4c-0.171-0.237-0.502-0.291-0.74-0.12
	c-0.046,0.033-0.087,0.074-0.12,0.12l-1.51,2.41L7.33,6.26C7.164,6.276,7.02,6.379,6.95,6.53C6.895,6.676,6.939,6.841,7.06,6.94
	l2.3,1.94l-0.48,2.69c-0.028,0.155,0.049,0.309,0.19,0.38c0.152,0.088,0.336,0.103,0.5,0.04l2.93-1.22l2.93,1.22
	c0.164,0.065,0.349,0.05,0.5-0.04c0.139-0.072,0.215-0.226,0.19-0.38l-0.48-2.69l2.3-1.94C18.061,6.841,18.105,6.676,18.05,6.53z
	 M14.79,8.46c-0.104,0.08-0.158,0.21-0.14,0.34l0.39,2.13l-2.33-0.96c-0.135-0.053-0.285-0.053-0.42,0l-2.33,0.96l0.39-2.13
	c0.018-0.13-0.036-0.26-0.14-0.34L8.39,6.92l2.56-0.35c0.142-0.016,0.269-0.093,0.35-0.21l1.2-1.91l1.2,1.91
	c0.081,0.117,0.208,0.194,0.35,0.21l2.55,0.35L14.79,8.46z M20.19,8.88c-0.51,3.19-3.81,5.59-7.69,5.59c-4.28,0-7.76-2.89-7.76-6.44
	s3.48-6.44,7.76-6.44c3.88,0,7.18,2.4,7.69,5.59c0,0.004,0,0.009,0.001,0.013c0.007,0.234-0.177,0.43-0.411,0.437
	c-0.241,0.045-0.476-0.103-0.54-0.34c-0.45-2.8-3.34-4.9-6.74-4.9c-3.75,0-6.8,2.53-6.8,5.64s3.05,5.65,6.8,5.65
	c3.4,0,6.29-2.11,6.74-4.9c0.058-0.242,0.296-0.395,0.54-0.35h0c0.004,0,0.009,0,0.013,0.001C20.027,8.445,20.204,8.646,20.19,8.88z
	 M24.96,22.25l-3.98-7.99c-0.129-0.217-0.394-0.309-0.63-0.22c-0.206,0.052-0.33,0.261-0.278,0.467
	c0.005,0.018,0.011,0.036,0.018,0.053l3.6,7.23l-3.28-0.8c-0.21-0.055-0.432,0.025-0.56,0.2l-1.65,2.49l-3.86-7.76
	c4.46-0.71,7.84-3.98,7.84-7.89c0-4.43-4.34-8.04-9.68-8.04S2.82,3.6,2.82,8.03c0.017,1.784,0.702,3.497,1.92,4.8l-4.7,9.42
	c-0.07,0.142-0.037,0.313,0.08,0.42c0.135,0.115,0.318,0.156,0.49,0.11l3.88-0.93l1.95,2.94c0.099,0.132,0.256,0.206,0.42,0.2h0.03
	c0.17-0.002,0.325-0.093,0.41-0.24l3.73-7.47c0.083-0.193-0.007-0.417-0.2-0.5c-0.019-0.008-0.039-0.015-0.06-0.02
	c-0.236-0.089-0.501,0.003-0.63,0.22l-3.34,6.7l-1.65-2.49c-0.128-0.175-0.35-0.255-0.56-0.2l-3.28,0.8l4.12-8.27
	c1.969,1.681,4.482,2.587,7.07,2.55c0.29,0,0.57-0.01,0.85-0.03l4.35,8.71c0.085,0.147,0.24,0.238,0.41,0.24h0.03
	c0.164,0.004,0.32-0.071,0.42-0.2l1.95-2.94l3.88,0.93c0.172,0.046,0.355,0.005,0.49-0.11C24.997,22.563,25.03,22.392,24.96,22.25z
	 M12.5,15.27c-4.81,0-8.72-3.25-8.72-7.24h0c0-3.99,3.91-7.24,8.72-7.24s8.72,3.25,8.72,7.24S17.31,15.27,12.5,15.27z"/>
</svg>
