<?xml version="1.0" encoding="utf-8"?>
<!-- Generator: Adobe Illustrator 17.0.0, SVG Export Plug-In . SVG Version: 6.00 Build 0)  -->
<!DOCTYPE svg PUBLIC "-//W3C//DTD SVG 1.1//EN" "http://www.w3.org/Graphics/SVG/1.1/DTD/svg11.dtd">
<svg version="1.1" id="Layer_1" xmlns="http://www.w3.org/2000/svg" xmlns:xlink="http://www.w3.org/1999/xlink" x="0px" y="0px"
	 width="100px" height="100px" viewBox="0 0 100 100" enable-background="new 0 0 100 100" xml:space="preserve">
<path d="M0,14v72h100V14H0z M4,28.313c3.469,3.023,15.773,13.734,26.25,22.875L4,71.938V28.313z M96,82H4v-5l29.313-23.125
	c2.43,2.117,6.82,5.953,7.375,6.438l0.063,0.063C44.133,63.281,47.727,64,50,64c2.289,0,5.914-0.727,9.313-3.688
	c0.563-0.484,4.984-4.297,7.438-6.438L96,77V82z M96,71.938l-26.25-20.75C80.227,42.047,92.531,31.336,96,28.313V71.938z M96,23
	c-0.781,0.68-35.852,31.273-39.125,34.125l-0.188,0.188C54.094,59.57,51.438,60,50,60c-1.43,0-4.094-0.43-6.688-2.688
	c-0.742-0.648-6.086-5.266-9.938-8.625C21.945,38.719,4.586,23.516,4,23v-5h92V23z"/>
</svg>
