<?xml version="1.0" encoding="utf-8"?>
<!-- Generator: Adobe Illustrator 17.0.0, SVG Export Plug-In . SVG Version: 6.00 Build 0)  -->
<!DOCTYPE svg PUBLIC "-//W3C//DTD SVG 1.1//EN" "http://www.w3.org/Graphics/SVG/1.1/DTD/svg11.dtd">
<svg version="1.1" id="Layer_1" xmlns="http://www.w3.org/2000/svg" xmlns:xlink="http://www.w3.org/1999/xlink" x="0px" y="0px"
	 width="24.906px" height="25.16px" viewBox="0 0 24.906 25.16" enable-background="new 0 0 24.906 25.16" xml:space="preserve">
<path d="M20.684,18.85v5.93c-0.022,0.182-0.166,0.326-0.348,0.348c-0.219,0.027-0.419-0.129-0.446-0.348v-6.11
	c0.002-0.115,0.059-0.223,0.153-0.29c2.537-1.777,4.058-4.672,4.081-7.77c0-5.44-4.76-9.87-10.611-9.87
	c-5.851,0-10.611,4.43-10.611,9.87c0.001,0.056-0.014,0.111-0.042,0.16L0.908,14.4l1.8,1.01C2.826,15.468,2.9,15.588,2.9,15.72v5.54
	h3.835c0.003,0,0.006,0,0.009,0c0.21-0.006,0.386,0.16,0.391,0.37v3.15c-0.022,0.182-0.166,0.326-0.348,0.348
	c-0.219,0.027-0.419-0.129-0.446-0.348V22H2.505c-0.212,0.007-0.391-0.158-0.4-0.37v-5.7l-1.924-1.07
	c-0.001-0.001-0.002-0.001-0.003-0.002c-0.173-0.091-0.239-0.305-0.148-0.478l2.075-3.86C2.14,7.693,3.35,5.009,5.445,3.11
	c4.581-4.134,11.547-4.134,16.128,0c0.543,0.489,1.031,1.036,1.456,1.63C26.278,9.284,25.228,15.601,20.684,18.85z M18.14,13.76
	v5.51c-0.009,0.212-0.188,0.377-0.4,0.37H5.885c-0.212,0.007-0.391-0.158-0.4-0.37V8.25c0-0.003,0-0.006,0-0.009
	c0.011-0.21,0.19-0.372,0.4-0.361h5.928c0.003,0,0.006,0,0.009,0c0.21-0.006,0.386,0.16,0.391,0.37v1.87
	c-0.007,0.081-0.038,0.158-0.089,0.221c-0.142,0.174-0.398,0.201-0.573,0.059c-0.162-0.138-0.369-0.213-0.582-0.21
	c-0.038-0.003-0.076-0.003-0.114,0c-0.447,0.031-0.784,0.42-0.753,0.867c0.031,0.447,0.42,0.785,0.867,0.753
	c0.211,0.002,0.417-0.069,0.582-0.2c0.065-0.057,0.146-0.091,0.232-0.098c0.22-0.017,0.413,0.147,0.43,0.368v1.51h0.961
	c-0.041-0.136-0.062-0.278-0.062-0.42c0.058-0.832,0.72-1.494,1.552-1.552c0.921-0.064,1.719,0.631,1.782,1.552
	c-0.001,0.142-0.021,0.284-0.061,0.42h1.358h0c0.002,0,0.004,0,0.005,0C17.959,13.384,18.134,13.55,18.14,13.76z M6.277,13.39h1.621
	c0.1-0.008,0.199,0.026,0.273,0.093C8.321,13.618,8.333,13.85,8.198,14c-0.141,0.144-0.221,0.338-0.222,0.54
	c0.03,0.437,0.377,0.784,0.814,0.814c0.482,0.033,0.899-0.332,0.932-0.814C9.721,14.338,9.641,14.144,9.5,14
	c-0.066-0.074-0.099-0.171-0.092-0.27c0.014-0.202,0.19-0.354,0.392-0.34h1.619v-0.9c-0.147,0.04-0.298,0.06-0.45,0.06
	c-0.074,0.005-0.149,0.005-0.223,0c-0.856-0.062-1.5-0.806-1.438-1.662c0.062-0.856,0.806-1.5,1.662-1.438
	c0.152,0,0.303,0.02,0.45,0.06V8.62H6.285l-0.008,0V13.39z M12.081,17.12c0.165,0.131,0.371,0.202,0.582,0.2
	c0.038,0.003,0.076,0.003,0.114,0c0.447-0.031,0.784-0.42,0.753-0.867c-0.031-0.447-0.42-0.785-0.867-0.753
	c-0.213-0.003-0.42,0.072-0.582,0.21c-0.063,0.051-0.14,0.082-0.221,0.089c-0.224,0.02-0.421-0.146-0.441-0.37v-1.5h-0.961
	c0.041,0.133,0.061,0.271,0.061,0.41c-0.058,0.832-0.72,1.494-1.552,1.552c-0.921,0.064-1.719-0.631-1.782-1.552
	c0-0.139,0.021-0.277,0.062-0.41H6.285v4.77h5.134v-1.51c0.004-0.15,0.096-0.283,0.235-0.34
	C11.799,16.997,11.961,17.023,12.081,17.12z M17.354,14.13h-1.62c-0.098,0.005-0.195-0.028-0.269-0.093
	c-0.154-0.137-0.168-0.373-0.031-0.527c0.141-0.144,0.221-0.338,0.223-0.54c-0.033-0.432-0.376-0.775-0.807-0.807
	c-0.482-0.036-0.903,0.325-0.94,0.807c0.001,0.202,0.081,0.396,0.223,0.54c0.064,0.073,0.097,0.168,0.092,0.265
	c-0.01,0.206-0.186,0.365-0.392,0.355h-1.62v0.89c0.146-0.04,0.297-0.06,0.449-0.06c0.074-0.005,0.149-0.005,0.223,0
	c0.856,0.062,1.5,0.806,1.438,1.662c-0.062,0.856-0.806,1.5-1.662,1.438c-0.152,0-0.303-0.02-0.449-0.06v0.9h5.133l0.008,0V14.13z
	 M19.231,9.23c-0.212-0.011-0.413-0.096-0.569-0.24c-0.318-0.291-0.339-0.784-0.048-1.102c0.015-0.017,0.031-0.033,0.048-0.048
	c0.353-0.31,0.882-0.31,1.235,0c0.148,0.138,0.239,0.328,0.254,0.53c0.035,0.223,0.243,0.375,0.466,0.341
	c0.079-0.012,0.152-0.047,0.211-0.101l1.426-1.32c0.144-0.128,0.158-0.348,0.03-0.493c-0.009-0.01-0.018-0.019-0.027-0.027
	l-1.584-1.48c-0.161-0.14-0.4-0.14-0.561,0c-0.146,0.135-0.156,0.362-0.021,0.509c0.007,0.007,0.014,0.015,0.021,0.021l1.3,1.21
	l-0.68,0.63c-0.075-0.125-0.167-0.24-0.274-0.34c-0.517-0.456-1.249-0.576-1.885-0.31c-0.172,0.08-0.331,0.184-0.472,0.31
	c-0.489,0.444-0.624,1.158-0.332,1.75c0.08,0.167,0.193,0.317,0.332,0.44c0.109,0.102,0.23,0.189,0.361,0.26l-0.68,0.63l-1.145-1.06
	c-0.158-0.154-0.411-0.152-0.566,0.006C16.009,9.41,15.97,9.492,15.96,9.58c-0.049,0.441-0.428,0.772-0.872,0.76
	c-0.229,0.004-0.451-0.082-0.617-0.24c-0.315-0.285-0.339-0.771-0.054-1.086c0.017-0.019,0.035-0.037,0.054-0.054
	c0.156-0.144,0.357-0.229,0.569-0.24c0.203,0,0.368-0.165,0.368-0.368c0-0.098-0.04-0.193-0.11-0.262l-1.145-1.06l3.629-3.38
	l0.92,0.86c0.161,0.14,0.4,0.14,0.561,0c0.144-0.127,0.157-0.346,0.03-0.49c-0.009-0.011-0.02-0.021-0.03-0.03l-1.2-1.12
	c-0.161-0.14-0.4-0.14-0.561,0l-4.191,3.9c-0.144,0.129-0.156,0.349-0.027,0.493c0.009,0.01,0.018,0.019,0.027,0.027l0.96,0.89
	c-0.73,0.378-1.035,1.262-0.694,2.01c0.086,0.164,0.198,0.313,0.332,0.44c0.671,0.6,1.687,0.6,2.358,0
	c0.106-0.101,0.198-0.215,0.274-0.34l0.961,0.89c0.157,0.15,0.404,0.15,0.561,0l1.426-1.32c0.145-0.143,0.146-0.376,0.004-0.52
	C19.424,9.27,19.329,9.23,19.231,9.23z"/>
</svg>
