<?xml version="1.0" encoding="utf-8"?>
<!-- Generator: Adobe Illustrator 17.0.0, SVG Export Plug-In . SVG Version: 6.00 Build 0)  -->
<!DOCTYPE svg PUBLIC "-//W3C//DTD SVG 1.1//EN" "http://www.w3.org/Graphics/SVG/1.1/DTD/svg11.dtd">
<svg version="1.1" id="Layer_1" xmlns="http://www.w3.org/2000/svg" xmlns:xlink="http://www.w3.org/1999/xlink" x="0px" y="0px"
	 width="100px" height="100px" viewBox="0 0 100 100" enable-background="new 0 0 100 100" xml:space="preserve">
<path d="M84,84v10c0,0.781-0.461,1.492-1.172,1.813c-0.719,0.32-1.547,0.203-2.141-0.313c0,0-5.266-4.719-17.313-9.625
	S32.617,76,6,76c-1.102,0.156-2.125-0.617-2.281-1.719S4.336,72.156,5.438,72c0.063,0,0.125,0,0.188,0s0.125,0,0.188,0
	S5.938,72,6,72c27.117,0,46.359,5.031,58.875,10.125c1.914,0.781,3.594,1.523,5.125,2.25v-3c-0.008-1.016,0.742-1.875,1.75-2
	c0.57-0.07,1.148,0.109,1.578,0.492s0.68,0.93,0.672,1.508v5c2.609,1.422,4.531,2.711,6,3.75V84
	c-0.008-0.719,0.367-1.391,0.992-1.758c0.625-0.359,1.391-0.359,2.016,0C83.633,82.609,84.008,83.281,84,84z M89.008,66.242
	c-0.625-0.359-1.391-0.359-2.016,0c-0.625,0.367-1,1.039-0.992,1.758v9c-1.656-0.688-4.219-1.664-8-2.75V68
	c0.023-0.578-0.211-1.133-0.625-1.523c-0.422-0.398-0.992-0.594-1.563-0.539c-0.086,0.016-0.172,0.039-0.25,0.063
	c-0.93,0.211-1.586,1.047-1.563,2v5.188c-1.469-0.375-2.961-0.719-4.75-1.125C55.867,69.031,35.219,66,6,66
	c-0.063,0-0.125,0-0.188,0s-0.125,0-0.188,0c-1.102,0.102-1.914,1.086-1.813,2.188S4.898,70.102,6,70
	c28.945,0,49.297,2.969,62.375,5.938s18.75,5.875,18.75,5.875c0.625,0.305,1.359,0.266,1.945-0.109
	C89.648,81.336,90.008,80.695,90,80V68C90.008,67.281,89.633,66.609,89.008,66.242z M38,48c0.719,0.008,1.391-0.367,1.758-0.992
	c0.359-0.625,0.359-1.391,0-2.016c-0.367-0.625-1.039-1-1.758-0.992c-2.234,0-4-1.766-4-4s1.766-4,4-4h2c1.102,0,2-0.898,2-2
	c0-4.438,3.563-8,8-8s8,3.563,8,8c0,1.102,0.898,2,2,2h2c2.234,0,4,1.766,4,4s-1.766,4-4,4c-0.719-0.008-1.391,0.367-1.758,0.992
	c-0.359,0.625-0.359,1.391,0,2.016c0.367,0.625,1.039,1,1.758,0.992c4.398,0,8-3.602,8-8s-3.602-8-8-8h-0.375
	C60.641,26.375,55.898,22,50,22s-10.641,4.375-11.625,10H38c-4.398,0-8,3.602-8,8S33.602,48,38,48z M96,14v48c0,1.102-0.898,2-2,2H6
	c-1.039,0.008-1.906-0.781-2-1.813C4,62.125,4,62.063,4,62V14c0-1.102,0.898-2,2-2h13.625c0.063-0.023,0.125-0.047,0.188-0.063
	c0.211-0.016,0.422,0.008,0.625,0.063h59.125c0.078-0.023,0.164-0.047,0.25-0.063C80,11.93,80.195,11.953,80.375,12H94
	C95.102,12,96,12.898,96,14z M18,16H8v44h10V16z M78,16H22v44h56V16z M92,16H82v44h10V16z"/>
</svg>
