<?xml version="1.0" encoding="utf-8"?>
<!-- Generator: Adobe Illustrator 17.0.0, SVG Export Plug-In . SVG Version: 6.00 Build 0)  -->
<!DOCTYPE svg PUBLIC "-//W3C//DTD SVG 1.1//EN" "http://www.w3.org/Graphics/SVG/1.1/DTD/svg11.dtd">
<svg version="1.1" id="Layer_1" xmlns="http://www.w3.org/2000/svg" xmlns:xlink="http://www.w3.org/1999/xlink" x="0px" y="0px"
	 width="100px" height="100px" viewBox="0 0 100 100" enable-background="new 0 0 100 100" xml:space="preserve">
<path d="M92,10H8c-2.203,0-4,1.797-4,4v58c0,2.203,1.797,4,4,4h30v6h-6c-3.305,0-6,2.695-6,6v4h48v-4c0-3.305-2.695-6-6-6h-6v-6h30
	c2.203,0,4-1.797,4-4V14C96,11.797,94.203,10,92,10z M68,86c1.102,0,2,0.898,2,2H30c0-1.102,0.898-2,2-2H68z M42,82v-6h16v6H42z
	 M92,72H8v-8h84V72z M92,60H8V14h84V60z M86,70h-4v-4h4V70z"/>
</svg>
