<?xml version="1.0" encoding="utf-8"?>
<!-- Generator: Adobe Illustrator 17.0.0, SVG Export Plug-In . SVG Version: 6.00 Build 0)  -->
<!DOCTYPE svg PUBLIC "-//W3C//DTD SVG 1.1//EN" "http://www.w3.org/Graphics/SVG/1.1/DTD/svg11.dtd">
<svg version="1.1" id="Layer_1" xmlns="http://www.w3.org/2000/svg" xmlns:xlink="http://www.w3.org/1999/xlink" x="0px" y="0px"
	 width="100px" height="100px" viewBox="0 0 100 100" enable-background="new 0 0 100 100" xml:space="preserve">
<path d="M84.156,62.156l-3.938,5.914L66.18,41c0-0.008,0-0.008,0-0.008c-0.078-0.359-0.25-0.688-0.492-0.953L52.094,13.844
	L37.117,39.719c-0.039,0.055-0.07,0.109-0.102,0.172L29.57,52.742l-6.07-6.07L3.734,84h4.531L24.5,53.328l5.93,5.922l8.883-15.352
	l5.531,4.734l7-6l7,6l4.695-4.031L79.781,75.93l4.063-6.086L91.711,84h4.578L84.156,62.156z M58.844,43.367l-7-6l-7,6l-3.492-2.992
	l10.555-18.219l9.75,18.805L58.844,43.367z"/>
</svg>
