<?xml version="1.0" encoding="utf-8"?>
<!-- Generator: Adobe Illustrator 17.0.0, SVG Export Plug-In . SVG Version: 6.00 Build 0)  -->
<!DOCTYPE svg PUBLIC "-//W3C//DTD SVG 1.1//EN" "http://www.w3.org/Graphics/SVG/1.1/DTD/svg11.dtd">
<svg version="1.1" id="Layer_1" xmlns="http://www.w3.org/2000/svg" xmlns:xlink="http://www.w3.org/1999/xlink" x="0px" y="0px"
	 width="612px" height="792px" viewBox="0 0 612 792" enable-background="new 0 0 612 792" xml:space="preserve">
<path d="M385.317,638.227C285.723,600.027,218.806,502.683,218.806,396s66.916-204.027,166.511-242.228
	c4.713-1.809,7.826-6.334,7.826-11.383s-3.113-9.574-7.826-11.383c-32.431-12.438-66.605-18.746-101.576-18.746
	c-75.789,0-147.044,29.513-200.634,83.105C29.513,248.956,0,320.209,0,396s29.513,147.044,83.105,200.634
	c53.592,53.592,124.846,83.105,200.634,83.105c34.97,0,69.145-6.308,101.578-18.747c4.713-1.808,7.826-6.334,7.826-11.383
	C393.143,644.56,390.03,640.034,385.317,638.227z M283.74,655.358C140.73,655.358,24.382,539.011,24.382,396
	S140.731,136.642,283.74,136.642c21.469,0,42.603,2.597,63.145,7.747c-40.281,21-74.915,51.369-101.322,89.087
	C212.108,281.262,194.424,337.462,194.424,396c0,58.537,17.685,114.738,51.14,162.525c26.406,37.717,61.04,68.085,101.322,89.087
	C326.342,652.759,305.208,655.358,283.74,655.358z M458.288,390.124c2.527,0,5.043-0.785,7.165-2.328
	c3.754-2.729,5.636-7.351,4.851-11.924l-7.044-41.07l29.841-29.086c3.322-3.238,4.517-8.084,3.084-12.497
	c-1.434-4.413-5.249-7.631-9.842-8.298l-41.236-5.992l-18.441-37.368c-2.056-4.161-6.292-6.795-10.934-6.795
	c-4.641,0-8.879,2.634-10.934,6.797l-18.44,37.367l-41.237,5.992c-4.592,0.668-8.407,3.885-9.842,8.298
	c-1.433,4.413-0.239,9.258,3.084,12.497l29.841,29.086l-7.044,41.07c-0.784,4.574,1.097,9.195,4.851,11.924
	c3.753,2.729,8.733,3.088,12.839,0.928l36.884-19.39l36.884,19.39C454.399,389.661,456.346,390.124,458.288,390.124z
	 M421.406,344.769c-1.775-0.934-3.723-1.401-5.673-1.401c-1.95,0-3.898,0.467-5.673,1.402l-20.692,10.879l3.953-23.04
	c0.678-3.956-0.634-7.992-3.506-10.791l-16.74-16.317l23.134-3.361c3.972-0.576,7.404-3.071,9.18-6.67l10.344-20.963l10.345,20.963
	c1.776,3.598,5.208,6.093,9.18,6.669l23.133,3.361l-16.74,16.317c-2.872,2.802-4.184,6.837-3.506,10.791l3.953,23.04
	L421.406,344.769z M611.402,460.327c-1.433-4.413-5.249-7.631-9.841-8.298l-41.237-5.993l-18.441-37.365
	c-2.056-4.161-6.292-6.795-10.933-6.795c-4.641,0-8.879,2.634-10.934,6.795l-18.439,37.365l-41.237,5.993
	c-4.591,0.668-8.405,3.885-9.841,8.298c-1.433,4.413-0.239,9.258,3.084,12.497l29.84,29.086l-7.044,41.07
	c-0.784,4.574,1.097,9.196,4.851,11.924c3.755,2.729,8.733,3.088,12.839,0.928l36.884-19.39l36.884,19.39
	c1.783,0.938,3.731,1.401,5.672,1.401c2.527,0,5.043-0.785,7.165-2.328c3.754-2.729,5.635-7.35,4.851-11.924l-7.043-41.07
	l29.84-29.086C611.64,469.585,612.837,464.74,611.402,460.327z M556.871,488.925c-2.872,2.801-4.184,6.836-3.506,10.79l3.952,23.04
	l-20.692-10.879c-1.775-0.934-3.723-1.401-5.673-1.401c-1.95,0-3.899,0.466-5.673,1.401l-20.692,10.879l3.953-23.04
	c0.678-3.955-0.633-7.991-3.506-10.79l-16.74-16.317l23.135-3.362c3.971-0.576,7.403-3.071,9.179-6.669l10.344-20.963l10.345,20.963
	c1.776,3.598,5.208,6.092,9.179,6.669l23.135,3.362L556.871,488.925z M234.788,593.509c-2.19,1.639-4.751,2.43-7.293,2.43
	c-3.713,0-7.377-1.689-9.773-4.889c-16.357-21.866-29.851-46.205-40.108-72.341c-2.46-6.267,0.629-13.342,6.895-15.802
	c6.271-2.464,13.342,0.629,15.802,6.895c9.461,24.104,21.887,46.526,36.938,66.643C241.282,581.835,240.18,589.476,234.788,593.509z
	 M275.596,633.835c-2.411,2.765-5.794,4.179-9.194,4.179c-2.842,0-5.697-0.987-8.006-3.001c-5.765-5.028-11.424-10.397-16.817-15.96
	c-4.688-4.834-4.567-12.552,0.268-17.24c4.833-4.687,12.552-4.566,17.239,0.268c4.922,5.076,10.081,9.972,15.333,14.553
	C279.494,621.058,280.021,628.76,275.596,633.835z"/>
</svg>
