<?xml version="1.0" encoding="iso-8859-1"?>
<!-- Generator: Adobe Illustrator 19.0.0, SVG Export Plug-In . SVG Version: 6.00 Build 0)  -->
<svg version="1.1" id="Layer_1" xmlns="http://www.w3.org/2000/svg" xmlns:xlink="http://www.w3.org/1999/xlink" x="0px" y="0px"
	 viewBox="0 0 512 512" style="enable-background:new 0 0 512 512;" xml:space="preserve">
<g>
	<g>
		<path d="M322.357,458.647C239.036,426.689,183.053,345.251,183.053,256S239.035,85.311,322.356,53.352
			c3.943-1.513,6.547-5.299,6.547-9.523s-2.604-8.01-6.547-9.523c-27.132-10.406-55.722-15.683-84.979-15.683
			c-63.405,0-123.017,24.691-167.851,69.526C24.691,132.983,0,192.593,0,256s24.691,123.017,69.526,167.851
			c44.835,44.835,104.446,69.526,167.851,69.526c29.256,0,57.847-5.277,84.98-15.684c3.943-1.513,6.547-5.299,6.547-9.523
			C328.904,463.946,326.3,460.159,322.357,458.647z M237.377,472.979c-119.642,0-216.979-97.336-216.979-216.979
			S117.736,39.021,237.377,39.021c17.961,0,35.642,2.173,52.827,6.481c-33.699,17.569-62.674,42.975-84.766,74.53
			C177.45,160.01,162.655,207.027,162.655,256c0,48.972,14.795,95.99,42.784,135.969c22.091,31.554,51.066,56.96,84.766,74.53
			C273.018,470.805,255.337,472.979,237.377,472.979z"/>
	</g>
</g>
<g>
	<g>
		<path d="M415.108,170.013c-1.2-3.692-4.391-6.384-8.234-6.942l-34.498-5.013l-15.428-31.262c-1.72-3.481-5.264-5.685-9.147-5.685
			s-7.428,2.204-9.147,5.686l-15.427,31.261l-34.499,5.013c-3.842,0.559-7.033,3.25-8.234,6.942c-1.199,3.692-0.2,7.745,2.58,10.455
			l24.965,24.333l-5.893,34.359c-0.656,3.827,0.918,7.693,4.058,9.976c3.14,2.283,7.306,2.583,10.741,0.776l30.857-16.222
			l30.857,16.222c1.492,0.785,3.121,1.172,4.745,1.172c2.114,0,4.219-0.657,5.994-1.948c3.141-2.283,4.715-6.15,4.058-9.976
			l-5.893-34.359l24.965-24.333C415.307,177.759,416.307,173.705,415.108,170.013z M369.486,193.938
			c-2.403,2.344-3.5,5.72-2.933,9.028l3.307,19.275l-17.311-9.101c-1.485-0.781-3.115-1.172-4.746-1.172s-3.261,0.391-4.746,1.173
			l-17.311,9.101l3.307-19.275c0.567-3.31-0.53-6.686-2.933-9.028l-14.005-13.651l19.354-2.812c3.323-0.482,6.194-2.569,7.68-5.58
			l8.654-17.538l8.655,17.538c1.486,3.01,4.357,5.097,7.68,5.579l19.353,2.812L369.486,193.938z"/>
	</g>
</g>
<g>
	<g>
		<path d="M511.5,309.816c-1.199-3.692-4.391-6.384-8.233-6.942l-34.499-5.014L453.34,266.6c-1.72-3.481-5.264-5.685-9.147-5.685
			s-7.428,2.204-9.147,5.685L419.62,297.86l-34.499,5.014c-3.841,0.559-7.032,3.25-8.233,6.942c-1.199,3.692-0.2,7.745,2.58,10.455
			l24.964,24.333l-5.893,34.359c-0.656,3.827,0.918,7.693,4.058,9.976c3.141,2.283,7.306,2.583,10.741,0.776l30.857-16.222
			l30.857,16.222c1.492,0.785,3.121,1.172,4.745,1.172c2.114,0,4.219-0.657,5.994-1.948c3.141-2.283,4.714-6.149,4.058-9.976
			l-5.892-34.359l24.964-24.333C511.699,317.561,512.7,313.508,511.5,309.816z M465.879,333.741c-2.403,2.343-3.5,5.719-2.933,9.027
			l3.306,19.275l-17.311-9.101c-1.485-0.781-3.115-1.172-4.746-1.172s-3.262,0.39-4.746,1.172l-17.311,9.101l3.307-19.275
			c0.567-3.309-0.53-6.685-2.933-9.027l-14.005-13.651l19.355-2.813c3.322-0.482,6.193-2.569,7.679-5.579l8.654-17.538l8.655,17.538
			c1.486,3.01,4.357,5.097,7.679,5.579l19.355,2.813L465.879,333.741z"/>
	</g>
</g>
<g>
	<g>
		<path d="M198.483,406.96c-12.591-16.83-22.987-35.589-30.902-55.754c-2.058-5.242-7.974-7.829-13.22-5.768
			c-5.242,2.058-7.826,7.977-5.768,13.22c8.581,21.866,19.87,42.228,33.554,60.521c2.004,2.677,5.07,4.09,8.176,4.09
			c2.126,0,4.269-0.662,6.101-2.033C200.935,417.862,201.857,411.47,198.483,406.96z"/>
	</g>
</g>
<g>
	<g>
		<path d="M229.579,440.582c-4.394-3.832-8.71-7.928-12.828-12.175c-3.921-4.044-10.379-4.145-14.422-0.224
			c-4.045,3.922-4.146,10.379-0.224,14.423c4.512,4.654,9.246,9.146,14.069,13.352c1.932,1.685,4.32,2.511,6.698,2.511
			c2.845,0,5.675-1.183,7.692-3.496C234.266,450.727,233.825,444.284,229.579,440.582z"/>
	</g>
</g>
<g>
</g>
<g>
</g>
<g>
</g>
<g>
</g>
<g>
</g>
<g>
</g>
<g>
</g>
<g>
</g>
<g>
</g>
<g>
</g>
<g>
</g>
<g>
</g>
<g>
</g>
<g>
</g>
<g>
</g>
</svg>
