<?xml version="1.0" encoding="utf-8"?>
<!-- Generator: Adobe Illustrator 17.0.0, SVG Export Plug-In . SVG Version: 6.00 Build 0)  -->
<!DOCTYPE svg PUBLIC "-//W3C//DTD SVG 1.1//EN" "http://www.w3.org/Graphics/SVG/1.1/DTD/svg11.dtd">
<svg version="1.1" id="Layer_1" xmlns="http://www.w3.org/2000/svg" xmlns:xlink="http://www.w3.org/1999/xlink" x="0px" y="0px"
	 width="50px" height="50px" viewBox="0 0 50 50" enable-background="new 0 0 50 50" xml:space="preserve">
<path d="M29,38l1,2H20l1-2H29z M48.98,42v3c0,1.06-0.857,1.98-1.939,1.98H2.957C1.875,46.98,1.02,46.06,1.02,45v-3
	c0-0.239,0.088-0.47,0.246-0.648l2.822-8.996c0.001-0.001,0.001-0.001,0.002-0.002c0.044-0.138,0.103-0.26,0.168-0.373
	c-0.156-0.285-0.252-0.611-0.252-0.969V5.932c0-1.065,0.894-1.926,1.945-1.926h38.098c1.052,0,1.945,0.861,1.945,1.926v25.08
	c0,0.357-0.096,0.682-0.252,0.967c0.066,0.114,0.126,0.236,0.17,0.377l2.822,8.996C48.893,41.53,48.98,41.761,48.98,42z
	 M5.994,31.012c0-0.097,0.079-0.006,0.006-0.006h4.9C10.933,31.002,10.967,31,11,31h28c0.034,0,0.068,0.002,0.102,0.006H44
	c-0.073,0,0.006-0.092,0.006,0.006V5.994H5.994V31.012z M38.219,33H11.781l-0.5,2h27.438L38.219,33z M3.246,41.02h43.508
	l-2.525-8.047c-0.004,0-0.008,0-0.012,0c-0.003,0.009-0.013,0.008-0.023,0.004c-0.065,0.006-0.127,0.018-0.193,0.018h-3.721
	l0.691,2.764C40.99,35.837,41,35.919,41,36c0,0.552-0.448,1-1,1H10c-0.082,0-0.163-0.01-0.242-0.03
	c-0.536-0.134-0.862-0.677-0.728-1.212l0.691-2.764H6c-0.068,0-0.131-0.013-0.197-0.02c-0.008,0.002-0.015,0.006-0.018-0.002
	c-0.005,0-0.009,0-0.014,0L3.246,41.02z M2.979,45.02h44.043C47.02,45.017,47.02,45.016,47.02,45v-2.02H2.98V45
	C2.98,45.016,2.979,45.017,2.979,45.02z"/>
</svg>
