<?xml version="1.0" encoding="utf-8"?>
<!-- Generator: Adobe Illustrator 17.0.0, SVG Export Plug-In . SVG Version: 6.00 Build 0)  -->
<!DOCTYPE svg PUBLIC "-//W3C//DTD SVG 1.1//EN" "http://www.w3.org/Graphics/SVG/1.1/DTD/svg11.dtd">
<svg version="1.1" id="Layer_1" xmlns="http://www.w3.org/2000/svg" xmlns:xlink="http://www.w3.org/1999/xlink" x="0px" y="0px"
	 width="50px" height="50px" viewBox="0 0 50 50" enable-background="new 0 0 50 50" xml:space="preserve">
<path d="M25,21c2.197,0,4-1.803,4-4s-1.803-4-4-4s-4,1.803-4,4S22.803,21,25,21z M25,15c1.116,0,2,0.884,2,2s-0.884,2-2,2
	s-2-0.884-2-2S23.884,15,25,15z M32.303,31.225C33.347,30.684,34,29.602,34,28.43c0-2.199-2.446-3.584-4.369-2.572h-0.002
	C28.246,26.586,26.676,27,25,27s-3.246-0.414-4.629-1.143h-0.002c-0.481-0.253-0.994-0.356-1.494-0.334
	C17.376,25.589,16,26.78,16,28.43c0,1.172,0.654,2.255,1.699,2.795c0.423,0.218,0.877,0.342,1.316,0.516l-2.137,2.137
	c-1.163,1.163-1.163,3.079,0,4.242c1.163,1.164,3.079,1.164,4.242,0L25,34.242l3.879,3.879C29.461,38.704,30.234,39,31,39
	s1.539-0.296,2.121-0.879c1.163-1.163,1.163-3.079,0-4.242l-2.137-2.137c0.439-0.173,0.893-0.298,1.316-0.516L32.303,31.225z
	 M31.383,29.449c-0.766,0.394-1.595,0.707-2.465,0.963l-1.615,0.477l1.189,1.191l3.215,3.213c0.399,0.399,0.399,1.015,0,1.414
	h-0.002C31.507,36.906,31.258,37,31,37s-0.507-0.094-0.705-0.293h-0.002L25,31.414l-5.293,5.291v0.002
	c-0.397,0.398-1.017,0.398-1.414,0v-0.002c-0.399-0.399-0.399-1.013,0-1.412l4.404-4.406l-1.615-0.475
	c-0.871-0.256-1.701-0.57-2.467-0.965C18.238,29.253,18,28.859,18,28.43c0-0.39,0.181-0.684,0.451-0.834
	c0.135-0.075,0.293-0.113,0.461-0.109s0.347,0.049,0.525,0.143v-0.002C21.098,28.502,22.994,29,25,29s3.902-0.498,5.563-1.373v0.002
	C31.277,27.253,32,27.649,32,28.43C32,28.859,31.761,29.254,31.383,29.449z M25,2C12.309,2,2,12.309,2,25c0,12.691,10.309,23,23,23
	s23-10.309,23-23C48,12.309,37.691,2,25,2z M25,46C13.39,46,4,36.61,4,25S13.39,4,25,4s21,9.39,21,21S36.61,46,25,46z M25,25
	c4.406,0,8-3.594,8-8s-3.594-8-8-8s-8,3.594-8,8S20.594,25,25,25z M25,11c3.326,0,6,2.674,6,6s-2.674,6-6,6s-6-2.674-6-6
	S21.674,11,25,11z"/>
</svg>
