<svg xmlns="http://www.w3.org/2000/svg" viewBox="0 0 50 50" width="50" height="50">
    <path style="line-height:normal;text-indent:0;text-align:start;text-decoration-line:none;text-decoration-style:solid;text-decoration-color:#000;text-transform:none;block-progression:tb;isolation:auto;mix-blend-mode:normal" d="M 25 2 C 12.309295 2 2 12.309295 2 25 C 2 37.690705 12.309295 48 25 48 C 37.690705 48 48 37.690705 48 25 C 48 12.309295 37.690705 2 25 2 z M 25 4 C 36.609824 4 46 13.390176 46 25 C 46 36.609824 36.609824 46 25 46 C 13.390176 46 4 36.609824 4 25 C 4 13.390176 13.390176 4 25 4 z M 25 9 C 20.593567 9 17 12.593567 17 17 C 17 21.406433 20.593567 25 25 25 C 29.406433 25 33 21.406433 33 17 C 33 12.593567 29.406433 9 25 9 z M 25 11 C 28.325553 11 31 13.674447 31 17 C 31 20.325553 28.325553 23 25 23 C 21.674447 23 19 20.325553 19 17 C 19 13.674447 21.674447 11 25 11 z M 25 13 C 22.802706 13 21 14.802706 21 17 C 21 19.197294 22.802706 21 25 21 C 27.197294 21 29 19.197294 29 17 C 29 14.802706 27.197294 13 25 13 z M 25 15 C 26.116414 15 27 15.883586 27 17 C 27 18.116414 26.116414 19 25 19 C 23.883586 19 23 18.116414 23 17 C 23 15.883586 23.883586 15 25 15 z M 18.875 25.523438 C 17.375579 25.58907 16 26.780308 16 28.429688 C 16 29.601889 16.654143 30.685168 17.699219 31.224609 C 18.122273 31.442715 18.576556 31.566901 19.015625 31.740234 L 16.878906 33.876953 C 15.715833 35.040026 15.715833 36.956068 16.878906 38.119141 C 18.041828 39.283553 19.958172 39.283553 21.121094 38.119141 L 25 34.242188 L 28.878906 38.121094 C 29.460545 38.704224 30.234094 39 31 39 C 31.765906 39 32.539455 38.704224 33.121094 38.121094 C 34.284167 36.958021 34.284167 35.041979 33.121094 33.878906 L 30.984375 31.742188 C 31.423444 31.568855 31.877727 31.444669 32.300781 31.226562 L 32.302734 31.224609 C 33.346777 30.684256 34 29.60189 34 28.429688 C 34 26.230515 31.554138 24.845477 29.630859 25.857422 L 29.628906 25.857422 C 28.245919 26.586195 26.676234 27 25 27 C 23.323766 27 21.754128 26.586195 20.371094 25.857422 L 20.369141 25.857422 C 19.888368 25.604436 19.374807 25.50156 18.875 25.523438 z M 18.912109 27.486328 C 19.08024 27.489864 19.258819 27.534894 19.4375 27.628906 L 19.4375 27.626953 C 21.098466 28.50223 22.994234 29 25 29 C 27.005766 29 28.901534 28.50218 30.5625 27.626953 L 30.5625 27.628906 C 31.277221 27.252804 32 27.648859 32 28.429688 C 32 28.859485 31.760723 29.253619 31.382812 29.449219 C 30.617328 29.843646 29.787962 30.15595 28.917969 30.412109 L 27.302734 30.888672 L 28.492188 32.080078 L 31.707031 35.292969 C 32.105958 35.691896 32.105958 36.308104 31.707031 36.707031 L 31.705078 36.707031 C 31.506764 36.905901 31.258094 37 31 37 C 30.741906 37 30.493283 36.9059 30.294922 36.707031 L 30.292969 36.707031 L 25 31.414062 L 19.707031 36.705078 L 19.707031 36.707031 C 19.309953 37.104619 18.690047 37.104619 18.292969 36.707031 L 18.292969 36.705078 C 17.894042 36.306151 17.894042 35.691896 18.292969 35.292969 L 22.697266 30.886719 L 21.082031 30.412109 C 20.211206 30.155705 19.381329 29.842226 18.615234 29.447266 C 18.23831 29.252707 18 28.859485 18 28.429688 C 18 28.039274 18.180921 27.745612 18.451172 27.595703 C 18.586297 27.520749 18.743979 27.482793 18.912109 27.486328 z" font-weight="400" font-family="sans-serif" white-space="normal" overflow="visible"/>
</svg>