<?xml version="1.0" encoding="utf-8"?>
<!-- Generator: Adobe Illustrator 17.0.0, SVG Export Plug-In . SVG Version: 6.00 Build 0)  -->
<!DOCTYPE svg PUBLIC "-//W3C//DTD SVG 1.1//EN" "http://www.w3.org/Graphics/SVG/1.1/DTD/svg11.dtd">
<svg version="1.1" id="Layer_1" xmlns="http://www.w3.org/2000/svg" xmlns:xlink="http://www.w3.org/1999/xlink" x="0px" y="0px"
	 width="100px" height="100px" viewBox="0 0 100 100" enable-background="new 0 0 100 100" xml:space="preserve">
<path d="M92,8H8c-2.203,0-4,1.797-4,4v58c0,2.203,1.797,4,4,4h28.906c-0.516,0.594-1.164,1.133-1.977,1.672
	c-1.656,1.102-3.883,2.078-6.328,3.141c-4.875,2.117-10.695,4.586-14.273,10.094c-0.406,0.617-0.438,1.406-0.086,2.047
	C14.594,91.602,15.266,92,16,92h68c0.734,0,1.406-0.398,1.758-1.047c0.352-0.641,0.32-1.422-0.078-2.039
	c-3.563-5.508-9.359-7.969-14.258-10.07c-2.453-1.047-4.711-2.008-6.414-3.094c-0.867-0.555-1.555-1.133-2.102-1.75H92
	c2.203,0,4-1.797,4-4V12C96,9.797,94.203,8,92,8z M8,70v-8h28.031c0.422,0.781,0.859,1.508,1.313,2.117
	c0.242,0.328,0.578,0.539,0.844,0.82c0.016,1.828,0.07,3.383,0,5.063H8z M69.844,82.531c3.406,1.453,6.516,3.234,9.188,5.469H20.992
	c2.688-2.242,5.805-4.039,9.203-5.516c2.438-1.063,4.852-2.086,6.945-3.477s3.93-3.234,4.766-5.789
	c0.039-0.117,0.063-0.242,0.078-0.375c0.422-3.391,0.211-5.734,0.211-8.648c0-0.711-0.383-1.375-1.008-1.727
	c0.156,0.078-0.25-0.227-0.633-0.742c-0.383-0.508-0.828-1.227-1.242-2.055c-0.836-1.648-1.555-3.727-1.719-5.461
	c-0.102-1.023-0.961-1.813-1.992-1.813c0.297,0,0.102,0.117-0.258-0.367c-0.367-0.469-0.867-1.547-1.141-3.438
	c-0.102-1.617,0.875-2.438,0.703-2.328c0.813-0.539,1.117-1.586,0.719-2.477c-2.453-5.547-2.102-11.453,0.875-15.969
	c2.828-4.289,8.164-7.406,16.32-7.703l1.391,2.781C54.547,23.57,55.242,24,56,24c2.781,0,4.672,0.898,6.156,2.344
	c1.492,1.453,2.539,3.531,3.133,5.836c0.594,2.297,0.727,4.797,0.508,6.914c-0.219,2.109-0.883,3.852-1.367,4.469
	c-0.398,0.508-0.531,1.172-0.352,1.789s0.641,1.109,1.242,1.328c0.008,0.008,0.023,0.023,0.086,0.164
	c0.141,0.336,0.281,1.047,0.195,1.992c-0.172,1.93-0.656,2.961-0.992,3.398s-0.477,0.367-0.414,0.367
	c-0.984,0-1.828,0.727-1.977,1.703c-0.25,1.703-0.992,3.82-1.813,5.516c-0.414,0.852-0.852,1.602-1.219,2.125
	c-0.367,0.531-0.773,0.828-0.578,0.719c-0.625,0.359-1.008,1.016-1.008,1.734c0,2.797,0,5.266,0.203,8.531
	c0.008,0.195,0.055,0.391,0.125,0.57c0.93,2.5,2.813,4.273,4.938,5.625C64.984,80.477,67.406,81.484,69.844,82.531z M92,70H61.695
	c-0.055-1.672-0.078-3.266-0.078-4.906c0.258-0.289,0.609-0.508,0.852-0.852c0.445-0.648,0.891-1.414,1.313-2.242H92V70z M92,58
	H65.32c0.227-0.773,0.453-1.555,0.609-2.336c0.641-0.32,1.359-0.352,1.859-1c0.961-1.258,1.578-3.031,1.805-5.484
	c0,0,0-0.008,0-0.016c0.125-1.453-0.039-2.75-0.5-3.852c-0.148-0.359-0.406-0.68-0.641-1c0.656-1.414,1.125-2.984,1.32-4.813
	c0.273-2.586,0.117-5.5-0.617-8.32c-0.727-2.828-2.039-5.586-4.211-7.703c-1.875-1.82-4.523-2.906-7.578-3.219l-1.578-3.148
	C55.453,16.43,54.758,16,54,16c-9.914,0-17.07,3.891-20.844,9.625c-3.555,5.398-3.961,12.258-1.555,18.594
	c-0.867,1.102-1.578,2.539-1.391,4.75c0,0.031,0,0.07,0.008,0.102c0.336,2.438,1.008,4.172,1.938,5.398
	c0.469,0.602,1.133,0.625,1.711,0.961c0.133,0.867,0.336,1.727,0.57,2.57H8V12h84V58z M86,68h-4v-4h4V68z"/>
</svg>
