<?xml version="1.0" encoding="utf-8"?>
<!-- Generator: Adobe Illustrator 17.0.0, SVG Export Plug-In . SVG Version: 6.00 Build 0)  -->
<!DOCTYPE svg PUBLIC "-//W3C//DTD SVG 1.1//EN" "http://www.w3.org/Graphics/SVG/1.1/DTD/svg11.dtd">
<svg version="1.1" id="Layer_1" xmlns="http://www.w3.org/2000/svg" xmlns:xlink="http://www.w3.org/1999/xlink" x="0px" y="0px"
	 width="100px" height="100px" viewBox="0 0 100 100" enable-background="new 0 0 100 100" xml:space="preserve">
<path d="M96.438,69.375c-1.938-2.031-4.328-3.281-6.625-4.313s-4.523-1.828-6.188-2.688c-1.586-0.82-2.43-1.664-2.813-2.563
	c-0.133-1.617-0.188-3.055-0.188-4.688c0.133-0.172,0.367-0.313,0.5-0.5c0.398-0.563,0.719-1.211,1.063-1.938
	c0.555-1.18,0.961-2.586,1.188-4c0.406-0.258,0.883-0.281,1.188-0.688c0.75-1,1.211-2.305,1.438-4.125
	c0.141-1.102,0.016-2.133-0.313-3c-0.094-0.242-0.438-0.391-0.563-0.625c0.438-1.023,0.938-1.992,1.063-3.25
	c0.18-1.867,0.031-3.961-0.5-6s-1.453-4.063-3.063-5.625c-1.297-1.266-3.125-2.008-5.188-2.313l-0.813-1.875
	c-0.32-0.719-1.031-1.18-1.813-1.188c-2.766,0-5.711,0.273-8.438,1.125c-0.711-1.578-1.648-3.078-2.938-4.313
	c-1.711-1.648-4.117-2.633-6.875-2.938l-1.125-2.688c-0.32-0.719-1.031-1.18-1.813-1.188c-8.914,0-15.43,3.523-18.875,8.75
	c-0.711,1.07-1.242,2.195-1.688,3.375l-0.5-1c-0.328-0.672-1-1.109-1.75-1.125C23.891,20,18.719,22.813,16,27
	c-2.484,3.82-2.633,8.625-1.063,13.125c-0.125,0.203-0.391,0.313-0.5,0.563c-0.375,0.836-0.578,1.891-0.438,3.125
	c0,0.023,0,0.039,0,0.063C14.227,45.695,14.688,47,15.438,48c0.32,0.422,0.828,0.422,1.25,0.688
	c0.297,1.484,0.719,2.961,1.313,4.188c0.352,0.734,0.727,1.367,1.125,1.938c0.133,0.195,0.359,0.328,0.5,0.5
	c0,1.531-0.055,2.906-0.188,4.688c-0.359,0.914-1.234,1.719-2.875,2.563c-1.68,0.859-3.93,1.656-6.25,2.688s-4.797,2.281-6.75,4.313
	S0.227,74.438,0,78.063c-0.031,0.555,0.164,1.094,0.539,1.492C0.922,79.961,1.445,80.188,2,80.188h12.438
	c-0.305,1.141-0.547,2.367-0.625,3.688c-0.031,0.555,0.164,1.094,0.539,1.492C14.734,85.773,15.258,86,15.813,86h68.375
	c0.555,0,1.078-0.227,1.461-0.633c0.375-0.398,0.57-0.938,0.539-1.492C86.102,82.477,85.836,81.203,85.5,80H98
	c0.555,0,1.078-0.227,1.461-0.633c0.375-0.398,0.57-0.938,0.539-1.492C99.773,74.258,98.375,71.406,96.438,69.375z M16,76.188H4.5
	c0.422-1.547,1.039-2.813,2-3.813c1.383-1.438,3.313-2.555,5.438-3.5s4.383-1.695,6.438-2.75s4.016-2.453,4.875-4.813
	c0.07-0.18,0.109-0.367,0.125-0.563c0.203-2.477,0.25-4.125,0.25-6.125c0.016-0.711-0.336-1.375-0.938-1.75
	c-0.063-0.07-0.195-0.211-0.313-0.375c-0.234-0.336-0.539-0.805-0.813-1.375c-0.547-1.133-1.023-2.602-1.188-3.813
	c-0.133-0.891-0.852-1.586-1.75-1.688c-0.148-0.203-0.453-0.875-0.625-2.25c-0.063-0.57,0.047-0.898,0.125-1.063
	c0.813-0.555,1.102-1.609,0.688-2.5c-1.656-3.75-1.367-7.656,0.563-10.625c1.773-2.734,5.219-4.625,10.313-4.938l0.75,1.438
	c0.281,0.602,0.844,1.023,1.5,1.125c-0.266,2.906,0.188,5.922,1.25,8.813C32.43,36.664,31.82,38.055,32,40
	c0.352,3.492,1.914,5.148,3.438,6.063c0.32,1.914,0.898,3.852,1.688,5.438c0.461,0.922,0.969,1.742,1.5,2.438
	c0.195,0.258,0.539,0.398,0.75,0.625c0,2.117-0.039,4.016-0.188,6.25c-0.57,1.32-1.875,2.477-4.063,3.563
	c-2.266,1.125-5.234,2.133-8.25,3.438s-6.094,2.898-8.563,5.438c-0.844,0.867-1.602,1.836-2.25,2.938
	C16.039,76.188,16.023,76.188,16,76.188z M18.313,82c0.523-2.453,1.414-4.438,2.875-5.938c1.883-1.938,4.5-3.406,7.313-4.625
	s5.797-2.195,8.438-3.5s5.055-3,6.125-5.813c0.07-0.18,0.109-0.367,0.125-0.563c0.203-2.875,0.188-5.148,0.188-7.75
	c0.016-0.758-0.391-1.461-1.063-1.813c0,0-0.016-0.023-0.063-0.063c-0.016-0.008-0.039,0.008-0.063,0
	c-0.094-0.078-0.227-0.242-0.375-0.438c-0.32-0.422-0.758-1.078-1.125-1.813c-0.734-1.461-1.336-3.313-1.5-4.875
	c-0.094-0.875-0.758-1.586-1.625-1.75c-0.195-0.039-1.219,0.008-1.563-3.438c-0.141-1.539,0.586-1.992,0.5-1.938
	c0.836-0.531,1.156-1.594,0.75-2.5c-1.281-2.945-1.688-5.984-1.25-8.813c0.453-0.508,0.625-1.219,0.438-1.875
	c0.375-1.242,0.906-2.406,1.625-3.5c2.492-3.773,7.18-6.539,14.25-6.875l1.063,2.313c0.32,0.719,1.031,1.18,1.813,1.188
	c2.484,0,4.172,0.789,5.5,2.063s2.273,3.086,2.813,5.125s0.688,4.266,0.5,6.125s-0.82,3.359-1.188,3.813
	c-0.383,0.484-0.516,1.117-0.375,1.711c0.148,0.602,0.563,1.102,1.125,1.352c-0.031-0.016,0-0.016,0.063,0.125
	c0.109,0.258,0.227,0.836,0.188,1.563c-0.008,0.063,0.008,0.063,0,0.125c-0.273,1.656-0.742,2.641-1.063,3.063
	c-0.164,0.219-0.281,0.289-0.313,0.313c-0.945,0.078-1.695,0.813-1.813,1.75c-0.164,1.492-0.742,3.438-1.438,4.938
	c-0.344,0.75-0.758,1.383-1.063,1.813c-0.234,0.32-0.469,0.5-0.438,0.5c-0.672,0.352-1.078,1.055-1.063,1.813
	c0,2.602-0.016,4.688,0.188,7.75c0.016,0.195,0.055,0.383,0.125,0.563c1.07,2.813,3.484,4.508,6.125,5.813s5.625,2.281,8.438,3.5
	s5.43,2.688,7.313,4.625c1.461,1.5,2.352,3.484,2.875,5.938H18.313z M84,76c-0.063,0-0.125,0-0.188,0
	c-0.625-1.023-1.328-1.93-2.125-2.75c-2.469-2.539-5.547-4.133-8.563-5.438s-5.984-2.313-8.25-3.438
	c-2.188-1.086-3.492-2.242-4.063-3.563c-0.148-2.398-0.188-4.195-0.188-6.313c0.211-0.242,0.555-0.422,0.75-0.688
	c0.508-0.711,1.008-1.508,1.438-2.438c0.75-1.625,1.195-3.516,1.5-5.375c0.547-0.328,1.203-0.313,1.625-0.875
	c0.875-1.164,1.477-2.773,1.813-5c0.023-0.039,0.047-0.086,0.063-0.125c0.125-1.375-0.07-2.602-0.5-3.625
	c-0.109-0.258-0.477-0.32-0.625-0.563c0.648-1.313,1.078-2.789,1.25-4.5c0.203-2,0.133-4.18-0.313-6.375
	c1.797-0.492,3.906-0.672,5.938-0.75l0.625,1.375c0.297,0.742,1.016,1.234,1.813,1.25c1.781,0,2.891,0.539,3.813,1.438
	s1.602,2.234,2,3.75s0.508,3.164,0.375,4.563s-0.609,2.539-0.813,2.813c-0.352,0.453-0.484,1.031-0.375,1.594
	c0.102,0.563,0.445,1.055,0.938,1.344c0.07,0.18,0.125,0.57,0.063,1.063c-0.172,1.375-0.477,2.047-0.625,2.25
	c-0.938,0.117-1.672,0.867-1.75,1.813c-0.07,1.031-0.547,2.469-1.063,3.563c-0.258,0.547-0.523,0.984-0.75,1.313
	c-0.172,0.242-0.328,0.43-0.313,0.438c-0.539,0.367-0.867,0.977-0.875,1.625c0,2.203-0.023,3.898,0.188,6.188
	c0.023,0.172,0.063,0.336,0.125,0.5c0.852,2.352,2.773,3.82,4.813,4.875s4.336,1.805,6.438,2.75s4.008,2.063,5.375,3.5
	c0.953,1,1.586,2.266,2,3.813H84z"/>
</svg>
