<?xml version="1.0" encoding="utf-8"?>
<!-- Generator: Adobe Illustrator 17.0.0, SVG Export Plug-In . SVG Version: 6.00 Build 0)  -->
<!DOCTYPE svg PUBLIC "-//W3C//DTD SVG 1.1//EN" "http://www.w3.org/Graphics/SVG/1.1/DTD/svg11.dtd">
<svg version="1.1" id="Layer_1" xmlns="http://www.w3.org/2000/svg" xmlns:xlink="http://www.w3.org/1999/xlink" x="0px" y="0px"
	 width="50px" height="50px" viewBox="0 0 50 50" enable-background="new 0 0 50 50" xml:space="preserve">
<path d="M50.063,41L50,39.941c-0.109-1.816-0.836-3.238-1.844-4.25c-1.008-1.008-2.254-1.641-3.453-2.148
	c-1.203-0.512-2.371-0.906-3.242-1.34c-0.836-0.414-1.277-0.82-1.461-1.262v-2.254c0.07-0.078,0.172-0.133,0.246-0.219
	c0.227-0.273,0.457-0.598,0.676-0.965c0.348-0.586,0.582-1.32,0.75-2.063c0.168-0.109,0.246-0.113,0.453-0.34
	c0.402-0.438,0.805-1.156,0.922-2.133c0.098-0.844-0.184-1.41-0.453-1.797c0.203-0.496,0.453-0.957,0.512-1.559
	c0.086-0.926,0.031-1.961-0.23-2.977c-0.266-1.016-0.734-2.02-1.531-2.805c-0.645-0.633-1.559-1.008-2.582-1.16L38.016,11h-0.648
	c-1.453,0-2.926,0.188-4.305,0.637c-0.336-0.754-0.77-1.461-1.348-2.059c-0.762-0.781-1.828-1.266-3.023-1.434L27.617,6H27
	c-4.27,0-7.547,1.758-9.367,4.344c-0.422,0.598-0.762,1.242-1.02,1.91L16,11h-0.625c-3.484,0-6.066,1.41-7.422,3.504
	c-1.238,1.914-1.316,4.309-0.547,6.547c-0.332,0.457-0.578,1.027-0.484,1.828c0.105,0.902,0.344,1.57,0.719,2.063
	c0.164,0.219,0.406,0.227,0.613,0.359c0.133,0.73,0.328,1.461,0.625,2.066c0.18,0.367,0.371,0.695,0.574,0.98
	c0.066,0.09,0.18,0.152,0.242,0.23c0.008,0.797,0.016,1.488-0.047,2.313C9.465,31.34,9.016,31.758,8.18,32.18
	c-0.867,0.438-2.031,0.84-3.211,1.359s-2.398,1.156-3.359,2.18C0.645,36.746,0,38.188,0,40v1h7.234C7.09,41.621,7,42.285,7,43v1h36
	v-1c0-0.715-0.086-1.379-0.234-2H50.063z M32.816,23.555c0.492-0.527,0.992-1.387,1.137-2.598c0.117-0.98-0.215-1.648-0.535-2.117
	c0.297-0.656,0.488-1.383,0.539-2.215c0.063-0.973-0.027-2.035-0.266-3.086c0.941-0.277,2.004-0.387,3.074-0.434l0.637,1.43h0.648
	c0.883,0,1.434,0.273,1.891,0.727c0.461,0.449,0.801,1.117,0.996,1.875s0.242,1.59,0.176,2.285
	c-0.066,0.691-0.293,1.254-0.383,1.371l-0.535,0.703l0.629,0.613c0,0,0.27,0.336,0.234,0.625c-0.066,0.578-0.258,0.852-0.406,1.016
	c-0.152,0.164-0.184,0.16-0.184,0.16l-0.543,0.23l-0.063,0.59c-0.051,0.492-0.332,1.195-0.66,1.754
	c-0.168,0.277-0.344,0.523-0.488,0.699c-0.145,0.172-0.305,0.27-0.188,0.207L38,27.672v2.527C37.648,30.48,36.887,31,36,31h-1v2.902
	c-1.035-0.441-2.027-0.863-2.844-1.285C31,32.016,30.285,31.398,30,30.738v-2.344c0.121-0.129,0.285-0.223,0.406-0.375
	c0.281-0.352,0.563-0.777,0.832-1.254c0.457-0.813,0.777-1.789,0.969-2.766C32.414,23.879,32.531,23.859,32.816,23.555z
	 M38.98,32.934l-0.844,2.469c-0.414-0.234-0.828-0.453-1.246-0.652l-0.16-1.813c0.672-0.109,1.254-0.355,1.719-0.617
	C38.602,32.547,38.781,32.75,38.98,32.934z M9.262,23.766c-0.008-0.008-0.004-0.004-0.027-0.035
	c-0.082-0.105-0.246-0.422-0.324-1.082C8.867,22.293,9,22.145,9.02,22.125l0.688-0.434l-0.344-0.785
	c-0.816-1.867-0.691-3.828,0.27-5.313c0.887-1.371,2.609-2.324,5.176-2.48l0.629,1.289h0.625c0.012,0,0.02,0,0.031,0
	c-0.164,1.434,0.012,2.926,0.543,4.363c-0.336,0.453-0.715,1.133-0.59,2.191c0.145,1.211,0.645,2.07,1.137,2.598
	c0.281,0.305,0.398,0.324,0.605,0.445c0.191,0.977,0.516,1.953,0.973,2.766c0.266,0.477,0.551,0.902,0.832,1.254
	c0.121,0.152,0.285,0.246,0.406,0.375v2.344c-0.285,0.664-1.004,1.281-2.16,1.887c-0.813,0.422-1.809,0.844-2.84,1.285V31h-1
	c-1.246,0-2.008-0.531-2.313-0.801c0.02-0.68,0.016-1.313,0.016-1.984v-0.602l-0.523-0.281c0.148,0.082,0.012,0.008-0.102-0.156
	c-0.117-0.16-0.266-0.406-0.402-0.688c-0.27-0.559-0.508-1.273-0.566-1.832l-0.086-0.828L9.262,23.766z M13.27,32.941l-0.16,1.82
	c-0.484,0.23-0.961,0.488-1.434,0.762l-1.258-2.418c0.301-0.25,0.574-0.531,0.797-0.859C11.742,32.543,12.43,32.832,13.27,32.941z
	 M8.016,39C8.008,39,8.004,39,8,39H2.168c0.16-0.773,0.434-1.414,0.898-1.91c0.66-0.703,1.625-1.246,2.707-1.719
	c0.953-0.422,1.969-0.793,2.922-1.238l1.316,2.527c-0.328,0.27-0.645,0.555-0.934,0.871C8.672,37.969,8.316,38.461,8.016,39z
	 M9.176,42c0.188-1.27,0.617-2.301,1.367-3.109c0.953-1.027,2.313-1.816,3.789-2.504c1.398-0.652,2.883-1.215,4.211-1.883
	c0.316,2.82,1.332,5.801,1.977,7.496H9.176z M23.094,42h-0.41c-0.52-1.332-2.078-5.57-2.215-8.711
	c0.293-0.238,0.566-0.492,0.797-0.785c0.152,0.113,0.254,0.211,0.43,0.328c0.578,0.387,1.309,0.781,2.137,1L23.094,42z
	 M22.805,31.168c-0.34-0.227-0.613-0.445-0.805-0.609v-3.16l-0.531-0.281c0.109,0.059-0.113-0.094-0.313-0.34
	c-0.195-0.25-0.43-0.602-0.652-0.996c-0.445-0.789-0.824-1.773-0.898-2.484l-0.063-0.594l-0.551-0.227c0,0-0.113-0.031-0.348-0.285
	s-0.52-0.668-0.613-1.469v-0.004c-0.063-0.523,0.395-1.039,0.395-1.039l0.504-0.484l-0.285-0.637
	c-1.086-2.445-0.801-5.043,0.621-7.063c1.344-1.906,3.75-3.281,7.145-3.434L27.383,10H28c0.984,0,1.676,0.355,2.277,0.973
	s1.07,1.527,1.352,2.531c0.285,1.004,0.391,2.09,0.336,2.996c-0.059,0.906-0.32,1.637-0.484,1.848l-0.551,0.711l0.641,0.621
	c0,0,0.461,0.52,0.398,1.043c-0.094,0.801-0.379,1.215-0.613,1.469s-0.348,0.285-0.348,0.285l-0.551,0.227l-0.063,0.594
	c-0.074,0.711-0.453,1.695-0.898,2.484c-0.223,0.395-0.457,0.746-0.656,0.996c-0.199,0.246-0.418,0.398-0.309,0.34L28,27.398v3.16
	c-0.191,0.164-0.465,0.383-0.805,0.609C26.531,31.609,25.668,32,25,32S23.469,31.609,22.805,31.168z M26.906,42l-0.738-8.168
	c0.828-0.219,1.559-0.613,2.137-1c0.176-0.117,0.277-0.215,0.43-0.328c0.23,0.293,0.504,0.547,0.797,0.785
	c-0.137,3.141-1.695,7.379-2.215,8.711H26.906z M29.48,42c0.645-1.695,1.66-4.676,1.977-7.5c1.328,0.668,2.813,1.223,4.215,1.875
	c1.477,0.688,2.836,1.477,3.785,2.5c0.75,0.813,1.18,1.848,1.371,3.125H29.48z M40.922,37.52c-0.328-0.359-0.688-0.68-1.063-0.977
	l0.848-2.488c1.027,0.492,2.152,0.879,3.211,1.328c1.102,0.469,2.109,1.012,2.82,1.727c0.496,0.492,0.813,1.133,1.023,1.891h-5.77
	C41.688,38.457,41.332,37.957,40.922,37.52z"/>
</svg>
