<?xml version="1.0" encoding="utf-8"?>
<!-- Generator: Adobe Illustrator 17.0.0, SVG Export Plug-In . SVG Version: 6.00 Build 0)  -->
<!DOCTYPE svg PUBLIC "-//W3C//DTD SVG 1.1//EN" "http://www.w3.org/Graphics/SVG/1.1/DTD/svg11.dtd">
<svg version="1.1" id="Layer_1" xmlns="http://www.w3.org/2000/svg" xmlns:xlink="http://www.w3.org/1999/xlink" x="0px" y="0px"
	 width="100px" height="100px" viewBox="0 0 100 100" enable-background="new 0 0 100 100" xml:space="preserve">
<path d="M74.996,48.191L36.914,26.34v0.004c-0.303-0.175-0.646-0.268-0.996-0.27c-1.105,0-2,0.896-2,2c0,0.003,0,0.005,0,0.007
	v0.047c0,0.004,0,0.008,0,0.012l0.168,43.934c0.003,1.105,0.901,1.998,2.005,1.995c0.352-0.001,0.698-0.095,1.002-0.272
	l37.914-22.141c0.955-0.555,1.279-1.78,0.723-2.735C75.555,48.618,75.301,48.366,74.996,48.191z M38.074,68.59L37.93,31.539
	l32.074,18.406L38.074,68.59z M50,4C24.619,4,4,24.619,4,50s20.619,46,46,46s46-20.619,46-46S75.381,4,50,4z M50,92
	C26.78,92,8,73.22,8,50S26.78,8,50,8s42,18.78,42,42S73.22,92,50,92z"/>
</svg>
