<?xml version="1.0" encoding="utf-8"?>
<!-- Generator: Adobe Illustrator 17.0.0, SVG Export Plug-In . SVG Version: 6.00 Build 0)  -->
<!DOCTYPE svg PUBLIC "-//W3C//DTD SVG 1.1//EN" "http://www.w3.org/Graphics/SVG/1.1/DTD/svg11.dtd">
<svg version="1.1" id="Layer_1" xmlns="http://www.w3.org/2000/svg" xmlns:xlink="http://www.w3.org/1999/xlink" x="0px" y="0px"
	 width="612px" height="792px" viewBox="0 0 612 792" enable-background="new 0 0 612 792" xml:space="preserve">
<path d="M561.533,202.435H421.435l-10.885-43.54c-5.629-22.51-25.764-38.23-48.962-38.23H250.411
	c-23.199,0-43.334,15.721-48.964,38.231l-10.883,43.539H50.467C22.64,202.435,0,225.074,0,252.902v367.966
	c0,27.828,22.64,50.467,50.467,50.467h511.064c27.828,0,50.467-22.64,50.467-50.467V252.902
	C612,225.074,589.36,202.435,561.533,202.435z M220.04,163.545c3.493-13.964,15.983-23.716,30.372-23.716h111.177
	c14.389,0,26.878,9.753,30.372,23.715l9.721,38.891h-22.391l-8.407-33.627c-1.065-4.266-4.898-7.258-9.296-7.258H250.412
	c-4.396,0-8.23,2.992-9.296,7.258l-8.404,33.627h-22.391L220.04,163.545z M359.537,202.435H252.463l5.43-21.72h96.213
	L359.537,202.435z M50.467,221.599h511.064c9.568,0,18.141,4.32,23.888,11.106l-62.216,186.647
	c-5.661,16.983-21.492,28.393-39.394,28.393H346.246v-21.082c0-10.92-8.884-19.804-19.804-19.804h-40.886
	c-10.92,0-19.804,8.884-19.804,19.804v21.082H128.189c-17.901,0-33.733-11.41-39.394-28.392L26.579,232.705
	C32.326,225.919,40.899,221.599,50.467,221.599z M284.919,487.353h42.162v21.082c0,0.353-0.286,0.638-0.638,0.638h-40.886
	c-0.353,0-0.638-0.286-0.638-0.638V487.353z M284.918,468.189v-41.524c0-0.353,0.286-0.638,0.638-0.638h40.886
	c0.353,0,0.638,0.286,0.638,0.638v41.524H284.918z M592.837,620.868h-0.001c0,17.26-14.043,31.303-31.303,31.303H50.467
	c-17.26,0-31.303-14.043-31.303-31.303V271.067l51.449,154.346c8.274,24.821,31.412,41.498,57.576,41.498h137.565v41.524
	c0,10.92,8.884,19.804,19.804,19.804h40.886c10.92,0,19.804-8.884,19.804-19.804v-41.524h137.565
	c26.164,0,49.301-16.676,57.576-41.498l51.449-154.346V620.868z"/>
</svg>
