<?xml version="1.0" encoding="utf-8"?>
<!-- Generator: Adobe Illustrator 17.0.0, SVG Export Plug-In . SVG Version: 6.00 Build 0)  -->
<!DOCTYPE svg PUBLIC "-//W3C//DTD SVG 1.1//EN" "http://www.w3.org/Graphics/SVG/1.1/DTD/svg11.dtd">
<svg version="1.1" id="Layer_1" xmlns="http://www.w3.org/2000/svg" xmlns:xlink="http://www.w3.org/1999/xlink" x="0px" y="0px"
	 width="50px" height="50px" viewBox="0 0 50 50" enable-background="new 0 0 50 50" xml:space="preserve">
<path d="M35,14c2.206,0,4-1.794,4-4s-1.794-4-4-4s-4,1.794-4,4S32.794,14,35,14z M35,8c1.103,0,2,0.897,2,2s-0.897,2-2,2
	s-2-0.897-2-2S33.897,8,35,8z M41.841,14.568C42.539,12.971,43,11.501,43,10.4C43,5.8,39.4,2,35,2c-2.968,0-5.566,1.732-6.947,4.269
	c-0.953-0.154-1.922-0.25-2.854-0.262L25.2,6c-0.1,0-0.1,0-0.2,0C13.4,6,4,15.4,4,27s9.4,21,21,21s21-9.4,21-21
	C46,22.512,44.476,18.119,41.841,14.568z M6.05,28h7.975c0.067,2.871,0.417,5.567,1.005,8H8.263C6.97,33.599,6.201,30.883,6.05,28z
	 M24,8.131V16h-6.28C19.18,11.746,21.439,8.756,24,8.131z M24,18v8h-7.975c0.074-2.862,0.453-5.584,1.084-8H24z M33.9,24.429
	c0.034,0.513,0.052,1.041,0.069,1.571H26v-8h3.884C31.279,20.505,32.868,22.919,33.9,24.429z M14.025,26H6.05
	c0.15-2.883,0.92-5.599,2.213-8h6.767C14.443,20.433,14.093,23.129,14.025,26z M16.025,28H24v8h-6.891
	C16.478,33.584,16.099,30.862,16.025,28z M24,38v7.869c-2.561-0.625-4.82-3.615-6.28-7.869H24z M26,45.869V38h6.28
	C30.82,42.254,28.561,45.244,26,45.869z M26,36v-8h7.975c-0.074,2.862-0.453,5.584-1.084,8H26z M35.975,28h7.975
	c-0.15,2.883-0.92,5.599-2.213,8H34.97C35.557,33.567,35.907,30.871,35.975,28z M43.96,26h-7.968
	c-0.004-0.452-0.024-0.893-0.049-1.342c1.201-1.745,3.312-4.938,4.914-8.037C42.735,19.38,43.786,22.634,43.96,26z M35,4
	c3.3,0,6,2.9,6,6.4c0,2.4-3.2,8-6,12.1c-2.8-4.1-6-9.7-6-12.1C29,6.9,31.7,4,35,4z M28.828,16H26V8.045
	c0.425,0.023,0.862,0.06,1.302,0.113C27.11,8.874,27,9.624,27,10.4C27,11.825,27.768,13.864,28.828,16z M19.399,8.84
	c-1.572,1.737-2.879,4.194-3.814,7.16H9.523C11.916,12.638,15.364,10.082,19.399,8.84z M9.523,38h6.062
	c0.935,2.966,2.242,5.423,3.814,7.16C15.364,43.918,11.916,41.362,9.523,38z M30.601,45.16c1.572-1.737,2.879-4.194,3.814-7.16
	h6.062C38.084,41.362,34.636,43.918,30.601,45.16z"/>
</svg>
