<?xml version="1.0" encoding="utf-8"?>
<!-- Generator: Adobe Illustrator 17.0.0, SVG Export Plug-In . SVG Version: 6.00 Build 0)  -->
<!DOCTYPE svg PUBLIC "-//W3C//DTD SVG 1.1//EN" "http://www.w3.org/Graphics/SVG/1.1/DTD/svg11.dtd">
<svg version="1.1" id="Layer_1" xmlns="http://www.w3.org/2000/svg" xmlns:xlink="http://www.w3.org/1999/xlink" x="0px" y="0px"
	 width="100px" height="100px" viewBox="0 0 100 100" enable-background="new 0 0 100 100" xml:space="preserve">
<path d="M31.972,67.972C31.987,66.867,32.895,65.984,34,66h32c0.019,0,0.038,0,0.057,0c1.105,0.016,1.987,0.924,1.972,2.028
	C68.013,69.133,67.105,70.016,66,70H34c-0.019,0-0.038,0-0.057,0C32.839,69.984,31.956,69.076,31.972,67.972z M33.943,78
	c0.019,0,0.038,0,0.057,0h24c1.105,0.016,2.013-0.867,2.028-1.972c0.016-1.105-0.867-2.013-1.972-2.028c-0.019,0-0.038,0-0.057,0H34
	c-1.105-0.016-2.013,0.867-2.028,1.972C31.956,77.076,32.839,77.984,33.943,78z M96,36v36c0,3.29-2.71,6-6,6H78v18H22V78H10
	c-3.29,0-6-2.71-6-6V36c0-3.29,2.71-6,6-6h12V4h56v26h12C93.29,30,96,32.71,96,36z M26,30h48V8H26V30z M74,60H26v15.684
	c0.036,0.216,0.036,0.436,0,0.652V92h48V76.316c-0.036-0.216-0.036-0.436,0-0.652V60z M92,36c0-1.13-0.87-2-2-2H76.316
	c-0.216,0.036-0.436,0.036-0.652,0H24.316c-0.216,0.036-0.436,0.036-0.652,0H10c-1.13,0-2,0.87-2,2v36c0,1.13,0.87,2,2,2h12V56h54h2
	v18h12c1.13,0,2-0.87,2-2V36z M33.943,86c0.019,0,0.038,0,0.057,0h32c1.105,0.016,2.013-0.867,2.028-1.972
	c0.016-1.105-0.867-2.013-1.972-2.028c-0.019,0-0.038,0-0.057,0H34c-1.105-0.016-2.013,0.867-2.028,1.972
	C31.956,85.076,32.839,85.984,33.943,86z M82,40c-2.209,0-4,1.791-4,4s1.791,4,4,4c2.209,0,4-1.791,4-4S84.209,40,82,40z"/>
</svg>
