<?xml version="1.0" encoding="utf-8"?>
<!-- Generator: Adobe Illustrator 17.0.0, SVG Export Plug-In . SVG Version: 6.00 Build 0)  -->
<!DOCTYPE svg PUBLIC "-//W3C//DTD SVG 1.1//EN" "http://www.w3.org/Graphics/SVG/1.1/DTD/svg11.dtd">
<svg version="1.1" id="Layer_1" xmlns="http://www.w3.org/2000/svg" xmlns:xlink="http://www.w3.org/1999/xlink" x="0px" y="0px"
	 width="50px" height="50px" viewBox="0 0 50 50" enable-background="new 0 0 50 50" xml:space="preserve">
<path d="M46.215,7.847C38.812,6.221,34.44,3.922,31.248,2.244C28.771,0.941,26.981,0,25,0s-3.771,0.941-6.249,2.244
	c-3.192,1.678-7.563,3.977-14.965,5.603L3,8.019v0.804c0,30.464,21.365,40.68,21.581,40.779l0.44,0.203l0.432-0.221
	C25.669,49.476,47,38.272,47,8.823V8.019L46.215,7.847z M24.979,47.56C22.032,45.971,5.338,35.81,5.005,9.622
	c7.188-1.669,11.499-3.936,14.677-5.607C21.906,2.845,23.512,2,25,2c1.487,0,3.094,0.845,5.317,2.014
	c3.178,1.671,7.489,3.938,14.677,5.607C44.647,34.919,27.907,45.843,24.979,47.56z M24.014,28.093l8.687-13.475l1.681,1.083
	l-9.962,15.454l-7.832-7.084l1.342-1.483L24.014,28.093z"/>
</svg>
