<?xml version="1.0" encoding="utf-8"?>
<!-- Generator: Adobe Illustrator 17.0.0, SVG Export Plug-In . SVG Version: 6.00 Build 0)  -->
<!DOCTYPE svg PUBLIC "-//W3C//DTD SVG 1.1//EN" "http://www.w3.org/Graphics/SVG/1.1/DTD/svg11.dtd">
<svg version="1.1" id="Layer_1" xmlns="http://www.w3.org/2000/svg" xmlns:xlink="http://www.w3.org/1999/xlink" x="0px" y="0px"
	 width="50px" height="50px" viewBox="0 0 50 50" enable-background="new 0 0 50 50" xml:space="preserve">
<path d="M2,29h11v2c0,2.008-0.617,3.805-1.559,5.059C10.504,37.309,9.297,38,8,38H7v7h1c7.719,0,14-6.281,14-14V9H2V29z M4,11h16v20
	c0,6.285-4.855,11.266-11,11.797v-3.063c1.586-0.309,3.031-1.129,4.043-2.48C14.273,35.613,15,33.41,15,31v-4H4V11z M28,9v20h11v2
	c0,2.008-0.617,3.805-1.559,5.059C36.504,37.309,35.297,38,34,38h-1v7h1c7.719,0,14-6.281,14-14V9H28z M46,31
	c0,6.285-4.855,11.266-11,11.797v-3.063c1.586-0.309,3.031-1.129,4.043-2.48C40.273,35.613,41,33.41,41,31v-4H30V11h16V31z"/>
</svg>
