<?xml version="1.0" encoding="utf-8"?>
<!-- Generator: Adobe Illustrator 17.0.0, SVG Export Plug-In . SVG Version: 6.00 Build 0)  -->
<!DOCTYPE svg PUBLIC "-//W3C//DTD SVG 1.1//EN" "http://www.w3.org/Graphics/SVG/1.1/DTD/svg11.dtd">
<svg version="1.1" id="Layer_1" xmlns="http://www.w3.org/2000/svg" xmlns:xlink="http://www.w3.org/1999/xlink" x="0px" y="0px"
	 width="50px" height="50px" viewBox="0 0 50 50" enable-background="new 0 0 50 50" xml:space="preserve">
<path d="M11,19c0-2.008,0.617-3.805,1.559-5.059C13.496,12.691,14.703,12,16,12h1V5h-1C8.281,5,2,11.281,2,19v22h20V21H11V19z
	 M20,23v16H4V19C4,12.715,8.855,7.734,15,7.203v3.063c-1.586,0.309-3.031,1.129-4.043,2.48C9.727,14.387,9,16.59,9,19v4H20z M37,21
	v-2c0-2.008,0.617-3.805,1.559-5.059C39.496,12.691,40.703,12,42,12h1V5h-1c-7.719,0-14,6.281-14,14v22h20V21H37z M46,39H30V19
	c0-6.285,4.855-11.266,11-11.797v3.063c-1.586,0.309-3.031,1.129-4.043,2.48C35.727,14.387,35,16.59,35,19v4h11V39z"/>
</svg>
