<?xml version="1.0" encoding="utf-8"?>
<!-- Generator: Adobe Illustrator 17.0.0, SVG Export Plug-In . SVG Version: 6.00 Build 0)  -->
<!DOCTYPE svg PUBLIC "-//W3C//DTD SVG 1.1//EN" "http://www.w3.org/Graphics/SVG/1.1/DTD/svg11.dtd">
<svg version="1.1" id="Capa_1" xmlns="http://www.w3.org/2000/svg" xmlns:xlink="http://www.w3.org/1999/xlink" x="0px" y="0px"
	 width="612px" height="792px" viewBox="0 0 612 792" enable-background="new 0 0 612 792" xml:space="preserve">
<path d="M611.998,395.999c0,168.728-137.271,305.999-305.999,305.999S0,564.729,0,395.999c0-114.791,63.358-218.951,165.349-271.827
	c6.105-3.165,13.623-0.783,16.788,5.324c3.165,6.107,0.783,13.623-5.324,16.788C83.114,194.861,24.908,290.546,24.908,395.999
	c0,154.995,126.098,281.091,281.091,281.091S587.09,550.992,587.09,395.999S460.992,114.908,305.999,114.908
	c-6.877,0-12.454-5.577-12.454-12.454c0-6.877,5.577-12.454,12.454-12.454C474.729,90,611.998,227.271,611.998,395.999z
	 M425.957,238.361c-34.718-26.459-76.198-40.443-119.958-40.443c-109.222,0-198.082,88.86-198.082,198.082
	s88.86,198.082,198.082,198.082c52.909,0,102.653-20.603,140.065-58.017c4.863-4.863,4.863-12.749,0-17.612
	c-4.863-4.863-12.751-4.863-17.612,0c-32.709,32.709-76.196,50.721-122.453,50.721c-95.488,0-173.174-77.684-173.174-173.174
	s77.684-173.174,173.174-173.174c76.58,0,144.972,51.3,166.316,124.757c1.918,6.605,8.828,10.401,15.435,8.483
	c6.605-1.92,10.403-8.83,8.483-15.435C484.51,300.283,459.552,263.961,425.957,238.361z M452.027,358.307
	c-4.865-4.863-12.751-4.863-17.612,0c-4.863,4.863-4.863,12.749,0,17.612l46.848,46.85c2.335,2.335,5.503,3.647,8.807,3.647
	c3.304,0,6.472-1.312,8.807-3.647l46.848-46.85c4.863-4.863,4.863-12.749,0-17.612c-4.865-4.863-12.751-4.863-17.612,0
	L490.07,396.35L452.027,358.307z"/>
</svg>
