<?xml version="1.0" encoding="utf-8"?>
<!-- Generator: Adobe Illustrator 17.0.0, SVG Export Plug-In . SVG Version: 6.00 Build 0)  -->
<!DOCTYPE svg PUBLIC "-//W3C//DTD SVG 1.1//EN" "http://www.w3.org/Graphics/SVG/1.1/DTD/svg11.dtd">
<svg version="1.1" id="Layer_1" xmlns="http://www.w3.org/2000/svg" xmlns:xlink="http://www.w3.org/1999/xlink" x="0px" y="0px"
	 width="100px" height="100px" viewBox="0 0 100 100" enable-background="new 0 0 100 100" xml:space="preserve">
<path d="M73.438,54.563L74.813,56l-1.375,1.438l-10,10c-0.797,0.797-2.078,0.797-2.875,0s-0.797-2.078,0-2.875L67.125,58h-36.25
	l6.563,6.563c0.797,0.797,0.797,2.078,0,2.875s-2.078,0.797-2.875,0l-9.625-9.688c-0.141-0.086-0.266-0.195-0.375-0.313L24.5,57.375
	c-0.047-0.039-0.086-0.078-0.125-0.125l-0.125-0.188c-0.047-0.039-0.086-0.078-0.125-0.125L23.188,56l1-1
	c0.102-0.164,0.227-0.313,0.375-0.438V54.5c0.039-0.047,0.078-0.086,0.125-0.125l9.875-9.813c0.32-0.313,0.742-0.516,1.188-0.563
	c0.867-0.141,1.734,0.297,2.117,1.094c0.391,0.789,0.219,1.742-0.43,2.344L30.875,54h36.25l-6.563-6.563
	c-0.555-0.516-0.773-1.297-0.563-2.031c0.211-0.727,0.813-1.273,1.563-1.406c0.078-0.023,0.164-0.047,0.25-0.063
	c0.609-0.047,1.211,0.18,1.625,0.625L73.438,54.563z M100,62.188C100,71.992,92,80,82.188,80H19.313C8.656,80,0,71.344,0,60.688
	c0-8.359,5.422-15.313,12.875-18c0.414-7.352,6.359-13.25,13.813-13.25c2.938,0,5.555,1.133,7.813,2.688
	c4.242-8.82,13.07-15.063,23.5-15.063c14.5,0,26.313,11.813,26.313,26.313c0,0.5-0.094,0.953-0.125,1.438
	C93.016,45.852,100,53.086,100,62.188z M96,62.188c0-7.648-6.164-13.813-13.813-13.813h-2.375l0.313-2.25
	c0.117-0.938,0.188-1.836,0.188-2.75c0-12.344-9.977-22.313-22.313-22.313c-9.617,0-17.789,6.125-20.938,14.625L36,38.625
	l-2.188-2.25c-1.813-1.82-4.344-2.938-7.125-2.938c-5.555,0-10,4.445-10,10c0,0.016-0.008,0.156,0,0.438L16.75,45.5l-1.5,0.375
	C8.766,47.664,4,53.617,4,60.688C4,69.18,10.813,76,19.313,76h62.875C89.836,76,96,69.836,96,62.188z"/>
</svg>
