<?xml version="1.0" encoding="utf-8"?>
<!-- Generator: Adobe Illustrator 17.0.0, SVG Export Plug-In . SVG Version: 6.00 Build 0)  -->
<!DOCTYPE svg PUBLIC "-//W3C//DTD SVG 1.1//EN" "http://www.w3.org/Graphics/SVG/1.1/DTD/svg11.dtd">
<svg version="1.1" id="Layer_1" xmlns="http://www.w3.org/2000/svg" xmlns:xlink="http://www.w3.org/1999/xlink" x="0px" y="0px"
	 width="50px" height="50px" viewBox="0 0 50 50" enable-background="new 0 0 50 50" xml:space="preserve">
<path d="M50,0v11h-2V3.414l-14,14l-4-4l-12,12l-4-4L1.707,33.707l-1.414-1.414L14,18.586l4,4l12-12l4,4L46.586,2H39V0H50z M48,50h2
	V15h-2V50z M42,50h2V14h-2V50z M36,50h2V20h-2V50z M30,50h2V20h-2V50z M24,50h2V24h-2V50z M18,50h2V30h-2V50z M12,50h2V28h-2V50z
	 M6,50h2V34H6V50z M0,50h2V38H0V50z"/>
</svg>
