<?xml version="1.0" encoding="utf-8"?>
<!-- Generator: Adobe Illustrator 17.0.0, SVG Export Plug-In . SVG Version: 6.00 Build 0)  -->
<!DOCTYPE svg PUBLIC "-//W3C//DTD SVG 1.1//EN" "http://www.w3.org/Graphics/SVG/1.1/DTD/svg11.dtd">
<svg version="1.1" id="Layer_1" xmlns="http://www.w3.org/2000/svg" xmlns:xlink="http://www.w3.org/1999/xlink" x="0px" y="0px"
	 width="100px" height="100px" viewBox="0 0 100 100" enable-background="new 0 0 100 100" xml:space="preserve">
<path d="M53,26H40v30h-6v4h6v4h-6v4h6v8h4v-8h8v-4h-8v-4h9c8.656,0,15.557-6.617,16.594-15H70v-2C70,33.635,62.365,26,53,26z M53,56
	h-9V30h9c7.203,0,13,5.797,13,13S60.203,56,53,56z M50,4C24.619,4,4,24.619,4,50s20.619,46,46,46s46-20.619,46-46S75.381,4,50,4z
	 M50,92C26.78,92,8,73.22,8,50S26.78,8,50,8s42,18.78,42,42S73.22,92,50,92z"/>
</svg>
