<svg xmlns="http://www.w3.org/2000/svg" xmlns:xlink="http://www.w3.org/1999/xlink" viewBox="0 0 50 50" version="1.1" width="50" height="50">
<g id="surface1">
<path style=" " d="M 26 -0.03125 C 22.789063 -0.03125 20.902344 0.273438 19.625 1 C 18.988281 1.363281 18.535156 1.871094 18.28125 2.4375 C 18.027344 3.003906 17.96875 3.578125 17.96875 4.09375 C 17.96875 4.894531 18.425781 5.566406 18.96875 6 C 19.511719 6.433594 20.171875 6.726563 20.875 6.9375 C 22.285156 7.359375 23.914063 7.476563 25.3125 7.28125 C 31.199219 6.460938 34.230469 7.664063 36.5 9.53125 C 35.8125 10.277344 35.335938 11.003906 35.09375 11.59375 C 34.75 12.421875 34.652344 12.808594 34.25 13.15625 C 33.78125 13.558594 33.382813 13.664063 32.75 13.625 C 32.117188 13.585938 31.289063 13.34375 30.3125 13 C 28.359375 12.3125 25.835938 11.25 22.75 11.25 C 16.890625 11.25 11.605469 15.339844 10.46875 21.46875 C 9.675781 20.976563 8.714844 20.6875 7.71875 20.6875 C 6.304688 20.6875 5.089844 21.160156 4.25 22.03125 C 3.410156 22.902344 2.96875 24.109375 2.96875 25.375 C 2.96875 28.074219 6.359375 30.394531 10.625 28.78125 C 11.492188 30.070313 12.722656 30.9375 13.90625 31.375 C 14.621094 31.640625 15.320313 31.800781 15.84375 31.90625 C 16.105469 31.960938 16.304688 32.003906 16.46875 32.03125 C 16.632813 32.058594 16.804688 32.085938 16.71875 32.0625 C 17.621094 32.320313 18.691406 32.378906 19.53125 32.59375 C 19.953125 32.699219 20.292969 32.855469 20.4375 32.96875 C 20.582031 33.082031 20.5625 33.046875 20.5625 33.21875 C 20.5625 33.742188 20.214844 34.15625 19.59375 34.75 C 19.28125 35.046875 18.945313 35.371094 18.625 35.78125 C 18.304688 36.191406 18 36.738281 18 37.40625 C 18 38.339844 18.472656 39.171875 19.09375 39.65625 C 19.714844 40.140625 20.425781 40.382813 21.125 40.53125 C 21.824219 40.679688 22.539063 40.726563 23.125 40.78125 C 23.710938 40.835938 24.199219 40.902344 24.3125 40.9375 C 28.21875 42.140625 28.90625 43.503906 30.59375 45.96875 C 31.71875 47.613281 33.472656 48.574219 35.0625 48.90625 C 35.855469 49.074219 36.628906 49.105469 37.34375 48.84375 C 38.058594 48.582031 38.71875 47.773438 38.71875 46.90625 C 38.71875 42.539063 35.6875 39.683594 32.84375 38.03125 C 32.292969 37.710938 31.867188 37.617188 31.34375 37.375 C 38.554688 33.003906 40.636719 26.566406 40.65625 21 C 41.875 21.535156 43.136719 21.910156 44.4375 22 C 45.503906 22.074219 46.515625 21.921875 47.375 21.625 C 48.234375 21.328125 48.976563 20.980469 49.40625 20.15625 C 50.054688 18.921875 50.089844 17.390625 49.96875 15.9375 C 49.847656 14.484375 49.59375 13.195313 49.09375 12.28125 C 47.144531 8.710938 43.8125 7.585938 40.4375 7.59375 C 39 5.25 36.671875 3.394531 34.09375 2.125 C 31.304688 0.75 28.332031 -0.03125 26 -0.03125 Z M 26 2.03125 C 27.859375 2.03125 30.652344 2.71875 33.1875 3.96875 C 35.554688 5.136719 37.609375 6.804688 38.75 8.6875 C 38.738281 8.6875 38.730469 8.6875 38.71875 8.6875 C 36.023438 6.105469 32.023438 4.277344 25.03125 5.25 C 23.992188 5.394531 22.542969 5.289063 21.46875 4.96875 C 20.929688 4.808594 20.484375 4.59375 20.25 4.40625 C 20.015625 4.21875 20 4.148438 20 4.09375 C 20 3.71875 20.042969 3.460938 20.125 3.28125 C 20.207031 3.101563 20.328125 2.9375 20.65625 2.75 C 21.316406 2.375 22.933594 2.03125 26 2.03125 Z M 4.0625 7 C 3.511719 7.058594 3.113281 7.558594 3.171875 8.109375 C 3.230469 8.660156 3.730469 9.058594 4.28125 9 L 14.5 9 C 14.859375 9.003906 15.195313 8.816406 15.378906 8.503906 C 15.558594 8.191406 15.558594 7.808594 15.378906 7.496094 C 15.195313 7.183594 14.859375 6.996094 14.5 7 L 4.28125 7 C 4.238281 6.996094 4.199219 6.996094 4.15625 7 C 4.125 7 4.09375 7 4.0625 7 Z M 38.9375 8.9375 C 38.964844 8.984375 39.039063 9.015625 39.0625 9.0625 C 39.238281 9.417969 39.605469 9.636719 40 9.625 C 43.144531 9.515625 45.605469 10.179688 47.28125 13.25 C 47.472656 13.597656 47.835938 14.878906 47.9375 16.125 C 48.039063 17.371094 47.910156 18.675781 47.625 19.21875 C 47.664063 19.140625 47.304688 19.484375 46.71875 19.6875 C 46.132813 19.890625 45.359375 20.019531 44.59375 19.96875 C 43.015625 19.859375 41.609375 19.46875 40.28125 18.59375 C 39.960938 18.371094 39.539063 18.355469 39.199219 18.546875 C 38.859375 18.742188 38.660156 19.109375 38.6875 19.5 C 39.058594 25.089844 37.492188 31.777344 29.4375 36.15625 C 31.171875 34.628906 33.1875 32.089844 33.1875 28.09375 C 33.1875 24.566406 31.242188 21.835938 28.4375 20.21875 C 28.125 20 27.714844 19.976563 27.375 20.15625 C 27.039063 20.335938 26.828125 20.6875 26.835938 21.070313 C 26.84375 21.453125 27.0625 21.800781 27.40625 21.96875 C 29.734375 23.3125 31.125 25.28125 31.125 28.09375 C 31.125 32.847656 27.875 35.003906 26.4375 35.90625 C 26.4375 35.90625 26.375 37.5625 26.375 37.5625 C 26.375 37.5625 26.558594 37.703125 26.59375 37.71875 C 26.664063 37.75 26.671875 37.746094 26.6875 37.75 C 26.722656 37.761719 26.734375 37.746094 26.75 37.75 C 26.78125 37.757813 26.804688 37.769531 26.84375 37.78125 C 26.917969 37.800781 27.019531 37.835938 27.15625 37.875 C 27.433594 37.953125 27.832031 38.054688 28.3125 38.21875 C 29.269531 38.546875 30.550781 39.078125 31.8125 39.8125 C 34.335938 41.28125 36.6875 43.472656 36.6875 46.90625 C 36.671875 46.90625 36.652344 46.894531 36.625 46.90625 C 36.457031 46.96875 36.007813 47.019531 35.46875 46.90625 C 34.390625 46.679688 33.035156 45.914063 32.28125 44.8125 C 30.625 42.390625 29.214844 40.328125 24.90625 39 C 24.378906 38.835938 23.894531 38.804688 23.3125 38.75 C 22.730469 38.695313 22.101563 38.644531 21.5625 38.53125 C 21.023438 38.417969 20.570313 38.242188 20.34375 38.0625 C 20.117188 37.882813 20.03125 37.78125 20.03125 37.40625 C 20.03125 37.324219 20.054688 37.242188 20.21875 37.03125 C 20.382813 36.820313 20.667969 36.535156 21 36.21875 C 21.667969 35.582031 22.625 34.640625 22.625 33.21875 C 22.625 32.453125 22.199219 31.746094 21.6875 31.34375 C 21.175781 30.941406 20.597656 30.769531 20.03125 30.625 C 18.902344 30.335938 17.691406 30.242188 17.28125 30.125 C 17.082031 30.066406 17.007813 30.058594 16.84375 30.03125 C 16.679688 30.003906 16.480469 29.953125 16.25 29.90625 C 15.792969 29.8125 15.203125 29.683594 14.625 29.46875 C 13.46875 29.039063 12.390625 28.347656 11.9375 27.25 C 11.832031 26.984375 11.617188 26.777344 11.351563 26.675781 C 11.082031 26.574219 10.785156 26.589844 10.53125 26.71875 C 6.75 28.589844 5.03125 26.265625 5.03125 25.375 C 5.03125 24.550781 5.289063 23.914063 5.71875 23.46875 C 6.148438 23.023438 6.757813 22.71875 7.71875 22.71875 C 8.972656 22.71875 10.0625 23.464844 10.28125 24.21875 C 10.449219 24.664063 10.90625 24.933594 11.378906 24.867188 C 11.851563 24.800781 12.214844 24.414063 12.25 23.9375 C 12.25 17.511719 17.183594 13.28125 22.75 13.28125 C 25.359375 13.28125 27.585938 14.21875 29.625 14.9375 C 30.644531 15.296875 31.617188 15.597656 32.625 15.65625 C 33.632813 15.714844 34.695313 15.46875 35.5625 14.71875 C 36.4375 13.964844 36.691406 13.054688 36.96875 12.375 C 37.246094 11.695313 37.558594 11.066406 38.65625 10.21875 C 39.050781 9.917969 39.167969 9.375 38.9375 8.9375 Z M 2.4375 11 C 1.886719 11.050781 1.480469 11.542969 1.53125 12.09375 C 1.582031 12.644531 2.074219 13.050781 2.625 13 L 9.6875 13 C 10.046875 13.003906 10.382813 12.816406 10.566406 12.503906 C 10.746094 12.191406 10.746094 11.808594 10.566406 11.496094 C 10.382813 11.183594 10.046875 10.996094 9.6875 11 L 2.625 11 C 2.59375 11 2.5625 11 2.53125 11 C 2.5 11 2.46875 11 2.4375 11 Z M 45.5 14 C 44.671875 14 44 14.671875 44 15.5 C 44 16.328125 44.671875 17 45.5 17 C 46.328125 17 47 16.328125 47 15.5 C 47 14.671875 46.328125 14 45.5 14 Z M 0.8125 15 C 0.261719 15.050781 -0.144531 15.542969 -0.09375 16.09375 C -0.0429688 16.644531 0.449219 17.050781 1 17 L 7.40625 17 C 7.765625 17.003906 8.101563 16.816406 8.285156 16.503906 C 8.464844 16.191406 8.464844 15.808594 8.285156 15.496094 C 8.101563 15.183594 7.765625 14.996094 7.40625 15 L 1 15 C 0.96875 15 0.9375 15 0.90625 15 C 0.875 15 0.84375 15 0.8125 15 Z "/>
</g>
</svg>