<?xml version="1.0" encoding="utf-8"?>
<!-- Generator: Adobe Illustrator 17.0.0, SVG Export Plug-In . SVG Version: 6.00 Build 0)  -->
<!DOCTYPE svg PUBLIC "-//W3C//DTD SVG 1.1//EN" "http://www.w3.org/Graphics/SVG/1.1/DTD/svg11.dtd">
<svg version="1.1" id="Layer_1" xmlns="http://www.w3.org/2000/svg" xmlns:xlink="http://www.w3.org/1999/xlink" x="0px" y="0px"
	 width="50px" height="50px" viewBox="0 0 50 50" enable-background="new 0 0 50 50" xml:space="preserve">
<path d="M1.531,12.094C1.48,11.543,1.887,11.051,2.438,11c0.031,0,0.063,0,0.094,0s0.063,0,0.094,0h7.063
	c0.359-0.004,0.695,0.184,0.879,0.496c0.18,0.313,0.18,0.695,0,1.008c-0.184,0.313-0.52,0.5-0.879,0.496H2.625
	C2.074,13.051,1.582,12.645,1.531,12.094z M4.281,9H14.5c0.359,0.004,0.695-0.184,0.879-0.496c0.18-0.313,0.18-0.695,0-1.008
	C15.195,7.184,14.859,6.996,14.5,7H4.281C4.238,6.996,4.199,6.996,4.156,7C4.125,7,4.094,7,4.063,7
	C3.512,7.059,3.113,7.559,3.172,8.109S3.73,9.059,4.281,9z M45.5,14c-0.828,0-1.5,0.672-1.5,1.5s0.672,1.5,1.5,1.5
	s1.5-0.672,1.5-1.5S46.328,14,45.5,14z M8.285,16.504c0.18-0.313,0.18-0.695,0-1.008c-0.184-0.313-0.52-0.5-0.879-0.496H1
	c-0.031,0-0.063,0-0.094,0s-0.063,0-0.094,0c-0.551,0.051-0.957,0.543-0.906,1.094S0.449,17.051,1,17h6.406
	C7.766,17.004,8.102,16.816,8.285,16.504z M49.406,20.156c-0.43,0.824-1.172,1.172-2.031,1.469S45.504,22.074,44.438,22
	c-1.301-0.09-2.563-0.465-3.781-1c-0.02,5.566-2.102,12.004-9.313,16.375c0.523,0.242,0.949,0.336,1.5,0.656
	c2.844,1.652,5.875,4.508,5.875,8.875c0,0.867-0.66,1.676-1.375,1.938s-1.488,0.23-2.281,0.063c-1.59-0.332-3.344-1.293-4.469-2.938
	c-1.688-2.465-2.375-3.828-6.281-5.031c-0.113-0.035-0.602-0.102-1.188-0.156s-1.301-0.102-2-0.25s-1.41-0.391-2.031-0.875
	S18,38.34,18,37.406c0-0.668,0.305-1.215,0.625-1.625s0.656-0.734,0.969-1.031c0.621-0.594,0.969-1.008,0.969-1.531
	c0-0.172,0.02-0.137-0.125-0.25s-0.484-0.27-0.906-0.375c-0.84-0.215-1.91-0.273-2.813-0.531c0.086,0.023-0.086-0.004-0.25-0.031
	s-0.363-0.07-0.625-0.125c-0.523-0.105-1.223-0.266-1.938-0.531c-1.184-0.438-2.414-1.305-3.281-2.594
	c-4.266,1.613-7.656-0.707-7.656-3.406c0-1.266,0.441-2.473,1.281-3.344s2.055-1.344,3.469-1.344c0.996,0,1.957,0.289,2.75,0.781
	C11.605,15.34,16.891,11.25,22.75,11.25c3.086,0,5.609,1.063,7.563,1.75c0.977,0.344,1.805,0.586,2.438,0.625s1.031-0.066,1.5-0.469
	c0.402-0.348,0.5-0.734,0.844-1.563c0.242-0.59,0.719-1.316,1.406-2.063c-2.27-1.867-5.301-3.07-11.188-2.25
	c-1.398,0.195-3.027,0.078-4.438-0.344C20.172,6.727,19.512,6.434,18.969,6s-1-1.105-1-1.906c0-0.516,0.059-1.09,0.313-1.656
	S18.988,1.363,19.625,1C20.902,0.273,22.789-0.031,26-0.031c2.332,0,5.305,0.781,8.094,2.156C36.672,3.395,39,5.25,40.438,7.594
	c3.375-0.008,6.707,1.117,8.656,4.688c0.5,0.914,0.754,2.203,0.875,3.656S50.055,18.922,49.406,20.156z M38.719,8.688
	c0.012,0,0.02,0,0.031,0c-1.141-1.883-3.195-3.551-5.563-4.719C30.652,2.719,27.859,2.031,26,2.031
	c-3.066,0-4.684,0.344-5.344,0.719c-0.328,0.188-0.449,0.352-0.531,0.531S20,3.719,20,4.094c0,0.055,0.016,0.125,0.25,0.313
	s0.68,0.402,1.219,0.563c1.074,0.32,2.523,0.426,3.563,0.281C32.023,4.277,36.023,6.105,38.719,8.688z M47.938,16.125
	c-0.102-1.246-0.465-2.527-0.656-2.875C45.605,10.18,43.145,9.516,40,9.625c-0.395,0.012-0.762-0.207-0.938-0.563
	c-0.023-0.047-0.098-0.078-0.125-0.125c0.23,0.438,0.113,0.98-0.281,1.281c-1.098,0.848-1.41,1.477-1.688,2.156
	s-0.531,1.59-1.406,2.344c-0.867,0.75-1.93,0.996-2.938,0.938s-1.98-0.359-3-0.719c-2.039-0.719-4.266-1.656-6.875-1.656
	c-5.566,0-10.5,4.23-10.5,10.656c-0.035,0.477-0.398,0.863-0.871,0.93s-0.93-0.203-1.098-0.648c-0.219-0.754-1.309-1.5-2.563-1.5
	c-0.961,0-1.57,0.305-2,0.75s-0.688,1.082-0.688,1.906c0,0.891,1.719,3.215,5.5,1.344c0.254-0.129,0.551-0.145,0.82-0.043
	c0.266,0.102,0.48,0.309,0.586,0.574c0.453,1.098,1.531,1.789,2.688,2.219c0.578,0.215,1.168,0.344,1.625,0.438
	c0.23,0.047,0.43,0.098,0.594,0.125s0.238,0.035,0.438,0.094c0.41,0.117,1.621,0.211,2.75,0.5c0.566,0.145,1.145,0.316,1.656,0.719
	s0.938,1.109,0.938,1.875c0,1.422-0.957,2.363-1.625,3c-0.332,0.316-0.617,0.602-0.781,0.813s-0.188,0.293-0.188,0.375
	c0,0.375,0.086,0.477,0.313,0.656s0.68,0.355,1.219,0.469s1.168,0.164,1.75,0.219s1.066,0.086,1.594,0.25
	c4.309,1.328,5.719,3.391,7.375,5.813c0.754,1.102,2.109,1.867,3.188,2.094c0.539,0.113,0.988,0.063,1.156,0
	c0.027-0.012,0.047,0,0.063,0c0-3.434-2.352-5.625-4.875-7.094c-1.262-0.734-2.543-1.266-3.5-1.594
	c-0.48-0.164-0.879-0.266-1.156-0.344c-0.137-0.039-0.238-0.074-0.313-0.094c-0.039-0.012-0.063-0.023-0.094-0.031
	c-0.016-0.004-0.027,0.012-0.063,0c-0.016-0.004-0.023,0-0.094-0.031c-0.035-0.016-0.219-0.156-0.219-0.156l0.063-1.656
	c1.438-0.902,4.688-3.059,4.688-7.813c0-2.813-1.391-4.781-3.719-6.125c-0.344-0.168-0.563-0.516-0.57-0.898
	s0.203-0.734,0.539-0.914c0.34-0.18,0.75-0.156,1.063,0.063c2.805,1.617,4.75,4.348,4.75,7.875c0,3.996-2.016,6.535-3.75,8.063
	c8.055-4.379,9.621-11.066,9.25-16.656c-0.027-0.391,0.172-0.758,0.512-0.953c0.34-0.191,0.762-0.176,1.082,0.047
	c1.328,0.875,2.734,1.266,4.313,1.375c0.766,0.051,1.539-0.078,2.125-0.281s0.945-0.547,0.906-0.469
	C47.91,18.676,48.039,17.371,47.938,16.125z"/>
</svg>
