<?xml version="1.0" encoding="iso-8859-1"?>
<!-- Generator: Adobe Illustrator 21.1.0, SVG Export Plug-In . SVG Version: 6.00 Build 0)  -->
<svg xmlns="http://www.w3.org/2000/svg" xmlns:xlink="http://www.w3.org/1999/xlink" version="1.1" id="Layer_1" x="0px" y="0px" viewBox="0 0 50 50" style="enable-background:new 0 0 50 50;" xml:space="preserve" width="50px" height="50px">
<g>
</g>
<path style="fill:none;stroke:#000000;stroke-width:2;stroke-linecap:round;stroke-miterlimit:10;" d="M40.353,15 30,15   30,4 "/>
<rect x="16" y="21" width="18" height="2"/>
<rect x="16" y="33" width="13" height="2"/>
<rect x="16" y="27" width="13" height="2"/>
<path d="M40,41.968 40,45 36.17,45 36,45.134 36,45 10,45 10,5 29.586,5 40,15.414 40,21.032 42,22.616 42,14.586 30.414,3   8,3 8,47 42,47 42,40.384 z"/>
<path d="M40,26.134l6.778,5.366L40,36.866V35v-2h-2h-5v-3h5h2v-2V26.134 M38,22v6h-7v7h7v6l12-9.5L38,22L38,22z"/>
</svg>
