<?xml version="1.0" encoding="utf-8"?>
<!-- Generator: Adobe Illustrator 17.0.0, SVG Export Plug-In . SVG Version: 6.00 Build 0)  -->
<!DOCTYPE svg PUBLIC "-//W3C//DTD SVG 1.1//EN" "http://www.w3.org/Graphics/SVG/1.1/DTD/svg11.dtd">
<svg version="1.1" id="Layer_1" xmlns="http://www.w3.org/2000/svg" xmlns:xlink="http://www.w3.org/1999/xlink" x="0px" y="0px"
	 width="100px" height="100px" viewBox="0 0 100 100" enable-background="new 0 0 100 100" xml:space="preserve">
<path d="M58,58H32v-4h26V58z M76,82V70H62V56h14V44l24,19L76,82z M76,66h4v4v3.73L93.555,63L80,52.27V56v4h-4H66v6H76z M68,42H32v4
	h36V42z M32,70h26v-4H32V70z M80,83.938l4-3.168V94H16V6h43.68c0.096-0.016,0.192-0.025,0.289-0.027
	c0.114-0.001,0.228,0.009,0.34,0.027h0.52l0.379,0.379c0.141,0.108,0.267,0.234,0.375,0.375L84,29.172V45.23l-4-3.168V32H58V10H20
	v80h52v0.27L72.34,90H80V83.938z M62,28h15.172L62,12.828V28z"/>
</svg>
