<?xml version="1.0" encoding="utf-8"?>
<!-- Generator: Adobe Illustrator 17.0.0, SVG Export Plug-In . SVG Version: 6.00 Build 0)  -->
<!DOCTYPE svg PUBLIC "-//W3C//DTD SVG 1.1//EN" "http://www.w3.org/Graphics/SVG/1.1/DTD/svg11.dtd">
<svg version="1.1" id="Layer_1" xmlns="http://www.w3.org/2000/svg" xmlns:xlink="http://www.w3.org/1999/xlink" x="0px" y="0px"
	 width="25px" height="25px" viewBox="0 0 25 25" enable-background="new 0 0 25 25" xml:space="preserve">
<path d="M7.585,14.17l0.004,0c-0.001,0-0.001,0-0.002,0c-0.24,0.008-0.44-0.18-0.448-0.42c0-0.002,0-0.003,0-0.005
	c0.011-0.235,0.211-0.417,0.446-0.405h5.357c0.001,0,0.003,0,0.004,0c0.236-0.009,0.434,0.175,0.443,0.41
	c-0.008,0.239-0.208,0.427-0.447,0.42H7.585z M16.518,6.67h0.893c0.232,0.016,0.433-0.159,0.449-0.391
	c0.016-0.232-0.159-0.433-0.391-0.449c-0.019-0.001-0.039-0.001-0.058,0h-0.893c-0.232-0.016-0.433,0.159-0.449,0.391
	c-0.016,0.232,0.159,0.433,0.391,0.449C16.479,6.671,16.499,6.671,16.518,6.67z M11.671,19.81c0.087,0.122,0.229,0.193,0.379,0.19
	h1.786c0.235,0.011,0.435-0.17,0.446-0.405c0-0.002,0-0.003,0-0.005c-0.008-0.239-0.207-0.427-0.446-0.42h-1.162
	c0.047-0.19,0.019-0.391-0.08-0.56c-0.124-0.176-0.329-0.278-0.544-0.27c-0.327,0.03-0.639,0.151-0.9,0.35
	c-0.023-0.181-0.143-0.335-0.313-0.4c-0.217-0.089-0.466-0.051-0.646,0.1c0.211-0.685,0.142-1.426-0.193-2.06
	c-0.255-0.333-0.659-0.517-1.077-0.49c-0.596-0.033-1.167,0.238-1.519,0.72c-0.433,0.907-0.344,1.977,0.234,2.8l-0.004,0
	c0.121,0.209,0.384,0.288,0.6,0.18c0.203-0.086,0.298-0.321,0.212-0.525c-0.004-0.009-0.008-0.017-0.012-0.026
	c-0.419-0.576-0.52-1.324-0.267-1.99c0.179-0.235,0.467-0.36,0.76-0.33c0.129-0.016,0.257,0.032,0.343,0.13
	c0.332,0.45,0.016,1.82-0.314,2.64c-0.073,0.187,0.002,0.4,0.176,0.5c0.179,0.102,0.404,0.078,0.557-0.06
	c0.191-0.18,0.4-0.35,0.578-0.5v0.21c0,0.173,0.111,0.326,0.275,0.38c0.166,0.068,0.356,0.033,0.487-0.09
	c0.202-0.184,0.415-0.354,0.639-0.51c0,0.01-0.01,0.02-0.016,0.03C11.582,19.531,11.59,19.688,11.671,19.81z M9.371,6.67
	C9.603,6.686,9.804,6.511,9.82,6.279C9.836,6.047,9.661,5.846,9.43,5.83c-0.019-0.001-0.039-0.001-0.058,0H7.585
	C7.353,5.815,7.152,5.99,7.137,6.222C7.121,6.454,7.297,6.655,7.529,6.67c0.02,0.001,0.04,0.001,0.06,0l-0.004,0H9.371z
	 M14.286,22.51C14.285,22.51,14.285,22.51,14.286,22.51L14.286,22.51l-8.486,0c-0.714,0.022-1.312-0.536-1.339-1.25V2.08
	C4.453,1.841,4.254,1.653,4.015,1.66c-1.192-0.036-2.19,0.898-2.232,2.09c0.023,0.246,0.242,0.427,0.488,0.404
	c0.214-0.02,0.384-0.19,0.404-0.404c0.01-0.546,0.371-1.022,0.893-1.18v18.69c0.047,1.188,1.043,2.117,2.232,2.08h8.482
	c0.239,0.007,0.439-0.181,0.447-0.42C14.72,22.684,14.521,22.501,14.286,22.51z M15.178,8.75c0.008,0.239,0.208,0.427,0.447,0.42
	h4.464c0.232,0.016,0.433-0.159,0.449-0.391c0.016-0.232-0.159-0.433-0.391-0.449c-0.019-0.001-0.039-0.001-0.058,0h-4.464
	C15.386,8.323,15.186,8.511,15.178,8.75z M7.529,9.17c0.02,0.001,0.04,0.001,0.06,0l-0.004,0h6.25
	c0.232,0.016,0.433-0.159,0.449-0.391c0.016-0.232-0.159-0.433-0.391-0.449c-0.019-0.001-0.039-0.001-0.058,0h-6.25
	C7.353,8.315,7.152,8.49,7.137,8.722C7.121,8.954,7.297,9.155,7.529,9.17z M16.967,11.279c0.016-0.232-0.159-0.433-0.391-0.449
	c-0.019-0.001-0.039-0.001-0.058,0h-4.465c-0.232-0.016-0.433,0.159-0.449,0.391c-0.016,0.232,0.159,0.433,0.391,0.449
	c0.019,0.001,0.039,0.001,0.058,0h4.465C16.75,11.686,16.951,11.511,16.967,11.279z M18.871,22.109
	c-0.011-0.007-0.022-0.013-0.034-0.019l-0.004,0c-0.211-0.119-0.478-0.053-0.61,0.15l-0.961,1.56l-0.153-0.22
	c-0.079-0.113-0.208-0.18-0.345-0.18l-0.276-0.02l0.977-1.58c0.117-0.188,0.059-0.434-0.129-0.551
	c-0.011-0.007-0.023-0.013-0.034-0.019c-0.212-0.114-0.476-0.049-0.611,0.15l-1.338,2.17c-0.077,0.122-0.079,0.276-0.006,0.4
	c0.077,0.131,0.215,0.214,0.367,0.22l0.773,0.05l0.428,0.6c0.085,0.121,0.224,0.192,0.372,0.19h0.014
	c0.15-0.008,0.288-0.086,0.373-0.21l1.323-2.14C19.114,22.473,19.058,22.227,18.871,22.109z M22.598,21.4
	c-0.132-0.203-0.399-0.269-0.61-0.15c-0.198,0.097-0.28,0.337-0.183,0.535c0.006,0.012,0.012,0.024,0.019,0.035l0.966,1.56
	l-0.276,0.02c-0.138,0-0.267,0.067-0.346,0.18l-0.152,0.22l-0.956-1.55c-0.132-0.203-0.4-0.269-0.611-0.15
	c-0.198,0.098-0.28,0.337-0.182,0.536c0.006,0.012,0.012,0.023,0.019,0.034l1.318,2.13c0.085,0.124,0.223,0.202,0.373,0.21H22
	c0.148,0.002,0.287-0.069,0.373-0.19l0.426-0.6l0.774-0.05c0.151-0.006,0.289-0.089,0.366-0.22c0.074-0.124,0.071-0.278-0.006-0.4
	L22.598,21.4z M19.639,21.67c-0.062,0-0.124-0.002-0.186-0.006c-1.479-0.102-2.596-1.384-2.494-2.864s1.384-2.596,2.864-2.494
	c1.479,0.102,2.596,1.384,2.494,2.864l0.004,0C22.267,20.599,21.069,21.716,19.639,21.67z M21.424,19.17
	c0-0.882-0.683-1.612-1.563-1.671c-0.922-0.061-1.72,0.637-1.781,1.559s0.637,1.72,1.559,1.781l0.004,0
	C20.594,20.867,21.39,20.121,21.424,19.17z M20.982,0.01l-0.004,0H4.018C1.882-0.061,0.088,1.604,0,3.74v0.01v0.01
	C0.028,5.126,0.797,6.368,2.008,7C2.22,7.109,2.48,7.045,2.618,6.85c0.117-0.188,0.06-0.434-0.128-0.551
	C2.479,6.292,2.468,6.286,2.456,6.28C1.512,5.786,0.913,4.816,0.893,3.75c0.066-1.663,1.461-2.962,3.125-2.91h16.964
	c1.668-0.053,3.065,1.252,3.125,2.92v17.5c0,0.22-0.064,0.435-0.183,0.62c-0.117,0.187-0.061,0.434,0.126,0.551
	c0.011,0.007,0.022,0.013,0.033,0.019c0.211,0.12,0.48,0.055,0.611-0.15c0.199-0.311,0.305-0.671,0.306-1.04V3.76
	C24.922,1.617,23.126-0.06,20.982,0.01z M7.525,11.67c0.021,0.002,0.043,0.001,0.064,0l-0.004,0h2.679
	c0.232,0.016,0.433-0.159,0.449-0.391c0.016-0.232-0.159-0.433-0.391-0.449c-0.019-0.001-0.039-0.001-0.058,0H7.585
	c-0.232-0.017-0.433,0.158-0.45,0.39S7.293,11.654,7.525,11.67z M21.431,11.279c0.016-0.232-0.159-0.433-0.391-0.449
	c-0.019-0.001-0.039-0.001-0.058,0H18.3c-0.238-0.005-0.435,0.182-0.443,0.42c0.008,0.239,0.207,0.426,0.446,0.42h2.679
	C21.214,11.686,21.415,11.511,21.431,11.279z M14.728,14.17H19.2c0.238,0.005,0.435-0.183,0.443-0.42l-0.004,0
	c-0.009-0.236-0.208-0.419-0.443-0.41c-0.001,0-0.003,0-0.004,0h-4.464c-0.235-0.011-0.435,0.17-0.446,0.405
	c0,0.002,0,0.003,0,0.005C14.29,13.989,14.489,14.177,14.728,14.17z M14.787,5.83c-0.018-0.001-0.037-0.001-0.055,0l-0.004,0H11.16
	c-0.232-0.016-0.433,0.159-0.449,0.391c-0.016,0.232,0.159,0.433,0.391,0.449c0.019,0.001,0.039,0.001,0.058,0h3.572
	c0.232,0.015,0.432-0.161,0.448-0.393C15.195,6.046,15.019,5.845,14.787,5.83z"/>
</svg>
