<?xml version="1.0" encoding="utf-8"?>
<!-- Generator: Adobe Illustrator 17.0.0, SVG Export Plug-In . SVG Version: 6.00 Build 0)  -->
<!DOCTYPE svg PUBLIC "-//W3C//DTD SVG 1.1//EN" "http://www.w3.org/Graphics/SVG/1.1/DTD/svg11.dtd">
<svg version="1.1" id="Layer_1" xmlns="http://www.w3.org/2000/svg" xmlns:xlink="http://www.w3.org/1999/xlink" x="0px" y="0px"
	 width="100px" height="100px" viewBox="0 0 100 100" enable-background="new 0 0 100 100" xml:space="preserve">
<path d="M42,80h2v2h-2V80z M42,78h2v-2h-2V78z M42,94h2v-2h-2V94z M42,86h2v-2h-2V86z M38,18h2v-2h-2V18z M42,90h2v-2h-2V90z M42,50
	h2v-2h-2V50z M42,54h2v-2h-2V54z M42,74h2v-2h-2V74z M42,58h2v-2h-2V58z M42,70h2v-2h-2V70z M42,62h2v-2h-2V62z M38,74h2v-2h-2V74z
	 M38,50h2v-2h-2V50z M38,54h2v-2h-2V54z M38,62h2v-2h-2V62z M38,58h2v-2h-2V58z M38,66h2v-2h-2V66z M38,22h2v-2h-2V22z M38,70h2v-2
	h-2V70z M38,30h2v-2h-2V30z M38,46h2v-2h-2V46z M38,34h2v-2h-2V34z M38,26h2v-2h-2V26z M46,18h2v-2h-2V18z M38,38h2v-2h-2V38z
	 M42,66h2v-2h-2V66z M46,54h2v-2h-2V54z M46,46h2v-2h-2V46z M46,58h2v-2h-2V58z M46,70h2v-2h-2V70z M46,62h2v-2h-2V62z M46,66h2v-2
	h-2V66z M46,50h2v-2h-2V50z M46,26h2v-2h-2V26z M46,30h2v-2h-2V30z M46,22h2v-2h-2V22z M46,34h2v-2h-2V34z M46,42h2v-2h-2V42z
	 M46,38h2v-2h-2V38z M42,18h2v-2h-2V18z M42,22h2v-2h-2V22z M46,74h2v-2h-2V74z M42,26h2v-2h-2V26z M42,34h2v-2h-2V34z M42,42h2v-2
	h-2V42z M42,38h2v-2h-2V38z M42,30h2v-2h-2V30z M46,86h2v-2h-2V86z M46,82h2v-2h-2V82z M46,78h2v-2h-2V78z M46,94h2v-2h-2V94z
	 M46,90h2v-2h-2V90z M42,46h2v-2h-2V46z M38,42h2v-2h-2V42z M18,76h2v-4h-2V76z M18,70h2v-4h-2V70z M18,64h2v-4h-2V64z M18,58h2v-4
	h-2V58z M18,82h2v-4h-2V82z M18,88h2v-4h-2V88z M18,94h2v-4h-2V94z M18,34h2v-4h-2V34z M18,28h2v-3l-2,0.773V28z M22,94h2v-4h-2V94z
	 M18,40h2v-4h-2V40z M18,52h2v-4h-2V52z M18,46h2v-4h-2V46z M14,94h2v-4h-2V94z M14,76h2v-4h-2V76z M14,64h2v-4h-2V64z M14,70h2v-4
	h-2V70z M14,82h2v-4h-2V82z M22,88h2v-4h-2V88z M14,28h2v-1.469l-2,0.773V28z M14,88h2v-4h-2V88z M14,40h2v-4h-2V40z M14,34h2v-4h-2
	V34z M14,52h2v-4h-2V52z M14,58h2v-4h-2V58z M14,46h2v-4h-2V46z M22,76h2v-4h-2V76z M26,58h2v-4h-2V58z M26,52h2v-4h-2V52z M26,40h2
	v-4h-2V40z M26,46h2v-4h-2V46z M26,70h2v-4h-2V70z M26,64h2v-4h-2V64z M26,76h2v-4h-2V76z M26,34h2v-4h-2V34z M38,86h2v-2h-2V86z
	 M38,82h2v-2h-2V82z M38,90h2v-2h-2V90z M38,94h2v-2h-2V94z M26,28h2v-6.063l-2,0.773V28z M38,78h2v-2h-2V78z M22,58h2v-4h-2V58z
	 M22,52h2v-4h-2V52z M22,46h2v-4h-2V46z M22,64h2v-4h-2V64z M22,70h2v-4h-2V70z M26,82h2v-4h-2V82z M22,82h2v-4h-2V82z M26,88h2v-4
	h-2V88z M26,94h2v-4h-2V94z M22,40h2v-4h-2V40z M22,34h2v-4h-2V34z M22,28h2v-4.531l-2,0.773V28z M70,38h4v-2h-4V38z M70,46h4v-2h-4
	V46z M70,50h4v-2h-4V50z M70,42h4v-2h-4V42z M70,58h4v-2h-4V58z M70,34h4v-2h-4V34z M70,54h4v-2h-4V54z M70,62h4v-2h-4V62z M76,82h4
	v-2h-4V82z M76,78h4v-2h-4V78z M76,74h4v-2h-4V74z M76,86h4v-2h-4V86z M76,90h4v-2h-4V90z M76,94h4v-2h-4V94z M70,82h4v-2h-4V82z
	 M70,94h4v-2h-4V94z M58,18h2v-2h-2V18z M58,26h2v-2h-2V26z M58,22h2v-2h-2V22z M58,34h2v-2h-2V34z M70,66h4v-2h-4V66z M58,30h2v-2
	h-2V30z M70,90h4v-2h-4V90z M70,74h4v-2h-4V74z M70,70h4v-2h-4V70z M70,78h4v-2h-4V78z M76,70h4v-2h-4V70z M70,86h4v-2h-4V86z
	 M82,78h4v-2h-4V78z M82,62h4v-2h-4V62z M82,58h4v-2h-4V58z M82,66h4v-2h-4V66z M50,94h2v-2h-2V94z M82,74h4v-2h-4V74z M82,54h4v-2
	h-4V54z M82,46h4v-2h-4V46z M82,34h4v-2h-4V34z M82,50h4v-2h-4V50z M82,38h4v-2h-4V38z M76,66h4v-2h-4V66z M58,38h2v-2h-2V38z
	 M82,42h4v-2h-4V42z M68,24V8h-8V6H38v2h-8v4.664l-24,10V94h4V25.336L30,17v77h4V12h8v-2h14v2h8v82h4V28h22v66h4V24H68z M76,54h4v-2
	h-4V54z M76,42h4v-2h-4V42z M76,46h4v-2h-4V46z M76,50h4v-2h-4V50z M82,82h4v-2h-4V82z M76,62h4v-2h-4V62z M76,58h4v-2h-4V58z
	 M76,38h4v-2h-4V38z M82,90h4v-2h-4V90z M82,86h4v-2h-4V86z M76,34h4v-2h-4V34z M82,94h4v-2h-4V94z M82,70h4v-2h-4V70z M50,30h2v-2
	h-2V30z M50,26h2v-2h-2V26z M50,22h2v-2h-2V22z M50,18h2v-2h-2V18z M58,42h2v-2h-2V42z M50,34h2v-2h-2V34z M54,86h2v-2h-2V86z
	 M54,70h2v-2h-2V70z M54,82h2v-2h-2V82z M54,74h2v-2h-2V74z M50,42h2v-2h-2V42z M54,94h2v-2h-2V94z M54,90h2v-2h-2V90z M54,78h2v-2
	h-2V78z M50,82h2v-2h-2V82z M50,78h2v-2h-2V78z M50,74h2v-2h-2V74z M50,70h2v-2h-2V70z M50,46h2v-2h-2V46z M50,90h2v-2h-2V90z
	 M50,86h2v-2h-2V86z M50,50h2v-2h-2V50z M50,54h2v-2h-2V54z M50,58h2v-2h-2V58z M50,62h2v-2h-2V62z M50,66h2v-2h-2V66z M50,38h2v-2
	h-2V38z M58,70h2v-2h-2V70z M58,94h2v-2h-2V94z M58,74h2v-2h-2V74z M58,82h2v-2h-2V82z M58,90h2v-2h-2V90z M58,86h2v-2h-2V86z
	 M58,78h2v-2h-2V78z M58,50h2v-2h-2V50z M58,54h2v-2h-2V54z M58,46h2v-2h-2V46z M58,62h2v-2h-2V62z M58,66h2v-2h-2V66z M58,58h2v-2
	h-2V58z M54,46h2v-2h-2V46z M54,18h2v-2h-2V18z M54,50h2v-2h-2V50z M54,66h2v-2h-2V66z M54,42h2v-2h-2V42z M54,58h2v-2h-2V58z
	 M54,62h2v-2h-2V62z M54,54h2v-2h-2V54z M54,22h2v-2h-2V22z M54,26h2v-2h-2V26z M54,38h2v-2h-2V38z M54,30h2v-2h-2V30z M54,34h2v-2
	h-2V34z"/>
</svg>
