<?xml version="1.0" encoding="utf-8"?>
<!-- Generator: Adobe Illustrator 17.0.0, SVG Export Plug-In . SVG Version: 6.00 Build 0)  -->
<!DOCTYPE svg PUBLIC "-//W3C//DTD SVG 1.1//EN" "http://www.w3.org/Graphics/SVG/1.1/DTD/svg11.dtd">
<svg version="1.1" id="Layer_1" xmlns="http://www.w3.org/2000/svg" xmlns:xlink="http://www.w3.org/1999/xlink" x="0px" y="0px"
	 width="25px" height="25px" viewBox="0 0 25 25" enable-background="new 0 0 25 25" xml:space="preserve">
<path d="M7.066,9.71C7.065,8.966,7.667,8.361,8.412,8.36c0.002,0,0.004,0,0.006,0v0c0.746,0.001,1.349,0.606,1.348,1.352
	S9.16,11.061,8.414,11.06C7.669,11.059,7.066,10.455,7.066,9.71z M16.777,11.06c0.746,0.001,1.35-0.603,1.351-1.349
	s-0.603-1.35-1.349-1.351v0c-0.002,0-0.003,0-0.005,0c-0.744,0.001-1.347,0.606-1.346,1.35C15.428,10.455,16.032,11.06,16.777,11.06
	z M9.029,17.052c-0.77-0.496-1.426-1.151-1.922-1.922l-1.135,0.74c1.268,1.942,3.33,3.223,5.632,3.5
	c0.289,0.036,0.581,0.053,0.872,0.05l0.003,0c2.644-0.002,5.108-1.337,6.554-3.55l-1.135-0.74
	C15.98,18.11,12.009,18.97,9.029,17.052z M25,12.5C25,19.404,19.404,25,12.5,25S0,19.404,0,12.5S5.596,0,12.5,0
	C19.401,0.005,24.995,5.599,25,12.5z M22.562,7.69c-0.615-1.273-1.463-2.42-2.5-3.38c-2.061-1.904-4.764-2.961-7.57-2.96
	C6.334,1.352,1.344,6.346,1.346,12.504C1.348,18.662,6.342,23.652,12.5,23.65c1.665,0,3.308-0.372,4.81-1.09
	C22.867,19.904,25.218,13.246,22.562,7.69z"/>
</svg>
