<?xml version="1.0" encoding="utf-8"?>
<!-- Generator: Adobe Illustrator 17.0.0, SVG Export Plug-In . SVG Version: 6.00 Build 0)  -->
<!DOCTYPE svg PUBLIC "-//W3C//DTD SVG 1.1//EN" "http://www.w3.org/Graphics/SVG/1.1/DTD/svg11.dtd">
<svg version="1.1" id="Layer_1" xmlns="http://www.w3.org/2000/svg" xmlns:xlink="http://www.w3.org/1999/xlink" x="0px" y="0px"
	 width="50px" height="50px" viewBox="0 0 50 50" enable-background="new 0 0 50 50" xml:space="preserve">
<path d="M44,43c-0.59,0-1.094,0.215-1.625,0.375C41.324,40.836,38.91,39,36,39c-1.379,0-2.637,0.465-3.719,1.156
	C30.824,39.445,29.227,39,27.5,39c-0.18,0-0.355,0.023-0.531,0.031c-0.02-0.625-0.07-1.242-0.125-1.844
	c0.023-0.09,0.035-0.188,0.031-0.281c0-2.977,0.742-5.074,2.406-6.344c0.309-0.234,0.668-0.441,1.063-0.625
	c-0.063,0.531-0.012,1.09,0.156,1.656c0.438,1.469,1.707,2.91,3.781,3.281c2.582,0.461,4.68-0.625,6.188-1.844
	c0.754-0.609,1.387-1.258,1.906-1.781s0.988-0.922,1.125-1c0.469-0.273,0.633-0.867,0.375-1.344c-0.625-1.191-1.539-2.656-3-3.844
	S37.41,23,34.781,23c-1.242,0-2.293,0.211-3.125,0.656s-1.445,1.199-1.594,2.094c-0.133,0.805,0.047,1.453,0.313,2
	c-0.867,0.297-1.645,0.711-2.313,1.219c-0.438,0.332-0.816,0.715-1.156,1.125c-0.102-4.281-0.367-8.672-0.125-12.594
	c0.074-1.195,0.219-2.324,0.406-3.406c0.152,0.113,0.297,0.219,0.469,0.313c1.457,0.777,3.527,0.852,5.281-0.531
	C37.324,10.41,37,3.949,37,1c0-0.551-0.449-1-1-1c-0.496,0-1.281-0.031-2.25,0c-2.906,0.09-7.363,0.66-9.875,3.75
	c-0.926,1.141-1.488,2.371-1.719,3.531s-0.16,2.316,0.5,3.188c0.766,1.008,1.879,1.332,2.969,1.313
	c-0.457,1.742-0.691,3.625-0.813,5.594c-0.246,3.973-0.012,8.27,0.094,12.375c-0.598-1.207-1.328-2.32-2.219-3.344
	c-0.398-0.457-0.855-0.895-1.313-1.313c0.934-0.805,1.523-2.008,1.313-3.469c-0.488-3.406-4.633-7.559-12.281-6.438
	c-2.871,0.422-6.215,1.832-9.906,4c-0.313,0.188-0.5,0.531-0.484,0.895c0.012,0.363,0.223,0.691,0.547,0.855
	c0.523,0.25,1.184,1.109,1.844,2.344s1.352,2.77,2.219,4.281s1.922,3.02,3.438,4.063s3.484,1.594,5.875,1.25
	c2.797-0.402,4.855-1.73,6.031-3.313c0.508-0.684,0.801-1.398,0.938-2.125c0.09,0.098,0.195,0.184,0.281,0.281
	c2.547,2.93,3.68,6.832,3.781,11.594c-2.07,0.504-3.906,1.602-5.344,3.094C18.605,41.594,17.41,41,16,41
	c-1.699,0-3.125,0.828-4.219,1.969C10.973,42.41,10.055,42,9,42c-1.594,0-2.902,0.863-3.813,2.031C5.117,44.027,5.082,44,5,44
	c-2.75,0-5,2.25-5,5c-0.004,0.359,0.184,0.695,0.496,0.879c0.313,0.18,0.695,0.18,1.008,0C1.816,49.695,2.004,49.359,2,49
	c0-1.668,1.332-3,3-3c0.07,0,0.207,0.004,0.406,0.031c0.402,0.051,0.801-0.145,1-0.5C6.922,44.609,7.871,44,9,44
	c0.844,0,1.609,0.348,2.156,0.906c0.211,0.207,0.508,0.313,0.801,0.281c0.297-0.031,0.566-0.191,0.73-0.438
	C13.406,43.688,14.613,43,16,43c1.195,0,2.258,0.535,3,1.375c0.195,0.211,0.469,0.328,0.758,0.324
	c0.285-0.008,0.559-0.137,0.742-0.355c1.652-2.035,4.172-3.344,7-3.344c1.582,0,3.051,0.406,4.344,1.125
	c0.352,0.191,0.781,0.152,1.094-0.094C33.785,41.379,34.848,41,36,41c2.348,0,4.297,1.617,4.844,3.781
	c0.074,0.293,0.273,0.535,0.547,0.664c0.273,0.125,0.59,0.125,0.859-0.008C42.797,45.168,43.379,45,44,45c2.219,0,4,1.781,4,4
	c-0.004,0.359,0.184,0.695,0.496,0.879c0.313,0.18,0.695,0.18,1.008,0c0.313-0.184,0.5-0.52,0.496-0.879C50,45.699,47.301,43,44,43z
	 M32.031,26.063c0.043-0.254,0.145-0.434,0.563-0.656S33.766,25,34.781,25c2.199,0,3.691,0.691,4.844,1.625
	c0.922,0.75,1.566,1.672,2.094,2.563c-0.242,0.223-0.492,0.398-0.75,0.656c-0.523,0.527-1.109,1.105-1.75,1.625
	c-1.281,1.035-2.688,1.773-4.563,1.438c-0.012,0-0.02,0-0.031,0c-1.363-0.242-1.926-1-2.188-1.875
	c-0.219-0.73-0.023-1.477,0.094-1.75c1.535-0.242,3.457-0.199,5.875,0.188c0.367,0.09,0.75-0.035,0.996-0.32
	s0.309-0.688,0.164-1.035s-0.473-0.586-0.848-0.613c-2.441-0.391-4.547-0.465-6.313-0.219c-0.035,0.004-0.059,0.027-0.094,0.031
	C32.055,26.969,31.938,26.637,32.031,26.063z M19.969,23.938c-2.965-2.137-6.953-3.559-12.094-4.156
	c-0.105-0.016-0.207-0.016-0.313,0c-0.551,0.016-0.984,0.48-0.969,1.031s0.48,0.984,1.031,0.969
	c5.066,0.586,8.75,1.973,11.406,3.969c0.184,0.605,0.059,1.621-0.688,2.625c-0.836,1.125-2.359,2.168-4.688,2.5
	c-1.969,0.281-3.328-0.121-4.469-0.906s-2.051-1.992-2.844-3.375s-1.438-2.91-2.156-4.25c-0.414-0.773-0.906-1.461-1.438-2.063
	c3.031-1.656,5.793-2.813,7.938-3.125c0.855-0.125,1.641-0.168,2.375-0.156c5.148,0.074,7.406,3.16,7.656,4.906
	C20.875,22.984,20.543,23.605,19.969,23.938z M26.281,9.813c-0.074,0.012-0.148,0.035-0.219,0.063
	c-0.719,0.277-1.176,0.219-1.813-0.625c-0.16-0.211-0.313-0.773-0.156-1.563s0.609-1.754,1.344-2.656
	c2.164-2.664,6.965-2.902,9.5-2.938c-0.02,3.145-0.18,7.789-3.219,10.188c-1.156,0.91-2.25,0.809-3.125,0.344
	c-0.414-0.219-0.711-0.52-0.906-0.813c0.195-0.66,0.422-1.297,0.688-1.875c0.953-2.066,2.379-3.59,4.594-4.531
	c0.527-0.172,0.813-0.738,0.641-1.266S32.871,3.328,32.344,3.5c-0.055,0.016-0.105,0.039-0.156,0.063
	c-2.676,1.137-4.508,3.148-5.625,5.563C26.461,9.348,26.371,9.582,26.281,9.813z"/>
</svg>
