<?xml version="1.0" encoding="utf-8"?>
<!-- Generator: Adobe Illustrator 17.0.0, SVG Export Plug-In . SVG Version: 6.00 Build 0)  -->
<!DOCTYPE svg PUBLIC "-//W3C//DTD SVG 1.1//EN" "http://www.w3.org/Graphics/SVG/1.1/DTD/svg11.dtd">
<svg version="1.1" id="Layer_1" xmlns="http://www.w3.org/2000/svg" xmlns:xlink="http://www.w3.org/1999/xlink" x="0px" y="0px"
	 width="25px" height="25px" viewBox="0 0 25 25" enable-background="new 0 0 25 25" xml:space="preserve">
<path d="M4.646,1.87C4.432,1.569,4.497,1.152,4.792,0.93c0,0,0.001-0.001,0.001-0.001c0.296-0.212,0.707-0.145,0.92,0.151l0.7,0.98
	c0.215,0.297,0.15,0.713-0.146,0.93C6.156,3.075,6.02,3.121,5.88,3.12C5.669,3.122,5.47,3.021,5.346,2.85L4.646,1.87z M2.418,15.03
	l-0.005,0c-0.1-0.342-0.459-0.539-0.801-0.439c-0.01,0.003-0.019,0.006-0.029,0.009L0.45,14.97c-0.348,0.116-0.538,0.491-0.424,0.84
	c0.083,0.277,0.338,0.468,0.627,0.47c0.07,0.001,0.14-0.012,0.205-0.04l1.132-0.37c0.35-0.113,0.542-0.489,0.428-0.839
	C2.418,15.031,2.418,15.03,2.418,15.03z M19.115,3.13c0.213-0.002,0.412-0.106,0.534-0.28l0.7-0.98
	c0.214-0.298,0.148-0.714-0.149-0.93h0.003c-0.288-0.214-0.695-0.154-0.909,0.134c-0.004,0.005-0.008,0.011-0.012,0.016l-0.7,0.97
	C18.368,2.361,18.433,2.778,18.728,3C18.839,3.085,18.975,3.131,19.115,3.13z M19.943,19.56c0.108,0.627-0.146,1.261-0.656,1.64
	c-0.505,0.379-1.185,0.426-1.737,0.12l-4.892-2.61c-0.096-0.05-0.211-0.05-0.307,0l-4.893,2.61c-0.553,0.298-1.229,0.252-1.736-0.12
	c-0.511-0.379-0.765-1.013-0.656-1.64L6,14.03c0.017-0.11-0.02-0.222-0.1-0.3L1.942,9.82C1.49,9.371,1.329,8.706,1.525,8.1
	C1.712,7.495,2.23,7.052,2.856,6.96l5.47-0.81c0.109-0.012,0.203-0.081,0.248-0.18l2.447-5.03c0.161-0.336,0.433-0.607,0.769-0.769
	c0.817-0.392,1.796-0.048,2.188,0.769l2.446,5.03c0.045,0.099,0.139,0.168,0.248,0.18l5.47,0.81c0.626,0.092,1.144,0.535,1.331,1.14
	c0.197,0.606,0.036,1.271-0.417,1.72l-3.961,3.91c-0.078,0.079-0.113,0.191-0.095,0.3L19.943,19.56z M18.638,19.79l-0.935-5.54H17.7
	c-0.089-0.541,0.089-1.093,0.477-1.48l3.958-3.91c0.093-0.091,0.125-0.227,0.084-0.35c-0.035-0.121-0.141-0.208-0.266-0.22
	l-5.47-0.81c-0.541-0.081-1.007-0.426-1.242-0.92l-2.446-5.03c-0.032-0.071-0.089-0.128-0.16-0.16
	c-0.163-0.075-0.356-0.003-0.431,0.16L9.757,6.56c-0.235,0.494-0.7,0.839-1.241,0.92l-5.47,0.81C2.921,8.302,2.815,8.389,2.78,8.51
	C2.739,8.633,2.771,8.769,2.863,8.86l3.958,3.91c0.389,0.387,0.565,0.939,0.474,1.48l-0.934,5.54
	c-0.025,0.123,0.027,0.249,0.131,0.32c0.098,0.082,0.236,0.094,0.347,0.03l4.893-2.61c0.48-0.253,1.054-0.253,1.534,0l4.893,2.61
	c0.11,0.065,0.25,0.053,0.347-0.03C18.61,20.04,18.662,19.914,18.638,19.79z M24.543,14.97h-0.005l-1.132-0.37
	c-0.343-0.113-0.713,0.073-0.826,0.415c-0.002,0.005-0.003,0.01-0.005,0.015c-0.115,0.349,0.075,0.724,0.423,0.84l1.133,0.37
	c0.063,0.027,0.131,0.041,0.2,0.04c0.29-0.002,0.544-0.193,0.627-0.47C25.073,15.464,24.888,15.089,24.543,14.97z M12.5,22.46
	h-0.006c-0.367,0.003-0.662,0.303-0.659,0.67v1.21c-0.014,0.364,0.269,0.671,0.633,0.686c0.364,0.014,0.671-0.269,0.686-0.633
	c0.001-0.017,0.001-0.035,0-0.052v-1.21C13.157,22.765,12.865,22.466,12.5,22.46z"/>
</svg>
