<?xml version="1.0" encoding="utf-8"?>
<!-- Generator: Adobe Illustrator 17.0.0, SVG Export Plug-In . SVG Version: 6.00 Build 0)  -->
<!DOCTYPE svg PUBLIC "-//W3C//DTD SVG 1.1//EN" "http://www.w3.org/Graphics/SVG/1.1/DTD/svg11.dtd">
<svg version="1.1" id="Layer_1" xmlns="http://www.w3.org/2000/svg" xmlns:xlink="http://www.w3.org/1999/xlink" x="0px" y="0px"
	 width="50px" height="50px" viewBox="0 0 50 50" enable-background="new 0 0 50 50" xml:space="preserve">
<path d="M42.846,11.768L38.23,7.152l2.006-2.006l4.615,4.615L42.846,11.768z M28.707,29.293l-1.777-1.777
	C26.975,27.348,26.999,27.174,27,27c0-1.105-0.895-2-2-2c-0.175,0-0.349,0.023-0.518,0.068l-8.775-8.775
	c-0.188-0.194-0.447-0.303-0.717-0.303c-0.552,0-1,0.448-1,1c0,0.27,0.109,0.528,0.303,0.716l8.777,8.777
	C23.025,26.652,23.001,26.826,23,27c0,1.105,0.895,2,2,2c0.175,0,0.349-0.023,0.518-0.068l1.775,1.775
	c0.383,0.398,1.016,0.411,1.414,0.029c0.398-0.383,0.411-1.016,0.029-1.414C28.726,29.312,28.717,29.302,28.707,29.293z M46,27
	c0,11.586-9.414,21-21,21S4,38.586,4,27C4,16.089,12.35,7.107,23,6.098V5h-2V2h8v3h-2v1.098C37.65,7.107,46,16.089,46,27z M44,27
	c0-10.505-8.495-19-19-19S6,16.495,6,27s8.495,19,19,19S44,37.505,44,27z"/>
</svg>
