<?xml version="1.0" encoding="utf-8"?>
<!-- Generator: Adobe Illustrator 17.0.0, SVG Export Plug-In . SVG Version: 6.00 Build 0)  -->
<!DOCTYPE svg PUBLIC "-//W3C//DTD SVG 1.1//EN" "http://www.w3.org/Graphics/SVG/1.1/DTD/svg11.dtd">
<svg version="1.1" id="Layer_1" xmlns="http://www.w3.org/2000/svg" xmlns:xlink="http://www.w3.org/1999/xlink" x="0px" y="0px"
	 width="25px" height="25px" viewBox="0 0 25 25" enable-background="new 0 0 25 25" xml:space="preserve">
<path d="M6.654,3.34v2.64c3.754,1.48,7.93,1.48,11.684,0V3.34c-0.001-0.013-0.001-0.027,0-0.04c0.011-0.231,0.207-0.408,0.438-0.397
	c0.231,0.011,0.408,0.207,0.397,0.438v2.91c0,0.16-0.089,0.307-0.231,0.38c-4.125,1.72-8.767,1.72-12.892,0
	C5.908,6.557,5.819,6.41,5.819,6.25V3.34c0-0.231,0.187-0.419,0.418-0.42h0.004C6.47,2.924,6.654,3.111,6.654,3.34z M11.093,11.617
	c0.247-0.083,0.435-0.274,0.516-0.522C11.4,11.229,11.225,11.407,11.093,11.617z M2.483,1.723c-0.03-0.226,0.13-0.433,0.356-0.463
	l9.6-1.25c0.035-0.01,0.073-0.01,0.108,0l9.6,1.25c0.022,0.002,0.042,0.009,0.061,0.02c0.023,0.002,0.044,0.009,0.064,0.02
	c0.027,0.012,0.052,0.029,0.074,0.05c0.019,0.009,0.036,0.023,0.049,0.04c0.023,0.023,0.042,0.05,0.055,0.08
	c0.009,0.01,0.022,0.03,0.029,0.04c0.02,0.051,0.031,0.105,0.031,0.16v1.92c0.479,0.497,0.773,1.143,0.835,1.83
	c-0.036,0.636-0.543,1.143-1.179,1.179c-0.69,0.039-1.282-0.489-1.321-1.179c0.062-0.687,0.356-1.332,0.834-1.83V2.14l-9.126,1.19
	c-0.035,0.013-0.073,0.013-0.108,0l-9.6-1.25h0.004C2.659,2.06,2.508,1.912,2.483,1.723z M21.667,4.571
	c-0.232,0.237-0.228,0.617,0.009,0.849c-0.001,0.013-0.001,0.027,0,0.04c0.011,0.231,0.207,0.408,0.438,0.397
	c0.231-0.011,0.408-0.207,0.397-0.438l0.004,0c0.003-0.003,0.006-0.006,0.009-0.01c0.232-0.237,0.228-0.617-0.009-0.848
	C22.278,4.33,21.898,4.335,21.667,4.571z M6.124,1.67l6.372,0.83l6.372-0.83l-6.372-0.83L6.124,1.67z M25.009,24.504
	c-0.001-0.005-0.002-0.01-0.003-0.014h-0.004l-0.426-1.7c-0.214-0.64-1.481-2.71-8.742-2.77v-0.43
	c0.001-0.23-0.184-0.418-0.414-0.42c-0.23-0.001-0.418,0.184-0.42,0.414c0,0.002,0,0.003,0,0.005v0.84
	c-0.001,0.003-0.001,0.007,0,0.01c-0.006,1.383-1.131,2.5-2.514,2.494c-1.383-0.006-2.5-1.131-2.494-2.514v-0.83
	c0.001-0.23-0.184-0.418-0.414-0.42c-0.23-0.001-0.418,0.184-0.42,0.414c0,0.002,0,0.003,0,0.005v0.42
	c-5.408,0.04-8.115,0.9-8.751,2.81l-0.417,1.67c-0.047,0.226,0.099,0.446,0.324,0.493c0.213,0.044,0.424-0.083,0.485-0.293
	l0.408-1.64c0.485-1.45,3.1-2.17,7.978-2.21c0.237,1.829,1.912,3.12,3.741,2.883c1.497-0.194,2.678-1.368,2.881-2.863
	c5.719,0.04,7.708,1.39,7.968,2.16l0.418,1.67c0.046,0.183,0.211,0.311,0.4,0.31c0.034,0.002,0.067-0.002,0.1-0.01
	C24.915,24.943,25.056,24.726,25.009,24.504z M13.385,11.088c0.082,0.255,0.276,0.45,0.531,0.532
	C13.782,11.404,13.601,11.223,13.385,11.088z M4.985,9.59v1.66c0.001,0.57,0.387,1.067,0.939,1.21c0.223,0.66,0.84,2.44,1.191,3.15
	c1.263,2.972,4.697,4.357,7.668,3.094c1.393-0.592,2.502-1.701,3.094-3.094c0.351-0.71,0.968-2.49,1.191-3.15
	c0.552-0.143,0.938-0.64,0.939-1.21V9.59c0.002-0.531-0.333-1.005-0.834-1.18V7.92c0.011-0.231-0.167-0.427-0.397-0.438
	c-0.231-0.011-0.427,0.167-0.438,0.397c-0.001,0.013-0.001,0.027,0,0.04v0.83c0,0.231,0.186,0.418,0.417,0.42
	c0.231,0.001,0.418,0.189,0.418,0.42v1.66c0,0.231-0.187,0.419-0.418,0.42c-0.18,0.002-0.339,0.119-0.395,0.29
	c-0.009,0.02-0.831,2.48-1.23,3.27c-0.064,0.13-1.588,3.11-4.634,3.11s-4.571-2.98-4.634-3.11c-0.4-0.79-1.221-3.25-1.23-3.27
	c-0.056-0.171-0.215-0.288-0.395-0.29c-0.231-0.001-0.418-0.189-0.418-0.42V9.59c0-0.231,0.187-0.419,0.418-0.42
	c0.231-0.002,0.417-0.189,0.417-0.42V7.92c0.011-0.231-0.167-0.427-0.397-0.438C6.026,7.471,5.83,7.649,5.819,7.88
	c-0.001,0.013-0.001,0.027,0,0.04v0.49h0C5.318,8.586,4.983,9.059,4.985,9.59z M13.462,15.12h-0.004c-0.579,0.4-1.344,0.4-1.923,0
	c-0.16-0.159-0.419-0.158-0.578,0.002c-0.003,0.003-0.005,0.005-0.008,0.008c-0.163,0.163-0.163,0.427,0,0.59c0,0,0,0,0,0
	c0.91,0.707,2.184,0.707,3.094,0c0.16-0.164,0.16-0.426,0-0.59C13.881,14.976,13.629,14.972,13.462,15.12z M15,12.5
	c0.831-0.002,1.534-0.616,1.646-1.44l1.525-1.14c0.185-0.138,0.223-0.4,0.085-0.585c-0.138-0.185-0.4-0.223-0.585-0.085l-1.063,0.8
	c-0.161-0.522-0.643-0.879-1.19-0.88h-1.669c-0.039,0.69-0.63,1.218-1.321,1.179c-0.636-0.036-1.143-0.544-1.179-1.179H9.58
	c-0.547,0.001-1.029,0.358-1.19,0.88l-1.063-0.8C7.14,9.115,6.88,9.155,6.742,9.34C6.605,9.522,6.641,9.781,6.824,9.918
	c0.001,0,0.001,0.001,0.002,0.002l1.525,1.14C8.463,11.885,9.168,12.5,10,12.5h0.835c0-0.325,0.097-0.626,0.258-0.883
	c-0.084,0.028-0.17,0.053-0.264,0.053c-0.001,0-0.001,0-0.002,0H10c-0.459,0.002-0.832-0.369-0.834-0.828c0-0.001,0-0.001,0-0.002
	v-0.42c0-0.231,0.186-0.418,0.417-0.42h1.669c0.231,0.002,0.417,0.189,0.417,0.42v0.42h-0.008c0,0.091-0.025,0.174-0.052,0.255
	c0.259-0.165,0.565-0.264,0.895-0.264c0.325,0,0.625,0.097,0.881,0.257c-0.025-0.08-0.05-0.16-0.05-0.248h-0.004v-0.42
	c0-0.231,0.186-0.418,0.417-0.42h1.669c0.231,0.002,0.417,0.189,0.417,0.42v0.42c-0.001,0.459-0.373,0.831-0.832,0.83
	c-0.001,0-0.001,0-0.002,0h-0.835c-0.088,0-0.169-0.025-0.248-0.05c0.16,0.256,0.256,0.556,0.256,0.88H15z"/>
</svg>
