<?xml version="1.0" encoding="utf-8"?>
<!-- Generator: Adobe Illustrator 17.0.0, SVG Export Plug-In . SVG Version: 6.00 Build 0)  -->
<!DOCTYPE svg PUBLIC "-//W3C//DTD SVG 1.1//EN" "http://www.w3.org/Graphics/SVG/1.1/DTD/svg11.dtd">
<svg version="1.1" id="Layer_1" xmlns="http://www.w3.org/2000/svg" xmlns:xlink="http://www.w3.org/1999/xlink" x="0px" y="0px"
	 width="100px" height="100px" viewBox="0 0 100 100" enable-background="new 0 0 100 100" xml:space="preserve">
<path d="M72.828,68L80,60.828l16.586,16.586c0.5,0.523,1.25,0.734,1.945,0.547c0.703-0.18,1.25-0.727,1.43-1.43
	c0.188-0.695-0.023-1.445-0.547-1.945l-18-18c-0.383-0.383-0.906-0.594-1.445-0.586c-0.523,0.008-1.016,0.219-1.383,0.586L70,65.172
	l-18-18V30.727l16.734-6.594c0.75-0.297,1.242-1.008,1.266-1.805c0.023-0.805-0.438-1.539-1.164-1.875l-18-8.266
	c-0.242-0.117-0.508-0.18-0.773-0.188c-0.539-0.016-1.063,0.188-1.453,0.563S48,13.461,48,14v15.055
	c-0.031,0.211-0.031,0.43,0,0.641v17.477l-18,18l-8.586-8.586c-0.383-0.383-0.906-0.594-1.445-0.586
	c-0.523,0.008-1.016,0.219-1.383,0.586l-18,18c-0.523,0.5-0.734,1.25-0.547,1.945c0.18,0.703,0.727,1.25,1.43,1.43
	c0.695,0.188,1.445-0.023,1.945-0.547L20,60.828L27.172,68L0.586,94.586c-0.523,0.5-0.734,1.25-0.547,1.945
	c0.18,0.703,0.727,1.25,1.43,1.43c0.695,0.188,1.445-0.023,1.945-0.547l21.758-21.758l-0.07,0.133l9.109,4.555L42,74.5l8,6l8-6
	l7.789,5.844l9.109-4.555l-0.07-0.133l21.758,21.758c0.5,0.523,1.25,0.734,1.945,0.547c0.703-0.18,1.25-0.727,1.43-1.43
	c0.188-0.695-0.023-1.445-0.547-1.945L72.828,68z M52,17.125l10.906,5L52,26.43V17.125z M66.211,75.656L58,69.5l-8,6l-8-6
	l-8.211,6.156l-5.75-2.875l3.086-3.086c0.234-0.148,0.43-0.344,0.586-0.57L50,50.828l18.305,18.297
	c0.148,0.234,0.344,0.43,0.57,0.586l3.086,3.07L66.211,75.656z"/>
</svg>
