<?xml version="1.0" encoding="utf-8"?>
<!-- Generator: Adobe Illustrator 17.0.0, SVG Export Plug-In . SVG Version: 6.00 Build 0)  -->
<!DOCTYPE svg PUBLIC "-//W3C//DTD SVG 1.1//EN" "http://www.w3.org/Graphics/SVG/1.1/DTD/svg11.dtd">
<svg version="1.1" id="Layer_1" xmlns="http://www.w3.org/2000/svg" xmlns:xlink="http://www.w3.org/1999/xlink" x="0px" y="0px"
	 width="50px" height="50px" viewBox="0 0 50 50" enable-background="new 0 0 50 50" xml:space="preserve">
<path d="M42,22v-4C41.6,9.2,36.7,4.2,28.4,4l-2-2H26C13.3,2,8.4,10.2,8,18v6.7c-0.7,0.8-1,1.8-1,3.1c0,2.3,1.5,4.2,3.7,4.7
	C13.3,39.3,17.6,48,25,48c4,0,7.1-2.6,9.5-6c-0.2,0-0.4,0-0.6,0h-2c-2.2,2.7-4.5,4-7,4c-4.8,0-8.9-4.8-12.7-14.8L12,30.6l-0.6-0.1
	c-1.3,0-2.4-1.2-2.4-2.7c0-0.588,0.094-1.078,0.265-1.467l3.306,1.571C12.707,27.968,12.854,28,13,28
	c0.186,0,0.372-0.052,0.534-0.154C13.824,27.662,14,27.343,14,27v-7.075c2.728-0.257,10.582-1.328,14.877-5.344
	c2.323,3.025,5.67,4.566,7.123,5.126V27c0,0.347,0.18,0.668,0.475,0.851c0.294,0.184,0.662,0.197,0.973,0.044L39,27.118v3.318
	c-0.162,0.036-0.33,0.064-0.5,0.064l-0.6,0.1l-0.2,0.6c-1,2.6-2,4.8-3,6.7c1.2-0.2,2.3-0.7,3.1-1.6c0.6-1.3,1.1-2.6,1.6-3.8
	c0.2-0.05,0.4-0.125,0.6-0.212V33c0,3.364-2.636,6-6,6h-4.184c-0.414-1.161-1.514-2-2.816-2h-2c-1.654,0-3,1.346-3,3s1.346,3,3,3h2
	c1.302,0,2.402-0.839,2.816-2H34c4.486,0,8-3.514,8-8v-1c1.654,0,3-1.346,3-3v-4C45,23.346,43.654,22,42,22z M27,41h-2
	c-0.551,0-1-0.448-1-1s0.449-1,1-1h2c0.552,0,1,0.448,1,1S27.552,41,27,41z M38,25.382V19c0-0.44-0.289-0.829-0.71-0.957
	c-0.049-0.015-4.978-1.557-7.438-5.566c-0.169-0.274-0.459-0.451-0.78-0.475c-0.334-0.022-0.635,0.11-0.841,0.357
	c-4.165,4.998-15.173,5.636-15.284,5.642C12.417,18.029,12,18.468,12,19v6.418L9.9,24.42V18C10.5,7.9,18.3,4.1,25.6,4l2,2H28
	c10,0,11.8,7.5,12,12v4c-0.553,0-1,0.448-1,1v1.882L38,25.382z M43,29c0,0.552-0.448,1-1,1h-1v-6h1c0.552,0,1,0.449,1,1V29z"/>
</svg>
