<?xml version="1.0" encoding="utf-8"?>
<!-- Generator: Adobe Illustrator 17.0.0, SVG Export Plug-In . SVG Version: 6.00 Build 0)  -->
<!DOCTYPE svg PUBLIC "-//W3C//DTD SVG 1.1//EN" "http://www.w3.org/Graphics/SVG/1.1/DTD/svg11.dtd">
<svg version="1.1" id="Layer_1" xmlns="http://www.w3.org/2000/svg" xmlns:xlink="http://www.w3.org/1999/xlink" x="0px" y="0px"
	 width="100px" height="100px" viewBox="0 0 100 100" enable-background="new 0 0 100 100" xml:space="preserve">
<path d="M26,50h-4c0-15.438,12.563-28,28-28c8.234,0,15.68,3.516,20.813,9.188L76,26v14H62l5.938-5.938
	C63.547,29.125,57.148,26,50,26C36.719,26,26,36.719,26,50z M96,50c0,25.383-20.617,46-46,46S4,75.383,4,50S24.617,4,50,4
	S96,24.617,96,50z M92,50C92,26.781,73.219,8,50,8S8,26.781,8,50s18.781,42,42,42S92,73.219,92,50z M50,74
	c-7.164,0-13.547-3.102-17.938-8.063L38,60H24v14l5.25-5.25C34.367,74.43,41.766,78,50,78c15.438,0,28-12.563,28-28h-4
	C74,63.281,63.281,74,50,74z"/>
</svg>
