<?xml version="1.0" encoding="utf-8"?>
<!-- Generator: Adobe Illustrator 17.0.0, SVG Export Plug-In . SVG Version: 6.00 Build 0)  -->
<!DOCTYPE svg PUBLIC "-//W3C//DTD SVG 1.1//EN" "http://www.w3.org/Graphics/SVG/1.1/DTD/svg11.dtd">
<svg version="1.1" id="Слой_1" xmlns="http://www.w3.org/2000/svg" xmlns:xlink="http://www.w3.org/1999/xlink" x="0px" y="0px"
	 width="595.28px" height="841.89px" viewBox="0 0 595.28 841.89" enable-background="new 0 0 595.28 841.89" xml:space="preserve">
<path d="M540.292,420.794h-43.328c-6.875-90.86-78.871-162.884-169.759-169.759v-43.328c0-8.523-5.683-14.207-14.207-14.207
	c-8.522,0-14.206,5.682-14.206,14.207v43.328c-90.858,6.875-162.882,78.87-169.759,169.759H85.706
	c-8.524,0-14.206,5.683-14.206,14.205s5.682,14.207,14.206,14.207h43.329c6.875,90.86,78.871,162.884,169.759,169.759v43.328
	c0,8.523,5.682,14.207,14.206,14.207c8.522,0,14.207-5.682,14.207-14.207v-43.328c90.859-6.875,162.883-78.87,169.759-169.759
	h43.327c8.523,0,14.207-5.683,14.207-14.207C554.497,426.477,548.815,420.794,540.292,420.794z M426.648,449.207h41.878
	c-6.934,74.068-67.252,134.387-141.321,141.317v-41.878c0-8.522-5.683-14.207-14.207-14.207c-8.522,0-14.206,5.682-14.206,14.207
	v41.878c-74.069-6.933-134.388-67.251-141.32-141.32h41.878c8.523,0,14.207-5.683,14.207-14.206c0-8.523-5.682-14.207-14.207-14.207
	h-41.876c6.933-74.069,67.25-134.388,141.32-141.32v41.878c0,8.523,5.682,14.207,14.206,14.207c8.522,0,14.207-5.682,14.207-14.207
	v-41.875c74.068,6.933,134.387,67.251,141.319,141.32h-41.878c-8.523,0-14.206,5.683-14.206,14.207
	C412.442,443.523,418.124,449.207,426.648,449.207z"/>
</svg>
