<?xml version="1.0" encoding="utf-8"?>
<!-- Generator: Adobe Illustrator 17.0.0, SVG Export Plug-In . SVG Version: 6.00 Build 0)  -->
<!DOCTYPE svg PUBLIC "-//W3C//DTD SVG 1.1//EN" "http://www.w3.org/Graphics/SVG/1.1/DTD/svg11.dtd">
<svg version="1.1" id="Layer_1" xmlns="http://www.w3.org/2000/svg" xmlns:xlink="http://www.w3.org/1999/xlink" x="0px" y="0px"
	 width="612px" height="792px" viewBox="0 0 612 792" enable-background="new 0 0 612 792" xml:space="preserve">
<path d="M543.956,385.628c-1.571,3.14-4.737,4.957-8.025,4.957c-1.347,0-2.715-0.304-4.002-0.948
	c-14.175-7.087-43.428-8.638-53.503-8.64c-4.951,0-8.965-4.014-8.965-8.965s4.014-8.965,8.965-8.965
	c1.652,0,40.697,0.121,61.522,10.532C544.375,375.815,546.171,381.2,543.956,385.628z M612,537.512v74.162
	c0,4.951-4.014,8.965-8.965,8.965s-8.965-4.014-8.965-8.965v-74.162c0-8.79-5.904-16.616-14.354-19.031l-37.026-10.579
	c-1.336-0.381-2.606-0.9-3.814-1.514l-22.73,22.73v82.555c0,4.951-4.014,8.965-8.965,8.965c-4.951,0-8.965-4.014-8.965-8.965
	v-82.555l-22.889-22.889c-3.06,1.5-6.108,2.374-8.342,3.012l-2.215,0.632c8.307,8.646,13.26,20.336,13.26,32.801v68.999
	c0,4.951-4.014,8.965-8.965,8.965s-8.965-4.014-8.965-8.965v-68.999c0-12.307-7.772-23.402-19.338-27.608l-58.153-21.146
	l-24.21,36.314c-3.095,4.643-8.054,7.62-13.607,8.17c-0.618,0.061-1.235,0.091-1.848,0.091c-4.9,0-9.591-1.928-13.097-5.435
	l-14.769-14.769v93.383c0,4.951-4.014,8.965-8.965,8.965s-8.965-4.014-8.965-8.965V518.29l-14.769,14.769
	c-3.507,3.506-8.199,5.434-13.097,5.434c-0.614,0-1.23-0.03-1.849-0.091c-5.552-0.55-10.512-3.527-13.606-8.17l-24.209-36.315
	l-58.154,21.146c-11.567,4.206-19.338,15.301-19.338,27.608v68.999c0,4.951-4.014,8.965-8.965,8.965
	c-4.951,0-8.965-4.014-8.965-8.965v-68.999c0-9.04,2.611-17.67,7.21-25.03l-9.768-4.884l-10.42,9.902
	c-7.284,6.922-16.636,10.385-25.985,10.385c-9.351,0-18.698-3.46-25.985-10.385l-10.421-9.903l-29.958,14.978
	c-6.748,3.374-10.94,10.158-10.94,17.703v66.231c0,4.951-4.014,8.965-8.965,8.965S0,616.62,0,611.669v-66.231
	c0-14.378,7.989-27.306,20.851-33.741l24.058-12.028c-25.834-11.236-33.985-26.988-34.377-27.772c-1.262-2.523-1.262-5.495,0-8.018
	c6.462-12.926,7.246-36.616,7.875-55.651c0.209-6.339,0.408-12.326,0.786-17.658c3.055-43.001,35.746-75.428,76.04-75.428
	s72.983,32.428,76.04,75.428c0.379,5.331,0.577,11.318,0.787,17.656c0.629,19.037,1.412,42.729,7.875,55.655
	c1.262,2.523,1.262,5.495,0,8.018c-0.392,0.784-8.56,16.568-34.343,27.791l8.661,4.331c3.372-2.385,7.086-4.353,11.083-5.807
	l55.158-20.056c-0.188-2.466,0.644-4.974,2.443-6.863l16.7-17.545v-30.146c-23.441-19.904-38.342-50.096-38.342-83.607v-20.238
	c-6.361-13.843-9.585-28.491-9.585-43.578v-19.172c0-47.226,38.421-85.648,85.648-85.648h134.197c4.951,0,8.965,4.014,8.965,8.965
	v95.852c0,15.086-3.224,29.735-9.585,43.578v23.521c0,28.863-12.082,56.743-33.15,76.489c-1.687,1.58-3.427,3.074-5.192,4.529
	v29.453l16.7,17.545c1.799,1.89,2.631,4.398,2.443,6.864l52.26,19.003l18.066-5.161c7.403-2.116,7.403-2.943,7.403-4.94
	l-0.002-12.952c-17.321-12.529-28.757-33.35-28.757-56.556v-14.643l-4.591-9.182c-3.267-6.534-4.994-13.85-4.994-21.156v-0.534
	c0-31.37,25.522-56.892,56.892-56.892h86.269c4.951,0,8.965,4.014,8.965,8.965v46.199c0,8.786-2.076,17.584-6.005,25.443
	l-3.58,7.159v17.054c0,18.135-7.168,35.079-20.185,47.711c-2.686,2.607-5.559,4.943-8.572,7.03v12.358
	c0,1.663,1.116,3.142,2.715,3.599l37.025,10.579C600.75,505.84,612,520.756,612,537.512z M57.512,474.658
	c-10.437-7.22-18.717-17.339-23.661-29.193c-1.075,7.737-2.662,15.067-5.11,21.467c3.591,4.393,12.002,12.437,28.771,18.471V474.658
	z M117.205,501.743c-1.408-2.637-2.18-5.626-2.18-8.758l0.001-9.548c-6.265,1.944-12.909,3.003-19.791,3.003
	c-6.89,0-13.538-1.054-19.792-3.009v9.555c0,3.131-0.773,6.119-2.18,8.755l8.337,7.922c7.644,7.265,19.622,7.266,27.269,0.001
	L117.205,501.743z M143.188,427.499c-14.503-31.935-51.793-36.272-63.384-36.838l-13.459,13.958
	c-3.437,3.563-9.112,3.667-12.676,0.231c-3.564-3.437-3.667-9.112-0.231-12.676l16.175-16.775c1.629-1.69,3.857-2.673,6.205-2.738
	c0.653-0.017,16.118-0.374,34.099,5.403c19.463,6.254,34.527,17.328,44.28,32.356c-0.018-0.533-0.036-1.07-0.054-1.599
	c-0.203-6.163-0.397-11.984-0.751-16.977c-1.145-16.108-7.582-30.951-18.125-41.798c-10.638-10.944-24.854-16.971-40.032-16.971
	c-15.178,0-29.395,6.027-40.032,16.971c-10.543,10.846-16.979,25.69-18.125,41.798c-0.355,4.994-0.547,10.816-0.747,16.981
	c-0.026,0.764-0.051,1.536-0.078,2.307c0.479-0.08,0.969-0.131,1.471-0.131c4.951,0,8.965,4.014,8.965,8.965
	c0,26.769,21.777,48.548,48.548,48.548C119.311,468.51,139.538,451.032,143.188,427.499z M161.727,466.933
	c-2.443-6.385-4.029-13.698-5.104-21.418c-4.947,11.944-13.239,22.044-23.668,29.224l-0.001,10.692
	C149.706,479.401,158.157,471.284,161.727,466.933z M300.313,429.98c21.236,1.376,41.571-4.75,58.172-17.355
	c0.051-0.037,0.102-0.076,0.154-0.112c2.374-1.811,4.67-3.754,6.883-5.827c17.722-16.611,27.481-39.13,27.481-63.408v-25.526
	c0-1.349,0.305-2.682,0.892-3.898c5.769-11.946,8.694-24.621,8.694-37.674v-86.89H277.357c-37.339,0-67.718,30.378-67.718,67.718
	v19.17c0,13.053,2.925,25.728,8.694,37.674c0.587,1.216,0.892,2.548,0.892,3.898v22.242
	C219.224,387.51,254.842,427.036,300.313,429.98z M292.133,497.946l-42.296-28.911l-8.972,9.427l27.881,41.822
	c0.049,0.074,0.164,0.245,0.455,0.274c0.293,0.031,0.438-0.116,0.5-0.178L292.133,497.946z M354.661,452.599v-16.376
	c-14.816,7.778-31.314,11.875-48.456,11.875c-2.342,0-4.69-0.075-7.054-0.228c-14.959-0.968-29.025-5.215-41.586-12.006v16.734
	l48.548,33.184L354.661,452.599z M371.363,478.465l-8.973-9.427l-42.296,28.912l22.432,22.432c0.063,0.061,0.207,0.215,0.5,0.178
	c0.292-0.029,0.406-0.2,0.455-0.274L371.363,478.465z M527.62,492.284c-0.423-1.684-0.648-3.437-0.648-5.225v-3.61
	c-6.321,1.962-12.962,2.99-19.766,2.99c-0.688,0-1.373-0.01-2.064-0.031c-6.157-0.184-12.107-1.284-17.753-3.136l0.001,3.783
	c0.001,1.947-0.2,3.713-0.555,5.325l20.344,20.343L527.62,492.284z M555.729,419.961v-19.17c0-1.393,0.324-2.764,0.947-4.009
	l4.525-9.051c2.691-5.383,4.113-11.408,4.113-17.425v-37.234H488.01c-21.483,0-38.962,17.478-38.962,38.962v0.534
	c0,4.537,1.072,9.08,3.101,13.138l5.538,11.076c0.623,1.244,0.947,2.617,0.947,4.009v16.759c0,27.307,21.106,50.158,47.049,50.936
	c13.252,0.409,25.804-4.461,35.306-13.682C550.494,445.579,555.729,433.205,555.729,419.961z M564.693,545.192
	c-4.951,0-8.965,4.014-8.965,8.965v57.512c0,4.951,4.014,8.965,8.965,8.965s8.965-4.014,8.965-8.965v-57.512
	C573.658,549.207,569.644,545.192,564.693,545.192z M47.307,557.042c-4.951,0-8.965,4.014-8.965,8.965v45.662
	c0,4.951,4.014,8.965,8.965,8.965s8.965-4.014,8.965-8.965v-45.662C56.272,561.057,52.258,557.042,47.307,557.042z M247.98,274.697
	c0-0.305,0.201-0.565,0.469-0.606c11.555-1.742,34.485-4.429,58.242-2.845c27.956,1.861,48.205,8.879,60.183,20.858
	c3.501,3.501,9.178,3.501,12.677,0c3.501-3.501,3.501-9.178,0-12.677c-33.906-33.906-104.847-27.424-133.776-23.064
	c-9.112,1.373-15.724,9.084-15.724,18.335v20.653c0,4.951,4.014,8.965,8.965,8.965s8.965-4.014,8.965-8.965V274.697z
	 M200.674,564.363c-4.951,0-8.965,4.014-8.965,8.965v38.342c0,4.951,4.014,8.965,8.965,8.965s8.965-4.014,8.965-8.965v-38.342
	C209.639,568.378,205.625,564.363,200.674,564.363z M411.553,564.363c-4.951,0-8.965,4.014-8.965,8.965v38.342
	c0,4.951,4.014,8.965,8.965,8.965s8.965-4.014,8.965-8.965v-38.342C420.518,568.378,416.504,564.363,411.553,564.363z"/>
</svg>
