<?xml version="1.0" encoding="utf-8"?>
<!-- Generator: Adobe Illustrator 17.0.0, SVG Export Plug-In . SVG Version: 6.00 Build 0)  -->
<!DOCTYPE svg PUBLIC "-//W3C//DTD SVG 1.1//EN" "http://www.w3.org/Graphics/SVG/1.1/DTD/svg11.dtd">
<svg version="1.1" id="Layer_1" xmlns="http://www.w3.org/2000/svg" xmlns:xlink="http://www.w3.org/1999/xlink" x="0px" y="0px"
	 width="100px" height="100px" viewBox="0 0 100 100" enable-background="new 0 0 100 100" xml:space="preserve">
<path d="M85.691,23.535l-9.23-9.23l4.012-4.012l9.23,9.23L85.691,23.535z M57.414,58.586l-3.555-3.555
	C53.951,54.695,53.998,54.348,54,54c0-2.209-1.791-4-4-4c-0.35,0-0.698,0.046-1.035,0.137L31.414,32.586
	c-0.377-0.387-0.894-0.605-1.434-0.605c-1.105,0-2,0.896-2,2.001c0,0.54,0.218,1.056,0.605,1.433l17.555,17.555
	C46.049,53.305,46.002,53.652,46,54c0,2.209,1.791,4,4,4c0.35,0,0.698-0.046,1.035-0.137l3.551,3.551
	c0.765,0.797,2.031,0.823,2.828,0.057c0.797-0.765,0.823-2.031,0.058-2.828C57.453,58.624,57.434,58.605,57.414,58.586z M92,54
	c0,23.172-18.828,42-42,42C26.828,96,8,77.172,8,54c0-21.822,16.701-39.785,38-41.805V10h-4V4h16v6h-4v2.195
	C75.299,14.215,92,32.178,92,54z M88,54c0-21.01-16.99-38-38-38S12,32.99,12,54s16.99,38,38,38S88,75.01,88,54z"/>
</svg>
