<?xml version="1.0" encoding="utf-8"?>
<!-- Generator: Adobe Illustrator 17.0.0, SVG Export Plug-In . SVG Version: 6.00 Build 0)  -->
<!DOCTYPE svg PUBLIC "-//W3C//DTD SVG 1.1//EN" "http://www.w3.org/Graphics/SVG/1.1/DTD/svg11.dtd">
<svg version="1.1" id="Layer_1" xmlns="http://www.w3.org/2000/svg" xmlns:xlink="http://www.w3.org/1999/xlink" x="0px" y="0px"
	 width="25px" height="25px" viewBox="0 0 25 25" enable-background="new 0 0 25 25" xml:space="preserve">
<path d="M6.153,13.62c0.072,0.038,0.126,0.102,0.153,0.179c0.058,0.169-0.031,0.353-0.2,0.411c-0.136,0.073-0.287,0.11-0.441,0.11
	c-0.173,0.002-0.343-0.046-0.489-0.14c-0.297-0.212-0.58-0.442-0.848-0.69c-0.204-0.19-0.125-0.45,0.175-0.57
	c0.302-0.13,0.651-0.088,0.914,0.11H5.413C5.649,13.24,5.896,13.437,6.153,13.62z M7.465,5.62h0.006
	C7.8,5.469,8.137,5.335,8.48,5.22C8.8,5.11,8.92,4.86,8.749,4.65C8.504,4.438,8.164,4.373,7.858,4.48
	c-0.4,0.14-0.794,0.3-1.164,0.47C6.516,4.984,6.399,5.157,6.433,5.335C6.448,5.412,6.49,5.481,6.551,5.53
	c0.153,0.116,0.34,0.176,0.532,0.17C7.214,5.698,7.344,5.671,7.465,5.62z M9.024,14.95H9.03c-0.361-0.11-0.715-0.23-1.052-0.36
	c-0.304-0.12-0.649-0.071-0.907,0.13c-0.193,0.2-0.1,0.45,0.208,0.58c0.39,0.15,0.8,0.29,1.215,0.41
	c0.088,0.02,0.178,0.03,0.268,0.03c0.226,0.014,0.446-0.074,0.6-0.24C9.505,15.29,9.356,15.04,9.024,14.95z M3.251,9.813
	c0.007-0.001,0.013-0.002,0.02-0.003h0.068c0.276,0.037,0.543-0.114,0.653-0.37c0.04-0.256,0.107-0.508,0.2-0.75
	c0.088-0.22-0.126-0.45-0.48-0.5c-0.303-0.08-0.624,0.04-0.8,0.3C2.803,8.767,2.723,9.056,2.676,9.35
	C2.707,9.637,2.965,9.844,3.251,9.813z M4.189,7.45h0.006C4.301,7.487,4.412,7.504,4.524,7.5c0.209,0.01,0.413-0.061,0.57-0.2
	C5.3,7.073,5.523,6.863,5.761,6.67c0.224-0.18,0.173-0.44-0.113-0.59C5.347,5.943,4.997,5.974,4.724,6.16
	C4.45,6.381,4.193,6.622,3.955,6.88C3.767,7.08,3.874,7.33,4.189,7.45z M10.567,4.71h0.004c0.046,0.002,0.093-0.002,0.138-0.01
	c0.386-0.05,0.784-0.09,1.181-0.11c0.288,0.048,0.561-0.146,0.609-0.434c0-0.002,0.001-0.004,0.001-0.005
	c-0.111-0.28-0.404-0.443-0.7-0.39c-0.458,0.02-0.916,0.06-1.362,0.12c-0.356,0.05-0.581,0.27-0.506,0.5
	C10.063,4.603,10.31,4.731,10.567,4.71z M4.367,11.67h0.004c-0.124-0.232-0.221-0.476-0.289-0.73
	c-0.153-0.267-0.462-0.405-0.763-0.34c-0.264-0.029-0.502,0.162-0.53,0.426c-0.002,0.021-0.003,0.043-0.003,0.064
	c0.082,0.291,0.194,0.572,0.334,0.84c0.143,0.2,0.381,0.31,0.626,0.29c0.067-0.002,0.134-0.009,0.2-0.02
	C4.29,12.13,4.48,11.89,4.367,11.67z M20.421,7.95h0.006c0.151,0.178,0.377,0.275,0.61,0.26c0.084,0,0.167-0.01,0.248-0.03
	c0.336-0.09,0.5-0.33,0.361-0.54c-0.18-0.277-0.384-0.538-0.609-0.78c-0.249-0.213-0.595-0.271-0.9-0.15
	c-0.314,0.11-0.421,0.37-0.237,0.57C20.093,7.487,20.268,7.712,20.421,7.95z M22.311,9.32h0.006
	c-0.129-0.273-0.428-0.422-0.724-0.36c-0.281-0.041-0.542,0.154-0.582,0.435C21.01,9.4,21.01,9.405,21.009,9.41
	c0.033,0.195,0.05,0.392,0.05,0.59c0,0.05,0,0.11,0,0.17c0.068,0.288,0.346,0.475,0.638,0.43h0.02
	c0.291,0.047,0.571-0.128,0.657-0.41c0-0.06,0-0.13,0-0.19C22.372,9.772,22.351,9.544,22.311,9.32z M21.472,11.38h0.006
	c-0.305-0.086-0.632,0.021-0.828,0.27c-0.125,0.247-0.273,0.482-0.444,0.7c-0.159,0.21-0.023,0.46,0.3,0.56
	c0.093,0.028,0.19,0.042,0.287,0.04c0.222,0.015,0.439-0.069,0.592-0.23c0.195-0.254,0.366-0.525,0.513-0.81
	C22.007,11.69,21.818,11.45,21.472,11.38z M25,10c0,2.47-1.8,4.68-4.605,6.13v8.45c-0.035,0.205-0.2,0.363-0.406,0.39
	C19.906,24.99,19.822,25,19.737,25c-0.164,0.001-0.325-0.044-0.465-0.13L12.5,20.59l-6.772,4.28c-0.217,0.124-0.474,0.16-0.717,0.1
	c-0.206-0.027-0.371-0.185-0.406-0.39v-8.45C1.8,14.68,0,12.48,0,10s1.796-4.68,4.605-6.14V0.41C4.686,0.124,4.971-0.053,5.263,0
	h14.474c0.292-0.053,0.577,0.124,0.658,0.41v3.45C23.2,5.32,25,7.52,25,10z M5.933,3.27C6.561,3.023,7.205,2.815,7.86,2.65
	c0.129-0.04,0.258-0.07,0.388-0.1c0.022,0,0.044-0.01,0.066-0.01l0.281-0.06L8.74,2.45c0.071-0.018,0.144-0.032,0.217-0.04
	c0.091-0.022,0.182-0.039,0.275-0.05c0.062-0.01,0.123-0.03,0.185-0.04l0.2-0.03C9.67,2.28,9.719,2.28,9.77,2.27l0.21-0.03
	c0.062-0.01,0.125-0.01,0.188-0.02c0.104-0.01,0.209-0.03,0.314-0.04c0.062-0.002,0.124-0.008,0.185-0.02
	c0.062,0,0.111,0,0.186-0.01c0.075-0.01,0.15-0.01,0.226-0.02c0.045,0,0.097-0.01,0.145-0.01c0.12-0.01,0.241-0.01,0.361-0.02h0.129
	c0.092-0.008,0.185-0.012,0.278-0.01c0.04-0.008,0.081-0.012,0.122-0.01h0.783c0.041-0.002,0.083,0.002,0.123,0.01
	c0.092-0.002,0.185,0.002,0.277,0.01h0.129c0.121,0.01,0.241,0.01,0.361,0.02c0.046,0,0.097,0.01,0.146,0.01
	c0.075,0.01,0.164,0.02,0.226,0.02s0.124,0.01,0.185,0.01c0.061,0.012,0.124,0.018,0.186,0.02c0.105,0.01,0.214,0.03,0.314,0.04
	c0.063,0.01,0.125,0.01,0.188,0.02l0.209,0.03c0.054,0.01,0.103,0.01,0.154,0.02l0.2,0.03c0.062,0.01,0.123,0.03,0.185,0.04
	c0.092,0.012,0.184,0.029,0.275,0.05c0.073,0.009,0.146,0.022,0.217,0.04l0.145,0.03l0.281,0.06c0.022,0,0.044,0.01,0.066,0.01
	c0.13,0.03,0.259,0.06,0.387,0.1c0.655,0.165,1.299,0.372,1.928,0.62V0.83H5.933V3.27z M19.069,16.73
	c-0.629,0.244-1.273,0.448-1.928,0.61c-0.128,0.04-0.258,0.07-0.388,0.1c-0.022,0-0.044,0.01-0.066,0.01
	c-0.092,0.028-0.186,0.052-0.281,0.07c-0.048,0.012-0.096,0.018-0.145,0.02c-0.072,0.02-0.144,0.03-0.217,0.05
	c-0.092,0.012-0.184,0.029-0.275,0.05l-0.185,0.03l-0.2,0.03c-0.054,0.01-0.102,0.01-0.154,0.02l-0.209,0.03
	c-0.062,0.012-0.125,0.018-0.188,0.02c-0.104,0.02-0.209,0.03-0.314,0.04c-0.062,0.01-0.123,0.02-0.185,0.02s-0.124,0.01-0.186,0.01
	c-0.075,0.012-0.15,0.018-0.226,0.02c-0.046,0-0.097,0.01-0.146,0.01c-0.119,0.01-0.24,0.02-0.36,0.02
	c-0.044-0.002-0.087,0.002-0.13,0.01c-0.092-0.002-0.185,0.002-0.277,0.01h-1.028c-0.092-0.008-0.185-0.012-0.277-0.01
	c-0.043-0.008-0.086-0.012-0.13-0.01c-0.12,0-0.241-0.01-0.361-0.02c-0.045,0-0.097-0.01-0.145-0.01
	c-0.076-0.002-0.151-0.008-0.226-0.02c-0.062,0-0.124,0-0.186-0.01s-0.123-0.01-0.185-0.02c-0.105-0.01-0.214-0.02-0.314-0.04
	c-0.063-0.002-0.126-0.008-0.188-0.02l-0.21-0.03c-0.053-0.01-0.102-0.01-0.153-0.02l-0.2-0.03l-0.185-0.03
	c-0.091-0.021-0.183-0.038-0.275-0.05c-0.073-0.02-0.145-0.03-0.217-0.05c-0.049-0.002-0.098-0.008-0.145-0.02
	c-0.095-0.018-0.189-0.042-0.281-0.07c-0.022,0-0.044-0.01-0.067-0.01c-0.129-0.03-0.259-0.06-0.387-0.1
	c-0.655-0.162-1.299-0.366-1.928-0.61v6.84l6.114-3.87c0.289-0.16,0.641-0.16,0.93,0l6.104,3.864V16.73z M23.68,10
	c0-2.26-1.677-4.27-4.277-5.57L19.33,4.4c-1.006-0.488-2.067-0.854-3.16-1.09c-0.023-0.011-0.047-0.018-0.072-0.02
	c-0.028-0.01-0.056-0.01-0.084-0.02L15.84,3.24c-0.019-0.01-0.038-0.01-0.057-0.02c-0.071-0.009-0.142-0.022-0.211-0.04h-0.033
	c-0.44-0.08-0.884-0.14-1.34-0.19l-0.823-0.06h-0.052c-0.07,0.002-0.141-0.002-0.211-0.01h-0.272c-0.025,0-0.05-0.01-0.075-0.01
	h-0.532c-0.025,0-0.051,0.01-0.076,0.01h-0.272c-0.07,0.008-0.14,0.012-0.21,0.01h-0.052L10.8,2.99C10.344,3.04,9.897,3.1,9.46,3.18
	H9.427c-0.069,0.018-0.139,0.031-0.21,0.04C9.198,3.23,9.178,3.23,9.159,3.24L8.985,3.27C8.957,3.28,8.929,3.28,8.902,3.29
	C8.877,3.292,8.853,3.299,8.83,3.31C7.737,3.546,6.675,3.911,5.669,4.4L5.596,4.43C2.994,5.73,1.319,7.75,1.319,10
	s1.676,4.26,4.276,5.56l0.074,0.03c1.006,0.492,2.067,0.861,3.161,1.1c0.024,0,0.045,0,0.072,0.01c0.027,0.01,0.055,0.01,0.083,0.02
	c0.059,0.009,0.117,0.022,0.174,0.04c0.02-0.002,0.04,0.002,0.058,0.01c0.071,0.009,0.141,0.022,0.21,0.04H9.46
	c0.44,0.08,0.884,0.14,1.34,0.19l0.82,0.06h0.052c0.07,0,0.14,0.01,0.21,0.01h0.076c0.07,0,0.135,0.01,0.2,0.01h0.683
	c0.07,0,0.135-0.01,0.2-0.01h0.076c0.071,0,0.141-0.01,0.211-0.01h0.052L14.203,17c0.456-0.05,0.904-0.11,1.34-0.19h0.033
	c0.069-0.018,0.14-0.031,0.211-0.04c0.018-0.008,0.037-0.012,0.057-0.01c0.057-0.018,0.115-0.031,0.174-0.04
	c0.028-0.01,0.06-0.02,0.084-0.02s0.048-0.01,0.072-0.01c1.094-0.239,2.154-0.608,3.16-1.1l0.074-0.03
	C22.01,14.27,23.68,12.26,23.68,10z M19.8,13.57h0.008c-0.295-0.153-0.648-0.138-0.929,0.04c-0.275,0.189-0.561,0.363-0.856,0.52
	c-0.172,0.052-0.27,0.234-0.219,0.406c0.023,0.077,0.073,0.142,0.141,0.184c0.147,0.102,0.322,0.154,0.5,0.15
	c0.147-0.001,0.292-0.036,0.424-0.1c0.342-0.182,0.671-0.386,0.987-0.61c0.156-0.088,0.211-0.285,0.124-0.441
	C19.941,13.648,19.877,13.595,19.8,13.57z M15.63,4.93h0.006c0.24,0.016,0.473-0.089,0.619-0.28c0.124-0.22-0.053-0.45-0.394-0.53
	c-0.431-0.1-0.876-0.18-1.325-0.24c-0.301-0.072-0.615,0.057-0.779,0.32c-0.075,0.23,0.152,0.45,0.508,0.49
	c0.389,0.06,0.775,0.13,1.147,0.21C15.483,4.919,15.556,4.929,15.63,4.93z M18.879,6.21h0.006c0.168,0.005,0.333-0.04,0.475-0.13
	c0.161-0.076,0.229-0.268,0.153-0.429c-0.035-0.073-0.096-0.131-0.172-0.161c-0.34-0.207-0.693-0.394-1.055-0.56
	c-0.302-0.132-0.652-0.094-0.919,0.1c-0.213,0.18-0.147,0.44,0.147,0.58c0.313,0.144,0.618,0.305,0.915,0.48
	C18.565,6.17,18.721,6.211,18.879,6.21z M13.348,6.68c-0.257-0.053-0.525,0.009-0.732,0.17l-2.631,2.5
	c-0.2,0.19-0.12,0.45,0.182,0.58c0.304,0.122,0.65,0.077,0.913-0.12l1.426-1.35v4.45c0.168,0.363,0.599,0.522,0.962,0.354
	c0.156-0.072,0.281-0.198,0.354-0.354V7.08C13.776,6.853,13.58,6.688,13.348,6.68z M13.354,6.68c-0.002,0-0.004,0-0.006,0
	c0,0,0,0,0,0H13.354z M12.5,15.41h0.006c-0.397,0.003-0.794-0.013-1.19-0.05c-0.301-0.063-0.606,0.085-0.743,0.36
	c0.019,0.279,0.26,0.491,0.54,0.472c0.007,0,0.014-0.001,0.021-0.002c0.451,0.04,0.913,0.06,1.372,0.06h0.037
	c0.29,0.05,0.57-0.134,0.639-0.42C13.093,15.538,12.801,15.358,12.5,15.41z M16.007,14.94h0.006c-0.363,0.1-0.738,0.19-1.119,0.26
	c-0.348,0.06-0.549,0.29-0.447,0.51c0.136,0.213,0.379,0.333,0.631,0.31c0.062-0.002,0.123-0.008,0.184-0.02
	c0.439-0.08,0.874-0.18,1.291-0.3c0.331-0.1,0.479-0.35,0.329-0.55C16.659,14.911,16.314,14.828,16.007,14.94z"/>
</svg>
