<?xml version="1.0" encoding="utf-8"?>
<!-- Generator: Adobe Illustrator 17.0.0, SVG Export Plug-In . SVG Version: 6.00 Build 0)  -->
<!DOCTYPE svg PUBLIC "-//W3C//DTD SVG 1.1//EN" "http://www.w3.org/Graphics/SVG/1.1/DTD/svg11.dtd">
<svg version="1.1" id="Layer_1" xmlns="http://www.w3.org/2000/svg" xmlns:xlink="http://www.w3.org/1999/xlink" x="0px" y="0px"
	 width="612px" height="792px" viewBox="0 0 612 792" enable-background="new 0 0 612 792" xml:space="preserve">
<path d="M318.752,141.268v-38.521c0-7.042-5.705-12.747-12.747-12.747c-7.042,0-12.747,5.705-12.747,12.747v38.521
	C130.171,147.954,0.005,282.269,0.005,447.007v2.764c21.852-27.791,55.769-45.608,93.842-45.608
	c46.188,0,86.24,26.223,106.084,64.621c17.986-34.814,52.594-59.616,93.328-63.949v233.422c0,35.206,28.538,63.744,63.744,63.744
	s63.744-28.538,63.744-63.744c0-7.06-5.697-12.756-12.737-12.756s-12.756,5.697-12.756,12.756c0,21.087-17.164,38.25-38.25,38.25
	s-38.25-17.164-38.25-38.25V404.835c40.734,4.333,75.342,29.136,93.328,63.949c19.835-38.399,59.896-64.621,106.084-64.621
	c38.082,0,71.981,17.817,93.832,45.608v-2.764C611.996,282.269,481.837,147.954,318.752,141.268z M518.164,378.659
	c-27.081,0-53.49,7.527-76.388,21.758c-10.983,6.826-20.955,15.063-29.696,24.457c-8.74-9.394-18.714-17.631-29.696-24.457
	c-22.897-14.231-49.307-21.758-76.378-21.758c-27.071,0-53.481,7.527-76.378,21.758c-10.991,6.826-20.965,15.063-29.696,24.457
	c-8.732-9.394-18.714-17.631-29.696-24.457c-22.897-14.231-49.316-21.758-76.388-21.758c-22.16,0-43.414,4.875-63.202,14.484
	c3.679-18.929,9.32-37.41,16.893-55.32c14.129-33.395,34.356-63.398,60.121-89.163c25.773-25.773,55.769-46,89.173-60.13
	c34.56-14.614,71.296-22.029,109.174-22.029c37.868,0,74.624,7.415,109.175,22.03c33.395,14.129,63.389,34.356,89.163,60.13
	c25.773,25.765,46,55.769,60.139,89.163c7.564,17.911,13.205,36.391,16.884,55.32C561.57,383.534,540.315,378.659,518.164,378.659z"
	/>
</svg>
