<?xml version="1.0" encoding="utf-8"?>
<!-- Generator: Adobe Illustrator 17.0.0, SVG Export Plug-In . SVG Version: 6.00 Build 0)  -->
<!DOCTYPE svg PUBLIC "-//W3C//DTD SVG 1.1//EN" "http://www.w3.org/Graphics/SVG/1.1/DTD/svg11.dtd">
<svg version="1.1" id="Layer_1" xmlns="http://www.w3.org/2000/svg" xmlns:xlink="http://www.w3.org/1999/xlink" x="0px" y="0px"
	 width="100px" height="100px" viewBox="0 0 100 100" enable-background="new 0 0 100 100" xml:space="preserve">
<path d="M90.375,40.813l-28.75-38L60,0.688l-1.625,2.125l-28.75,38L27.188,44h20.625c-0.508,24.68-9.289,37.594-18.063,44.375
	C20.711,95.359,11.875,96,11.875,96l0.063,4h0.188h0.063c0.391,0.016,14.891,0.453,29.688-6.438
	c14.641-6.813,29.297-21.289,30-49.563h20.938L90.375,40.813z M68,40v2c0,28.336-13.875,41.422-27.875,47.938
	c-4.063,1.891-7.961,3.102-11.688,4c1.273-0.773,2.523-1.375,3.813-2.375C42.211,83.859,52,69.102,52,42v-2H35.25L60,7.313L84.75,40
	H68z"/>
</svg>
