<?xml version="1.0" encoding="UTF-8"?>
<svg xmlns="http://www.w3.org/2000/svg" xmlns:xlink="http://www.w3.org/1999/xlink" viewBox="0 0 50 50" version="1.1" width="100px" height="100px">
<g id="surface1">
<path style=" " d="M 30 0.34375 L 29.1875 1.40625 L 14.8125 20.40625 L 13.59375 22 L 23.90625 22 C 23.652344 34.339844 19.261719 40.796875 14.875 44.1875 C 10.355469 47.679688 5.9375 48 5.9375 48 L 5.96875 50 C 5.96875 50 6.0625 50 6.0625 50 C 6.0625 50 6.09375 50 6.09375 50 C 6.289063 50.007813 13.539063 50.226563 20.9375 46.78125 C 28.257813 43.375 35.585938 36.136719 35.9375 22 L 46.40625 22 L 45.1875 20.40625 L 30.8125 1.40625 Z M 30 3.65625 L 42.375 20 L 34 20 L 34 21 C 34 35.167969 27.0625 41.710938 20.0625 44.96875 C 18.03125 45.914063 16.082031 46.519531 14.21875 46.96875 C 14.855469 46.582031 15.480469 46.28125 16.125 45.78125 C 21.105469 41.929688 26 34.550781 26 21 L 26 20 L 17.625 20 Z "/>
</g>
</svg>
