<?xml version="1.0" encoding="utf-8"?>
<!-- Generator: Adobe Illustrator 17.0.0, SVG Export Plug-In . SVG Version: 6.00 Build 0)  -->
<!DOCTYPE svg PUBLIC "-//W3C//DTD SVG 1.1//EN" "http://www.w3.org/Graphics/SVG/1.1/DTD/svg11.dtd">
<svg version="1.1" id="Layer_1" xmlns="http://www.w3.org/2000/svg" xmlns:xlink="http://www.w3.org/1999/xlink" x="0px" y="0px"
	 width="50px" height="50px" viewBox="0 0 50 50" enable-background="new 0 0 50 50" xml:space="preserve">
<path d="M38,39c-0.555,0-1-0.445-1-1v-7.156c1.723-0.445,3-1.98,3-3.844c0-0.539-0.086-1.086-0.281-1.594l8.813-4.188
	c0.023-0.02,0.043-0.039,0.063-0.063c1.152-0.66,1.641-2.043,1.125-3.25c0-0.012,0-0.02,0-0.031L44.313,6.469
	c-0.008-0.02-0.02-0.043-0.031-0.063c-0.328-0.578-0.855-0.988-1.438-1.188c-0.293-0.102-0.594-0.164-0.906-0.156
	S41.301,5.152,41,5.281c-0.012,0-0.02,0-0.031,0l-31.594,15c-0.023,0.02-0.043,0.039-0.063,0.063
	c-1.152,0.66-1.641,2.043-1.125,3.25c0,0.012,0,0.02,0,0.031l0.594,1.219l-6.938-0.25c-0.012,0-0.02,0-0.031,0
	c-0.582,0-1.086,0.277-1.406,0.688s-0.48,1.07-0.188,1.656H0.188l6.125,12.781c0,0.012,0,0.02,0,0.031
	c0.277,0.559,0.879,0.844,1.406,0.844s1.031-0.23,1.375-0.688c0.012-0.012,0.02-0.02,0.031-0.031l4-5.844L13.594,35
	c0.008,0.016,0.023,0.016,0.031,0.031c0.559,1.234,1.996,1.676,3.219,1.219c0.031-0.008,0.063-0.02,0.094-0.031l15.531-7.375
	c0.512,0.988,1.43,1.746,2.531,2.031V38c0,1.645,1.355,3,3,3h12v-2H38z M7.813,38.25L2.25,26.625l7.5,0.25l2.375,5.063L7.813,38.25z
	 M16.156,34.375c-0.016,0.004-0.016-0.004-0.031,0c-0.344,0.109-0.664-0.031-0.719-0.156c0-0.012,0-0.02,0-0.031l-5.375-11.375
	c-0.082-0.191,0.004-0.609,0.25-0.75l31.5-14.938c0.047-0.02,0.117-0.035,0.188-0.031c0.207,0.012,0.457,0.129,0.563,0.313
	l5.344,11.281c0.082,0.191-0.035,0.609-0.281,0.75L16.156,34.375z M34.281,28l3.625-1.719C37.973,26.504,38,26.746,38,27
	c0,1.191-0.809,2-2,2C35.281,29,34.629,28.582,34.281,28z"/>
</svg>
