<?xml version="1.0" encoding="utf-8"?>
<!-- Generator: Adobe Illustrator 17.0.0, SVG Export Plug-In . SVG Version: 6.00 Build 0)  -->
<!DOCTYPE svg PUBLIC "-//W3C//DTD SVG 1.1//EN" "http://www.w3.org/Graphics/SVG/1.1/DTD/svg11.dtd">
<svg version="1.1" id="Layer_1" xmlns="http://www.w3.org/2000/svg" xmlns:xlink="http://www.w3.org/1999/xlink" x="0px" y="0px"
	 width="100px" height="100px" viewBox="0 0 100 100" enable-background="new 0 0 100 100" xml:space="preserve">
<path d="M50,4C24.619,4,4,24.619,4,50s20.619,46,46,46s46-20.619,46-46S75.381,4,50,4z M50,92C26.78,92,8,73.22,8,50S26.78,8,50,8
	s42,18.78,42,42S73.22,92,50,92z M73.105,49.633c1.824-2.324,3.105-4.559,3.91-6.445c0.403-0.943,0.688-1.799,0.859-2.574
	s0.308-1.42,0.055-2.34c-0.189-0.684-0.701-1.297-1.203-1.621s-0.97-0.445-1.391-0.523C74.495,35.973,73.754,36,73.063,36
	c-1.448,0-7.883,0.051-8.414,0.051c-0.623,0-1.618,0.26-2.078,0.523c-1.143,0.654-1.5,1.551-1.5,1.551l-0.109,0.191l-0.063,0.215
	c0,0-1.465,4.74-2.973,7.184h-0.004c-1.772,2.878-3.094,4.02-3.676,4.344c-0.062,0.034-0.028,0.016-0.07,0.039
	c-0.045-0.132-0.103-0.315-0.141-0.652C53.95,48.685,54,47.614,54,46.578c0-2.869,0.215-4.658-0.023-6.352
	c-0.119-0.847-0.424-1.79-1.117-2.516s-1.59-1.083-2.484-1.289h-0.004c-0.932-0.215-1.937-0.399-4.352-0.422
	c-3.076-0.029-5.079,0.067-6.859,0.859l-0.02,0.012l-0.016,0.008c-0.703,0.33-1.258,0.709-1.746,1.215
	c-0.244,0.253-0.534,0.437-0.734,1.242c-0.1,0.403-0.111,1.164,0.344,1.781s1.093,0.803,1.469,0.852
	c-0.069-0.009,0.296,0.071,0.578,0.211c0.282,0.14,0.527,0.341,0.59,0.422v0.004c-0.026-0.034,0.245,0.64,0.316,1.254
	S40,44.969,40,44.969l-0.004,0.121l0.012,0.121c0,0,0.123,1.359,0.059,2.762c-0.032,0.701-0.121,1.407-0.238,1.84
	c-0.006,0.023-0.009,0.015-0.016,0.035c-0.501-0.35-1.655-1.568-3.246-4.195c-1.47-2.43-2.848-6.801-2.848-6.801l-0.031-0.098
	l-0.035-0.094c0,0-0.257-0.976-1.391-1.773c-1.063-0.748-2.074-0.852-2.074-0.852L30.004,36l-8.07,0.004c0,0-0.462-0.026-1.02,0.047
	s-1.382,0.107-2.227,1.063l-0.004,0.004l-0.004,0.004c-0.752,0.859-0.723,1.86-0.629,2.41c0.094,0.548,0.303,0.958,0.305,0.961
	v0.004c0.078,0.19,5.937,14.548,13.324,22.262C36.89,68.203,42.463,70,47.426,70H50c0.847,0,1.603-0.039,2.441-0.473
	C53.279,69.093,54,67.895,54,66.965c0-1.002,0.025-1.974,0.152-2.516c0.119-0.506,0.073-0.382,0.121-0.383
	c0.048,0.01,0.135,0.031,0.301,0.105c0.357,0.161,0.908,0.521,1.52,0.996c1.221,0.948,2.667,2.323,4.289,3.387
	C62.706,70.094,65.227,70,65.227,70h8.313l0.09-0.008c0,0,1.276-0.029,2.586-0.832c0.655-0.402,1.434-1.138,1.695-2.242
	c0.261-1.104-0.072-2.262-0.715-3.281c-0.235-0.374-1.374-2.025-5.922-6.063c-1.175-1.042-1.976-1.78-2.293-2.172
	c-0.112-0.139-0.122-0.126-0.145-0.133c0.026-0.068,0.289-0.622,0.992-1.535C70.561,52.782,71.674,51.456,73.105,49.633z
	 M64.578,40.039c-0.011,0.006,0.001-0.005-0.016,0.004c0-0.004-0.009-0.003-0.011-0.006C64.561,40.037,64.569,40.038,64.578,40.039z
	 M29.953,40.152c0,0,0.008,0.004,0.008,0.004v0.001c-0.014-0.009-0.019-0.013-0.026-0.017l-0.044-0.133
	C29.891,40.008,29.952,40.149,29.953,40.152z M65.867,57.918c0.707,0.875,1.582,1.612,2.75,2.648c4.4,3.906,5.122,5.089,5.191,5.199
	v0.004c0.074,0.118,0.026-0.001,0.055,0.059c-0.25,0.078-0.546,0.166-0.574,0.172h-8.094h-0.012c0,0-1.489-0.049-2.594-0.781
	l-0.004-0.004h-0.004c-1.169-0.766-2.582-2.079-4.035-3.207c-0.727-0.564-1.466-1.093-2.324-1.48s-1.945-0.663-3.09-0.32
	c-1.656,0.496-2.576,2.072-2.871,3.324c-0.212,0.899-0.181,1.68-0.188,2.465C50.017,65.999,50.067,66,50,66h-2.574
	c-4.065,0-8.294-1.241-12.855-6.008c-5.93-6.193-11.221-18.169-12.016-19.988L29.539,40c0.112,0.041,0.341,0.123,0.393,0.146
	c0.011,0.011,0.025,0.024,0.029,0.03c0.055,0.188,1.276,4.395,3.184,7.547c1.737,2.869,3.021,4.477,4.422,5.438
	c1.4,0.96,3.282,0.861,4.238,0.363c1.278-0.664,1.636-1.755,1.883-2.664c0.247-0.909,0.335-1.831,0.375-2.703
	c0.076-1.664-0.054-3.025-0.066-3.16c0.002-0.075,0.02-0.725-0.082-1.602c-0.103-0.883-0.287-1.98-1.07-3.082
	c0.878-0.13,1.365-0.329,3.137-0.313c2.259,0.021,2.603,0.116,3.492,0.32c0.321,0.074,0.444,0.136,0.483,0.157
	c0.012,0.038,0.034,0.123,0.06,0.307c0.11,0.777-0.016,2.77-0.016,5.793c0,0.852-0.082,2.054,0.059,3.313
	c0.141,1.258,0.534,2.867,2.055,3.809c0.867,0.536,2.522,0.721,4.082-0.148s3.161-2.536,5.133-5.738
	c1.948-3.157,3.112-7.307,3.238-7.746c0,0,0.022-0.014,0.035-0.023c0.035,0.002-0.01,0.008,0.047,0.008
	c0.741,0,7.062-0.051,8.414-0.051c0.372,0,0.535,0.02,0.813,0.031c-0.112,0.432-0.263,0.935-0.539,1.582
	c-0.65,1.522-1.765,3.495-3.379,5.551c-1.391,1.771-2.471,3.055-3.297,4.129c-0.826,1.073-1.475,1.92-1.746,3.145
	S65.16,57.043,65.867,57.918z"/>
</svg>
