<?xml version="1.0" encoding="utf-8"?>
<!-- Generator: Adobe Illustrator 17.0.0, SVG Export Plug-In . SVG Version: 6.00 Build 0)  -->
<!DOCTYPE svg PUBLIC "-//W3C//DTD SVG 1.1//EN" "http://www.w3.org/Graphics/SVG/1.1/DTD/svg11.dtd">
<svg version="1.1" id="Layer_1" xmlns="http://www.w3.org/2000/svg" xmlns:xlink="http://www.w3.org/1999/xlink" x="0px" y="0px"
	 width="100px" height="100px" viewBox="0 0 100 100" enable-background="new 0 0 100 100" xml:space="preserve">
<path d="M50.57,23.219c0.414,0.727,0.336,1.641-0.195,2.281c0,0-4.734,6.109-9.5,14.125S31.5,57.633,31.5,64.375
	c0,9.383,4.109,14.32,8.25,17.188S48,85,48,85c0.75,0.055,1.406,0.531,1.695,1.227s0.164,1.5-0.328,2.07s-1.258,0.82-1.992,0.641
	c0,0-4.984-0.695-9.938-4.125S27.5,74.969,27.5,64.375c0-8.438,5.031-18.5,9.938-26.75s9.813-14.563,9.813-14.563
	c0.297-0.422,0.742-0.711,1.25-0.813C49.328,22.109,50.148,22.5,50.57,23.219z M85.25,64.75C85.25,84.188,69.438,100,50,100
	S14.75,84.188,14.75,64.75c0-12.078,8.563-27.617,16.938-40.563s16.75-23.125,16.75-23.125c0.289-0.352,0.68-0.594,1.125-0.688
	c0.078-0.023,0.164-0.047,0.25-0.063c0.672-0.063,1.328,0.219,1.75,0.75c0,0,8.375,10.18,16.75,23.125S85.25,52.672,85.25,64.75z
	 M81.25,64.75c0-10.078-8.078-25.711-16.313-38.438C57.953,15.516,51.961,8.055,50,5.625c-1.961,2.43-7.953,9.891-14.938,20.688
	C26.828,39.039,18.75,54.672,18.75,64.75C18.75,82.023,32.727,96,50,96S81.25,82.023,81.25,64.75z"/>
</svg>
