<?xml version="1.0" encoding="utf-8"?>
<!-- Generator: Adobe Illustrator 17.0.0, SVG Export Plug-In . SVG Version: 6.00 Build 0)  -->
<!DOCTYPE svg PUBLIC "-//W3C//DTD SVG 1.1//EN" "http://www.w3.org/Graphics/SVG/1.1/DTD/svg11.dtd">
<svg version="1.1" id="Layer_1" xmlns="http://www.w3.org/2000/svg" xmlns:xlink="http://www.w3.org/1999/xlink" x="0px" y="0px"
	 width="100px" height="100px" viewBox="0 0 100 100" enable-background="new 0 0 100 100" xml:space="preserve">
<path d="M26,46c0,13.234,10.766,24,24,24s24-10.766,24-24S63.234,22,50,22S26,32.766,26,46z M40.375,28.5
	c-0.211,0.336-0.43,0.648-0.625,1c-0.75,1.375-1.398,2.875-1.938,4.5h-3.75C35.766,31.75,37.883,29.867,40.375,28.5z M31.625,38
	c0.125,0.016,0.25,0.016,0.375,0h4.813c-0.383,1.914-0.656,3.906-0.75,6h-5.938C30.336,41.891,30.813,39.859,31.625,38z M32,54
	c-0.063,0-0.125,0-0.188,0s-0.125,0-0.188,0c-0.813-1.859-1.289-3.891-1.5-6h5.938c0.094,2.094,0.367,4.086,0.75,6H32z M34.063,58
	h3.75c0.539,1.625,1.188,3.125,1.938,4.5c0.195,0.352,0.414,0.664,0.625,1C37.883,62.133,35.766,60.25,34.063,58z M48,65.563
	c-1.68-0.727-3.344-2.359-4.75-4.938c-0.438-0.797-0.828-1.68-1.188-2.625H48V65.563z M48,54h-7.125
	c-0.422-1.867-0.703-3.891-0.813-6H48V54z M48,44h-7.938c0.109-2.109,0.391-4.133,0.813-6H48V44z M48,34h-5.938
	c0.359-0.945,0.75-1.828,1.188-2.625c1.406-2.578,3.07-4.211,4.75-4.938V34z M59.625,63.5c0.211-0.336,0.43-0.648,0.625-1
	c0.75-1.375,1.398-2.875,1.938-4.5h3.75C64.234,60.25,62.117,62.133,59.625,63.5z M68.375,54c-0.125-0.016-0.25-0.016-0.375,0
	h-4.813c0.383-1.914,0.656-3.906,0.75-6h5.938C69.664,50.109,69.188,52.141,68.375,54z M68,38c0.125-0.008,0.25-0.031,0.375-0.063
	c0.82,1.875,1.289,3.93,1.5,6.063h-5.938c-0.094-2.094-0.367-4.086-0.75-6H68z M65.938,34h-3.75c-0.539-1.625-1.188-3.125-1.938-4.5
	c-0.195-0.352-0.414-0.664-0.625-1C62.117,29.867,64.234,31.75,65.938,34z M52,26.438c1.68,0.727,3.344,2.359,4.75,4.938
	c0.438,0.797,0.828,1.68,1.188,2.625H52V26.438z M52,38h7.125c0.422,1.867,0.703,3.891,0.813,6H52V38z M52,48h7.938
	c-0.109,2.109-0.391,4.133-0.813,6H52V48z M52,58h5.938c-0.359,0.945-0.75,1.828-1.188,2.625c-1.406,2.578-3.07,4.211-4.75,4.938V58
	z M92.438,15.625c-12.898-2.758-21.117-6.523-27.25-9.688S54.914,0,50,0s-9.055,2.773-15.188,5.938s-14.352,6.93-27.25,9.688L6,16
	v1.625c0,30.664,10.742,51.109,21.5,63.813s21.688,17.75,21.688,17.75l0.875,0.438l0.875-0.438c0,0,43.063-22.203,43.063-81.563V16
	L92.438,15.625z M49.938,95.063c-1.242-0.602-9.898-4.922-19.438-16.188C20.438,66.992,10.477,47.922,10.125,19.063
	C22.313,16.258,30.734,12.57,36.688,9.5C42.961,6.266,46.711,4,50,4s7.039,2.266,13.313,5.5c5.953,3.07,14.375,6.758,26.563,9.563
	C89.172,73.391,52.508,93.703,49.938,95.063z"/>
</svg>
