<?xml version="1.0" encoding="UTF-8"?>
<svg xmlns="http://www.w3.org/2000/svg" xmlns:xlink="http://www.w3.org/1999/xlink" viewBox="0 0 50 50" version="1.1" width="100px" height="100px">
<g id="surface1">
<path style=" " d="M 25 0 C 22.542969 0 20.472656 1.386719 17.40625 2.96875 C 14.339844 4.550781 10.230469 6.433594 3.78125 7.8125 L 3 8 L 3 8.8125 C 3 24.144531 8.371094 34.367188 13.75 40.71875 C 19.128906 47.070313 24.59375 49.59375 24.59375 49.59375 L 25.03125 49.8125 L 25.46875 49.59375 C 25.46875 49.59375 47 38.492188 47 8.8125 L 47 8 L 46.21875 7.8125 C 39.769531 6.433594 35.660156 4.550781 32.59375 2.96875 C 29.527344 1.386719 27.457031 0 25 0 Z M 25 2 C 26.644531 2 28.519531 3.132813 31.65625 4.75 C 34.632813 6.285156 38.84375 8.128906 44.9375 9.53125 C 44.585938 36.695313 26.253906 46.851563 24.96875 47.53125 C 24.347656 47.230469 20.019531 45.070313 15.25 39.4375 C 10.21875 33.496094 5.238281 23.960938 5.0625 9.53125 C 11.15625 8.128906 15.367188 6.285156 18.34375 4.75 C 21.480469 3.132813 23.355469 2 25 2 Z M 25 11 C 18.382813 11 13 16.382813 13 23 C 13 29.617188 18.382813 35 25 35 C 31.617188 35 37 29.617188 37 23 C 37 16.382813 31.617188 11 25 11 Z M 24 13.21875 L 24 17 L 21.03125 17 C 21.210938 16.527344 21.40625 16.085938 21.625 15.6875 C 22.328125 14.398438 23.160156 13.582031 24 13.21875 Z M 26 13.21875 C 26.839844 13.582031 27.671875 14.398438 28.375 15.6875 C 28.59375 16.085938 28.789063 16.527344 28.96875 17 L 26 17 Z M 20.1875 14.25 C 20.082031 14.417969 19.972656 14.574219 19.875 14.75 C 19.5 15.4375 19.175781 16.1875 18.90625 17 L 17.03125 17 C 17.882813 15.875 18.941406 14.933594 20.1875 14.25 Z M 29.8125 14.25 C 31.058594 14.933594 32.117188 15.875 32.96875 17 L 31.09375 17 C 30.824219 16.1875 30.5 15.4375 30.125 14.75 C 30.027344 14.574219 29.917969 14.417969 29.8125 14.25 Z M 34.1875 18.96875 C 34.597656 19.90625 34.832031 20.933594 34.9375 22 L 31.96875 22 C 31.921875 20.953125 31.785156 19.957031 31.59375 19 L 34 19 C 34.0625 18.996094 34.125 18.984375 34.1875 18.96875 Z M 15.8125 19 C 15.875 19.007813 15.9375 19.007813 16 19 L 18.40625 19 C 18.214844 19.957031 18.078125 20.953125 18.03125 22 L 15.0625 22 C 15.167969 20.945313 15.40625 19.929688 15.8125 19 Z M 20.4375 19 L 24 19 L 24 22 L 20.03125 22 C 20.085938 20.945313 20.226563 19.933594 20.4375 19 Z M 26 19 L 29.5625 19 C 29.773438 19.933594 29.914063 20.945313 29.96875 22 L 26 22 Z M 15.0625 24 L 18.03125 24 C 18.078125 25.046875 18.214844 26.042969 18.40625 27 L 16 27 C 15.96875 27 15.9375 27 15.90625 27 C 15.875 27 15.84375 27 15.8125 27 C 15.40625 26.070313 15.167969 25.054688 15.0625 24 Z M 20.03125 24 L 24 24 L 24 27 L 20.4375 27 C 20.226563 26.066406 20.085938 25.054688 20.03125 24 Z M 26 24 L 29.96875 24 C 29.914063 25.054688 29.773438 26.066406 29.5625 27 L 26 27 Z M 31.96875 24 L 34.9375 24 C 34.832031 25.054688 34.59375 26.070313 34.1875 27 C 34.125 26.992188 34.0625 26.992188 34 27 L 31.59375 27 C 31.785156 26.042969 31.921875 25.046875 31.96875 24 Z M 17.03125 29 L 18.90625 29 C 19.175781 29.8125 19.5 30.5625 19.875 31.25 C 19.972656 31.425781 20.082031 31.582031 20.1875 31.75 C 18.941406 31.066406 17.882813 30.125 17.03125 29 Z M 21.03125 29 L 24 29 L 24 32.78125 C 23.160156 32.417969 22.328125 31.601563 21.625 30.3125 C 21.40625 29.914063 21.210938 29.472656 21.03125 29 Z M 26 29 L 28.96875 29 C 28.789063 29.472656 28.59375 29.914063 28.375 30.3125 C 27.671875 31.601563 26.839844 32.417969 26 32.78125 Z M 31.09375 29 L 32.96875 29 C 32.117188 30.125 31.058594 31.066406 29.8125 31.75 C 29.917969 31.582031 30.027344 31.425781 30.125 31.25 C 30.5 30.5625 30.824219 29.8125 31.09375 29 Z "/>
</g>
</svg>
