<?xml version="1.0" encoding="utf-8"?>
<!-- Generator: Adobe Illustrator 17.0.0, SVG Export Plug-In . SVG Version: 6.00 Build 0)  -->
<!DOCTYPE svg PUBLIC "-//W3C//DTD SVG 1.1//EN" "http://www.w3.org/Graphics/SVG/1.1/DTD/svg11.dtd">
<svg version="1.1" id="Layer_1" xmlns="http://www.w3.org/2000/svg" xmlns:xlink="http://www.w3.org/1999/xlink" x="0px" y="0px"
	 width="50px" height="50px" viewBox="0 0 50 50" enable-background="new 0 0 50 50" xml:space="preserve">
<path d="M25,31c-2.949,0-5.633,1.176-7.609,3.074l-0.719,0.691L25,43.441l0.719-0.75l7.609-7.926l-0.719-0.691
	C30.633,32.176,27.949,31,25,31z M25,40.559l-5.375-5.602C21.141,33.797,22.945,33,25,33s3.859,0.797,5.375,1.957L25,40.559z
	 M49.219,16.77C42.93,10.73,34.391,7,25,7S7.07,10.73,0.781,16.77l-0.723,0.695l5.535,5.77L6.32,22.54C11.176,17.875,17.75,15,25,15
	s13.824,2.875,18.684,7.539l0.723,0.695l5.535-5.77L49.219,16.77z M44.281,20.469C39.148,15.867,32.418,13,25,13
	c-7.418,0-14.148,2.867-19.281,7.469L2.953,17.59C8.809,12.293,16.5,9,25,9s16.191,3.293,22.047,8.59L44.281,20.469z M25,19
	c-6.168,0-11.785,2.453-15.914,6.422l-0.723,0.691l5.559,5.793l0.719-0.695C17.344,28.613,20.973,27,25,27s7.656,1.613,10.359,4.211
	l0.719,0.695l5.559-5.793l-0.719-0.691C36.785,21.453,31.168,19,25,19z M35.957,29.141C32.996,26.605,29.199,25,25,25
	s-7.996,1.605-10.957,4.141l-2.789-2.902C14.945,23.012,19.719,21,25,21s10.055,2.012,13.746,5.238L35.957,29.141z"/>
</svg>
