<?xml version="1.0" encoding="UTF-8" standalone="no"?>
<svg
   xmlns:dc="http://purl.org/dc/elements/1.1/"
   xmlns:cc="http://creativecommons.org/ns#"
   xmlns:rdf="http://www.w3.org/1999/02/22-rdf-syntax-ns#"
   xmlns:svg="http://www.w3.org/2000/svg"
   xmlns="http://www.w3.org/2000/svg"
   viewBox="0 0 1062.9875 708.66248"
   height="708.66248"
   width="1062.9875"
   xml:space="preserve"
   version="1.1"
   id="svg2"><metadata
     id="metadata8"><rdf:RDF><cc:Work
         rdf:about=""><dc:format>image/svg+xml</dc:format><dc:type
           rdf:resource="http://purl.org/dc/dcmitype/StillImage" /></cc:Work></rdf:RDF></metadata><defs
     id="defs6"><clipPath
       id="clipPath16"
       clipPathUnits="userSpaceOnUse"><path
         id="path18"
         d="m 0,566.93 850.39,0 L 850.39,0 0,0 0,566.93 Z" /></clipPath><clipPath
       id="clipPath40"
       clipPathUnits="userSpaceOnUse"><path
         id="path42"
         d="m 244.196,440.421 63.786,0 0,-51.431 -63.786,0 0,51.431 z" /></clipPath><clipPath
       id="clipPath56"
       clipPathUnits="userSpaceOnUse"><path
         id="path58"
         d="m 236.301,371.236 c -2.23,-7.963 8.219,-17.849 23.338,-22.084 l 0,0 c 15.119,-4.233 29.183,-1.212 31.413,6.749 l 0,0 c 2.23,7.963 -8.219,17.849 -23.338,22.083 l 0,0 c -4.638,1.299 -9.179,1.915 -13.307,1.915 l 0,0 c -9.33,10e-4 -16.56,-3.144 -18.106,-8.663" /></clipPath><clipPath
       id="clipPath64"
       clipPathUnits="userSpaceOnUse"><path
         id="path66"
         d="m 234.071,382.219 59.211,0 0,-37.301 -59.211,0 0,37.301 z" /></clipPath><clipPath
       id="clipPath68"
       clipPathUnits="userSpaceOnUse"><path
         id="path70"
         d="m 234.071,382.218 59.211,0 0,-37.3 -59.211,0 0,37.3 z" /></clipPath><clipPath
       id="clipPath72"
       clipPathUnits="userSpaceOnUse"><path
         id="path74"
         d="m 236.001,347.237 55.351,0 0,32.663 -55.351,0 0,-32.663 z" /></clipPath><linearGradient
       id="linearGradient76"
       spreadMethod="pad"
       gradientTransform="matrix(-8.0648775,-28.832445,-28.832445,8.0648775,267.70703,377.97754)"
       gradientUnits="userSpaceOnUse"
       y2="0"
       x2="1"
       y1="0"
       x1="0"><stop
         id="stop78"
         offset="0"
         style="stop-opacity:1;stop-color:#231f20" /><stop
         id="stop80"
         offset="0.55595027"
         style="stop-opacity:1;stop-color:#231f20" /><stop
         id="stop82"
         offset="1"
         style="stop-opacity:1;stop-color:#cccbcb" /></linearGradient><mask
       id="mask84"
       height="1"
       width="1"
       y="0"
       x="0"
       maskUnits="userSpaceOnUse"><g
         id="g86"><g
           id="g88"
           clip-path="url(#clipPath64)"><path
             id="path90"
             style="fill:#000000;fill-opacity:1;fill-rule:nonzero;stroke:none"
             d="m 234.071,382.218 59.21,0 0,-37.3 -59.21,0 0,37.3 z" /><g
             id="g92"><g
               id="g94" /><g
               id="g96"><g
                 id="g98"
                 clip-path="url(#clipPath68)"><g
                   id="g100"><g
                     id="g102"
                     clip-path="url(#clipPath72)"><g
                       id="g104"><g
                         id="g106"><path
                           id="path108"
                           style="fill:url(#linearGradient76);stroke:none"
                           d="m 236.001,347.237 55.351,0 0,32.663 -55.351,0 0,-32.663 z" /></g></g></g></g></g></g></g></g></g></mask><clipPath
       id="clipPath114"
       clipPathUnits="userSpaceOnUse"><path
         id="path116"
         d="m 234.071,382.219 59.211,0 0,-37.301 -59.211,0 0,37.301 z" /></clipPath><linearGradient
       id="linearGradient122"
       spreadMethod="pad"
       gradientTransform="matrix(-8.0853996,-28.832453,-28.832453,8.0853996,267.71796,377.9801)"
       gradientUnits="userSpaceOnUse"
       y2="0"
       x2="1"
       y1="0"
       x1="0"><stop
         id="stop124"
         offset="0"
         style="stop-opacity:1;stop-color:#ffffff" /><stop
         id="stop126"
         offset="1"
         style="stop-opacity:1;stop-color:#ffffff" /></linearGradient></defs><g
     transform="matrix(1.25,0,0,-1.25,0,708.6625)"
     id="g10"><g
       id="g12"><g
         clip-path="url(#clipPath16)"
         id="g14"><g
           transform="translate(321.979,393.8304)"
           id="g20"><path
             id="path22"
             style="fill:#ed1c24;fill-opacity:1;fill-rule:nonzero;stroke:none"
             d="m 0,0 c 0,-27.606 -22.382,-49.99 -49.99,-49.99 -27.606,0 -49.985,22.384 -49.985,49.99 0,27.608 22.379,49.988 49.985,49.988 C -22.382,49.988 0,27.608 0,0" /></g><g
           transform="translate(577.6172,166.2806)"
           id="g24"><path
             id="path26"
             style="fill:#231f20;fill-opacity:1;fill-rule:nonzero;stroke:none"
             d="m 0,0 -14.371,0 0,11.735 -3.636,0 0,-27.293 3.636,0 0,12.493 14.371,0 0,-12.493 3.628,0 0,27.293 L 0,11.735 0,0 Z m -58.834,-11.392 0,23.127 -3.628,0 0,-27.293 4.547,0 13.759,23.2 0,-23.2 3.634,0 0,27.293 -4.587,0 -13.725,-23.127 z m -45.037,20.068 9.103,0 0,-24.234 3.623,0 0,24.234 9.104,0 0,3.059 -21.83,0 0,-3.059 z m -36.906,-6.417 c -0.118,-2.582 -0.257,-4.725 -0.441,-6.426 -0.178,-1.682 -0.38,-3.078 -0.612,-4.185 -0.226,-1.113 -0.506,-1.993 -0.839,-2.641 -0.328,-0.651 -0.713,-1.103 -1.168,-1.354 -0.453,-0.262 -0.978,-0.384 -1.59,-0.384 -0.943,0 -1.714,0.074 -2.324,0.232 l 0,-3.059 c 0.355,-0.099 0.843,-0.197 1.469,-0.27 0.623,-0.072 1.131,-0.11 1.516,-0.11 1.089,0 2.042,0.246 2.845,0.746 0.801,0.49 1.486,1.224 2.037,2.192 0.569,0.966 1.024,2.152 1.36,3.559 0.354,1.396 0.622,3.022 0.825,4.859 0.152,1.517 0.28,3.365 0.38,5.519 0.103,2.153 0.152,4.735 0.152,7.739 l 10.058,0 0,-24.234 3.623,0 0,27.293 -17.121,0 c 0,-3.751 -0.054,-6.906 -0.17,-9.476 m -40.233,-6.535 0,0 4.626,12.726 0.073,0 4.552,-12.726 -9.251,0 z m 2.718,16.011 -10.628,-27.293 3.701,0 3.058,8.216 11.553,0 2.98,-8.216 4.013,0 -10.664,27.293 -4.013,0 z M -211.1,-8.413 c -0.38,-0.966 -0.906,-1.797 -1.579,-2.502 -0.673,-0.703 -1.487,-1.247 -2.435,-1.645 -0.936,-0.392 -1.994,-0.587 -3.168,-0.587 -1.634,0 -3.035,0.304 -4.198,0.918 -1.182,0.611 -2.141,1.431 -2.894,2.459 -0.752,1.039 -1.303,2.238 -1.658,3.634 -0.368,1.389 -0.538,2.863 -0.538,4.416 0,1.427 0.17,2.803 0.538,4.124 0.355,1.334 0.906,2.51 1.658,3.538 0.753,1.034 1.707,1.86 2.871,2.47 1.148,0.613 2.549,0.918 4.184,0.918 1.909,0 3.56,-0.487 4.949,-1.456 1.389,-0.966 2.283,-2.422 2.698,-4.356 l 3.623,0 c -0.195,1.451 -0.63,2.729 -1.291,3.843 -0.668,1.107 -1.499,2.032 -2.49,2.765 -0.993,0.74 -2.129,1.31 -3.403,1.689 -1.271,0.38 -2.618,0.569 -4.049,0.569 -2.117,0 -3.978,-0.373 -5.58,-1.126 -1.604,-0.753 -2.95,-1.779 -4.039,-3.078 -1.076,-1.297 -1.897,-2.826 -2.46,-4.57 -0.562,-1.744 -0.843,-3.61 -0.843,-5.598 0,-1.989 0.256,-3.848 0.784,-5.579 0.524,-1.74 1.308,-3.244 2.354,-4.517 1.046,-1.271 2.355,-2.275 3.934,-2.998 1.579,-0.728 3.426,-1.088 5.543,-1.088 3.518,0 6.277,0.955 8.279,2.85 2,1.897 3.176,4.577 3.537,8.04 l -3.636,0 c -0.066,-1.114 -0.306,-2.164 -0.691,-3.133 M -256.015,0 l -14.372,0 0,11.735 -3.629,0 0,-27.293 3.629,0 0,12.493 14.372,0 0,-12.493 3.629,0 0,27.293 -3.629,0 0,-11.735 z m -43.159,-5.983 0,0 c -0.36,-1.341 -0.911,-2.54 -1.682,-3.617 -0.76,-1.065 -1.744,-1.933 -2.937,-2.582 -1.199,-0.648 -2.632,-0.965 -4.282,-0.965 -1.666,0 -3.085,0.317 -4.284,0.965 -1.199,0.649 -2.179,1.517 -2.95,2.582 -0.758,1.077 -1.321,2.276 -1.676,3.617 -0.361,1.34 -0.538,2.697 -0.538,4.069 0,1.383 0.177,2.739 0.538,4.073 0.355,1.336 0.918,2.545 1.676,3.611 0.771,1.076 1.751,1.934 2.95,2.582 1.199,0.649 2.618,0.978 4.284,0.978 1.65,0 3.083,-0.329 4.282,-0.978 1.193,-0.648 2.177,-1.506 2.937,-2.582 0.771,-1.066 1.322,-2.275 1.682,-3.611 0.361,-1.334 0.538,-2.69 0.538,-4.073 0,-1.372 -0.177,-2.729 -0.538,-4.069 m 0.881,14.01 c -1.096,1.328 -2.46,2.38 -4.094,3.175 -1.627,0.784 -3.524,1.182 -5.688,1.182 -2.167,0 -4.069,-0.398 -5.702,-1.182 -1.629,-0.795 -3,-1.847 -4.089,-3.175 -1.101,-1.327 -1.915,-2.844 -2.465,-4.569 -0.551,-1.72 -0.826,-3.514 -0.826,-5.372 0,-1.885 0.275,-3.684 0.826,-5.386 0.55,-1.712 1.364,-3.23 2.465,-4.552 1.089,-1.321 2.46,-2.372 4.089,-3.155 1.633,-0.778 3.535,-1.163 5.702,-1.163 2.164,0 4.061,0.385 5.688,1.163 1.634,0.783 2.998,1.834 4.094,3.155 1.096,1.322 1.927,2.84 2.465,4.552 0.551,1.702 0.821,3.501 0.821,5.386 0,1.858 -0.27,3.652 -0.821,5.372 -0.538,1.725 -1.369,3.242 -2.465,4.569 m -41.208,3.708 -4.704,0 -13.84,-13.612 0,13.612 -3.629,0 0,-27.293 3.629,0 0,9.557 4.551,4.246 9.869,-13.803 4.577,0 -11.966,16.287 11.513,11.006 z m 365.878,-27.293 3.623,0 0,24.234 14.108,0 0,3.059 -17.731,0 0,-27.293 z" /></g><g
           transform="translate(507.9834,397.8587)"
           id="g28"><path
             id="path30"
             style="fill:#231f20;fill-opacity:1;fill-rule:nonzero;stroke:none"
             d="m 0,0 0,-181.293 -69.964,0 0,-23.672 183.693,0 0,23.672 -69.961,0 0,181.293 c 24.258,-4.286 46.162,-15.556 63.598,-31.686 l 27.856,0 C 108.263,1.239 67.464,22.255 21.881,22.255 c -45.584,0 -86.383,-21.016 -113.336,-53.941 l 27.854,0 C -46.182,-15.556 -24.266,-4.286 0,0" /></g><g
           transform="translate(345.8213,304.033)"
           id="g32"><path
             id="path34"
             style="fill:#231f20;fill-opacity:1;fill-rule:nonzero;stroke:none"
             d="m 0,0 c 38.53,5.824 72.197,26.778 94.862,56.642 l -26.806,0 C 45.11,33.232 13.265,18.702 -21.886,18.702 c -35.151,0 -67.009,14.53 -89.954,37.94 l -26.797,0 C -115.982,26.778 -82.303,5.824 -43.772,0 l 0,-87.467 -86.104,0 0,-23.672 215.978,0 0,23.672 L 0,-87.467 0,0 Z" /></g><g
           id="g36"><g
             id="g38" /><g
             id="g44"><g
               style="opacity:0.369995"
               id="g46"
               clip-path="url(#clipPath40)"><g
                 id="g48"
                 transform="translate(244.9302,423.4319)"><path
                   id="path50"
                   style="fill:#ffffff;fill-opacity:1;fill-rule:nonzero;stroke:none"
                   d="m 0,0 c -3.74,-13.355 7.178,-28.089 24.386,-32.909 17.209,-4.819 34.191,2.101 37.932,15.456 C 66.058,-4.098 55.14,10.636 37.931,15.456 20.723,20.275 3.74,13.355 0,0" /></g></g></g></g></g></g><g
       id="g52"><g
         clip-path="url(#clipPath56)"
         id="g54"><g
           id="g60"><g
             id="g62" /><g
             mask="url(#mask84)"
             id="g110"><g
               id="g112" /><g
               id="g128"><g
                 id="g130"
                 clip-path="url(#clipPath114)"><g
                   id="g132"><g
                     id="g134"><g
                       id="g136"><g
                         id="g138"><path
                           id="path140"
                           style="fill:url(#linearGradient122);stroke:none"
                           d="m 234.071,344.918 59.21,0 0,37.3 -59.21,0 0,-37.3 z" /></g></g></g></g></g></g></g></g></g></g></g></svg>